<svg width="28" height="29" viewBox="0 0 28 29" fill="none" xmlns="http://www.w3.org/2000/svg">
<circle cx="14" cy="14.5898" r="14" fill="#454545"/>
<path d="M12.25 12.8398V11.2066C12.25 10.5532 12.25 10.2263 12.3772 9.97673C12.489 9.7572 12.6674 9.57886 12.8869 9.467C13.1364 9.33984 13.4634 9.33984 14.1168 9.33984H17.3834C18.0368 9.33984 18.3634 9.33984 18.6129 9.467C18.8325 9.57886 19.0111 9.7572 19.123 9.97673C19.2501 10.2263 19.2501 10.553 19.2501 11.2064V14.4731C19.2501 15.1265 19.2501 15.4532 19.123 15.7027C19.0111 15.9222 18.8323 16.101 18.6128 16.2128C18.3634 16.3398 18.0373 16.3398 17.3851 16.3398H15.75M12.25 12.8398H10.6168C9.96339 12.8398 9.63645 12.8398 9.38688 12.967C9.16736 13.0789 8.98901 13.2572 8.87716 13.4767C8.75 13.7263 8.75 14.0532 8.75 14.7066V17.9733C8.75 18.6267 8.75 18.9532 8.87716 19.2028C8.98901 19.4223 9.16736 19.601 9.38688 19.7128C9.6362 19.8398 9.96275 19.8398 10.6149 19.8398H13.8854C14.5375 19.8398 14.8636 19.8398 15.1129 19.7128C15.3325 19.601 15.5111 19.4221 15.623 19.2026C15.75 18.9533 15.75 18.6271 15.75 17.975V16.3398M12.25 12.8398H13.8834C14.5368 12.8398 14.8634 12.8398 15.1129 12.967C15.3325 13.0789 15.5111 13.2572 15.623 13.4767C15.75 13.726 15.75 14.0526 15.75 14.7047L15.75 16.3398" stroke="white" stroke-width="1.3" stroke-linecap="round" stroke-linejoin="round"/>
</svg>
