<svg width="28" height="29" viewBox="0 0 28 29" fill="none" xmlns="http://www.w3.org/2000/svg">
<g id="60e1c861c44479259dbb66a5_nelson-travel-point-left.svg">
<path id="Vector" fill-rule="evenodd" clip-rule="evenodd" d="M3.17969 14.4584C4.11831 14.2942 5.06152 14.1668 6.00384 14.0396C6.63726 13.9541 7.27028 13.8685 7.90122 13.772C9.26526 13.5632 10.6391 13.4451 12.0056 13.3277C12.2115 13.31 12.4172 13.2923 12.6227 13.2744C14.1894 12.9634 15.7744 12.8486 17.3571 12.9311C18.9805 13.113 20.5732 13.6282 22.0787 14.4584V14.8531C20.5732 15.6834 18.9805 16.1985 17.3571 16.3804C15.7744 16.463 14.1894 16.3481 12.6227 16.0372C11.0532 15.8999 9.48364 15.7283 7.90122 15.5395C6.31879 15.3508 4.74924 15.1277 3.17969 14.8531V14.4584ZM18.9658 26.1942C19.2151 25.6124 19.489 25.0552 19.762 24.4999C19.8835 24.2527 20.0048 24.0059 20.1237 23.7575C20.5096 22.951 20.9471 22.1788 21.4102 21.4237C21.5787 21.149 21.7184 20.8469 21.8556 20.5498C22.0956 20.0306 22.3285 19.5267 22.6967 19.2101C23.3926 18.6369 24.1945 18.3339 25.0125 18.3349L25.1797 18.5752C25.1716 19.666 24.9208 20.7291 24.4593 21.6297C24.1987 22.217 23.7623 22.5531 23.3255 22.8896C23.1371 23.0348 22.9484 23.1801 22.7739 23.3457C22.195 23.8948 21.6032 24.4268 20.9985 24.9416C20.3939 25.4564 19.7763 25.9541 19.1202 26.4173L18.9658 26.1942ZM20.4193 3.57531C20.0289 3.23473 19.6395 2.89498 19.2232 2.58398L19.0431 2.80707C19.3905 3.66507 19.7636 4.48875 20.1495 5.29527C20.5355 6.1018 20.9472 6.89116 21.3588 7.66336C21.483 7.89619 21.5919 8.14774 21.7008 8.3992C21.953 8.98171 22.205 9.56373 22.6454 9.91132C23.3188 10.5318 24.1169 10.8667 24.9354 10.8723L25.1155 10.6492C25.1285 9.55608 24.9004 8.48196 24.4594 7.5604C24.222 7.06922 23.8442 6.75855 23.4549 6.43849C23.2322 6.25539 23.0057 6.06921 22.7997 5.8444C22.2337 5.22663 21.6805 4.64319 21.0629 4.12839C20.8451 3.9468 20.6321 3.76093 20.4193 3.57531Z" fill="white"/>
</g>
</svg>
