<svg width="16" height="17" viewBox="0 0 16 17" fill="none" xmlns="http://www.w3.org/2000/svg">
<g clip-path="url(#clip0_8549_22439)">
<path d="M15.7897 6.95867L13.5085 5.03609V2.30689C13.5086 2.23986 13.4955 2.17347 13.4699 2.11152C13.4443 2.04957 13.4068 1.99327 13.3594 1.94585C13.312 1.89842 13.2558 1.8608 13.1939 1.83513C13.1319 1.80946 13.0656 1.79624 12.9985 1.79624H11.382C11.3149 1.79616 11.2484 1.8093 11.1864 1.83494C11.1244 1.86057 11.0681 1.89818 11.0207 1.94561C10.9732 1.99305 10.9356 2.04938 10.91 2.11137C10.8844 2.17336 10.8712 2.2398 10.8713 2.30689V2.81286L8.44476 0.767626C8.32355 0.653436 8.16331 0.589844 7.99678 0.589844C7.83026 0.589844 7.67002 0.653436 7.54881 0.767626L0.210487 6.95867C0.113394 7.04906 0.0457616 7.16658 0.0163935 7.29594C-0.0129747 7.42531 -0.00271825 7.56051 0.0458277 7.68397C0.094701 7.80665 0.179294 7.91184 0.288645 7.98589C0.397997 8.05994 0.527067 8.09944 0.659132 8.09928H1.72041V15.7536C1.72041 16.1156 2.01707 16.4129 2.38038 16.4129H13.6199C13.7948 16.4125 13.9624 16.3429 14.0861 16.2192C14.2098 16.0955 14.2795 15.9278 14.2798 15.7529V8.09995H15.3411C15.4741 8.10014 15.604 8.05987 15.7135 7.9845C15.823 7.90913 15.9071 7.80222 15.9544 7.67797C16.0025 7.55553 16.0125 7.42142 15.9831 7.2932C15.9538 7.16498 15.8864 7.04795 15.7897 6.95867ZM8.49809 14.0157C8.43158 14.1062 8.34469 14.1798 8.24446 14.2305C8.14423 14.2813 8.03346 14.3077 7.92112 14.3077C7.80878 14.3077 7.69802 14.2813 7.59778 14.2305C7.49755 14.1798 7.41067 14.1062 7.34415 14.0157C6.43419 12.7631 4.7596 10.2972 4.7596 9.0319C4.76102 8.1936 5.09507 7.39014 5.68839 6.79793C6.28172 6.20573 7.08582 5.87321 7.92412 5.87338C8.76242 5.87321 9.56652 6.20573 10.1598 6.79793C10.7532 7.39014 11.0872 8.1936 11.0886 9.0319C11.0886 10.2972 9.41405 12.7631 8.49809 14.0157Z" fill="#E64827"/>
<path d="M8 10.8125C9.10457 10.8125 10 9.91707 10 8.8125C10 7.70793 9.10457 6.8125 8 6.8125C6.89543 6.8125 6 7.70793 6 8.8125C6 9.91707 6.89543 10.8125 8 10.8125Z" fill="#E64827"/>
</g>
<defs>
<clipPath id="clip0_8549_22439">
<rect width="16" height="16" fill="white" transform="translate(0 0.5)"/>
</clipPath>
</defs>
</svg>
