<svg width="16" height="17" viewBox="0 0 16 17" fill="none" xmlns="http://www.w3.org/2000/svg">
<path d="M9.33716 10.3021C8.93909 10.5674 8.47672 10.7077 8 10.7077C7.52331 10.7077 7.06094 10.5674 6.66288 10.3021L0.106531 5.93103C0.0703376 5.90683 0.0348139 5.88165 0 5.8555L0 13.0179C0 13.8391 0.666406 14.4908 1.47291 14.4908H14.5271C15.3482 14.4908 16 13.8244 16 13.0179V5.85547C15.9651 5.88168 15.9295 5.90692 15.8932 5.93116L9.33716 10.3021Z" fill="#E64827"/>
<path d="M0.626563 5.15131L7.18291 9.52238C7.43109 9.68784 7.71553 9.77056 7.99997 9.77056C8.28444 9.77056 8.56891 9.68781 8.81709 9.52238L15.3734 5.15131C15.7658 4.88991 16 4.45241 16 3.98022C16 3.16831 15.3395 2.50781 14.5276 2.50781H1.47241C0.660532 2.50784 7.75033e-07 3.16834 7.75033e-07 3.981C-0.000242619 4.21263 0.0568447 4.44071 0.166171 4.64492C0.275497 4.84912 0.433664 5.02309 0.626563 5.15131Z" fill="#E64827"/>
</svg>
