<svg width="16" height="17" viewBox="0 0 16 17" fill="none" xmlns="http://www.w3.org/2000/svg">
<g clip-path="url(#clip0_8549_22425)">
<path d="M6.6224 9.87379C5.09522 8.34661 4.7504 6.81944 4.6726 6.20758C4.66188 6.12411 4.67051 6.03929 4.69782 5.95969C4.72514 5.88009 4.7704 5.80784 4.83012 5.74854L6.06598 4.51323C6.15426 4.42501 6.21002 4.30945 6.22415 4.18544C6.23828 4.06144 6.20995 3.9363 6.14378 3.83048L4.17605 0.775027C4.1033 0.658576 3.98974 0.573436 3.85756 0.536247C3.72539 0.499058 3.58409 0.512492 3.46129 0.573924L0.302396 2.06165C0.201919 2.11112 0.118989 2.19016 0.0647445 2.28815C0.0105002 2.38613 -0.01246 2.49837 -0.00105193 2.60979C0.164465 4.1822 0.849982 8.04758 4.6486 11.8465C8.44722 15.6454 12.3121 16.3306 13.8853 16.4961C13.9967 16.5075 14.1089 16.4846 14.2069 16.4303C14.3049 16.3761 14.384 16.2932 14.4334 16.1927L15.9212 13.0338C15.9824 12.9112 15.9958 12.7703 15.9588 12.6384C15.9219 12.5065 15.8371 12.393 15.7212 12.3201L12.6657 10.353C12.5599 10.2867 12.4348 10.2583 12.3108 10.2723C12.1868 10.2863 12.0712 10.342 11.9829 10.4302L10.7476 11.6661C10.6274 11.7872 10.458 11.8454 10.2886 11.8236C9.67674 11.7458 8.14957 11.401 6.6224 9.87379Z" fill="#E64827"/>
<path d="M12.6867 9.05092C12.5404 9.05092 12.4 8.99279 12.2966 8.88932C12.1931 8.78585 12.135 8.64552 12.135 8.49919C12.1322 6.21505 10.2812 4.36402 7.99704 4.36126C7.85071 4.36126 7.71038 4.30313 7.60691 4.19966C7.50344 4.0962 7.44531 3.95586 7.44531 3.80954C7.44531 3.66321 7.50344 3.52288 7.60691 3.41941C7.71038 3.31594 7.85071 3.25781 7.99704 3.25781C10.8906 3.26112 13.2351 5.60567 13.2384 8.49919C13.2384 8.64552 13.1803 8.78585 13.0768 8.88932C12.9734 8.99279 12.833 9.05092 12.6867 9.05092Z" fill="#E64827"/>
<path d="M15.4453 9.05172C15.299 9.05172 15.1587 8.9936 15.0552 8.89013C14.9517 8.78666 14.8936 8.64633 14.8936 8.5C14.8895 4.6931 11.8039 1.60759 7.99704 1.60345C7.85071 1.60345 7.71038 1.54532 7.60691 1.44185C7.50344 1.33838 7.44531 1.19805 7.44531 1.05172C7.44531 0.905398 7.50344 0.765065 7.60691 0.661596C7.71038 0.558128 7.85071 0.5 7.99704 0.5C12.4133 0.504966 15.9921 4.08372 15.997 8.5C15.997 8.64633 15.9389 8.78666 15.8354 8.89013C15.732 8.9936 15.5916 9.05172 15.4453 9.05172Z" fill="#E64827"/>
</g>
<defs>
<clipPath id="clip0_8549_22425">
<rect width="16" height="16" fill="white" transform="translate(0 0.5)"/>
</clipPath>
</defs>
</svg>
