<svg width="16" height="17" viewBox="0 0 16 17" fill="none" xmlns="http://www.w3.org/2000/svg">
<g clip-path="url(#clip0_8549_22442)">
<circle cx="6" cy="11.5" r="4" fill="#E64827"/>
<path d="M8 0.5C6.41775 0.5 4.87103 0.969192 3.55544 1.84824C2.23985 2.72729 1.21447 3.97672 0.608967 5.43853C0.0034663 6.90034 -0.15496 8.50887 0.153721 10.0607C0.462403 11.6126 1.22433 13.038 2.34315 14.1569C3.46197 15.2757 4.88743 16.0376 6.43928 16.3463C7.99113 16.655 9.59966 16.4965 11.0615 15.891C12.5233 15.2855 13.7727 14.2602 14.6518 12.9446C15.5308 11.629 16 10.0822 16 8.5C16 6.37827 15.1571 4.34344 13.6569 2.84315C12.1566 1.34285 10.1217 0.5 8 0.5ZM4.748 2.00182L5.18182 2.30291C5.27777 2.36976 5.35551 2.4595 5.408 2.564L5.51709 2.78218C5.57496 2.89814 5.66401 2.99567 5.77423 3.06382C5.88446 3.13197 6.0115 3.16805 6.14109 3.168H6.91673C7.1018 3.168 7.27929 3.24152 7.41016 3.37239C7.54103 3.50325 7.61455 3.68074 7.61455 3.86582V3.87964C7.61464 4.00924 7.57858 4.1363 7.51042 4.24653C7.44226 4.35676 7.34471 4.4458 7.22873 4.50364L5.368 5.43454C5.34196 5.44725 5.31681 5.46171 5.29273 5.47782L4.34037 6.11273C4.23929 6.18024 4.15747 6.27284 4.10291 6.38145L3.96146 6.66582C3.91256 6.76249 3.88709 6.8693 3.88709 6.97764C3.88709 7.08597 3.91256 7.19278 3.96146 7.28945C4.02685 7.42057 4.04936 7.56893 4.0258 7.71354C4.00224 7.85815 3.93381 7.99169 3.83018 8.09527L3.80946 8.11636C3.69943 8.22641 3.55576 8.29649 3.4013 8.31547C3.24685 8.33445 3.09049 8.30122 2.95709 8.22109L1.74 7.49018C1.59724 7.40436 1.48981 7.27038 1.43709 7.11236L1.13782 6.21418C1.124 6.21418 1.11419 6.20982 1.10146 6.20945C1.71181 4.37935 3.02324 2.86612 4.748 2.00182ZM8.75673 11.0902C8.75678 11.1407 8.74868 11.1909 8.73273 11.2389L8.41091 12.204C8.38794 12.2733 8.34909 12.3363 8.29746 12.388L7.71564 12.9698C7.6498 13.0355 7.60499 13.1193 7.58691 13.2105L7.27891 14.7495C7.26467 14.8195 7.23463 14.8854 7.19109 14.9421C7.14755 14.9988 7.09165 15.0449 7.02764 15.0767L6.77527 15.2033C6.68679 15.2472 6.58677 15.2623 6.48926 15.2464C6.39175 15.2306 6.30166 15.1846 6.23164 15.1149L5.764 14.6473C5.72827 14.6113 5.69844 14.57 5.67564 14.5247L5.37855 13.9305C5.3461 13.8651 5.32918 13.793 5.32909 13.72V12.2196C5.32893 12.1322 5.30451 12.0465 5.25854 11.9721C5.21257 11.8977 5.14687 11.8375 5.06873 11.7982L4.67891 11.6036C4.60534 11.5671 4.54265 11.512 4.49709 11.4436L3.88364 10.5233C3.83199 10.446 3.8044 10.3551 3.80437 10.2622V9.93491C3.8046 9.84751 3.82905 9.76189 3.87501 9.68755C3.92098 9.61322 3.98665 9.55308 4.06473 9.51382L4.42582 9.332C4.51704 9.28659 4.59095 9.21267 4.63637 9.12145L4.81818 8.76036C4.85736 8.68244 4.91733 8.61688 4.99146 8.57093C5.06558 8.52498 5.15097 8.50043 5.23818 8.5H5.89491C5.95677 8.49995 6.01802 8.5121 6.07518 8.53575C6.13233 8.55939 6.18426 8.59408 6.228 8.63782L6.33309 8.74291C6.4215 8.83117 6.54126 8.88085 6.66618 8.88109H6.76364C6.8887 8.88157 7.00847 8.93159 7.09673 9.02019C7.18499 9.10879 7.23455 9.22876 7.23455 9.35382C7.23474 9.44118 7.25915 9.52677 7.30504 9.6011C7.35094 9.67544 7.41653 9.7356 7.49455 9.77491L8.49818 10.2764C8.57625 10.3157 8.64188 10.3759 8.68778 10.4503C8.73368 10.5247 8.75805 10.6104 8.75818 10.6978L8.75673 11.0902ZM10.6731 4.17782C10.7055 4.09926 10.7531 4.02785 10.8131 3.96764L11.4644 3.31673C11.5134 3.26769 11.57 3.22681 11.632 3.19564L12.3156 2.85382C12.3754 2.82533 12.4392 2.80631 12.5047 2.79745C13.29 3.41656 13.9396 4.19052 14.4131 5.07127H14.0916C13.9202 5.07128 13.7558 5.00327 13.6345 4.88218L13.556 4.80364C13.4347 4.68244 13.2704 4.61431 13.0989 4.61418H12.6051C12.5041 4.6139 12.4045 4.63731 12.3142 4.68254L11.6735 5.00327C11.5831 5.04835 11.4835 5.07164 11.3825 5.07127H11.2673C11.161 5.0712 11.0564 5.04494 10.9628 4.99483C10.8691 4.94472 10.7892 4.8723 10.7302 4.78397C10.6711 4.69564 10.6348 4.59412 10.6243 4.4884C10.6139 4.38268 10.6296 4.27601 10.6702 4.17782H10.6731ZM13.4145 13.3433L13.3673 13.2273C13.3415 13.1495 13.3284 13.0681 13.3284 12.9862V12.1465C13.3283 12.0283 13.3008 11.9116 13.248 11.8058L12.6465 10.6036C12.5937 10.4978 12.5662 10.3812 12.5662 10.2629V10.1516C12.5662 10.0218 12.533 9.89416 12.4698 9.78077C12.4065 9.66739 12.3154 9.57203 12.205 9.50377C12.0946 9.4355 11.9685 9.39658 11.8389 9.3907C11.7092 9.38482 11.5801 9.41218 11.464 9.47018L11.2033 9.60073C11.0976 9.65348 10.9811 9.68099 10.8629 9.68109H10.8298C10.6699 9.68082 10.5141 9.63034 10.3844 9.53678C10.2547 9.44322 10.1576 9.3113 10.1069 9.15963L9.93891 8.65527C9.91297 8.57754 9.89971 8.49613 9.89964 8.41418V7.80291C9.89962 7.67749 9.93058 7.55401 9.98976 7.44344C10.049 7.33287 10.1345 7.23863 10.2389 7.16909L10.9327 6.70654C11.0054 6.65808 11.0858 6.62253 11.1705 6.60145L12.3509 6.30618C12.4916 6.27105 12.6395 6.27672 12.7771 6.32254L13.5916 6.59418C13.6695 6.62011 13.751 6.63337 13.8331 6.63345H15.0218C15.3374 7.79698 15.3556 9.02115 15.0748 10.1936C14.794 11.366 14.2231 12.449 13.4145 13.3433Z" fill="#E64827"/>
</g>
<defs>
<clipPath id="clip0_8549_22442">
<rect width="16" height="16" fill="white" transform="translate(0 0.5)"/>
</clipPath>
</defs>
</svg>
