<svg width="106" height="106" viewBox="0 0 106 106" fill="none" xmlns="http://www.w3.org/2000/svg">
<path d="M99.5612 46.6869L89.916 48.4217L89.5676 46.4929L99.2128 44.7582L99.5612 46.6869Z" fill="black"/>
<path d="M100.206 52.683C100.213 53.4017 100.06 54.0332 99.7484 54.5776C99.427 55.122 98.9925 55.5463 98.4448 55.8503C97.8877 56.1543 97.2685 56.3097 96.5872 56.3163C95.8686 56.3232 95.2323 56.1661 94.6785 55.8447C94.1247 55.5234 93.6912 55.0936 93.3779 54.5553C93.0646 54.0076 92.9048 53.4118 92.8985 52.7679C92.8914 52.0399 93.03 51.4132 93.3142 50.8877C93.5984 50.3623 94.0239 49.9568 94.5904 49.6713C95.1477 49.3859 95.8416 49.2392 96.6723 49.2311L96.9802 49.2281L97.0339 54.7439L95.564 54.7581L95.5253 50.7823L95.9335 51.0024C95.4765 51.0441 95.1094 51.211 94.8323 51.5031C94.5457 51.7858 94.405 52.1932 94.4102 52.7252C94.4146 53.1825 94.5865 53.5775 94.9257 53.9103C95.2649 54.2337 95.7098 54.3927 96.2604 54.3873L96.8204 54.3819C97.175 54.3785 97.487 54.3008 97.7562 54.1488C98.0254 53.9969 98.2334 53.7942 98.3803 53.5408C98.5178 53.2874 98.5851 53.0068 98.5821 52.6988C98.5782 52.2975 98.4816 51.9624 98.2923 51.6935C98.0936 51.4154 97.8352 51.2359 97.517 51.155L97.4988 49.2791C98.3497 49.4389 99.0114 49.8151 99.4838 50.4079C99.9563 51.0007 100.197 51.7591 100.206 52.683Z" fill="black"/>
<path d="M98.6336 64.7545L91.3885 65.5541L91.8292 63.5009L95.6228 63.2379C95.8373 63.2169 96.0261 63.2047 96.1891 63.2014C96.3521 63.1981 96.5151 63.1947 96.6781 63.1914C96.5307 63.1217 96.3834 63.052 96.2361 62.9824C96.0888 62.9127 95.9215 62.8245 95.7345 62.7177L92.3815 60.9275L92.8221 58.8742L99.1036 62.5644L98.6336 64.7545Z" fill="black"/>
<path d="M95.9134 72.9694C95.6435 73.5542 95.2525 74.0113 94.7406 74.341C94.2325 74.6621 93.6657 74.8433 93.0402 74.8845C92.4101 74.9133 91.7898 74.7874 91.1792 74.5068C90.5601 74.2222 90.061 73.8336 89.6819 73.341C89.3068 72.8398 89.0784 72.288 88.9967 71.6855C88.9189 71.0745 89.0189 70.4682 89.2967 69.8666C89.504 69.4175 89.7456 69.0611 90.0214 68.7976C90.3012 68.5256 90.6002 68.3343 90.9185 68.2238L90.3843 67.9782L91.1471 66.3258L97.4311 69.2141L96.6683 70.8665L95.905 70.5157C96.0825 70.8438 96.186 71.2098 96.2154 71.6137C96.2488 72.0091 96.1481 72.461 95.9134 72.9694ZM94.4299 71.8407C94.5707 71.5357 94.63 71.2291 94.6077 70.921C94.5809 70.6005 94.4778 70.3117 94.2984 70.0546C94.1144 69.7851 93.857 69.5744 93.5263 69.4224C93.187 69.2665 92.8593 69.2083 92.5429 69.2478C92.2305 69.2788 91.9477 69.3902 91.6947 69.5821C91.4371 69.7616 91.2379 70.0038 91.0971 70.3089C90.9562 70.614 90.8992 70.9267 90.926 71.2472C90.9483 71.5553 91.0472 71.8422 91.2227 72.1077C91.4021 72.3648 91.6614 72.5713 92.0007 72.7273C92.3314 72.8793 92.6572 72.9417 92.9781 72.9146C93.2945 72.8751 93.5815 72.7656 93.8391 72.5861C94.0921 72.3943 94.289 72.1458 94.4299 71.8407Z" fill="black"/>
<path d="M90.3063 81.928L84.6462 77.9537L85.6951 76.4664L86.7492 77.2065L86.8298 77.0921L91.4358 80.3262L90.3063 81.928ZM88.2162 78.0655L86.7492 77.2065C86.4103 76.8773 86.2413 76.542 86.2423 76.2005C86.2432 75.8591 86.3378 75.5549 86.5261 75.2879L87.0183 74.59L88.5421 75.66L87.9451 76.5066C87.5148 77.1168 87.6051 77.6365 88.2162 78.0655Z" fill="black"/>
<path d="M88.0172 84.6186C87.5814 85.08 87.0763 85.3225 86.5019 85.3461C85.9272 85.3565 85.3781 85.1155 84.8546 84.6231L80.2042 80.2494L81.5501 78.8245L85.9455 82.9585C86.3535 83.3422 86.7497 83.3305 87.1342 82.9234L87.6726 82.3534L88.9882 83.5907L88.0172 84.6186ZM81.9896 83.2931L80.8066 82.1805L83.9503 78.8525L85.1333 79.9651L81.9896 83.2931Z" fill="black"/>
<path d="M76.3651 94.1847C75.7155 94.5527 75.0622 94.7351 74.4053 94.7319C73.7565 94.724 73.1619 94.5567 72.6216 94.2299C72.0767 93.8951 71.638 93.4356 71.3056 92.8515C70.9687 92.2594 70.798 91.6481 70.7936 91.0176C70.7893 90.3872 70.9499 89.792 71.2756 89.232C71.6094 88.6674 72.1011 88.2011 72.7507 87.833C73.4085 87.4604 74.0617 87.2779 74.7105 87.2858C75.3593 87.2937 75.9539 87.461 76.4942 87.7877C77.0345 88.1145 77.4732 88.574 77.8102 89.1662C78.1425 89.7502 78.3132 90.3615 78.3222 91.0001C78.3265 91.6305 78.1659 92.2257 77.8402 92.7857C77.5146 93.3457 77.0228 93.812 76.3651 94.1847ZM75.465 92.6028C75.7573 92.4372 75.9843 92.2228 76.1459 91.9596C76.3029 91.6882 76.3795 91.3981 76.3755 91.0893C76.3751 90.7677 76.2849 90.4487 76.1049 90.1324C75.9202 89.8079 75.6919 89.5671 75.42 89.4101C75.1562 89.2485 74.8697 89.1695 74.5603 89.1731C74.2463 89.1686 73.9432 89.2492 73.6508 89.4149C73.3585 89.5805 73.1338 89.799 72.9768 90.0703C72.8233 90.3289 72.7444 90.615 72.7403 90.9284C72.7361 91.2419 72.8263 91.5608 73.0109 91.8853C73.191 92.2017 73.4193 92.4424 73.6958 92.6076C73.9677 92.7646 74.2566 92.8477 74.5624 92.8567C74.8718 92.8531 75.1726 92.7685 75.465 92.6028Z" fill="black"/>
<path d="M66.9519 98.2168C66.3357 98.4041 65.7344 98.4162 65.1478 98.2531C64.5702 98.0872 64.0582 97.7844 63.6116 97.3446C63.1712 96.8932 62.8529 96.3461 62.6567 95.7034C62.4577 95.0518 62.4163 94.4206 62.5323 93.8097C62.6572 93.1962 62.9176 92.6586 63.3133 92.1968C63.718 91.7324 64.2373 91.4038 64.8714 91.211C65.3446 91.0671 65.7714 91.0106 66.1516 91.0413C66.5407 91.0693 66.8824 91.1654 67.1765 91.3297L67.0048 90.7673L68.7461 90.2379L70.7657 96.8525L69.0244 97.3818L68.7791 96.5785C68.652 96.9293 68.4474 97.25 68.1653 97.5406C67.8921 97.8285 67.4877 98.0539 66.9519 98.2168ZM66.8088 96.358C67.1303 96.2603 67.3987 96.1006 67.6141 95.8791C67.8356 95.6459 67.9828 95.3768 68.0556 95.0718C68.1345 94.7551 68.1209 94.4227 68.0146 94.0746C67.9056 93.7175 67.7312 93.434 67.4914 93.224C67.2605 93.0113 66.9894 92.8742 66.6779 92.8128C66.3726 92.7398 66.0592 92.7522 65.7377 92.8499C65.4162 92.9476 65.1447 93.1131 64.9232 93.3463C64.7078 93.5678 64.5593 93.8325 64.4776 94.1402C64.4048 94.4452 64.4229 94.7763 64.532 95.1333C64.6383 95.4815 64.8082 95.7663 65.0418 95.988C65.2815 96.198 65.5541 96.3395 65.8594 96.4125C66.1709 96.4739 66.4874 96.4557 66.8088 96.358Z" fill="black"/>
<path d="M53.3 100.188L52.5636 90.4157L54.5181 90.2691L54.8053 94.0803C54.9418 93.7799 55.1874 93.4994 55.5422 93.2388C55.9062 92.9775 56.3628 92.8262 56.9119 92.785C57.6007 92.7333 58.1763 92.9195 58.6388 93.3434C59.1099 93.7573 59.3752 94.3598 59.4348 95.1509L59.7778 99.702L57.8233 99.8486L57.5224 95.8559C57.4916 95.4464 57.3457 95.1251 57.0847 94.892C56.8238 94.6589 56.5072 94.5563 56.1349 94.5842C55.7626 94.6121 55.465 94.7608 55.2419 95.0303C55.0189 95.2997 54.9228 95.6392 54.9536 96.0487L55.2545 100.041L53.3 100.188Z" fill="black"/>
<path d="M39.5747 101.142C38.919 100.957 38.3804 100.684 37.9589 100.322C37.5375 99.9608 37.2467 99.5491 37.0866 99.0869C36.9355 98.6273 36.9172 98.1615 37.0315 97.6895L39.0122 98.2483C38.9808 98.5303 39.0474 98.7916 39.2121 99.032C39.3858 99.275 39.6702 99.4522 40.0655 99.5637C40.5326 99.6955 40.923 99.6699 41.2368 99.4869C41.5596 99.3064 41.7718 99.0365 41.8736 98.6774L42.1637 97.6537C41.8948 97.8493 41.5758 97.9824 41.2066 98.0528C40.8464 98.1257 40.4373 98.0976 39.9791 97.9683C39.3593 97.7934 38.8591 97.4875 38.4786 97.0504C38.107 96.6158 37.8621 96.1104 37.7441 95.534C37.6287 94.9486 37.6562 94.3552 37.8267 93.7535C37.9564 93.2955 38.1581 92.8918 38.4318 92.5423C38.708 92.1838 39.033 91.8925 39.407 91.6683C39.7925 91.4376 40.198 91.2902 40.6236 91.226C41.0518 91.1529 41.4815 91.1771 41.9126 91.2987C42.3977 91.4356 42.7835 91.6317 43.0701 91.8871C43.3682 92.1361 43.5791 92.4186 43.703 92.7348L43.8938 92.0613L45.6454 92.5555L43.7981 99.0748C43.6455 99.6136 43.3785 100.077 42.9972 100.464C42.6249 100.853 42.1523 101.117 41.5794 101.256C41.0064 101.395 40.3382 101.357 39.5747 101.142ZM40.8795 96.3313C41.1849 96.4175 41.4793 96.4229 41.7625 96.3477C42.0458 96.2724 42.2936 96.1338 42.506 95.9319C42.7184 95.73 42.8654 95.4854 42.9468 95.198C43.0358 94.8837 43.0416 94.5896 42.964 94.3156C42.889 94.0326 42.7493 93.7895 42.5449 93.5864C42.3406 93.3833 42.0857 93.2386 41.7803 93.1524C41.4749 93.0663 41.1818 93.0563 40.9011 93.1226C40.6204 93.1889 40.3738 93.323 40.1614 93.5249C39.9515 93.7178 39.8021 93.9714 39.713 94.2857C39.6265 94.591 39.6208 94.8852 39.6958 95.1682C39.7708 95.4512 39.9105 95.6942 40.1149 95.8974C40.3192 96.1005 40.5741 96.2451 40.8795 96.3313Z" fill="black"/>
<path d="M27.4101 92.4382L30.7884 86.4034L32.3781 87.2895L31.8516 88.2302C32.1471 87.9889 32.5253 87.8577 32.9863 87.8369C33.4518 87.8078 33.9169 87.9228 34.3816 88.1818C34.9767 88.5135 35.3465 88.9707 35.4909 89.5534C35.648 90.1325 35.5351 90.7642 35.1522 91.4483L32.8886 95.4918L31.1766 94.5375L33.2145 90.8971C33.3968 90.5714 33.4385 90.258 33.3396 89.9571C33.2488 89.6608 33.0607 89.4331 32.7754 89.274C32.4982 89.1195 32.2053 89.0791 31.8966 89.1528C31.5879 89.2265 31.3424 89.4263 31.1601 89.752L29.1222 93.3925L27.4101 92.4382Z" fill="black"/>
<path d="M21.3996 87.8199C20.8493 87.3152 20.475 86.7503 20.2768 86.1252C20.0854 85.5064 20.0627 84.8904 20.2088 84.2772C20.3612 83.6572 20.6651 83.1 21.1203 82.6057C21.5819 82.1046 22.1128 81.7556 22.7128 81.5587C23.3129 81.3619 23.93 81.3326 24.564 81.4708C25.2049 81.6154 25.8005 81.94 26.3508 82.4447C26.9079 82.9557 27.2822 83.5205 27.4736 84.1393C27.665 84.7581 27.6876 85.3741 27.5416 85.9873C27.3955 86.6005 27.0916 87.1577 26.63 87.6588C26.1747 88.1531 25.6439 88.5021 25.0375 88.7058C24.4375 88.9026 23.8204 88.932 23.1864 88.7937C22.5524 88.6555 21.9568 88.3309 21.3996 87.8199ZM22.6326 86.4812C22.8803 86.7083 23.1544 86.8584 23.4551 86.9315C23.762 86.9978 24.0622 86.9818 24.3557 86.8837C24.6623 86.785 24.9389 86.6018 25.1855 86.334C25.4385 86.0594 25.5982 85.769 25.6646 85.4627C25.7379 85.1626 25.7254 84.8662 25.6271 84.5735C25.5351 84.2738 25.3653 84.0104 25.1177 83.7833C24.8701 83.5562 24.5928 83.4095 24.2858 83.3433C23.992 83.2765 23.695 83.289 23.3947 83.3809C23.0944 83.4727 22.8178 83.6559 22.5648 83.9305C22.3182 84.1982 22.1585 84.4887 22.0858 84.8019C22.0193 85.1082 22.0287 85.408 22.1138 85.7014C22.2121 85.9942 22.385 86.2541 22.6326 86.4812Z" fill="black"/>
<path d="M10.3921 72.8062L18.7961 67.7651L19.8653 69.5399L16.7438 71.4123L19.0124 75.1777L22.1338 73.3053L23.2031 75.0801L14.7991 80.1213L13.7299 78.3465L17.3796 76.1572L15.1111 72.3917L11.4613 74.581L10.3921 72.8062Z" fill="black"/>
<path d="M7.02978 60.6206L16.6535 58.7703L17.0251 60.6948L7.4014 62.5451L7.02978 60.6206Z" fill="black"/>
<path d="M6.31221 54.6328C6.29656 53.9143 6.44147 53.281 6.74694 52.7329C7.06175 52.1847 7.49117 51.7552 8.0352 51.4447C8.58857 51.134 9.20584 50.9712 9.88701 50.9565C10.6055 50.9409 11.2436 51.0904 11.8012 51.4051C12.3589 51.7197 12.7976 52.1443 13.1173 52.6788C13.4372 53.2227 13.6042 53.8165 13.6182 54.4604C13.634 55.1882 13.503 55.8165 13.2251 56.3454C12.9472 56.8742 12.5268 57.2847 11.9636 57.577C11.4099 57.8691 10.7178 58.0241 9.88728 58.0421L9.57936 58.0488L9.45926 52.5341L10.9289 52.5022L11.0155 56.4773L10.6047 56.2621C11.0611 56.2149 11.4261 56.0436 11.6998 55.7483C11.9829 55.4621 12.1187 55.053 12.1071 54.5212C12.0972 54.0639 11.9206 53.671 11.5774 53.3424C11.2343 53.0231 10.7875 52.8694 10.237 52.8813L9.67713 52.8935C9.32255 52.9011 9.01158 52.9826 8.74423 53.1377C8.47688 53.2929 8.2713 53.4981 8.12749 53.7533C7.99301 54.0082 7.92912 54.2897 7.93583 54.5976C7.94456 54.9988 8.04519 55.3327 8.23771 55.5993C8.43976 55.875 8.70033 56.0514 9.01941 56.1285L9.06026 58.004C8.20747 57.8545 7.54129 57.4862 7.06173 56.8991C6.58217 56.312 6.33232 55.5566 6.31221 54.6328Z" fill="black"/>
<path d="M7.74041 42.5432L14.9753 41.6567L14.5594 43.7151L10.7692 44.0236C10.555 44.0472 10.3664 44.0616 10.2034 44.0669C10.0405 44.0722 9.87753 44.0775 9.71459 44.0828C9.86274 44.1507 10.0109 44.2186 10.1591 44.2865C10.3072 44.3543 10.4755 44.4406 10.6638 44.5451L14.0381 46.295L13.6222 48.3534L7.29676 44.7388L7.74041 42.5432Z" fill="black"/>
<path d="M10.3629 34.2964C10.6258 33.7085 11.0112 33.2467 11.5191 32.9109C12.0233 32.5836 12.5878 32.3957 13.2128 32.347C13.8425 32.3106 14.4643 32.429 15.0782 32.7023C15.7007 32.9794 16.2044 33.362 16.5893 33.8501C16.9705 34.3467 17.2055 34.8958 17.2944 35.4972C17.3795 36.1072 17.2869 36.7147 17.0164 37.3197C16.8145 37.7713 16.5772 38.1305 16.3045 38.3973C16.028 38.6727 15.7313 38.8675 15.4144 38.9818L15.9516 39.221L15.2087 40.8825L8.89052 38.0697L9.63338 36.4083L10.4008 36.7499C10.2194 36.4239 10.1115 36.0592 10.0772 35.6557C10.0391 35.2607 10.1343 34.8076 10.3629 34.2964ZM11.8599 35.4072C11.7227 35.714 11.6671 36.0213 11.6931 36.3291C11.7237 36.6492 11.8303 36.9368 12.0128 37.1917C12.2001 37.4589 12.4599 37.6666 12.7925 37.8146C13.1336 37.9664 13.462 38.0207 13.7778 37.9774C14.0899 37.9427 14.3713 37.8278 14.622 37.6329C14.8774 37.4504 15.0737 37.2057 15.2108 36.899C15.348 36.5923 15.4012 36.2788 15.3705 35.9587C15.3446 35.6509 15.2423 35.3652 15.0636 35.1018C14.8811 34.8468 14.6193 34.6435 14.2782 34.4916C13.9457 34.3436 13.6191 34.2851 13.2986 34.316C12.9827 34.3593 12.6971 34.4722 12.4417 34.6548C12.1909 34.8497 11.997 35.1005 11.8599 35.4072Z" fill="black"/>
<path d="M15.8598 25.2713L21.5672 29.1773L20.5363 30.6772L19.4733 29.9498L19.394 30.0651L14.7496 26.8866L15.8598 25.2713ZM17.9961 29.1084L19.4733 29.9498C19.8162 30.2748 19.9891 30.6081 19.9923 30.9496C19.9954 31.291 19.9045 31.5963 19.7194 31.8655L19.2357 32.5693L17.6991 31.5177L18.2859 30.6639C18.7089 30.0486 18.6123 29.5301 17.9961 29.1084Z" fill="black"/>
<path d="M18.1178 22.5537C18.548 22.0871 19.0502 21.8386 19.6242 21.8081C20.1988 21.7908 20.7507 22.0252 21.2801 22.5112L25.9827 26.8288L24.654 28.2697L20.2092 24.1888C19.7967 23.8101 19.4007 23.8266 19.0211 24.2382L18.4896 24.8146L17.1593 23.5932L18.1178 22.5537ZM24.1609 23.8067L25.3571 24.905L22.2537 28.2706L21.0574 27.1722L24.1609 23.8067Z" fill="black"/>
<path d="M29.652 12.8486C30.2972 12.4728 30.9482 12.2825 31.6051 12.2779C32.254 12.278 32.8505 12.4381 33.3947 12.7584C33.9437 13.0867 34.3878 13.5409 34.7272 14.1209C35.0712 14.709 35.2492 15.3182 35.2612 15.9485C35.2731 16.5788 35.1197 17.1759 34.8007 17.7398C34.4738 18.3083 33.9877 18.7805 33.3425 19.1563C32.6893 19.5369 32.0382 19.7271 31.3894 19.727C30.7405 19.727 30.144 19.5668 29.5998 19.2466C29.0556 18.9263 28.6114 18.4721 28.2674 17.8841C27.928 17.3041 27.75 16.6948 27.7333 16.0565C27.7214 15.4261 27.8749 14.8291 28.1938 14.2652C28.5127 13.7014 28.9988 13.2292 29.652 12.8486ZM30.5711 14.4195C30.2808 14.5886 30.0564 14.8058 29.8979 15.0709C29.7442 15.3441 29.6711 15.6351 29.6788 15.9439C29.6831 16.2654 29.7771 16.5833 29.9609 16.8975C30.1495 17.2197 30.3806 17.4577 30.6544 17.6114C30.9201 17.7699 31.2076 17.8454 31.5169 17.8381C31.8309 17.8388 32.1331 17.7546 32.4234 17.5854C32.7137 17.4163 32.9358 17.1952 33.0895 16.922C33.2399 16.6615 33.3153 16.3746 33.3158 16.0611C33.3162 15.7476 33.2221 15.4297 33.0336 15.1075C32.8498 14.7933 32.6186 14.5553 32.3401 14.3935C32.0663 14.2398 31.7765 14.1602 31.4705 14.1548C31.1612 14.1621 30.8614 14.2504 30.5711 14.4195Z" fill="black"/>
<path d="M39.0167 8.70375C39.6305 8.50906 40.2317 8.48974 40.8201 8.64581C41.3997 8.8047 41.9154 9.10134 42.3672 9.53574C42.813 9.98185 43.1378 10.5251 43.3418 11.1654C43.5486 11.8145 43.5977 12.4452 43.489 13.0574C43.3714 13.6724 43.1176 14.2131 42.7274 14.6795C42.3284 15.1488 41.813 15.4836 41.1813 15.6839C40.7098 15.8335 40.2838 15.8952 39.9032 15.869C39.5138 15.8457 39.171 15.7536 38.8749 15.593L39.0534 16.1532L37.3186 16.7034L35.2195 10.1137L36.9543 9.56347L37.2093 10.3638C37.3321 10.0115 37.5328 9.68841 37.8114 9.39443C38.0811 9.10328 38.4829 8.87305 39.0167 8.70375ZM39.182 10.5606C38.8618 10.6622 38.5953 10.8251 38.3826 11.0492C38.1639 11.285 38.02 11.5559 37.9509 11.8617C37.8757 12.1793 37.8934 12.5115 38.0038 12.8583C38.1172 13.2141 38.295 13.4955 38.5372 13.7026C38.7706 13.9125 39.0435 14.0463 39.3557 14.1039C39.6618 14.1733 39.975 14.1572 40.2953 14.0556C40.6156 13.954 40.8851 13.7853 41.1039 13.5495C41.3165 13.3254 41.4619 13.059 41.5399 12.7503C41.6089 12.4444 41.5868 12.1136 41.4735 11.7579C41.363 11.4111 41.1897 11.1282 40.9535 10.9094C40.7112 10.7023 40.437 10.5641 40.1308 10.4947C39.8186 10.4371 39.5023 10.4591 39.182 10.5606Z" fill="black"/>
<path d="M52.6448 6.56865L53.4988 16.3314L51.5462 16.5014L51.2132 12.694C51.0803 12.996 50.8381 13.2794 50.4865 13.5442C50.1256 13.8099 49.6709 13.9666 49.1223 14.0144C48.4342 14.0743 47.8564 13.8951 47.3888 13.4768C46.9128 13.0685 46.6402 12.4693 46.5711 11.6789L46.1733 7.13231L48.1259 6.96224L48.4749 10.951C48.5107 11.3601 48.6604 11.6797 48.9241 11.9096C49.1878 12.1396 49.5056 12.2384 49.8776 12.206C50.2495 12.1736 50.5454 12.0214 50.7651 11.7493C50.9849 11.4772 51.0769 11.1366 51.0412 10.7275L50.6922 6.73872L52.6448 6.56865Z" fill="black"/>
<path d="M66.3575 5.45028C67.0154 5.6274 67.5572 5.8941 67.983 6.25037C68.4088 6.60664 68.7045 7.01487 68.8701 7.47509C69.0267 7.93287 69.0507 8.39844 68.942 8.87181L66.9548 8.33679C66.9828 8.05437 66.913 7.79394 66.7454 7.55551C66.5689 7.31466 66.2823 7.14085 65.8857 7.03409C65.4171 6.90792 65.027 6.93822 64.7155 7.12498C64.3949 7.30932 64.1859 7.58168 64.0884 7.94207L63.8107 8.96919C64.0772 8.77029 64.3946 8.63343 64.7629 8.55861C65.1222 8.48135 65.5316 8.5046 65.9913 8.62834C66.6131 8.79576 67.117 9.09572 67.5028 9.52822C67.8796 9.9583 68.1305 10.4608 68.2554 11.0357C68.3779 11.6196 68.3575 12.2134 68.1943 12.8171C68.0701 13.2766 67.8732 13.6827 67.6038 14.0355C67.332 14.3972 67.0104 14.6924 66.6392 14.9211C66.2565 15.1564 65.8528 15.3087 65.428 15.378C65.0007 15.4563 64.5708 15.4372 64.1382 15.3207C63.6515 15.1897 63.2634 14.9982 62.9738 14.7462C62.6727 14.5009 62.4584 14.2209 62.3308 13.9062L62.148 14.5819L60.3906 14.1088L62.1593 7.56768C62.3055 7.0271 62.5668 6.56102 62.9434 6.16946C63.311 5.77548 63.7804 5.50556 64.3516 5.3597C64.9228 5.21385 65.5914 5.24404 66.3575 5.45028ZM65.1107 10.2761C64.8042 10.1936 64.5099 10.1916 64.2276 10.2703C63.9452 10.3489 63.6991 10.4905 63.4891 10.6949C63.2791 10.8994 63.1352 11.1457 63.0572 11.4341C62.972 11.7494 62.9697 12.0436 63.0506 12.3167C63.129 12.5988 63.2716 12.8401 63.4784 13.0408C63.6852 13.2415 63.9418 13.383 64.2483 13.4655C64.5547 13.548 64.8478 13.5545 65.1277 13.4848C65.4076 13.4152 65.6525 13.2781 65.8625 13.0737C66.07 12.8783 66.2164 12.6229 66.3017 12.3075C66.3845 12.0012 66.3867 11.707 66.3083 11.4249C66.2299 11.1428 66.0873 10.9015 65.8805 10.7008C65.6737 10.5001 65.4171 10.3586 65.1107 10.2761Z" fill="black"/>
<path d="M78.6243 14.0074L75.3188 20.0824L73.7186 19.2154L74.2338 18.2685C73.9412 18.5134 73.5646 18.649 73.1039 18.6754C72.6388 18.7101 72.1724 18.6007 71.7046 18.3473C71.1055 18.0227 70.7303 17.57 70.5789 16.989C70.4148 16.4119 70.5201 15.7789 70.8948 15.0903L73.1095 11.0198L74.8329 11.9534L72.8389 15.6181C72.6605 15.946 72.6226 16.2598 72.7251 16.5595C72.8195 16.8548 73.0103 17.0802 73.2975 17.2358C73.5765 17.387 73.8699 17.4239 74.1777 17.3465C74.4854 17.269 74.7285 17.0664 74.907 16.7384L76.9009 13.0738L78.6243 14.0074Z" fill="black"/>
<path d="M84.6907 18.5533C85.247 19.0514 85.628 19.6117 85.8338 20.2344C86.0326 20.8508 86.0627 21.4665 85.924 22.0814C85.779 22.7033 85.4819 23.2641 85.0326 23.7638C84.577 24.2704 84.0504 24.6258 83.4528 24.8298C82.8551 25.0338 82.2385 25.0706 81.6028 24.9399C80.9602 24.8031 80.3608 24.4857 79.8045 23.9876C79.2412 23.4834 78.8602 22.923 78.6614 22.3066C78.4625 21.6902 78.4325 21.0745 78.5712 20.4596C78.7099 19.8446 79.007 19.2838 79.4626 18.7772C79.9119 18.2775 80.4385 17.9221 81.0424 17.7112C81.64 17.5071 82.2567 17.4704 82.8923 17.601C83.528 17.7316 84.1274 18.0491 84.6907 18.5533ZM83.4738 19.9067C83.2235 19.6826 82.9475 19.5358 82.646 19.4663C82.3383 19.4037 82.0383 19.4233 81.7461 19.525C81.4407 19.6273 81.1662 19.8139 80.9229 20.0845C80.6733 20.3622 80.5171 20.6545 80.4543 20.9616C80.3846 21.2625 80.4007 21.5587 80.5025 21.8503C80.598 22.1488 80.771 22.4101 81.0213 22.6343C81.2717 22.8584 81.5507 23.0017 81.8585 23.0643C82.153 23.1275 82.4499 23.1114 82.7491 23.016C83.0483 22.9206 83.3227 22.734 83.5723 22.4564C83.8156 22.1857 83.9718 21.8934 84.0408 21.5793C84.1036 21.2722 84.0907 20.9725 84.002 20.6802C83.9002 20.3887 83.7241 20.1308 83.4738 19.9067Z" fill="black"/>
<path d="M95.8785 33.434L87.5357 38.5757L86.4452 36.8139L89.544 34.9041L87.2303 31.1662L84.1315 33.076L83.041 31.3142L91.3839 26.1725L92.4744 27.9343L88.8512 30.1673L91.1649 33.9052L94.788 31.6722L95.8785 33.434Z" fill="black"/>
</svg>
