<svg xmlns="http://www.w3.org/2000/svg" width="58" height="33" viewBox="0 0 58 33" fill="none">
  <g filter="url(#filter0_f_9753_30347)">
    <path d="M42.5008 31.879H12.3339C9.40748 31.877 6.59536 30.8714 4.48625 29.0726C2.37714 27.2738 1.13457 24.8214 1.01867 22.2286C0.90276 19.6359 1.9225 17.1039 3.86442 15.1628C5.80633 13.2216 8.51986 12.0218 11.4369 11.8144C11.8529 9.20993 13.1794 6.78662 15.2296 4.88542C17.2799 2.98421 19.9509 1.70079 22.8667 1.21572C25.7825 0.730648 28.7965 1.06833 31.4846 2.18127C34.1727 3.29421 36.3996 5.12639 37.852 7.42004C40.516 6.60239 43.3942 6.50684 46.1197 7.14558C48.8451 7.78432 51.2943 9.1284 53.1546 11.0064C55.015 12.8844 56.2023 15.2111 56.5651 17.6899C56.928 20.1686 56.4499 22.6871 55.1918 24.9239C54.4536 26.945 53.0121 28.7067 51.0744 29.9563C49.1367 31.2059 46.8023 31.879 44.4063 31.879H42.5008Z" fill="url(#paint0_linear_9753_30347)"/>
    <g filter="url(#filter1_b_9753_30347)">
      <mask id="path-2-inside-1_9753_30347" fill="white">
        <path d="M44.4049 31.7396C45.6214 31.7396 46.8176 31.5674 47.9601 31.2277C49.0649 30.8992 50.1021 30.4198 51.0429 29.8029C51.9729 29.1931 52.788 28.4626 53.4658 27.6318C54.152 26.7905 54.6818 25.8651 55.0404 24.8812L55.0441 24.8711L55.0494 24.8617C55.5263 24.0167 55.8935 23.1228 56.1409 22.2049C56.3954 21.2602 56.5245 20.2842 56.5245 19.304C56.5245 18.4602 56.4286 17.6169 56.2396 16.7977C56.0553 15.9993 55.7804 15.214 55.4224 14.4636C55.0709 13.7267 54.6359 13.0161 54.1294 12.3513C53.6276 11.6927 53.0514 11.0735 52.4167 10.5107C51.782 9.94796 51.0836 9.43703 50.3409 8.99214C49.5911 8.54301 48.7896 8.15726 47.9586 7.84561C47.1122 7.52821 46.2266 7.28443 45.3261 7.12106C44.4021 6.95341 43.4511 6.86841 42.4994 6.86841C40.9236 6.86841 39.3769 7.09835 37.9021 7.55185L37.7777 7.59011L37.7132 7.48833C36.513 5.59618 34.7673 4.00713 32.6647 2.89298C31.6014 2.32953 30.4591 1.89411 29.2694 1.59883C28.042 1.29419 26.7671 1.13973 25.4802 1.13973C23.7491 1.13973 22.0594 1.41596 20.4578 1.96076C18.9106 2.48706 17.4913 3.24731 16.2393 4.2204C14.9945 5.18789 13.9615 6.32944 13.169 7.61333C12.3569 8.92875 11.8262 10.3487 11.5915 11.8336L11.574 11.9448L11.4478 11.9535C10.0361 12.0515 8.67787 12.3811 7.41086 12.933C6.17973 13.4694 5.08039 14.1948 4.14336 15.0892C2.21796 16.9269 1.15759 19.3213 1.15759 21.8313C1.15759 23.1689 1.45302 24.4665 2.03569 25.688C2.31575 26.275 2.66239 26.8413 3.06598 27.371C3.46577 27.8957 3.9249 28.3891 4.43062 28.8375C4.93634 29.2859 5.49282 29.693 6.08457 30.0475C6.68197 30.4053 7.3206 30.7127 7.98271 30.961C9.3603 31.4776 10.8237 31.7396 12.3324 31.7396H42.4994H44.4049ZM44.4049 31.8793H42.4994H12.3324C6.07372 31.8793 1 27.3806 1 21.8313C1 16.5495 5.59592 12.2195 11.4355 11.8142C12.4014 5.7028 18.3213 1 25.4802 1C30.7911 1 35.4202 3.58817 37.8505 7.41984C39.3069 6.97197 40.8711 6.72868 42.4994 6.72868C50.3324 6.72868 56.6821 12.3589 56.6821 19.304C56.6821 21.3239 56.1448 23.2329 55.1903 24.9242C53.7193 28.9602 49.4466 31.8793 44.4049 31.8793Z"/>
      </mask>
      <path d="M44.4049 31.7396C45.6214 31.7396 46.8176 31.5674 47.9601 31.2277C49.0649 30.8992 50.1021 30.4198 51.0429 29.8029C51.9729 29.1931 52.788 28.4626 53.4658 27.6318C54.152 26.7905 54.6818 25.8651 55.0404 24.8812L55.0441 24.8711L55.0494 24.8617C55.5263 24.0167 55.8935 23.1228 56.1409 22.2049C56.3954 21.2602 56.5245 20.2842 56.5245 19.304C56.5245 18.4602 56.4286 17.6169 56.2396 16.7977C56.0553 15.9993 55.7804 15.214 55.4224 14.4636C55.0709 13.7267 54.6359 13.0161 54.1294 12.3513C53.6276 11.6927 53.0514 11.0735 52.4167 10.5107C51.782 9.94796 51.0836 9.43703 50.3409 8.99214C49.5911 8.54301 48.7896 8.15726 47.9586 7.84561C47.1122 7.52821 46.2266 7.28443 45.3261 7.12106C44.4021 6.95341 43.4511 6.86841 42.4994 6.86841C40.9236 6.86841 39.3769 7.09835 37.9021 7.55185L37.7777 7.59011L37.7132 7.48833C36.513 5.59618 34.7673 4.00713 32.6647 2.89298C31.6014 2.32953 30.4591 1.89411 29.2694 1.59883C28.042 1.29419 26.7671 1.13973 25.4802 1.13973C23.7491 1.13973 22.0594 1.41596 20.4578 1.96076C18.9106 2.48706 17.4913 3.24731 16.2393 4.2204C14.9945 5.18789 13.9615 6.32944 13.169 7.61333C12.3569 8.92875 11.8262 10.3487 11.5915 11.8336L11.574 11.9448L11.4478 11.9535C10.0361 12.0515 8.67787 12.3811 7.41086 12.933C6.17973 13.4694 5.08039 14.1948 4.14336 15.0892C2.21796 16.9269 1.15759 19.3213 1.15759 21.8313C1.15759 23.1689 1.45302 24.4665 2.03569 25.688C2.31575 26.275 2.66239 26.8413 3.06598 27.371C3.46577 27.8957 3.9249 28.3891 4.43062 28.8375C4.93634 29.2859 5.49282 29.693 6.08457 30.0475C6.68197 30.4053 7.3206 30.7127 7.98271 30.961C9.3603 31.4776 10.8237 31.7396 12.3324 31.7396H42.4994H44.4049ZM44.4049 31.8793H42.4994H12.3324C6.07372 31.8793 1 27.3806 1 21.8313C1 16.5495 5.59592 12.2195 11.4355 11.8142C12.4014 5.7028 18.3213 1 25.4802 1C30.7911 1 35.4202 3.58817 37.8505 7.41984C39.3069 6.97197 40.8711 6.72868 42.4994 6.72868C50.3324 6.72868 56.6821 12.3589 56.6821 19.304C56.6821 21.3239 56.1448 23.2329 55.1903 24.9242C53.7193 28.9602 49.4466 31.8793 44.4049 31.8793Z" fill="url(#paint1_linear_9753_30347)"/>
      <path d="M47.9601 31.2277L48.5301 33.1447H48.5301L47.9601 31.2277ZM51.0429 29.8029L49.9462 28.1304L49.9462 28.1304L51.0429 29.8029ZM53.4658 27.6318L55.0156 28.896L55.0156 28.8959L53.4658 27.6318ZM55.0404 24.8812L56.9195 25.5661L56.9196 25.5659L55.0404 24.8812ZM55.0441 24.8711L53.3026 23.8876C53.2486 23.9833 53.2025 24.0833 53.1649 24.1865L55.0441 24.8711ZM55.0494 24.8617L56.7909 25.8452L56.7912 25.8446L55.0494 24.8617ZM56.1409 22.2049L58.072 22.7253V22.7253L56.1409 22.2049ZM56.2396 16.7977L54.2908 17.2474L54.2908 17.2474L56.2396 16.7977ZM55.4224 14.4636L57.2276 13.6025L57.2276 13.6025L55.4224 14.4636ZM54.1294 12.3513L55.7202 11.1391L55.7202 11.1391L54.1294 12.3513ZM52.4167 10.5107L51.0898 12.0072L51.0898 12.0072L52.4167 10.5107ZM50.3409 8.99214L51.3686 7.27642L50.3409 8.99214ZM47.9586 7.84561L47.2563 9.71825L47.2563 9.71825L47.9586 7.84561ZM45.3261 7.12106L45.6832 5.15319L45.3261 7.12106ZM37.9021 7.55185L37.3143 5.64019L37.3143 5.64019L37.9021 7.55185ZM37.7777 7.59011L36.0888 8.66136C36.5716 9.42257 37.504 9.76672 38.3656 9.50176L37.7777 7.59011ZM37.7132 7.48833L36.0242 8.55956L36.0242 8.55958L37.7132 7.48833ZM32.6647 2.89298L31.7283 4.6602L31.7283 4.6602L32.6647 2.89298ZM29.2694 1.59883L28.7876 3.53993L28.7876 3.53993L29.2694 1.59883ZM20.4578 1.96076L21.1019 3.85421L21.1019 3.85421L20.4578 1.96076ZM16.2393 4.2204L17.4667 5.79953V5.79952L16.2393 4.2204ZM13.169 7.61333L11.4671 6.56276L11.4671 6.56277L13.169 7.61333ZM11.5915 11.8336L9.61604 11.5214L9.61603 11.5215L11.5915 11.8336ZM11.574 11.9448L11.7124 13.94C12.6421 13.8754 13.404 13.1774 13.5494 12.2569L11.574 11.9448ZM11.4478 11.9535L11.5862 13.9487H11.5862L11.4478 11.9535ZM7.41086 12.933L6.61207 11.0995L6.61207 11.0995L7.41086 12.933ZM4.14336 15.0892L2.76247 13.6424L2.76246 13.6424L4.14336 15.0892ZM2.03569 25.688L0.230563 26.5491L0.230567 26.5491L2.03569 25.688ZM3.06598 27.371L4.65682 26.1589L4.65682 26.1589L3.06598 27.371ZM4.43062 28.8375L5.7575 27.341L5.75749 27.341L4.43062 28.8375ZM6.08457 30.0475L5.05681 31.7632L5.05683 31.7632L6.08457 30.0475ZM7.98271 30.961L7.2804 32.8336L7.28042 32.8336L7.98271 30.961ZM11.4355 11.8142L11.5739 13.8094C12.5036 13.7449 13.2655 13.0469 13.4109 12.1265L11.4355 11.8142ZM37.8505 7.41984L36.1616 8.49107C36.6444 9.25228 37.5768 9.59644 38.4384 9.33149L37.8505 7.41984ZM55.1903 24.9242L53.4486 23.9412C53.3947 24.0367 53.3488 24.1364 53.3113 24.2393L55.1903 24.9242ZM44.4049 33.7396C45.8104 33.7396 47.1988 33.5406 48.5301 33.1447L47.3901 29.3106C46.4365 29.5942 45.4325 29.7396 44.4049 29.7396V33.7396ZM48.5301 33.1447C49.8168 32.7622 51.0321 32.2017 52.1396 31.4754L49.9462 28.1304C49.1721 28.638 48.313 29.0362 47.3901 29.3106L48.5301 33.1447ZM52.1396 31.4754C53.2342 30.7577 54.2038 29.8911 55.0156 28.896L51.916 26.3676C51.3723 27.0342 50.7115 27.6286 49.9462 28.1304L52.1396 31.4754ZM55.0156 28.8959C55.8379 27.8878 56.4815 26.7678 56.9195 25.5661L53.1613 24.1963C52.8821 24.9624 52.4661 25.6932 51.916 26.3676L55.0156 28.8959ZM56.9196 25.5659L56.9232 25.5558L53.1649 24.1865L53.1612 24.1966L56.9196 25.5659ZM56.7855 25.8547L56.7909 25.8452L53.308 23.8781L53.3026 23.8876L56.7855 25.8547ZM56.7912 25.8446C57.3486 24.857 57.7802 23.808 58.072 22.7253L54.2098 21.6844C54.0068 22.4376 53.704 23.1764 53.3076 23.8787L56.7912 25.8446ZM58.072 22.7253C58.3724 21.6106 58.5245 20.4596 58.5245 19.304H54.5245C54.5245 20.1089 54.4185 20.9099 54.2098 21.6844L58.072 22.7253ZM58.5245 19.304C58.5245 18.3093 58.4116 17.3152 58.1883 16.3479L54.2908 17.2474C54.4457 17.9186 54.5245 18.611 54.5245 19.304H58.5245ZM58.1883 16.3479C57.9709 15.4055 57.6473 14.4824 57.2276 13.6025L53.6173 15.3247C53.9135 15.9456 54.1398 16.5931 54.2908 17.2474L58.1883 16.3479ZM57.2276 13.6025C56.8155 12.7387 56.308 11.9107 55.7202 11.1391L52.5385 13.5634C52.9637 14.1214 53.3264 14.7148 53.6173 15.3247L57.2276 13.6025ZM55.7202 11.1391C55.138 10.375 54.4729 9.66092 53.7436 9.01427L51.0898 12.0072C51.6299 12.4861 52.1172 13.0105 52.5385 13.5634L55.7202 11.1391ZM53.7436 9.01427C53.0143 8.36762 52.2154 7.78366 51.3686 7.27642L49.3131 10.7079C49.9517 11.0904 50.5497 11.5283 51.0898 12.0072L53.7436 9.01427ZM51.3686 7.27642C50.5138 6.76432 49.6031 6.32634 48.6609 5.97297L47.2563 9.71825C47.9761 9.98818 48.6685 10.3217 49.3131 10.7079L51.3686 7.27642ZM48.6609 5.97297C47.7012 5.61304 46.6998 5.33765 45.6832 5.15319L44.9691 9.08893C45.7533 9.23121 46.5233 9.44337 47.2563 9.71825L48.6609 5.97297ZM45.6832 5.15319C44.6398 4.96388 43.5692 4.86841 42.4994 4.86841V8.86841C43.333 8.86841 44.1645 8.94295 44.9691 9.08893L45.6832 5.15319ZM42.4994 4.86841C40.7287 4.86841 38.9836 5.12688 37.3143 5.64019L38.49 9.4635C39.7702 9.06982 41.1186 8.86841 42.4994 8.86841V4.86841ZM37.3143 5.64019L37.1898 5.67846L38.3656 9.50176L38.49 9.4635L37.3143 5.64019ZM39.4666 6.51886L39.4021 6.41707L36.0242 8.55958L36.0888 8.66136L39.4666 6.51886ZM39.4021 6.4171C38.0042 4.21325 35.9911 2.39216 33.6012 1.12577L31.7283 4.6602C33.5435 5.62211 35.0218 6.97912 36.0242 8.55956L39.4021 6.4171ZM33.6012 1.12577C32.3913 0.484636 31.0959 -0.00849473 29.7511 -0.342278L28.7876 3.53993C29.8222 3.79672 30.8116 4.17442 31.7283 4.6602L33.6012 1.12577ZM29.7512 -0.342275C28.3634 -0.686727 26.9266 -0.860274 25.4802 -0.860274V3.13973C26.6076 3.13973 27.7206 3.2751 28.7876 3.53993L29.7512 -0.342275ZM25.4802 -0.860274C23.5352 -0.860274 21.6275 -0.549686 19.8137 0.0673122L21.1019 3.85421C22.4912 3.38161 23.963 3.13973 25.4802 3.13973V-0.860274ZM19.8137 0.0673094C18.0625 0.663003 16.445 1.52754 15.012 2.64127L17.4667 5.79952C18.5377 4.96708 19.7587 4.31111 21.1019 3.85421L19.8137 0.0673094ZM15.012 2.64127C13.5873 3.74857 12.3906 5.06676 11.4671 6.56276L14.8708 8.6639C15.5324 7.59213 16.4017 6.62721 17.4667 5.79953L15.012 2.64127ZM11.4671 6.56277C10.5199 8.09722 9.89329 9.76716 9.61604 11.5214L13.567 12.1458C13.7591 10.9302 14.194 9.76029 14.8708 8.66389L11.4671 6.56277ZM9.61603 11.5215L9.59846 11.6326L13.5494 12.2569L13.567 12.1458L9.61603 11.5215ZM11.4355 9.94957L11.3093 9.95833L11.5862 13.9487L11.7124 13.94L11.4355 9.94957ZM11.3093 9.95833C9.67541 10.0717 8.09337 10.4541 6.61207 11.0995L8.20964 14.7666C9.26236 14.308 10.3967 14.0313 11.5862 13.9487L11.3093 9.95833ZM6.61207 11.0995C5.17372 11.7261 3.87553 12.58 2.76247 13.6424L5.52425 16.5359C6.28525 15.8096 7.18575 15.2126 8.20964 14.7666L6.61207 11.0995ZM2.76246 13.6424C0.468387 15.832 -0.842414 18.7388 -0.842414 21.8313H3.15759C3.15759 19.9038 3.96753 18.0218 5.52425 16.5359L2.76246 13.6424ZM-0.842414 21.8313C-0.842414 23.4705 -0.478848 25.0619 0.230563 26.5491L3.84083 24.8269C3.38489 23.8711 3.15759 22.8674 3.15759 21.8313H-0.842414ZM0.230567 26.5491C0.571197 27.2631 0.990235 27.9467 1.47515 28.5831L4.65682 26.1589C4.33455 25.7359 4.06031 25.287 3.84082 24.8269L0.230567 26.5491ZM1.47514 28.5831C1.95541 29.2134 2.50343 29.8017 3.10375 30.334L5.75749 27.341C5.34637 26.9765 4.97612 26.5779 4.65682 26.1589L1.47514 28.5831ZM3.10374 30.334C3.70406 30.8662 4.36098 31.3464 5.05681 31.7632L7.11234 28.3318C6.62466 28.0396 6.16862 27.7056 5.7575 27.341L3.10374 30.334ZM5.05683 31.7632C5.75934 32.184 6.50705 32.5436 7.2804 32.8336L8.68502 29.0884C8.13414 28.8818 7.60461 28.6266 7.11232 28.3317L5.05683 31.7632ZM7.28042 32.8336C8.88831 33.4366 10.5901 33.7396 12.3324 33.7396V29.7396C11.0574 29.7396 9.83228 29.5186 8.68501 29.0884L7.28042 32.8336ZM12.3324 33.7396H42.4994V29.7396H12.3324V33.7396ZM42.4994 33.7396H44.4049V29.7396H42.4994V33.7396ZM44.4049 29.8793H42.4994V33.8793H44.4049V29.8793ZM42.4994 29.8793H12.3324V33.8793H42.4994V29.8793ZM12.3324 29.8793C6.94537 29.8793 3 26.0567 3 21.8313H-1C-1 28.7045 5.20206 33.8793 12.3324 33.8793V29.8793ZM3 21.8313C3 17.8049 6.56548 14.157 11.5739 13.8094L11.297 9.81903C4.62636 10.282 -1 15.294 -1 21.8313H3ZM13.4109 12.1265C14.1986 7.14306 19.1385 3 25.4802 3V-1C17.5041 -1 10.6042 4.26253 9.45998 11.502L13.4109 12.1265ZM25.4802 3C30.1541 3 34.123 5.27701 36.1616 8.49107L39.5394 6.3486C36.7174 1.89933 31.4282 -1 25.4802 -1V3ZM38.4384 9.33149C39.7046 8.9421 41.0706 8.72868 42.4994 8.72868V4.72868C40.6715 4.72868 38.9092 5.00184 37.2627 5.50818L38.4384 9.33149ZM42.4994 8.72868C49.4607 8.72868 54.6821 13.6828 54.6821 19.304H58.6821C58.6821 11.035 51.204 4.72868 42.4994 4.72868V8.72868ZM54.6821 19.304C54.6821 20.9622 54.2424 22.5345 53.4486 23.9412L56.9321 25.9072C58.0471 23.9313 58.6821 21.6856 58.6821 19.304H54.6821ZM53.3113 24.2393C52.161 27.3952 48.7067 29.8793 44.4049 29.8793V33.8793C50.1865 33.8793 55.2775 30.5253 57.0694 25.6091L53.3113 24.2393Z" fill="url(#paint2_linear_9753_30347)" mask="url(#path-2-inside-1_9753_30347)"/>
    </g>
  </g>
  <path d="M9.89478 13.7633C10.3612 13.7259 10.7394 13.3701 10.805 12.9067C11.127 10.6328 12.1539 8.51704 13.7411 6.85713C15.3282 5.19722 17.3959 4.07669 19.6531 3.65319C21.9104 3.22968 24.2436 3.52451 26.3245 4.49619C28.4055 5.46788 30.1294 7.06752 31.2538 9.07008C31.4907 9.49197 31.9956 9.68375 32.4529 9.52547C34.5152 8.81157 36.7434 8.72815 38.8533 9.28584C40.9632 9.84352 42.8592 11.017 44.2994 12.6567C45.7396 14.2964 46.6588 16.3279 46.9396 18.4921C47.2205 20.6563 46.8504 22.8552 45.8765 24.8081C45.8542 24.8527 45.8354 24.8989 45.82 24.9463C45.2616 26.6705 44.1713 28.1735 42.7055 29.2395C41.2398 30.3055 39.474 30.8797 37.6617 30.8798H36.0522H10.5732C8.35973 30.8781 6.23268 30.0202 4.63738 28.4857C3.04208 26.9512 2.10222 24.8591 2.01455 22.6473C1.92688 20.4356 2.6982 18.2756 4.16703 16.6197C5.63587 14.9637 7.68834 13.9402 9.89478 13.7633Z" fill="url(#paint3_linear_9753_30347)" stroke="url(#paint4_linear_9753_30347)" stroke-width="2" stroke-linejoin="round"/>
  <mask id="path-5-inside-2_9753_30347" fill="white">
    <path d="M37.6609 31.747C38.6884 31.747 39.6987 31.5829 40.6637 31.2593C41.5969 30.9464 42.4729 30.4898 43.2675 29.9021C44.053 29.3212 44.7415 28.6254 45.314 27.8339C45.8936 27.0325 46.341 26.151 46.6439 25.2138L46.647 25.2042L46.6515 25.1951C47.0543 24.3902 47.3645 23.5387 47.5734 22.6643C47.7884 21.7645 47.8974 20.8348 47.8974 19.901C47.8974 19.0972 47.8165 18.2939 47.6568 17.5135C47.5012 16.753 47.2689 16.0049 46.9666 15.2901C46.6697 14.5882 46.3023 13.9112 45.8744 13.2779C45.4506 12.6506 44.9639 12.0607 44.4279 11.5246C43.8918 10.9885 43.3019 10.5018 42.6746 10.0781C42.0413 9.65022 41.3643 9.28275 40.6624 8.98588C39.9476 8.68352 39.1995 8.4513 38.439 8.29568C37.6586 8.13598 36.8553 8.05501 36.0515 8.05501C34.7205 8.05501 33.4141 8.27405 32.1685 8.70604L32.0634 8.74249L32.0089 8.64553C30.9952 6.8431 29.5207 5.3294 27.7449 4.26807C26.8468 3.73133 25.8819 3.31656 24.877 3.03528C23.8404 2.74508 22.7636 2.59794 21.6766 2.59794C20.2145 2.59794 18.7873 2.86108 17.4346 3.38005C16.1278 3.88139 14.929 4.6056 13.8715 5.53255C12.8201 6.45417 11.9476 7.5416 11.2782 8.76461C10.5924 10.0177 10.1441 11.3703 9.94587 12.7848L9.93104 12.8907L9.82445 12.899C8.6321 12.9924 7.48492 13.3063 6.41478 13.8321C5.37494 14.343 4.4464 15.034 3.65496 15.886C2.02872 17.6366 1.1331 19.9175 1.1331 22.3084C1.1331 23.5827 1.38263 24.8187 1.87477 25.9823C2.11132 26.5415 2.4041 27.0809 2.74498 27.5855C3.08265 28.0853 3.47045 28.5553 3.89759 28.9825C4.32474 29.4096 4.79475 29.7974 5.29456 30.1351C5.79914 30.476 6.33854 30.7687 6.89778 31.0053C8.06132 31.4974 9.29739 31.747 10.5716 31.747H36.0515H37.6609ZM37.6609 31.8801H36.0515H10.5716C5.28539 31.8801 1 27.5947 1 22.3084C1 17.2771 4.88184 13.1524 9.81406 12.7663C10.6299 6.94466 15.63 2.46484 21.6766 2.46484C26.1624 2.46484 30.0722 4.9303 32.1249 8.58029C33.355 8.15366 34.6761 7.92191 36.0515 7.92191C42.6674 7.92191 48.0305 13.2852 48.0305 19.901C48.0305 21.8251 47.5767 23.6436 46.7706 25.2547C45.5281 29.0994 41.9193 31.8801 37.6609 31.8801Z"/>
  </mask>
  <path d="M37.6609 31.747C38.6884 31.747 39.6987 31.5829 40.6637 31.2593C41.5969 30.9464 42.4729 30.4898 43.2675 29.9021C44.053 29.3212 44.7415 28.6254 45.314 27.8339C45.8936 27.0325 46.341 26.151 46.6439 25.2138L46.647 25.2042L46.6515 25.1951C47.0543 24.3902 47.3645 23.5387 47.5734 22.6643C47.7884 21.7645 47.8974 20.8348 47.8974 19.901C47.8974 19.0972 47.8165 18.2939 47.6568 17.5135C47.5012 16.753 47.2689 16.0049 46.9666 15.2901C46.6697 14.5882 46.3023 13.9112 45.8744 13.2779C45.4506 12.6506 44.9639 12.0607 44.4279 11.5246C43.8918 10.9885 43.3019 10.5018 42.6746 10.0781C42.0413 9.65022 41.3643 9.28275 40.6624 8.98588C39.9476 8.68352 39.1995 8.4513 38.439 8.29568C37.6586 8.13598 36.8553 8.05501 36.0515 8.05501C34.7205 8.05501 33.4141 8.27405 32.1685 8.70604L32.0634 8.74249L32.0089 8.64553C30.9952 6.8431 29.5207 5.3294 27.7449 4.26807C26.8468 3.73133 25.8819 3.31656 24.877 3.03528C23.8404 2.74508 22.7636 2.59794 21.6766 2.59794C20.2145 2.59794 18.7873 2.86108 17.4346 3.38005C16.1278 3.88139 14.929 4.6056 13.8715 5.53255C12.8201 6.45417 11.9476 7.5416 11.2782 8.76461C10.5924 10.0177 10.1441 11.3703 9.94587 12.7848L9.93104 12.8907L9.82445 12.899C8.6321 12.9924 7.48492 13.3063 6.41478 13.8321C5.37494 14.343 4.4464 15.034 3.65496 15.886C2.02872 17.6366 1.1331 19.9175 1.1331 22.3084C1.1331 23.5827 1.38263 24.8187 1.87477 25.9823C2.11132 26.5415 2.4041 27.0809 2.74498 27.5855C3.08265 28.0853 3.47045 28.5553 3.89759 28.9825C4.32474 29.4096 4.79475 29.7974 5.29456 30.1351C5.79914 30.476 6.33854 30.7687 6.89778 31.0053C8.06132 31.4974 9.29739 31.747 10.5716 31.747H36.0515H37.6609ZM37.6609 31.8801H36.0515H10.5716C5.28539 31.8801 1 27.5947 1 22.3084C1 17.2771 4.88184 13.1524 9.81406 12.7663C10.6299 6.94466 15.63 2.46484 21.6766 2.46484C26.1624 2.46484 30.0722 4.9303 32.1249 8.58029C33.355 8.15366 34.6761 7.92191 36.0515 7.92191C42.6674 7.92191 48.0305 13.2852 48.0305 19.901C48.0305 21.8251 47.5767 23.6436 46.7706 25.2547C45.5281 29.0994 41.9193 31.8801 37.6609 31.8801Z" fill="url(#paint5_linear_9753_30347)"/>
  <path d="M40.6637 31.2593L41.2996 33.1555L40.6637 31.2593ZM43.2675 29.9021L42.0783 28.2941L42.0783 28.2941L43.2675 29.9021ZM45.314 27.8339L46.9345 29.006L46.9345 29.006L45.314 27.8339ZM46.6439 25.2138L48.547 25.8288L48.5471 25.8286L46.6439 25.2138ZM46.647 25.2042L44.8587 24.3086C44.8134 24.3992 44.775 24.493 44.7439 24.5894L46.647 25.2042ZM46.6515 25.1951L48.4398 26.0907L48.4401 26.0901L46.6515 25.1951ZM47.5734 22.6643L49.5186 23.1291L49.5186 23.1291L47.5734 22.6643ZM47.6568 17.5135L45.6974 17.9144L45.6974 17.9144L47.6568 17.5135ZM46.9666 15.2901L48.8086 14.511V14.511L46.9666 15.2901ZM45.8744 13.2779L47.5317 12.1583L47.5317 12.1583L45.8744 13.2779ZM44.4279 11.5246L43.0136 12.9388L43.0136 12.9388L44.4279 11.5246ZM42.6746 10.0781L43.7942 8.42081L42.6746 10.0781ZM40.6624 8.98588L39.8833 10.8279L39.8833 10.8279L40.6624 8.98588ZM38.439 8.29568L38.84 6.33628V6.33628L38.439 8.29568ZM32.1685 8.70604L31.5132 6.81645L31.5131 6.81646L32.1685 8.70604ZM32.0634 8.74249L30.3202 9.72288C30.7945 10.5663 31.8046 10.9491 32.7188 10.6321L32.0634 8.74249ZM32.0089 8.64553L30.2656 9.6259L30.2657 9.62593L32.0089 8.64553ZM27.7449 4.26807L26.7189 5.98485L26.7189 5.98485L27.7449 4.26807ZM24.877 3.03528L24.3379 4.96124L24.3379 4.96124L24.877 3.03528ZM17.4346 3.38005L18.151 5.24735L18.151 5.24735L17.4346 3.38005ZM13.8715 5.53255L15.1899 7.03653L15.1899 7.03653L13.8715 5.53255ZM11.2782 8.76461L9.52382 7.80435L9.52382 7.80436L11.2782 8.76461ZM9.94587 12.7848L7.96523 12.5072L7.96522 12.5073L9.94587 12.7848ZM9.93104 12.8907L10.0871 14.8846C11.0227 14.8114 11.7815 14.0975 11.9117 13.1682L9.93104 12.8907ZM9.82445 12.899L9.98051 14.8929H9.98052L9.82445 12.899ZM6.41478 13.8321L5.53282 12.037L5.53282 12.037L6.41478 13.8321ZM3.65496 15.886L2.18966 14.5248L2.18966 14.5248L3.65496 15.886ZM1.87477 25.9823L0.0327672 26.7614L0.0327713 26.7614L1.87477 25.9823ZM2.74498 27.5855L4.40223 26.4659L4.40223 26.4659L2.74498 27.5855ZM3.89759 28.9825L5.31182 27.5683L5.31181 27.5682L3.89759 28.9825ZM5.29456 30.1351L4.17494 31.7923L4.17496 31.7923L5.29456 30.1351ZM6.89778 31.0053L6.11866 32.8473L6.11867 32.8473L6.89778 31.0053ZM9.81406 12.7663L9.97013 14.7602C10.9057 14.687 11.6645 13.9732 11.7947 13.0439L9.81406 12.7663ZM32.1249 8.58029L30.3817 9.56066C30.856 10.4041 31.866 10.7869 32.7802 10.4699L32.1249 8.58029ZM46.7706 25.2547L44.982 24.3597C44.9368 24.45 44.8985 24.5436 44.8675 24.6397L46.7706 25.2547ZM37.6609 33.747C38.9025 33.747 40.1276 33.5485 41.2996 33.1555L40.0279 29.3631C39.2698 29.6173 38.4744 29.747 37.6609 29.747V33.747ZM41.2996 33.1555C42.432 32.7758 43.4946 32.2217 44.4567 31.5101L42.0783 28.2941C41.4512 28.7579 40.7618 29.117 40.0279 29.3631L41.2996 33.1555ZM44.4567 31.5101C45.4075 30.807 46.2415 29.9641 46.9345 29.006L43.6934 26.6618C43.2415 27.2866 42.6985 27.8355 42.0783 28.2941L44.4567 31.5101ZM46.9345 29.006C47.6364 28.0356 48.1794 26.9662 48.547 25.8288L44.7408 24.5987C44.5026 25.3358 44.1508 26.0295 43.6934 26.6618L46.9345 29.006ZM48.5471 25.8286L48.5502 25.819L44.7439 24.5894L44.7408 24.599L48.5471 25.8286ZM48.4353 26.0997L48.4398 26.0907L44.8632 24.2996L44.8587 24.3086L48.4353 26.0997ZM48.4401 26.0901C48.9113 25.1484 49.2741 24.1526 49.5186 23.1291L45.6282 22.1995C45.4548 22.9248 45.1973 23.632 44.863 24.3002L48.4401 26.0901ZM49.5186 23.1291C49.7704 22.0756 49.8974 20.9898 49.8974 19.901H45.8974C45.8974 20.6797 45.8065 21.4533 45.6282 22.1995L49.5186 23.1291ZM49.8974 19.901C49.8974 18.9637 49.8031 18.0261 49.6162 17.1125L45.6974 17.9144C45.8298 18.5617 45.8974 19.2306 45.8974 19.901H49.8974ZM49.6162 17.1125C49.434 16.2224 49.1625 15.3477 48.8086 14.511L45.1246 16.0692C45.3754 16.6621 45.5683 17.2835 45.6974 17.9144L49.6162 17.1125ZM48.8086 14.511C48.4612 13.6895 48.0318 12.8985 47.5317 12.1583L44.2172 14.3975C44.5728 14.9238 44.8783 15.4868 45.1246 16.0692L48.8086 14.511ZM47.5317 12.1583C47.0364 11.4251 46.4683 10.7366 45.8421 10.1104L43.0136 12.9388C43.4596 13.3848 43.8649 13.8761 44.2172 14.3975L47.5317 12.1583ZM45.8421 10.1104C45.2159 9.48424 44.5274 8.91613 43.7942 8.42081L41.555 11.7353C42.0764 12.0876 42.5676 12.4928 43.0136 12.9388L45.8421 10.1104ZM43.7942 8.42081C43.054 7.92072 42.263 7.49131 41.4415 7.14387L39.8833 10.8279C40.4657 11.0742 41.0287 11.3797 41.555 11.7353L43.7942 8.42081ZM41.4416 7.14388C40.6048 6.78997 39.7301 6.51843 38.84 6.33628L38.0381 10.2551C38.669 10.3842 39.2904 10.5771 39.8833 10.8279L41.4416 7.14388ZM38.84 6.33628C37.9264 6.14934 36.9887 6.05501 36.0515 6.05501V10.055C36.7218 10.055 37.3908 10.1226 38.0381 10.2551L38.84 6.33628ZM36.0515 6.05501C34.4996 6.05501 32.9716 6.31067 31.5132 6.81645L32.8238 10.5956C33.8567 10.2374 34.9414 10.055 36.0515 10.055V6.05501ZM31.5131 6.81646L31.408 6.85291L32.7188 10.6321L32.8239 10.5956L31.5131 6.81646ZM33.8066 7.7621L33.7521 7.66514L30.2657 9.62593L30.3202 9.72288L33.8066 7.7621ZM33.7521 7.66516C32.5675 5.55882 30.8458 3.79132 28.7709 2.5513L26.7189 5.98485C28.1957 6.86747 29.4229 8.12738 30.2656 9.6259L33.7521 7.66516ZM28.7709 2.5513C27.7209 1.92379 26.5923 1.43855 25.4162 1.10931L24.3379 4.96124C25.1714 5.19457 25.9726 5.53888 26.7189 5.98485L28.7709 2.5513ZM25.4162 1.10932C24.2023 0.769508 22.944 0.597944 21.6766 0.597944V4.59794C22.5831 4.59794 23.4785 4.72065 24.3379 4.96124L25.4162 1.10932ZM21.6766 0.597944C19.9719 0.597944 18.3017 0.90525 16.7182 1.51276L18.151 5.24735C19.2729 4.81692 20.4571 4.59794 21.6766 4.59794V0.597944ZM16.7182 1.51275C15.1898 2.09911 13.7874 2.94667 12.5532 4.02857L15.1899 7.03653C16.0706 6.26453 17.0658 5.66368 18.151 5.24735L16.7182 1.51275ZM12.5532 4.02857C11.3262 5.10407 10.306 6.37539 9.52382 7.80435L13.0326 9.72487C13.5893 8.70781 14.314 7.80427 15.1899 7.03653L12.5532 4.02857ZM9.52382 7.80436C8.72194 9.26941 8.197 10.8533 7.96523 12.5072L11.9265 13.0624C12.0912 11.8872 12.4628 10.7659 13.0326 9.72486L9.52382 7.80436ZM7.96522 12.5073L7.95038 12.6132L11.9117 13.1682L11.9265 13.0623L7.96522 12.5073ZM9.77497 10.8968L9.66838 10.9051L9.98052 14.8929L10.0871 14.8846L9.77497 10.8968ZM9.66838 10.9051C8.22445 11.0181 6.83087 11.3993 5.53282 12.037L7.29673 15.6271C8.13898 15.2133 9.03975 14.9666 9.98051 14.8929L9.66838 10.9051ZM5.53282 12.037C4.27283 12.6561 3.14678 13.4945 2.18966 14.5248L5.12026 17.2472C5.74602 16.5736 6.47704 16.0299 7.29673 15.6271L5.53282 12.037ZM2.18966 14.5248C0.219485 16.6456 -0.866899 19.4128 -0.866899 22.3084H3.1331C3.1331 20.4221 3.83795 18.6276 5.12026 17.2472L2.18966 14.5248ZM-0.866899 22.3084C-0.866899 23.8479 -0.564563 25.3491 0.0327672 26.7614L3.71678 25.2032C3.32983 24.2883 3.1331 23.3174 3.1331 22.3084H-0.866899ZM0.0327713 26.7614C0.31988 27.4402 0.674598 28.0936 1.08774 28.7051L4.40223 26.4659C4.1336 26.0682 3.90276 25.6428 3.71678 25.2031L0.0327713 26.7614ZM1.08773 28.7051C1.49694 29.3108 1.96615 29.8794 2.48338 30.3967L5.31181 27.5682C4.97475 27.2312 4.66836 26.8598 4.40223 26.4659L1.08773 28.7051ZM2.48337 30.3967C3.00061 30.9139 3.56926 31.3831 4.17494 31.7923L6.41419 28.4778C6.02025 28.2117 5.64886 27.9053 5.31182 27.5683L2.48337 30.3967ZM4.17496 31.7923C4.78648 32.2055 5.43987 32.5602 6.11866 32.8473L7.6769 29.1633C7.23721 28.9773 6.81181 28.7465 6.41417 28.4778L4.17496 31.7923ZM6.11867 32.8473C7.53091 33.4446 9.03211 33.747 10.5716 33.747V29.747C9.56267 29.747 8.59173 29.5502 7.67689 29.1633L6.11867 32.8473ZM10.5716 33.747H36.0515V29.747H10.5716V33.747ZM36.0515 33.747H37.6609V29.747H36.0515V33.747ZM37.6609 29.8801H36.0515V33.8801H37.6609V29.8801ZM36.0515 29.8801H10.5716V33.8801H36.0515V29.8801ZM10.5716 29.8801C6.38996 29.8801 3 26.4901 3 22.3084H-1C-1 28.6992 4.18082 33.8801 10.5716 33.8801V29.8801ZM3 22.3084C3 18.3293 6.07061 15.0655 9.97013 14.7602L9.65799 10.7724C3.69306 11.2393 -1 16.2249 -1 22.3084H3ZM11.7947 13.0439C12.4741 8.1961 16.6412 4.46484 21.6766 4.46484V0.464844C14.6188 0.464844 8.78572 5.69323 7.83341 12.4888L11.7947 13.0439ZM21.6766 4.46484C25.4109 4.46484 28.6688 6.51491 30.3817 9.56066L33.8681 7.59992C31.4756 3.34569 26.9139 0.464844 21.6766 0.464844V4.46484ZM32.7802 10.4699C33.8025 10.1154 34.9022 9.92191 36.0515 9.92191V5.92191C34.4501 5.92191 32.9076 6.19197 31.4696 6.6907L32.7802 10.4699ZM36.0515 9.92191C41.5628 9.92191 46.0305 14.3897 46.0305 19.901H50.0305C50.0305 12.1806 43.772 5.92191 36.0515 5.92191V9.92191ZM46.0305 19.901C46.0305 21.5074 45.6523 23.0202 44.982 24.3597L48.5592 26.1497C49.5012 24.2671 50.0305 22.1428 50.0305 19.901H46.0305ZM44.8675 24.6397C43.884 27.683 41.0265 29.8801 37.6609 29.8801V33.8801C42.812 33.8801 47.1722 30.5158 48.6737 25.8697L44.8675 24.6397Z" fill="url(#paint6_linear_9753_30347)" mask="url(#path-5-inside-2_9753_30347)"/>
  <defs>
    <filter id="filter0_f_9753_30347" x="0.467597" y="0.467597" width="56.7484" height="31.9437" filterUnits="userSpaceOnUse" color-interpolation-filters="sRGB">
      <feFlood flood-opacity="0" result="BackgroundImageFix"/>
      <feBlend mode="normal" in="SourceGraphic" in2="BackgroundImageFix" result="shape"/>
      <feGaussianBlur stdDeviation="0.266201" result="effect1_foregroundBlur_9753_30347"/>
    </filter>
    <filter id="filter1_b_9753_30347" x="-13" y="-13" width="83.6816" height="58.8789" filterUnits="userSpaceOnUse" color-interpolation-filters="sRGB">
      <feFlood flood-opacity="0" result="BackgroundImageFix"/>
      <feGaussianBlur in="BackgroundImageFix" stdDeviation="7"/>
      <feComposite in2="SourceAlpha" operator="in" result="effect1_backgroundBlur_9753_30347"/>
      <feBlend mode="normal" in="SourceGraphic" in2="effect1_backgroundBlur_9753_30347" result="shape"/>
    </filter>
    <linearGradient id="paint0_linear_9753_30347" x1="28.8465" y1="1" x2="41.9729" y2="36.7929" gradientUnits="userSpaceOnUse">
      <stop stop-color="white" stop-opacity="0.604"/>
      <stop offset="1" stop-color="white" stop-opacity="0.2"/>
    </linearGradient>
    <linearGradient id="paint1_linear_9753_30347" x1="31.4309" y1="1.92888" x2="31.4309" y2="35.3685" gradientUnits="userSpaceOnUse">
      <stop stop-color="white"/>
      <stop offset="1" stop-color="white" stop-opacity="0"/>
    </linearGradient>
    <linearGradient id="paint2_linear_9753_30347" x1="28.841" y1="1" x2="28.841" y2="31.8793" gradientUnits="userSpaceOnUse">
      <stop stop-color="white"/>
      <stop offset="1" stop-color="white" stop-opacity="0"/>
    </linearGradient>
    <linearGradient id="paint3_linear_9753_30347" x1="24.5194" y1="-6.94428" x2="24.5194" y2="35.9906" gradientUnits="userSpaceOnUse">
      <stop stop-color="white"/>
      <stop offset="1" stop-color="white" stop-opacity="0"/>
    </linearGradient>
    <linearGradient id="paint4_linear_9753_30347" x1="24.5194" y1="2.46484" x2="24.5194" y2="31.8798" gradientUnits="userSpaceOnUse">
      <stop stop-color="white"/>
      <stop offset="1" stop-color="white" stop-opacity="0"/>
    </linearGradient>
    <linearGradient id="paint5_linear_9753_30347" x1="24.5153" y1="-6.94437" x2="24.5153" y2="35.9909" gradientUnits="userSpaceOnUse">
      <stop stop-color="white"/>
      <stop offset="1" stop-color="white" stop-opacity="0"/>
    </linearGradient>
    <linearGradient id="paint6_linear_9753_30347" x1="24.5153" y1="2.46484" x2="24.5153" y2="31.8801" gradientUnits="userSpaceOnUse">
      <stop stop-color="white"/>
      <stop offset="1" stop-color="white" stop-opacity="0"/>
    </linearGradient>
  </defs>
</svg>