<svg width="375" height="350" viewBox="0 0 375 350" fill="none" xmlns="http://www.w3.org/2000/svg">
<g clip-path="url(#clip0_8691_26770)">
<path d="M680.81 203.286H656.994L626.965 218.76L606.254 212.093L582.133 220.371L565.062 221.905L554.883 229.975L528.18 222.211L493.028 222.722L477.618 226.178L456.63 227.118L436.177 238.093L412.314 248.228L394.248 248.747L369.959 255.777L355.06 253.258L337.305 257.97L313.664 259.824L293.154 260.664L288.621 263.797L271.648 274.924L247.604 277.365L238.645 288.23L209.697 277.365L185.764 294.766L182.162 304.067L148.807 309.894L136.098 305.272L129.291 309.901L106.955 312.465L93.2079 324.207H66.2062L37.4989 334.578L19.967 350.397L8.26571 362.855L-17.694 358.537L-27.9753 360.264L-56.9681 369.56H-72.3711V396.271H0.609268H576.635H772.58V197.547L680.81 203.286Z" fill="#00311C"/>
<path d="M38.9718 325.358C38.6287 326.308 38.258 327.165 37.8898 327.924C37.4189 328.764 36.9456 329.603 36.4747 330.443C36.1767 331.288 35.9062 332.23 35.6933 333.262C35.6232 333.606 35.5631 333.942 35.513 334.267C35.5731 334.483 35.6958 335.019 35.498 335.651C35.3377 336.17 35.0396 336.505 34.8793 336.661C34.8618 336.921 34.8443 337.185 34.8242 337.445C34.9244 337.478 35.1248 337.556 35.3051 337.744C35.4504 337.896 35.523 338.057 35.5556 338.152C35.8586 338.353 36.1592 338.551 36.4622 338.749C38.2029 332.721 39.7056 326.568 41.2234 320.418C40.9128 320.959 40.477 321.621 39.8559 322.338C39.6455 323.255 39.36 324.27 38.9693 325.353L38.9718 325.358Z" fill="#00311C"/>
<path d="M55.6613 266.327C55.3883 266.976 55.1178 267.625 54.8448 268.272C55.0452 268.427 55.2431 268.585 55.4434 268.74C55.1604 269.189 54.8749 269.673 54.5944 270.191C54.2963 270.743 54.0334 271.274 53.8029 271.783C53.7178 271.923 53.5951 272.144 53.4673 272.42C53.0942 273.234 53.1918 273.465 52.9263 274.217C52.5882 275.174 52.2526 275.307 51.9496 276.397C51.8794 276.648 51.8369 276.858 51.8118 276.998C51.5363 277.309 51.2633 277.617 50.9878 277.928C50.9903 278.056 50.9753 278.224 50.8601 278.327C50.7649 278.414 50.6497 278.414 50.547 278.429C50.3767 278.457 50.1438 278.55 49.8783 278.841C49.9334 279.071 49.986 279.432 49.9234 279.866C49.8783 280.166 49.7906 280.412 49.7105 280.59C49.7731 280.71 49.8833 280.961 49.8633 281.289C49.8532 281.472 49.8057 281.62 49.7631 281.723C49.7731 281.808 49.7806 281.996 49.6754 282.189C49.6303 282.272 49.5777 282.332 49.5352 282.374C49.5702 282.525 49.6078 282.675 49.6479 282.828C49.6829 282.968 49.7205 283.109 49.7581 283.246C49.8883 283.495 50.0186 283.743 50.1513 283.988C50.1338 284.131 50.1162 284.274 50.0962 284.417C50.3241 284.585 50.4569 284.768 50.5295 284.886C50.6197 285.033 50.7023 285.169 50.7023 285.359C50.7023 285.595 50.5746 285.768 50.522 285.833C50.5069 285.973 50.4969 286.186 50.5495 286.434C50.6247 286.78 50.7674 286.928 50.8601 287.181C50.9402 287.402 51.0003 287.745 50.8601 288.246C50.9578 288.472 51.0554 288.7 51.1531 288.926C51.1431 289.179 51.1306 289.432 51.1206 289.685C51.1631 289.843 51.2057 290.003 51.2458 290.161C51.2658 290.159 51.371 290.139 51.4261 290.196C51.4912 290.264 51.4737 290.429 51.3309 290.557C51.341 290.758 51.351 290.958 51.3585 291.159C51.4186 291.274 51.4912 291.454 51.4988 291.682C51.5188 292.264 51.0955 292.655 51.0229 292.72C51.1556 292.885 51.2884 293.048 51.4236 293.214C51.654 293.289 51.8819 293.364 52.1124 293.439C52.1249 293.494 52.1449 293.615 52.0973 293.748C52.0773 293.805 52.0497 293.85 52.0247 293.883C52.0598 293.933 52.1775 294.113 52.1499 294.359C52.1324 294.512 52.0673 294.62 52.0297 294.675C52.0498 294.702 52.1474 294.835 52.1249 295.023C52.0998 295.229 51.9471 295.339 51.922 295.357C52.0548 295.384 52.2 295.419 52.3553 295.469C52.6208 295.557 52.8462 295.665 53.024 295.768C53.0866 295.725 53.2419 295.637 53.4523 295.645C53.5575 295.647 53.6451 295.675 53.7053 295.7C53.7278 295.68 53.848 295.575 54.0284 295.585C54.1937 295.595 54.2988 295.695 54.3214 295.717C54.4766 295.647 54.7973 295.53 55.1304 295.64C55.1729 295.655 55.213 295.672 55.2506 295.69C55.466 295.672 55.6989 295.662 55.9469 295.667C56.5505 295.68 57.0789 295.77 57.5097 295.883C57.9981 295.933 58.504 295.993 59.0224 296.066C59.4933 296.131 59.9516 296.204 60.3949 296.281C60.733 296.347 61.0586 296.412 61.3767 296.479C59.7463 286.314 58.1008 276.149 56.573 265.979C56.2424 266.136 55.9318 266.249 55.6588 266.327H55.6613Z" fill="#00311C"/>
<path d="M83.0539 323.355C82.7408 322.678 82.0621 322.46 81.9394 322.422C81.734 322.387 81.3258 322.342 80.8574 322.505C80.1611 322.748 79.813 323.279 79.7153 323.445C79.5801 323.442 79.4473 323.44 79.3121 323.437C79.262 323.507 79.1718 323.615 79.0216 323.693C78.706 323.858 78.3904 323.751 78.3278 323.728C78.16 323.585 77.9671 323.432 77.7417 323.282C77.4888 323.111 77.2483 322.976 77.0279 322.868C76.9553 322.685 76.8451 322.46 76.6673 322.229C76.2866 321.738 75.8157 321.507 75.5603 321.405C75.6379 321.117 75.7406 320.573 75.6154 319.911C75.5001 319.31 75.2472 318.873 75.0819 318.633C74.9291 317.818 74.7763 317.006 74.6236 316.192C74.3806 315.342 74.1377 314.49 73.8972 313.638C73.5266 312.322 73.1584 311.006 72.7952 309.691C72.6274 308.706 72.4596 307.718 72.2918 306.733C72.3068 306.61 72.3219 306.43 72.3269 306.212C72.3444 305.51 72.2242 304.989 72.1691 304.733C72.0238 304.067 71.8635 303.157 71.6657 301.964C71.6782 301.611 71.6557 300.761 71.1172 299.919C70.8166 299.448 70.4585 299.144 70.203 298.961C70.1404 298.936 70.0477 298.896 69.935 298.849C68.5801 298.287 67.2301 297.849 64.8432 297.26C64.1169 297.079 63.2754 296.881 62.3362 296.678C60.7207 286.26 59.1053 275.839 57.4924 265.42C57.6476 265.305 57.7879 265.192 57.9056 265.085C57.9958 264.959 58.0859 264.837 58.1761 264.711C58.2011 264.699 58.5443 264.498 58.5618 264.117C58.5718 263.894 58.4666 263.734 58.4266 263.676C58.4466 263.631 58.5794 263.32 58.4191 263.015C58.3389 262.862 58.2187 262.776 58.1536 262.736C58.1761 262.636 58.2162 262.375 58.0885 262.102C58.0333 261.987 57.9632 261.902 57.9056 261.842C57.9181 261.839 58.121 261.789 58.1836 261.598C58.2262 261.468 58.1786 261.355 58.1661 261.328C58.1962 261.3 58.2963 261.205 58.3239 261.045C58.3565 260.854 58.2613 260.711 58.2412 260.684C57.9457 260.744 57.5324 260.789 57.0516 260.726C56.9664 260.716 56.8838 260.701 56.8036 260.686C56.6133 259.659 56.5632 258.646 56.3904 257.556C56.2376 257.533 55.912 257.401 55.5639 257.551C55.381 257.629 55.2458 257.731 55.1556 257.814C55.4612 258.824 55.4462 259.947 55.6966 260.974C55.6365 261.005 55.5764 261.035 55.5138 261.065C55.1932 261.218 54.8876 261.343 54.6046 261.443C54.1964 262.408 53.7881 263.373 53.3799 264.34C53.2096 264.521 53.0368 264.729 52.8664 264.964C52.3956 265.624 52.1351 266.275 51.9823 266.786C51.9423 266.824 51.8997 266.864 51.8596 266.902C51.4564 267.623 51.0657 268.418 50.705 269.285C50.6048 269.526 50.5097 269.766 50.422 270.002C50.1114 270.35 49.7984 270.699 49.4878 271.047C49.4753 271.06 49.3275 271.185 49.345 271.388C49.3575 271.531 49.4477 271.656 49.5805 271.716C49.3626 271.929 49.1296 272.175 48.8967 272.46C48.7014 272.696 48.5336 272.927 48.3858 273.145C48.3983 273.092 48.4008 273.044 48.4008 273.002C48.3933 272.694 48.1353 272.486 48.0677 272.433C48.531 271.984 48.6287 271.393 48.3908 271.065C48.253 270.874 48.0276 270.804 47.8874 270.779C47.9375 270.656 47.9901 270.536 48.0402 270.413C48.2956 270.385 48.5486 270.355 48.8015 270.328C48.8366 270.245 48.8717 270.147 48.8992 270.037C48.9268 269.937 48.9418 269.844 48.9518 269.761C48.5887 269.162 48.2255 268.563 47.8648 267.964C47.6645 267.746 47.4641 267.526 47.2663 267.308C47.3464 267.16 47.429 267.012 47.5092 266.867C47.6545 266.859 47.8072 266.847 47.9675 266.824C48.5937 266.741 49.1271 266.563 49.5579 266.375C49.8234 266.365 50.0463 266.217 50.124 266.007C50.1766 265.862 50.144 265.726 50.124 265.664C50.0989 265.4 50.0739 265.14 50.0488 264.877C50.1615 264.739 50.2742 264.601 50.3869 264.463C50.4871 264.378 50.5097 264.298 50.5147 264.253C50.5297 264.14 50.4621 264.035 50.3594 263.872C50.2642 263.726 50.2016 263.671 50.2241 263.621C50.2442 263.573 50.3293 263.563 50.397 263.563C50.3894 263.448 50.3819 263.335 50.3744 263.223C50.3995 263.213 50.5873 263.13 50.6499 262.922C50.695 262.769 50.6449 262.641 50.6299 262.603C50.6023 262.581 50.5522 262.533 50.5247 262.458C50.4721 262.3 50.5748 262.16 50.5873 262.147C50.8152 262.09 51.0456 262.03 51.2736 261.972C51.3011 261.947 51.5415 261.721 51.4965 261.413C51.4789 261.29 51.4238 261.2 51.3837 261.147C51.3286 261.09 51.2435 260.994 51.1533 260.867C50.958 260.591 50.9179 260.416 50.7626 260.147C50.6925 260.025 50.5773 259.847 50.3995 259.651C50.5021 259.614 50.5597 259.523 50.5497 259.441C50.5422 259.38 50.4996 259.34 50.4846 259.328C50.4921 259.275 50.5021 259.225 50.5096 259.172C50.5297 259.132 50.5522 259.09 50.5723 259.05C50.6574 258.947 50.8378 258.704 50.8678 258.355C50.8803 258.21 50.8653 258.085 50.8428 257.99C50.7276 257.822 50.5673 257.558 50.437 257.213C50.2467 256.706 50.2792 256.443 50.134 256.027C50.0388 255.754 49.856 255.381 49.4628 254.985C50.1064 254.751 50.4996 254.406 50.4571 254.137C50.4495 254.085 50.4195 254.012 50.3268 253.934C50.1841 253.929 49.9987 253.907 49.7883 253.839C49.6255 253.789 49.4928 253.724 49.3876 253.664C49.2373 253.561 49.0169 253.416 48.7339 253.27C47.141 252.438 45.5907 252.523 44.9295 252.566C44.4211 252.601 43.6446 252.656 42.7155 253.02C42.1519 253.24 40.4864 253.892 39.4896 255.694C38.5353 257.423 38.7983 259.087 38.886 259.588C39.1189 260.922 39.7375 261.859 40.0957 262.323C40.5741 263.087 40.7419 263.543 40.5991 263.684C40.5465 263.736 40.4538 263.746 40.3161 263.714C40.2309 263.867 40.1483 264.017 40.0631 264.167C39.8277 264.175 39.5923 264.182 39.3544 264.19C39.2867 264.766 39.2191 265.343 39.1515 265.917C39.0989 265.997 38.9636 266.22 38.9686 266.533C38.9711 266.814 39.0838 267.017 39.1364 267.102C38.8885 267.23 38.6405 267.355 38.3926 267.483C38.4051 267.611 38.4051 267.769 38.3751 267.944C38.3099 268.348 38.1872 267.937 38.067 268.095C38.0996 266.992 38.2974 266.892 38.0044 266.618C37.9167 266.536 37.9468 266.634 37.8441 266.571C37.6813 266.694 37.3807 266.451 37.2104 266.621C36.7145 267.117 36.4065 267.639 36.2186 268.047C36.0208 268.278 35.7954 268.586 35.595 268.977C35.4748 269.212 35.3871 269.433 35.3195 269.633C34.3652 270.072 33.4085 270.511 32.4518 270.949C31.728 271.365 31.0016 271.779 30.2778 272.195C29.291 272.686 28.3017 273.177 27.3149 273.669C27.0645 273.774 26.7864 273.907 26.4909 274.077C26.2279 274.23 25.9975 274.388 25.7996 274.538C25.1986 275.571 23.2751 280.621 22.684 281.836C22.0053 283.232 21.4292 284.571 20.9408 285.831C20.7855 286.185 20.7079 286.478 20.6653 286.666C20.3698 287.974 20.8657 288.528 20.4675 289.187C20.3998 289.3 20.197 289.593 20.2571 289.934C20.2771 290.044 20.3172 290.127 20.3447 290.177C20.3222 290.653 20.3498 291.277 20.5351 291.974C20.6152 292.277 20.7129 292.545 20.8131 292.784C21.3015 293.252 21.7899 293.718 22.2783 294.187C22.1856 294.322 22.0704 294.52 21.9852 294.773C21.89 295.062 21.8675 295.315 21.8675 295.49C21.9301 295.493 21.9952 295.498 22.0579 295.503C21.9301 295.796 21.597 296.601 21.7849 296.726C21.7999 296.736 21.8149 296.741 21.8374 296.743C21.9927 296.794 22.148 296.844 22.3033 296.894C22.3559 297.139 22.406 297.382 22.4586 297.628C22.6164 298.032 22.7716 298.435 22.9294 298.839C22.8368 299.014 22.7191 299.292 22.689 299.648C22.6264 300.357 22.947 300.886 23.0672 301.067C23.0371 301.212 23.0246 301.382 23.0522 301.565C23.1749 302.36 23.9738 302.763 24.0916 302.821C24.3671 302.941 24.6426 303.059 24.9181 303.179C25.5492 303.931 26.3406 304.763 27.3124 305.598C28.0813 306.257 28.8277 306.801 29.5139 307.25C30.403 306.939 31.3673 306.641 32.3992 306.372C33.952 305.966 35.4097 305.691 36.7371 305.505C36.6369 306.367 36.5693 307.332 36.5618 308.377C36.5568 309.31 36.6018 310.174 36.6745 310.959C36.6169 311.109 36.5618 311.259 36.5042 311.407C36.419 311.493 36.3113 311.628 36.3063 311.798C36.2988 312.004 36.439 312.104 36.5066 312.317C36.5542 312.467 36.5718 312.701 36.414 313.044C36.3764 313.066 36.2637 313.142 36.2186 313.282C36.1635 313.45 36.2286 313.648 36.3814 313.778C36.2737 313.866 36.126 314.016 36.0583 314.237C35.9882 314.46 36.0533 314.59 36.0033 314.831C35.9757 314.971 35.903 315.177 35.6977 315.407C35.8379 315.495 35.9031 315.663 35.8555 315.811C35.8154 315.931 35.7077 316.021 35.575 316.044C35.5925 316.142 35.6125 316.239 35.63 316.335C35.4698 316.515 35.307 316.696 35.1467 316.876C34.7935 317.655 34.4379 318.437 34.0848 319.217C33.8568 320.064 33.6314 320.911 33.4035 321.758C33.3083 321.939 33.1756 322.202 33.0278 322.528C32.3065 324.121 32.0686 325.382 31.8031 326.678C31.5952 327.69 31.2796 329.182 30.8213 331.119C30.6535 331.452 30.4782 331.868 30.3354 332.357C30.2077 332.798 30.135 333.199 30.095 333.545C30.2002 333.868 30.3029 334.192 30.408 334.517C30.3454 334.828 30.2853 335.141 30.2227 335.452C30.1125 335.525 29.9948 335.62 29.8871 335.748C29.4263 336.284 29.4663 336.973 29.4864 337.181C29.5064 337.357 29.5265 337.532 29.544 337.71C29.291 338.156 29.0355 338.603 28.7826 339.051C28.7626 339.201 28.6549 339.322 28.5196 339.352C28.3668 339.384 28.2466 339.289 28.2316 339.277C28.174 339.76 28.1164 340.247 28.0563 340.73C27.9886 340.783 27.921 340.833 27.8534 340.886C27.7858 341.154 27.7006 341.64 27.8234 342.224C28.0062 343.081 28.5246 343.607 28.7325 343.795C29.2009 343.928 29.847 344.056 30.6159 344.036C31.9734 344.001 33.0053 343.53 33.5513 343.227C33.9821 343.146 34.4154 343.066 34.8461 342.986C34.9589 342.988 35.0741 342.991 35.1893 342.991C34.5732 344.961 33.927 346.911 33.2382 348.84C33.2532 348.891 33.3209 349.081 33.5212 349.201C33.7617 349.344 34.0046 349.274 34.0447 349.262C34.801 347.189 35.5098 345.086 36.1811 342.968C36.5918 342.946 37.0201 342.908 37.4709 342.851C38.9461 342.658 40.2009 342.302 41.1927 341.941C41.3355 341.886 41.5158 341.793 41.6936 341.635C42.157 341.219 42.2371 340.663 42.2546 340.485C42.2972 340.277 42.3473 339.878 42.1319 339.535C42.0668 339.43 41.8364 339.104 40.8145 338.926C40.0406 338.79 39.5372 338.866 38.345 338.936C37.9944 338.956 37.6763 338.971 37.4008 338.983C40.0306 330.064 42.1544 320.871 44.5663 311.831C44.7442 311.473 44.9195 311.067 45.0773 310.615C45.3327 309.876 45.473 309.202 45.5481 308.646C46.2644 307.345 46.9832 306.044 47.6995 304.741C49.2023 304.818 50.7025 304.896 52.2052 304.974C53.4375 305.157 54.9527 305.28 56.6759 305.197C58.0759 305.129 59.3182 304.939 60.3651 304.716C60.7833 304.766 61.2943 304.793 61.8678 304.746C62.1609 304.721 62.4313 304.681 62.6793 304.633C63.7538 311.395 64.8057 318.157 65.795 324.923C65.8351 324.954 65.9353 325.199 66.3385 325.099C66.6916 325.011 66.649 324.751 66.6791 324.7C65.6522 318.066 64.6228 311.432 63.5935 304.798C63.7788 304.841 63.9541 304.874 64.1219 304.901C64.1294 304.991 64.157 305.162 64.2697 305.34C64.41 305.563 64.6028 305.666 64.6829 305.703C64.6704 305.756 64.6579 305.806 64.6454 305.859C64.6153 305.979 64.5828 306.097 64.5502 306.207C64.7907 306.628 65.0311 307.049 65.2715 307.473C65.244 308.074 65.264 308.781 65.3867 309.558C65.6773 311.4 66.4086 312.801 66.9721 313.673C67.0673 314.051 67.1975 314.475 67.3753 314.924C67.6008 315.5 67.8562 315.991 68.0992 316.4C68.1017 316.911 68.1042 317.425 68.1067 317.936C68.1267 318.122 68.1568 318.317 68.2044 318.52C68.4448 319.543 68.9908 320.284 69.4166 320.746C69.364 320.841 69.2964 320.996 69.2813 321.192C69.2463 321.62 69.4817 321.931 69.5493 322.014C69.5869 322.267 69.6245 322.783 69.3389 323.282C69.2788 323.387 69.2112 323.477 69.1436 323.555C69.1837 323.65 69.5819 324.6 69.1586 325.031C69.1211 325.069 69.0785 325.104 69.0234 325.134C68.9683 325.317 68.9257 325.535 68.9132 325.781C68.8706 326.68 69.2889 327.365 69.4992 327.658C69.7998 327.808 70.1329 327.951 70.4961 328.076C72.0915 328.625 73.5591 328.583 74.5735 328.442C74.6962 328.352 74.8214 328.259 74.9442 328.169C76.0512 328.234 77.1582 328.297 78.2652 328.362C78.7561 328.47 79.8406 328.62 80.8324 328.049C81.4009 327.723 81.734 327.277 82.3026 326.52C82.7684 325.901 82.9212 325.522 83.0013 325.289C83.1566 324.836 83.1917 324.43 83.1967 324.154C83.2067 323.979 83.1967 323.68 83.0489 323.36L83.0539 323.355ZM36.4616 338.753C36.1585 338.552 35.858 338.354 35.5549 338.156C35.5199 338.061 35.4497 337.901 35.3045 337.748C35.1241 337.56 34.9238 337.48 34.8236 337.45C34.8411 337.189 34.8586 336.926 34.8787 336.665C35.039 336.507 35.3345 336.174 35.4973 335.655C35.6927 335.024 35.5724 334.485 35.5123 334.272C35.5624 333.946 35.6225 333.61 35.6927 333.267C35.9055 332.234 36.1761 331.292 36.4741 330.447C36.945 329.608 37.4183 328.768 37.8892 327.928C38.2573 327.169 38.628 326.312 38.9712 325.362C39.3619 324.279 39.6474 323.264 39.8577 322.347C40.4764 321.633 40.9147 320.969 41.2253 320.427C39.71 326.575 38.2048 332.73 36.4641 338.758L36.4616 338.753ZM60.3951 296.285C59.9518 296.207 59.4935 296.134 59.0226 296.069C58.5042 295.997 57.9983 295.936 57.5099 295.886C57.0791 295.776 56.5507 295.683 55.9471 295.671C55.6991 295.666 55.4662 295.676 55.2508 295.693C55.2132 295.673 55.1732 295.656 55.1306 295.643C54.795 295.53 54.4744 295.648 54.3216 295.721C54.299 295.698 54.1964 295.596 54.0286 295.588C53.8482 295.578 53.728 295.686 53.7055 295.703C53.6479 295.678 53.5602 295.653 53.4525 295.648C53.2421 295.643 53.0868 295.731 53.0242 295.771C52.8439 295.668 52.621 295.56 52.3555 295.473C52.2002 295.423 52.055 295.385 51.9222 295.36C51.9473 295.342 52.0976 295.235 52.1251 295.027C52.1476 294.839 52.0525 294.706 52.0299 294.678C52.0675 294.623 52.1326 294.515 52.1501 294.362C52.1777 294.117 52.06 293.936 52.0249 293.886C52.05 293.854 52.0775 293.809 52.0975 293.751C52.1451 293.618 52.1251 293.498 52.1126 293.443C51.8822 293.368 51.6542 293.292 51.4238 293.217C51.2911 293.052 51.1583 292.889 51.0231 292.723C51.0957 292.658 51.519 292.27 51.499 291.686C51.4915 291.46 51.4188 291.28 51.3587 291.162C51.3487 290.962 51.3387 290.761 51.3312 290.561C51.4739 290.433 51.4889 290.267 51.4263 290.2C51.3712 290.142 51.266 290.16 51.246 290.165C51.2034 290.007 51.1608 289.846 51.1208 289.688C51.1308 289.435 51.1433 289.182 51.1533 288.929C51.0557 288.703 50.958 288.478 50.8603 288.25C51.0005 287.749 50.9404 287.408 50.8603 287.185C50.7676 286.931 50.6249 286.781 50.5497 286.438C50.4946 286.19 50.5047 285.977 50.5222 285.836C50.5773 285.771 50.7025 285.598 50.7025 285.363C50.7025 285.172 50.6199 285.039 50.5297 284.889C50.4571 284.771 50.3243 284.591 50.0964 284.42C50.1139 284.277 50.1315 284.135 50.1515 283.992C50.0213 283.744 49.891 283.498 49.7583 283.25C49.7207 283.112 49.6832 282.974 49.6481 282.831C49.608 282.678 49.5704 282.528 49.5354 282.378C49.5805 282.335 49.6331 282.272 49.6756 282.192C49.7808 281.999 49.7708 281.811 49.7633 281.726C49.8059 281.623 49.8535 281.475 49.8635 281.292C49.8835 280.964 49.7733 280.714 49.7107 280.593C49.7909 280.415 49.8785 280.17 49.9236 279.869C49.9862 279.435 49.9336 279.072 49.8785 278.844C50.144 278.553 50.3794 278.46 50.5472 278.433C50.6499 278.415 50.7651 278.415 50.8603 278.33C50.973 278.227 50.9905 278.059 50.988 277.932C51.2635 277.621 51.5365 277.313 51.812 277.002C51.8371 276.864 51.8796 276.653 51.9498 276.4C52.2528 275.31 52.5884 275.177 52.9266 274.22C53.192 273.468 53.0944 273.235 53.4675 272.423C53.5953 272.145 53.718 271.927 53.8032 271.786C54.0336 271.28 54.2966 270.746 54.5946 270.195C54.8751 269.676 55.1606 269.192 55.4436 268.744C55.2433 268.588 55.0454 268.43 54.8451 268.275C55.1156 267.626 55.3885 266.977 55.6615 266.33C55.9345 266.253 56.2451 266.14 56.5757 265.982C58.101 276.155 59.7465 286.317 61.3794 296.483C61.0614 296.418 60.7333 296.352 60.3976 296.285H60.3951Z" fill="#00311C"/>
<path d="M133.237 309.74C133.132 309.62 132.829 309.489 132.681 309.434C132.529 309.377 132.205 309.301 132.043 309.296C131.547 309.274 130.565 309.519 130.069 309.547C129.541 309.577 128.484 309.547 127.958 309.519C127.387 309.487 126.235 309.434 125.679 309.296C125.263 309.194 124.434 308.915 124.093 308.657C123.582 308.266 122.806 307.186 122.538 306.6C122.51 306.542 122.485 306.474 122.46 306.407L125.045 254.698C125.158 254.675 125.325 254.691 125.401 254.65C125.496 254.6 125.684 254.45 125.706 254.345C125.731 254.229 125.626 253.981 125.538 253.899C125.466 253.828 125.238 253.833 125.088 253.801L125.098 253.618C125.265 253.6 125.536 253.655 125.651 253.62C125.771 253.585 126.007 253.485 126.097 253.397C126.159 253.337 126.257 253.179 126.265 253.092C126.27 253.011 126.202 252.851 126.154 252.786C126.107 252.721 125.897 252.67 125.904 252.59C125.914 252.472 126.235 252.447 126.322 252.367C126.4 252.295 126.53 252.112 126.545 252.006C126.555 251.929 126.453 251.778 126.463 251.701C126.468 251.638 126.578 251.54 126.573 251.478C126.568 251.392 126.445 251.252 126.377 251.199C126.277 251.119 126.017 251.066 125.904 251.004C125.731 250.909 125.458 250.613 125.255 250.523L125.3 249.61C125.318 249.252 125.042 248.949 124.687 248.931C124.331 248.916 124.026 249.189 124.008 249.545L123.958 250.57C123.81 250.593 123.71 250.613 123.71 250.613L122.07 251.029C122.07 251.029 121.368 251.249 121.153 251.362C120.963 251.462 120.459 251.863 120.459 251.863L118.986 252.169C118.986 252.169 119.327 251.262 119.375 250.946C119.427 250.61 119.442 249.916 119.375 249.583C119.31 249.272 119.029 248.691 118.874 248.415C118.638 247.999 118.042 247.244 117.762 246.859C117.429 246.397 116.427 245.024 116.427 245.024L114.927 241.964L113.677 239.405L113.399 238.598L113.982 237.179L115.094 235.593C115.094 235.593 116.116 235.26 116.457 235.147C116.692 235.069 117.188 234.966 117.401 234.841C117.524 234.768 117.747 234.575 117.819 234.453C117.867 234.367 117.904 234.162 117.902 234.064C117.902 233.906 117.764 233.453 117.764 233.453L118.08 232.989L118.117 232.786L118.025 232.488L118.248 232.21L118.285 232.007L118.1 231.784L118.045 231.134L118.415 230.894C118.415 230.894 118.743 230.696 118.824 230.598C118.881 230.528 118.964 230.355 118.971 230.265C118.976 230.192 118.939 230.044 118.896 229.987C118.834 229.901 118.628 229.826 118.543 229.764C118.478 229.716 118.303 229.561 118.303 229.561L117.561 228.743L117.338 228.225L117.431 228.039L117.541 227.816L117.449 227.576L117.411 227.037L117.356 226.535L118.042 225.999C118.042 225.999 118.398 225.701 118.523 225.611C118.613 225.546 118.864 225.475 118.894 225.37C118.911 225.307 118.836 225.17 118.784 225.129C118.626 225.009 118.005 224.999 118.005 224.999L116.792 224.611C116.792 224.611 115.665 223.418 115.237 223.082C114.902 222.819 114.163 222.398 113.792 222.192C113.474 222.017 112.845 221.601 112.487 221.553C112.046 221.493 111.17 221.781 110.736 221.886C110.243 222.007 109.249 222.25 108.79 222.47C108.35 222.683 107.543 223.257 107.177 223.583C106.847 223.879 106.246 224.543 106.01 224.919C105.873 225.142 105.61 225.608 105.565 225.864C105.489 226.32 105.682 227.245 105.76 227.698C105.842 228.192 106.231 229.147 106.206 229.646C106.168 230.357 105.289 232.342 105.289 232.342L105.372 232.483L104.342 233.623C104.342 233.623 103.611 234.713 103.398 235.097C103.248 235.365 102.907 235.904 102.87 236.21C102.83 236.548 103.012 237.232 103.148 237.545C103.368 238.052 104.425 239.352 104.425 239.352L103.674 241.884C103.674 241.884 103.528 240.966 103.478 240.661C103.438 240.41 103.498 239.831 103.31 239.661C103.138 239.5 102.516 239.395 102.366 239.578C102.076 239.929 102.804 240.879 102.867 241.33C102.887 241.468 102.867 241.886 102.867 241.886L103.118 243.528C103.118 243.528 102.599 244.327 102.311 244.362C102.221 244.372 102.096 244.162 102.006 244.167C101.455 244.202 100.721 245.214 100.31 245.585C99.9267 245.931 99.1629 246.63 98.8373 247.031C98.6018 247.32 98.0308 248.282 98.0308 248.282L97.5023 249.227L95.8067 249.282L95.391 248.976C95.391 248.976 95.0954 248.894 95.0028 248.921C94.9076 248.949 94.7523 249.089 94.6972 249.172C94.6196 249.287 94.4918 249.568 94.5294 249.701C94.5569 249.796 94.7398 249.924 94.8349 249.951C94.9552 249.986 95.3359 249.896 95.3359 249.896L95.1405 251.37C95.1405 251.37 95.0879 253.332 95.1405 253.984C95.2182 254.946 95.7516 257.793 95.7516 257.793C95.7516 257.793 95.0153 258.35 94.9176 258.628C94.6697 259.325 95.2232 261.575 95.2232 261.575C95.2232 261.575 94.9802 263.512 94.9452 264.162C94.9351 264.342 94.9452 264.886 94.9452 264.886L94.8349 265.051L94.7523 265.913L95.0854 266.219L95.4736 266.024L95.4461 265.021L95.3634 264.911C95.3634 264.911 95.5062 264.372 95.5312 264.189C95.6039 263.61 95.5863 261.853 95.5863 261.853L96.6984 264.773L97.9481 268.36C97.9481 268.36 97.853 269.996 97.9481 270.527C97.9757 270.688 98.0809 271.004 98.171 271.139C98.2437 271.249 98.4365 271.455 98.5592 271.5C98.7621 271.575 99.2129 271.525 99.4208 271.472C99.7314 271.392 100.242 270.918 100.56 270.888C100.883 270.858 101.495 271.172 101.81 271.249C102.106 271.322 102.699 271.507 103.005 271.5C103.27 271.492 104.034 271.222 104.034 271.222L104.367 270.943L104.896 271.943C104.896 271.943 105.289 272.517 105.397 272.723C105.592 273.096 105.96 273.866 106.035 274.279C106.136 274.821 105.98 276.477 105.98 276.477L106.008 281.482C106.008 281.482 106.161 285.008 106.09 286.181C106.065 286.595 105.975 287.422 105.868 287.823C105.76 288.224 105.449 289.001 105.229 289.352C105.089 289.577 104.7 289.951 104.508 290.131C104.057 290.547 103.05 291.256 102.589 291.66C102.008 292.169 100.873 293.219 100.365 293.803C99.8065 294.444 98.8297 295.843 98.3639 296.555C97.8129 297.394 96.8361 299.159 96.2525 299.976C95.7441 300.687 94.6196 302.028 94.0285 302.672C93.6528 303.081 92.8514 303.853 92.4456 304.231C92.1125 304.54 91.5239 305.319 91.0831 305.427C90.9729 305.454 90.7525 305.299 90.6373 305.316C90.3017 305.367 89.7532 305.823 89.4702 306.011C89.1972 306.191 88.6236 306.537 88.4133 306.79C88.2404 306.998 87.985 307.497 87.9399 307.763C87.8873 308.088 87.99 308.762 88.1077 309.071C88.2129 309.346 88.5811 309.82 88.7739 310.043C89.0094 310.314 89.5378 310.808 89.8308 311.016C89.926 311.083 90.1514 311.168 90.2491 311.239C90.5371 311.447 91.0355 311.953 91.276 312.211C91.544 312.499 92.1075 313.078 92.2778 313.434C92.4105 313.717 92.3955 314.376 92.5283 314.657C92.6785 314.98 93.1569 315.527 93.4174 315.77C93.6328 315.97 94.1086 316.346 94.3892 316.437C94.7648 316.562 95.5763 316.497 95.972 316.492C96.3402 316.487 97.079 316.459 97.4447 316.409C97.7202 316.369 98.2837 316.291 98.5292 316.158C98.707 316.063 99.0176 315.78 99.1128 315.602C99.1829 315.472 99.248 315.163 99.2229 315.018C99.1979 314.86 99.0301 314.574 98.9174 314.462C98.6644 314.214 97.9657 313.988 97.6676 313.795C97.3145 313.567 96.5506 313.128 96.3327 312.765C96.0096 312.226 95.8994 310.918 95.9169 310.291C95.9219 310.098 96.0672 309.732 96.0847 309.539C96.0972 309.387 96.0847 309.078 96.0572 308.928C96.0296 308.77 95.8468 308.477 95.8618 308.316C95.9169 307.712 96.6683 306.68 97.0014 306.176C97.3796 305.602 98.2637 304.545 98.7245 304.033C99.243 303.462 100.358 302.394 100.921 301.865C101.512 301.309 102.757 300.261 103.338 299.697C103.881 299.169 104.901 298.048 105.422 297.499C105.913 296.983 106.899 295.953 107.423 295.469C108.049 294.89 109.379 293.818 110.035 293.271C110.463 292.916 111.368 292.251 111.758 291.853C111.994 291.612 112.445 291.099 112.592 290.798C112.705 290.565 112.843 289.798 112.843 289.798L112.925 288.991L113.426 290.602L113.815 292.495C113.815 292.495 113.897 294.562 113.955 295.249C114.02 296.016 114.153 297.555 114.315 298.309C114.488 299.101 115.017 300.642 115.315 301.397C115.56 302.018 116.161 303.216 116.454 303.818C116.828 304.58 117.609 306.088 117.927 306.875C118.203 307.554 118.646 308.953 118.844 309.657C118.984 310.153 119.542 311.199 119.315 311.66C119.277 311.735 119.057 311.73 119.009 311.798C118.864 312.011 118.924 312.572 118.954 312.828C118.996 313.188 119.177 313.913 119.37 314.219C119.505 314.429 119.893 314.78 120.121 314.885C120.381 315.008 120.973 315.036 121.261 315.053C121.546 315.071 122.117 315.058 122.4 315.026C122.661 314.995 123.167 314.833 123.43 314.803C124.168 314.717 125.659 314.76 126.402 314.747C126.806 314.74 127.612 314.727 128.015 314.72C128.286 314.715 128.832 314.742 129.1 314.692C129.383 314.64 129.929 314.437 130.184 314.304C130.507 314.136 131.091 313.695 131.379 313.469C131.654 313.254 132.198 312.81 132.433 312.552C132.681 312.281 133.13 311.687 133.295 311.356C133.39 311.168 133.55 310.762 133.545 310.549C133.538 310.334 133.38 309.905 133.24 309.742L133.237 309.74ZM108.863 234.866C108.823 235.117 108.55 235.568 108.382 235.756C108.194 235.964 107.455 236.387 107.455 236.387C107.455 236.387 106.962 235.545 106.862 235.237C106.784 234.997 106.707 234.488 106.714 234.237C106.724 233.924 106.975 233.014 106.975 233.014L107.308 232.904C107.308 232.904 107.428 233.192 107.493 233.275C107.591 233.4 107.831 233.616 107.974 233.683C108.137 233.758 108.678 233.794 108.678 233.794C108.678 233.794 108.908 234.601 108.863 234.869V234.866ZM120.174 294.417C120.023 293.688 120.043 292.184 120.091 291.442C120.118 290.986 120.346 290.091 120.369 289.635C120.389 289.251 120.379 288.477 120.286 288.106C120.214 287.815 119.868 287.309 119.785 287.021C119.542 286.179 119.445 284.414 119.342 283.545C119.214 282.487 118.989 280.372 118.841 279.317C118.713 278.397 118.443 276.557 118.258 275.645C118.08 274.775 117.641 273.051 117.396 272.197C117.116 271.219 116.146 268.332 116.146 268.332C116.146 268.332 116.898 265.47 117.035 264.495C117.146 263.723 117.203 261.38 117.203 261.38L117.399 258.127C117.399 258.127 118.546 258.134 118.926 258.099C119.335 258.061 120.141 257.901 120.539 257.793C120.802 257.723 121.311 257.523 121.569 257.432C121.769 257.362 122.197 257.274 122.375 257.154C122.48 257.081 122.663 256.886 122.708 256.766C122.731 256.708 122.733 256.573 122.708 256.515C122.678 256.442 122.485 256.372 122.485 256.292C122.485 256.184 122.736 256.079 122.791 255.986C122.828 255.924 122.884 255.781 122.874 255.708C122.858 255.61 122.651 255.375 122.651 255.375L123.567 255.347C123.567 255.347 123.627 255.355 123.718 255.362L121.493 299.888C121.373 299.204 121.218 298.399 121.123 297.923C121.02 297.394 120.825 296.329 120.677 295.81C120.577 295.454 120.251 294.783 120.176 294.419L120.174 294.417Z" fill="#00311C"/>
<path d="M150.903 250.555C150.953 250.598 151.005 250.643 151.055 250.686C150.775 250.651 150.454 250.631 150.101 250.643C149.941 250.648 149.791 250.663 149.65 250.678C149.548 250.663 149.397 250.636 149.215 250.596C149.027 250.553 148.997 250.538 148.759 250.48C148.571 250.433 148.34 250.383 148.067 250.342C147.827 250.307 147.737 250.31 147.639 250.342C147.572 250.365 147.426 250.413 147.354 250.558C147.271 250.726 147.346 250.896 147.359 250.919C147.386 250.979 147.436 251.049 147.709 251.202C147.99 251.357 148.22 251.44 148.293 251.468C148.418 251.513 148.593 251.565 148.809 251.611C148.809 251.711 148.821 251.859 148.876 252.027C148.909 252.122 148.954 252.265 149.074 252.405C149.22 252.573 149.387 252.643 149.535 252.706C149.638 252.748 149.793 252.799 149.991 252.821C150.061 252.959 150.204 253.19 150.472 253.355C150.675 253.48 150.865 253.52 150.975 253.543C151.166 253.58 151.276 253.568 151.541 253.565C151.977 253.56 151.957 253.593 152.308 253.588C152.458 253.588 152.816 253.578 153.267 253.503C153.515 253.463 153.82 253.398 154.166 253.287C154.487 253.25 154.76 253.195 154.978 253.137C155.143 253.094 155.378 253.027 155.651 252.924C155.754 252.884 155.774 252.874 156.245 252.666C156.578 252.518 156.746 252.445 156.878 252.388C157.049 252.315 157.297 252.212 157.602 252.094C157.823 252.059 158.171 251.999 158.599 251.921C159.125 251.826 159.265 251.791 159.751 251.703C160.377 251.588 160.397 251.598 161.079 251.48C161.99 251.32 161.948 251.302 162.504 251.215C162.917 251.149 162.97 251.154 164.036 251.024C164.918 250.916 165.361 250.864 165.609 250.824C166.321 250.706 166.481 250.638 167.455 250.458C167.926 250.37 168.314 250.307 168.567 250.267C169.068 250.172 169.469 250.057 169.754 249.962C170.168 249.824 170.16 249.794 170.784 249.576C170.784 249.576 171.064 249.478 171.427 249.322C171.528 249.28 171.648 249.227 171.791 249.142C171.883 249.087 171.993 249.022 172.116 248.914C172.214 248.829 172.287 248.746 172.334 248.686C172.802 248.225 173.268 247.764 173.737 247.302C173.707 247.596 173.677 247.891 173.647 248.185C173.539 248.217 173.434 248.252 173.326 248.285C173.389 248.508 173.451 248.728 173.514 248.951C173.481 249.149 173.459 249.39 173.469 249.663C173.474 249.819 173.491 249.962 173.511 250.089C173.444 250.167 173.351 250.295 173.298 250.468C173.263 250.578 173.223 250.774 173.361 251.355C173.449 251.726 173.481 251.713 173.596 252.187C173.699 252.611 173.709 252.761 173.709 252.869C173.709 253.039 173.689 253.092 173.689 253.342C173.689 253.608 173.709 253.653 173.714 253.861C173.719 254.127 173.684 254.127 173.616 254.836C173.579 255.215 173.584 255.282 173.609 255.367C173.657 255.53 173.737 255.616 173.699 255.748C173.674 255.836 173.599 255.931 173.506 255.949C173.424 255.966 173.399 255.909 173.276 255.899C173.241 255.896 173.093 255.886 173.003 255.971C172.915 256.054 172.928 256.189 172.938 256.322C172.945 256.403 172.965 256.53 173.04 256.676C172.752 257.109 172.477 257.423 172.277 257.628C172.044 257.869 171.818 258.062 171.608 258.423C171.485 258.633 171.415 258.826 171.372 258.954C171.362 258.946 171.277 258.891 171.227 258.924C171.175 258.956 171.192 259.067 171.2 259.112C171.24 259.337 171.407 259.458 171.543 259.616C171.64 259.731 171.761 259.916 171.833 260.207C171.898 260.528 171.946 260.781 171.976 260.936C172.051 261.332 172.064 261.43 172.151 261.563C172.297 261.778 172.502 261.879 172.635 261.944C172.835 262.042 173.005 262.072 173.193 262.102C173.366 262.129 173.611 262.152 173.909 262.129C174.205 262.117 174.501 262.104 174.799 262.092C174.791 262.345 174.824 262.538 174.854 262.668C174.901 262.874 174.949 262.934 174.916 263.042C174.864 263.219 174.691 263.197 174.568 263.415C174.473 263.58 174.481 263.758 174.486 263.844C174.491 263.994 174.531 264.112 174.563 264.182C174.43 264.525 174.303 264.994 174.295 265.558C174.29 266.024 174.285 266.337 174.453 266.691C174.558 266.914 174.706 267.094 174.846 267.493C174.906 267.663 174.941 267.808 174.964 267.904C174.954 268.064 174.944 268.224 174.934 268.385C174.934 268.437 174.934 268.493 174.929 268.545C174.804 268.761 174.641 269.059 174.488 269.43C174.35 269.758 174.202 270.117 174.12 270.605C174.07 270.909 174.067 271.179 174.067 271.721C174.067 272.247 174.092 272.65 174.105 272.821C174.15 273.452 174.195 273.482 174.25 274.114C174.273 274.382 174.315 274.873 174.3 275.49C174.29 275.966 174.253 276.307 174.195 276.803C174.14 277.284 174.055 277.916 173.915 278.66C173.794 278.954 173.674 279.302 173.576 279.698C173.504 279.999 173.456 280.279 173.424 280.535C173.351 281.149 173.213 281.62 173.098 281.941C172.963 282.319 172.832 282.565 172.745 283.004C172.67 283.382 172.667 283.705 172.675 283.918C172.327 284.68 172.014 285.284 171.783 285.708C171.62 286.004 171.573 286.079 171.107 286.923C170.656 287.74 170.543 287.953 170.413 288.234C170.19 288.71 170.052 289.084 169.955 289.347C169.734 289.943 169.609 290.402 169.361 291.297C169.068 292.362 169.116 292.297 168.953 292.811C168.718 293.547 168.627 293.655 168.442 294.324C168.277 294.923 168.324 294.933 168.157 295.492C167.996 296.029 167.936 296.069 167.741 296.72C167.563 297.317 167.5 297.648 167.48 297.768C167.423 298.096 167.398 298.377 167.385 298.575C167.282 298.705 167.127 298.931 167.034 299.252C166.949 299.547 166.952 299.805 166.964 299.963C166.922 300.229 166.832 300.414 166.756 300.535C166.619 300.758 166.458 300.876 166.361 301.164C166.326 301.267 166.313 301.354 166.306 301.412C166.243 301.412 166.183 301.412 166.12 301.412C166.105 301.312 166.065 301.151 165.945 301.006C165.88 300.926 165.795 300.823 165.659 300.8C165.534 300.78 165.432 300.841 165.339 300.893C165.231 300.956 165.166 301.026 165.088 301.116C164.961 301.259 164.898 301.329 164.871 301.437C164.82 301.63 164.911 301.8 164.958 301.893C165.063 302.094 165.221 302.204 165.306 302.252C165.086 302.419 164.775 302.703 164.527 303.139C164.405 303.354 164.325 303.557 164.272 303.733C164.154 304.189 164.164 304.567 164.189 304.808C164.257 305.472 164.53 305.928 164.715 306.239C164.871 306.5 165.041 306.778 165.376 307.028C165.574 307.176 165.762 307.264 165.895 307.314C166.391 307.758 166.807 308.139 167.127 308.434C167.756 309.016 167.964 309.224 168.194 309.485C168.52 309.853 168.76 310.181 168.915 310.412C169.088 310.602 169.269 310.82 169.446 311.068C169.707 311.432 169.769 311.59 169.987 311.825C170.215 312.068 170.431 312.204 170.651 312.337C170.902 312.49 171.59 312.896 172.58 312.991C173.04 313.036 173.374 312.991 174.035 312.901C174.648 312.818 175.042 312.76 175.52 312.53C176.108 312.246 176.397 311.903 176.464 311.823C176.647 311.602 176.85 311.354 176.87 310.991C176.895 310.537 176.617 310.201 176.519 310.084C176.279 309.793 175.978 309.65 175.63 309.482C175.372 309.357 175.33 309.374 175.089 309.239C174.819 309.089 174.741 308.996 174.518 308.931C174.46 308.913 174.31 308.876 174.165 308.84C174.085 308.82 174.02 308.805 173.977 308.798C173.982 308.783 174.02 308.65 173.932 308.532C173.854 308.429 173.739 308.417 173.722 308.414C173.539 308.008 173.353 307.602 173.171 307.196C173.02 306.871 172.833 306.517 172.6 306.149C172.454 305.918 172.307 305.71 172.161 305.52C172.439 305.698 172.63 305.878 172.755 306.011C172.848 306.111 173.095 306.384 173.188 306.49C173.381 306.705 173.474 306.81 173.629 306.833C173.742 306.851 173.899 306.825 173.932 306.743C173.96 306.673 173.897 306.585 173.847 306.522C173.719 306.352 173.579 306.304 173.451 306.216C173.343 306.144 173.201 306.016 173.08 305.783C173.028 305.665 172.905 305.432 172.652 305.254C172.527 305.166 172.404 305.116 172.312 305.089C172.404 304.84 172.359 304.61 172.224 304.522C172.196 304.505 172.144 304.48 172.054 304.485C172.026 304.327 171.993 304.164 171.956 303.996C171.928 303.866 171.898 303.74 171.866 303.615C171.808 303.537 171.753 303.462 171.695 303.384C171.743 303.277 171.791 303.169 171.838 303.061C171.823 302.745 171.811 302.429 171.796 302.114C172.069 301.788 172.181 301.497 172.234 301.287C172.272 301.134 172.264 301.079 172.342 300.623C172.399 300.274 172.429 300.101 172.452 300.016C172.595 299.525 172.792 299.532 173 298.988C173.088 298.755 173.133 298.545 173.188 298.274C173.238 298.036 173.266 297.831 173.283 297.678C173.399 297.417 173.574 297.031 173.809 296.575C173.98 296.247 174.085 296.066 174.36 295.562C174.508 295.292 174.716 294.911 174.961 294.445C175.307 293.836 175.545 293.332 175.703 292.978C175.838 292.673 175.996 292.292 176.279 291.763C176.404 291.53 176.514 291.339 176.589 291.217C176.727 291.177 176.905 291.099 177.013 290.931C177.098 290.796 177.07 290.705 177.11 290.57C177.2 290.257 177.511 290.166 178.034 289.831C178.207 289.72 178.448 289.555 178.726 289.322C179.157 288.991 179.422 288.65 179.577 288.412C179.828 288.031 179.948 287.69 180.098 287.259C180.236 286.871 180.321 286.537 180.374 286.294C180.484 286.046 180.634 285.665 180.747 285.179C180.845 284.756 180.822 284.655 180.937 283.876C181.022 283.294 181.055 283.219 181.195 282.375C181.283 281.853 181.345 281.427 181.383 281.157C181.741 280.016 182.092 278.836 182.43 277.613C182.743 276.482 183.029 275.375 183.292 274.295C183.672 275.189 183.973 275.944 184.191 276.503C184.599 277.558 184.679 277.836 184.722 277.991C184.91 278.683 184.877 278.863 185.112 279.821C185.185 280.117 185.278 280.445 185.466 281.096C185.698 281.908 185.806 282.227 185.969 282.866C186.062 283.222 186.129 283.517 186.172 283.708C186.167 283.823 186.152 283.996 186.112 284.202C186.044 284.537 185.959 284.673 185.896 284.969C185.864 285.116 185.831 285.332 185.839 285.605C185.781 285.728 185.711 285.913 185.681 286.149C185.653 286.37 185.668 286.555 185.691 286.688C185.611 286.828 185.526 287.009 185.458 287.229C185.4 287.412 185.37 287.578 185.353 287.718C185.167 288.287 185.04 288.75 184.955 289.064C184.847 289.465 184.829 289.575 184.604 290.462C184.474 290.979 184.409 291.239 184.333 291.51C184.156 292.166 184.108 292.282 183.948 292.896C183.767 293.588 183.732 293.813 183.717 293.908C183.665 294.267 183.687 294.327 183.645 294.883C183.582 295.705 183.522 295.735 183.484 296.445C183.452 297.029 183.474 297.334 183.494 297.52C183.527 297.821 183.577 298.069 183.62 298.242C183.507 298.364 183.302 298.62 183.194 299.008C183.086 299.392 183.131 299.715 183.164 299.878C183.086 300.016 182.971 300.267 182.943 300.602C182.913 301.006 183.029 301.317 183.096 301.465C182.991 301.658 182.936 301.826 182.908 301.943C182.896 301.996 182.883 302.054 182.833 302.369C182.808 302.535 182.788 302.673 182.773 302.77C182.723 302.758 182.605 302.735 182.473 302.785C182.407 302.81 182.36 302.846 182.327 302.873C182.3 302.813 182.247 302.715 182.147 302.627C182.082 302.567 181.984 302.482 181.839 302.467C181.651 302.447 181.511 302.562 181.478 302.587C181.3 302.733 181.27 302.946 181.26 303.026C181.225 303.289 181.333 303.495 181.401 303.62C181.538 303.883 181.736 304.038 181.861 304.121C181.799 304.384 181.729 304.758 181.696 305.211C181.669 305.6 181.651 305.838 181.704 306.146C181.744 306.392 181.844 306.993 182.33 307.467C182.685 307.815 183.081 307.933 183.444 308.043C183.898 308.179 184.273 308.189 184.499 308.194C184.897 308.201 185.23 308.156 185.476 308.106C185.924 308.079 186.462 308.079 187.061 308.149C187.797 308.234 188.423 308.397 188.919 308.565C189.641 309.053 190.289 309.292 190.728 309.412C191.213 309.547 191.634 309.59 192.473 309.675C193.134 309.743 193.513 309.745 193.816 309.735C194.722 309.705 195.045 309.545 195.143 309.495C195.336 309.392 195.669 309.211 195.869 308.813C196.105 308.347 196.002 307.896 195.972 307.785C195.859 307.362 195.589 307.114 195.454 306.993C195.258 306.815 195.063 306.715 194.93 306.658C194.545 306.429 194.214 306.244 193.961 306.104C193.51 305.856 193.312 305.758 193.18 305.695C192.922 305.572 192.701 305.482 192.543 305.417C192.223 305.324 191.865 305.191 191.484 305.006C191.309 304.921 191.148 304.83 191.001 304.743C191.093 304.645 191.271 304.419 191.264 304.134C191.249 303.68 190.775 303.402 190.52 303.252C190.242 303.086 189.976 303.041 189.445 302.951C189.175 302.906 188.964 302.891 188.741 302.981C188.621 303.031 188.534 303.096 188.476 303.146C188.443 303.026 188.393 302.876 188.308 302.713C188.228 302.56 188.138 302.437 188.06 302.347C188.155 302.134 188.258 301.836 188.301 301.47C188.326 301.249 188.326 301.054 188.313 300.888C188.433 300.788 188.611 300.612 188.741 300.339C188.862 300.089 188.882 299.871 188.894 299.73C188.917 299.48 188.929 299.327 188.849 299.161C188.744 298.948 188.601 298.961 188.559 298.78C188.526 298.638 188.589 298.507 188.689 298.299C188.784 298.099 188.887 297.963 188.919 297.918C189.087 297.685 189.175 297.45 189.348 296.976C189.508 296.537 189.463 296.53 189.651 295.933C189.768 295.557 189.874 295.284 190.009 294.936C190.144 294.587 190.264 294.294 190.472 293.796C190.758 293.109 190.768 293.111 190.795 292.989C190.838 292.78 190.853 292.582 190.998 292.357C191.081 292.229 191.146 292.187 191.254 292.076C191.599 291.723 191.757 291.317 191.937 290.851C191.99 290.713 192.047 290.57 192.1 290.367C192.198 289.996 192.16 289.913 192.255 289.68C192.305 289.557 192.401 289.427 192.593 289.167C192.836 288.833 192.892 288.806 193.004 288.62C193.039 288.56 193.147 288.377 193.26 288.019C193.397 287.57 193.422 287.234 193.465 286.816C193.498 286.497 193.55 286.034 193.633 285.455C193.67 285.345 193.723 285.179 193.781 284.971C193.886 284.583 193.891 284.445 194.031 283.68C194.124 283.169 194.151 283.074 194.171 282.818C194.194 282.563 194.194 282.35 194.189 282.202C194.144 281.881 194.079 281.425 194.009 280.878C193.984 280.688 193.863 279.778 193.801 279.237C193.723 278.558 193.64 277.58 193.618 276.315C193.585 275.598 193.543 274.868 193.493 274.129C193.458 273.618 193.42 273.114 193.38 272.615C193.247 271.6 193.087 270.55 192.892 269.465C192.771 268.793 192.641 268.139 192.508 267.5C192.316 266.475 192.125 265.453 191.932 264.43C191.987 264.28 192.063 264.024 192.053 263.703C192.042 263.37 191.947 263.112 191.882 262.966C191.905 262.628 191.88 262.362 191.852 262.182C191.795 261.791 191.722 261.751 191.664 261.317C191.627 261.032 191.644 260.936 191.592 260.61C191.557 260.397 191.514 260.227 191.484 260.114C191.627 260.102 192.045 260.042 192.348 259.703C192.436 259.603 192.496 259.503 192.538 259.412C192.523 259.28 192.506 259.149 192.491 259.019C192.523 258.936 192.568 258.786 192.551 258.593C192.531 258.352 192.426 258.182 192.373 258.109C192.358 257.914 192.338 257.633 192.331 257.3C192.318 256.716 192.343 256.275 192.371 255.831C192.378 255.693 192.411 255.22 192.481 254.598C192.533 254.142 192.566 253.859 192.644 253.475C192.714 253.129 192.791 252.844 192.851 252.646C193.004 253.017 193.124 253.285 193.227 253.468C193.257 253.523 193.325 253.643 193.297 253.776C193.277 253.866 193.22 253.934 193.205 253.951C193.152 254.009 193.094 254.042 193.062 254.059C193.039 254.067 192.997 254.087 192.962 254.129C192.894 254.212 192.907 254.312 192.912 254.33C192.912 254.548 192.912 254.763 192.912 254.981C192.917 255.555 192.984 256.022 193.049 256.35C193.109 256.651 193.16 256.899 193.292 257.217C193.488 257.686 193.728 257.981 193.866 258.147C194.161 258.508 194.354 258.611 194.452 258.656C194.575 258.713 194.765 258.798 194.98 258.738C195.106 258.703 195.193 258.631 195.243 258.583C195.163 258.485 195.061 258.352 194.948 258.192C194.948 258.192 194.722 257.866 194.552 257.533C194.307 257.052 194.194 256.59 194.071 256.062C193.956 255.573 193.896 255.177 193.798 254.54C193.758 254.28 193.728 254.064 193.711 253.919C193.756 253.899 193.838 253.851 193.906 253.758C193.921 253.738 193.956 253.686 193.973 253.618C194.009 253.475 193.943 253.35 193.921 253.302C193.768 252.994 193.655 252.666 193.498 252.36C193.405 252.182 193.285 251.924 193.172 251.588C193.222 251.423 193.302 251.212 193.433 250.984C193.563 250.756 193.708 250.581 193.828 250.453C194.474 250.884 195.025 251.242 195.456 251.518C196.105 251.934 196.435 252.137 196.726 252.307C197.054 252.503 197.335 252.661 197.537 252.776C198.126 253.092 198.599 253.355 198.928 253.54C199.258 253.728 199.438 253.834 199.797 254.027C200.017 254.147 200.34 254.32 200.768 254.533C201.144 254.718 201.134 254.703 201.515 254.894C202.041 255.157 202.023 255.169 202.256 255.267C202.559 255.393 202.664 255.403 202.922 255.545C203.04 255.611 203.208 255.713 203.298 255.768C203.548 255.921 203.566 255.941 203.646 255.981C203.836 256.079 203.997 256.102 204.247 256.134C204.969 256.23 205.334 256.28 205.464 256.285C205.828 256.3 206.116 256.285 206.303 256.275C206.499 256.265 206.664 256.25 206.787 256.237C205.955 273.031 205.124 289.826 204.295 306.62C204.302 306.637 204.445 306.988 204.811 307.051C205.111 307.101 205.329 306.921 205.359 306.896C206.226 290.174 207.095 273.452 207.961 256.731C208.072 256.786 208.287 256.866 208.543 256.829C208.64 256.814 208.763 256.793 208.868 256.693C208.996 256.568 209.011 256.403 209.016 256.345C209.026 256.232 209.003 256.139 208.986 256.087C209.013 256.087 209.241 256.077 209.374 255.886C209.397 255.854 209.497 255.713 209.447 255.535C209.397 255.357 209.236 255.285 209.216 255.277C209.274 255.232 209.449 255.082 209.492 254.826C209.507 254.743 209.534 254.573 209.424 254.41C209.301 254.23 209.099 254.2 209.061 254.195C209.124 254.147 209.189 254.099 209.251 254.054C209.309 254.062 209.399 254.064 209.502 254.034C209.662 253.987 209.76 253.889 209.815 253.831C209.93 253.711 209.983 253.583 210.008 253.505C209.955 253.46 209.905 253.413 209.855 253.365C209.88 253.315 209.905 253.24 209.887 253.159C209.857 253.027 209.727 252.966 209.499 252.836C209.134 252.628 209.219 252.636 208.923 252.478C208.773 252.398 208.583 252.307 208.355 252.22C208.392 251.593 208.43 250.969 208.465 250.342C208.297 250.275 208.064 250.202 207.779 250.17C207.471 250.134 207.208 250.162 207.025 250.197C206.997 250.849 206.972 251.498 206.945 252.147C206.799 252.137 206.586 252.139 206.344 252.202C206.281 252.22 206.213 252.24 205.863 252.393C205.362 252.611 205.357 252.628 205.156 252.701C204.974 252.766 205.041 252.728 204.555 252.876C204.247 252.969 204.155 253.004 203.994 253.014C203.801 253.024 203.644 252.989 203.536 252.959C203.085 252.643 202.724 252.383 202.484 252.21C201.673 251.626 201.68 251.616 201.307 251.362C200.906 251.089 200.713 250.977 200.32 250.683C200.075 250.503 199.877 250.347 199.747 250.242C199.228 249.776 198.707 249.31 198.189 248.844C197.532 248.237 196.876 247.631 196.218 247.024C196.328 246.824 196.466 246.533 196.561 246.162C196.593 246.037 196.693 245.613 196.668 244.992C196.653 244.621 196.568 244.26 196.403 243.556C196.225 242.804 196.135 242.583 196.035 241.987C195.982 241.676 195.952 241.415 195.935 241.245C196.491 241.405 197.049 241.566 197.605 241.726C197.713 241.729 197.868 241.726 198.046 241.673C198.384 241.578 198.612 241.375 198.842 241.13C199.293 240.651 199.576 240.205 199.681 240.034C200.127 239.315 200.465 238.771 200.733 237.947C200.889 237.473 200.966 237.067 201.011 236.789C200.896 236.759 200.783 236.729 200.668 236.699C200.698 236.375 200.703 235.834 200.5 235.215C200.345 234.739 200.117 234.38 199.944 234.147C198.945 233.851 197.946 233.556 196.946 233.26C196.819 231.959 196.681 230.646 196.531 229.32C196.413 228.27 196.29 227.232 196.165 226.202C195.915 224.666 195.529 223.443 195.203 222.576C194.645 221.095 194.209 220.528 193.588 220.265C193.225 220.11 192.882 220.095 192.641 220.105C192.563 219.999 192.473 219.887 192.371 219.774C192.235 219.624 192.103 219.498 191.977 219.393C191.722 219.145 190.515 218.012 188.919 217.862C188.624 217.834 187.948 217.771 187.151 218.055C186.83 218.17 186.58 218.308 186.407 218.418C186.194 218.448 184.744 218.671 183.92 219.4C183.737 219.563 183.429 219.832 183.294 220.293C183.229 220.511 183.221 220.701 183.226 220.829C183.161 220.889 183.069 220.989 182.999 221.132C182.886 221.365 182.891 221.578 182.898 221.764C182.901 221.894 182.921 222.08 182.991 222.295C182.928 222.578 182.863 222.884 182.796 223.21C182.756 223.4 182.726 223.558 182.716 223.771C182.705 223.969 182.716 224.135 182.728 224.25C182.703 224.273 182.633 224.343 182.61 224.461C182.59 224.568 182.623 224.654 182.635 224.686C182.618 224.766 182.598 224.887 182.613 225.032C182.623 225.142 182.65 225.225 182.665 225.28C182.728 225.483 182.791 225.526 182.838 225.671C182.881 225.801 182.876 225.902 182.871 226.065C182.861 226.278 182.826 226.375 182.733 226.756C182.655 227.08 182.618 227.24 182.605 227.373C182.593 227.511 182.575 227.729 182.638 227.984C182.683 228.175 182.713 228.137 182.963 228.706C183.046 228.897 183.121 229.075 183.151 229.145C183.211 229.288 183.259 229.413 183.299 229.511C181.629 229.065 179.958 228.616 178.287 228.17C178.029 228.052 177.817 228.009 177.669 227.992C177.524 227.977 177.438 227.984 177.263 227.957C177.058 227.927 176.895 227.874 176.79 227.834C175.234 227.355 173.679 226.877 172.126 226.398C172.054 226.398 171.866 226.415 171.683 226.551C171.538 226.659 171.468 226.791 171.437 226.857C171.317 227.09 171.154 227.425 170.987 227.836C170.821 228.242 170.729 228.536 170.556 229.082C170.308 229.872 170.183 230.268 170.072 230.811C170 231.167 169.962 231.443 169.89 231.997C169.807 232.608 169.777 232.994 169.774 233.403C169.774 233.701 169.787 233.984 169.882 234.32C169.932 234.493 169.987 234.631 170.032 234.729C171.798 235.155 173.566 235.578 175.332 236.004C175.43 236.067 175.565 236.137 175.733 236.19C175.851 236.227 175.958 236.247 176.048 236.257C175.763 236.701 175.565 237.077 175.437 237.343C175.322 237.578 175.262 237.729 175.064 238.147C174.906 238.483 174.771 238.756 174.681 238.934C174.4 239.473 174.147 239.889 173.965 240.17C173.797 240.43 173.669 240.608 173.356 241.084C173.161 241.385 173.003 241.631 172.9 241.794C172.622 242.182 172.352 242.523 172.106 242.816C171.728 243.27 171.422 243.591 171.21 243.814C170.836 244.205 170.616 244.435 170.31 244.676C170.052 244.881 169.747 245.092 169.747 245.092C169.624 245.177 169.519 245.245 169.444 245.292C168.82 245.48 168.322 245.656 167.986 245.779C167.555 245.936 167.483 245.979 166.877 246.205C166.378 246.39 166.346 246.393 165.674 246.638C165.091 246.851 165.088 246.859 164.572 247.047C164.212 247.177 163.881 247.297 163.45 247.44C163.052 247.573 162.794 247.658 162.449 247.756C161.827 247.931 161.782 247.904 160.74 248.162C160.257 248.282 160.174 248.312 159.866 248.375C159.686 248.413 159.573 248.433 158.922 248.55C158.719 248.588 158.552 248.618 158.441 248.638C158.281 248.646 158.108 248.661 157.923 248.688C157.758 248.711 157.607 248.743 157.467 248.776C157.364 248.794 157.217 248.809 157.039 248.786C156.841 248.759 156.688 248.696 156.59 248.646C156.508 248.598 156.378 248.523 156.227 248.413C156.082 248.307 156.044 248.267 155.952 248.217C155.784 248.127 155.684 248.139 155.481 248.094C155.238 248.042 155.278 248.004 154.812 247.836C154.539 247.738 154.404 247.688 154.209 247.658C154.076 247.636 153.926 247.633 153.625 247.628C153.287 247.623 153.292 247.633 152.976 247.628C152.656 247.623 152.568 247.611 152.278 247.616C152.022 247.621 151.929 247.633 151.852 247.651C151.729 247.676 151.666 247.703 151.426 247.786C151.321 247.824 151.163 247.876 150.968 247.941C150.845 247.941 150.692 247.954 150.517 247.994C150.359 248.029 150.229 248.079 150.124 248.127C150.099 248.155 150.059 248.212 150.044 248.292C150.018 248.438 150.104 248.553 150.126 248.581C150.189 248.663 150.279 248.716 150.547 248.784C150.845 248.859 151.078 248.879 151.11 248.881C151.459 248.911 151.732 248.891 151.902 248.876C152.12 248.859 152.298 248.831 152.425 248.809C152.558 248.806 152.698 248.796 152.844 248.784C152.934 248.776 153.019 248.766 153.102 248.753C153.174 248.819 153.247 248.881 153.32 248.946C153.144 249.034 152.969 249.119 152.794 249.207C152.733 249.215 152.643 249.23 152.536 249.252C152.393 249.285 152.328 249.31 152.23 249.335C152.087 249.373 152.025 249.373 151.757 249.408C151.634 249.423 151.454 249.448 151.233 249.483C150.985 249.413 150.68 249.35 150.329 249.327C150.154 249.317 149.991 249.317 149.841 249.325C149.718 249.295 149.568 249.27 149.397 249.26C149.182 249.247 148.994 249.262 148.844 249.287C148.601 249.255 148.396 249.247 148.243 249.252C148.118 249.252 147.89 249.265 147.619 249.335C147.464 249.375 147.386 249.413 147.319 249.478C147.286 249.508 147.173 249.618 147.176 249.784C147.176 249.886 147.221 249.962 147.243 249.997C147.464 250.082 147.732 250.167 148.045 250.227C148.298 250.275 148.531 250.3 148.731 250.307C148.899 250.347 149.084 250.388 149.287 250.415C149.46 250.44 149.62 250.453 149.771 250.46C149.956 250.475 150.141 250.49 150.329 250.508C150.522 250.525 150.715 250.543 150.905 250.563L150.903 250.555ZM191.421 229.275C191.444 229.132 191.466 228.987 191.486 228.836C191.517 228.618 191.542 228.405 191.564 228.197C191.664 228.167 191.795 228.117 191.932 228.032C192.128 227.912 192.258 227.769 192.336 227.669C192.376 227.786 192.421 227.952 192.431 228.155C192.443 228.395 192.401 228.591 192.363 228.721C192.268 228.804 192.155 228.889 192.025 228.972C191.805 229.112 191.597 229.207 191.421 229.273V229.275ZM190.009 303.67C189.886 303.502 189.673 303.287 189.282 303.114C189.656 303.081 189.946 303.151 190.114 303.206C190.349 303.284 190.683 303.392 190.885 303.708C190.923 303.768 191.048 303.971 191.028 304.234C191.023 304.289 191.003 304.547 190.873 304.592C190.743 304.635 190.572 304.444 190.417 304.267C190.187 304.003 190.142 303.851 190.009 303.668V303.67ZM188.721 303.141C188.782 303.141 188.867 303.141 188.967 303.164C189.012 303.174 189.152 303.209 189.405 303.382C189.608 303.52 189.738 303.61 189.859 303.783C189.961 303.931 190.009 304.071 190.031 304.164C189.861 304.084 189.681 303.991 189.495 303.886C189.257 303.753 189.042 303.615 188.849 303.482C188.759 303.462 188.691 303.394 188.676 303.312C188.659 303.221 188.714 303.151 188.721 303.139V303.141ZM182.102 303.124C182.027 303.337 181.952 303.55 181.877 303.765C181.744 303.627 181.654 303.497 181.596 303.399C181.496 303.234 181.436 303.134 181.446 302.998C181.448 302.968 181.463 302.788 181.593 302.725C181.696 302.675 181.809 302.73 181.846 302.748C182.049 302.846 182.097 303.086 182.104 303.124H182.102ZM172.282 305.357C172.349 305.359 172.439 305.374 172.54 305.412C172.72 305.482 172.833 305.597 172.888 305.663C172.815 305.663 172.665 305.65 172.509 305.557C172.397 305.492 172.324 305.409 172.284 305.357H172.282ZM165.775 301.72C165.702 301.913 165.647 301.953 165.609 301.953C165.552 301.953 165.532 301.856 165.434 301.758C165.346 301.67 165.246 301.625 165.169 301.602C165.116 301.54 165.101 301.455 165.134 301.387C165.181 301.289 165.296 301.282 165.301 301.282C165.326 301.282 165.394 301.282 165.539 301.422C165.604 301.485 165.692 301.582 165.772 301.723L165.775 301.72Z" fill="#00311C"/>
<path d="M283.247 237.723C283.299 237.703 283.337 237.688 283.372 237.673C283.675 237.543 284.038 237.35 284.429 237.059C284.441 237.036 284.536 236.856 284.451 236.653C284.376 236.47 284.211 236.407 284.183 236.395C284.258 236.31 284.374 236.144 284.401 235.916C284.416 235.791 284.439 235.633 284.334 235.497C284.203 235.327 283.975 235.33 283.943 235.33C283.993 235.254 284.133 235.029 284.116 234.716C284.091 234.284 283.78 234.031 283.728 233.994C283.813 233.956 284.211 233.773 284.228 233.495C284.251 233.149 283.682 232.886 283.429 232.768C283.149 232.638 282.896 232.585 282.731 232.563C282.676 232.563 282.623 232.563 282.568 232.56C282.393 231.588 282.217 230.615 282.042 229.643C281.997 229.603 281.694 229.352 281.273 229.417C280.947 229.467 280.752 229.676 280.699 229.736C280.832 230.595 280.965 231.457 281.098 232.317C281.085 232.297 281.073 232.279 281.058 232.262C280.81 232.001 280.126 232.212 279.71 232.533C279.44 232.741 279.292 232.994 279.209 233.167C278.851 233.407 278.611 233.628 278.448 233.791C278.34 233.901 278.205 234.051 278.035 234.036C277.919 234.026 277.834 233.946 277.782 233.883C277.434 233.771 277.068 233.665 276.682 233.565C276.036 233.397 275.417 233.269 274.841 233.172C273.752 232.826 272.875 232.495 272.274 232.254C270.273 231.457 270.228 231.239 268.911 230.816C268.162 230.575 267.733 230.5 267.205 230.109C267.002 229.959 266.774 229.753 266.366 229.603C266.01 229.47 265.82 229.493 265.484 229.422C265.171 229.357 264.73 229.212 264.224 228.848C264.229 228.48 264.189 227.959 263.984 227.382C263.561 226.207 262.714 225.553 262.354 225.307C262.136 224.681 261.798 223.899 261.272 223.064C260.761 222.255 260.215 221.628 259.756 221.169C259.942 221.089 260.127 221.009 260.312 220.931C259.969 220.134 259.624 219.337 259.28 218.538C258.507 217.087 257.73 215.633 256.954 214.182C256.936 214.137 256.786 213.753 257.004 213.39C257.149 213.144 257.377 213.052 257.452 213.024C257.522 212.984 258.033 212.676 258.136 212.034C258.229 211.455 257.916 211.037 257.86 210.964C257.465 210.435 257.069 209.909 256.673 209.38C256.851 208.992 257.029 208.603 257.207 208.215C258.126 207.846 259.045 207.48 259.964 207.112C260.114 206.543 260.12 206.43 260.12 206.43C260.127 206.262 260.097 206.014 259.902 205.701C260.059 205.525 260.217 205.353 260.372 205.18C260.385 205.17 260.558 205.027 260.533 204.799C260.51 204.586 260.335 204.48 260.317 204.47C260.26 204.445 260.202 204.42 260.147 204.395C260.127 204.232 260.107 204.067 260.087 203.904C260.114 203.904 260.327 203.911 260.465 203.744C260.483 203.721 260.618 203.556 260.555 203.373C260.533 203.305 260.493 203.26 260.465 203.232C260.305 203.082 260.247 202.876 260.225 202.688C260.413 202.661 260.828 202.573 261.064 202.408C261.222 202.295 261.384 202.182 261.449 201.969C261.542 201.663 261.359 201.388 261.324 201.335C260.949 200.879 260.793 200.939 260.415 200.483C260.355 200.47 259.949 199.911 259.796 199.744C259.634 199.566 259.614 199.365 259.609 199.305C259.879 199.247 260.212 199.147 260.57 198.964C261.259 198.613 261.692 198.135 261.928 197.826C262.126 197.478 262.314 197.222 262.454 197.052C262.504 196.989 262.617 196.701 262.96 196.2C262.967 196.187 263.012 196.122 262.987 196.052C262.962 195.979 262.88 195.957 262.834 195.944C262.777 195.927 262.724 195.932 262.694 195.937C262.509 195.944 262.238 195.954 261.915 195.949C261.352 195.939 260.946 195.896 260.518 195.851C259.977 195.794 259.378 195.731 258.552 195.646C258.547 195.613 258.537 195.558 258.499 195.501C258.441 195.408 258.354 195.373 258.324 195.36C257.755 194.829 257.209 194.323 256.588 193.746C256.25 193.433 255.924 193.135 255.401 192.889C255.278 192.831 254.945 192.683 254.489 192.593C254.256 192.546 253.738 192.465 252.899 192.581C251.849 192.726 250.953 193.09 250.294 193.43C250.247 193.385 250.144 193.3 249.996 193.285C249.741 193.257 249.45 193.443 249.433 193.663C249.425 193.754 249.468 193.831 249.498 193.876C248.959 194.413 248.573 194.914 248.313 195.295C248.032 195.704 247.785 196.064 247.567 196.601C247.474 196.831 247.396 197.074 247.153 198.24C247.036 198.814 246.94 199.295 246.878 199.641C246.893 199.668 246.905 199.696 246.921 199.724C246.838 199.904 246.74 200.187 246.733 200.546C246.718 201.242 247.063 201.741 247.193 201.911C247.181 201.937 247.168 201.959 247.153 201.984C247.461 202.413 247.77 202.841 248.08 203.27C248.12 203.257 248.163 203.242 248.203 203.23C248.195 203.155 248.188 203.079 248.18 203.004C248.218 202.999 248.253 202.994 248.29 202.989C248.423 203.165 248.596 203.41 248.776 203.721C248.816 203.791 248.909 203.952 248.994 204.129C249.12 204.388 249.277 204.789 249.37 205.34C249.347 205.34 249.265 205.34 249.2 205.4C249.124 205.47 249.104 205.591 249.152 205.701C249.099 205.774 249.002 205.921 248.967 206.137C248.929 206.368 248.984 206.55 249.014 206.636C249.014 206.683 249.007 206.746 248.964 206.794C248.917 206.849 248.851 206.859 248.814 206.869C248.634 206.919 248.523 207.154 248.493 207.257C248.423 207.49 248.533 207.776 248.766 207.969C248.776 208.002 248.894 208.352 248.674 208.648C248.531 208.841 248.328 208.896 248.263 208.911C248.035 208.999 247.805 209.089 247.577 209.177C247.481 209.245 247.339 209.367 247.221 209.563C247.068 209.811 247.033 210.047 247.026 210.172C246.703 210.4 246.359 210.681 246.019 211.019C244.904 212.132 244.348 213.362 244.065 214.207C243.99 214.207 243.622 214.225 243.384 214.513C243.234 214.696 243.211 214.899 243.196 215.022C243.161 215.327 243.251 215.57 243.304 215.686C243.284 215.721 243.226 215.814 243.106 215.869C242.986 215.926 242.878 215.911 242.838 215.906C242.735 215.964 242.61 216.022 242.465 216.074C242.327 216.124 242.199 216.157 242.087 216.182C242.044 216.039 242.002 215.896 241.959 215.753C241.861 215.663 241.756 215.553 241.653 215.418C241.456 215.154 241.343 214.896 241.275 214.701C240.965 214.285 240.654 213.871 240.341 213.455C240.318 213.44 240.273 213.413 240.208 213.408C240.086 213.398 240.003 213.478 239.988 213.493C239.795 213.58 239.582 213.688 239.359 213.821C239.124 213.961 238.918 214.107 238.743 214.242C238.743 214.46 238.756 214.696 238.793 214.946C238.964 216.089 239.532 216.926 239.938 217.407C239.968 217.475 239.995 217.543 240.023 217.61C239.888 217.713 239.687 217.891 239.522 218.167C239.402 218.367 239.337 218.558 239.302 218.698C239.206 218.703 238.981 218.731 238.766 218.889C238.45 219.122 238.387 219.465 238.375 219.543C238.197 219.61 237.992 219.708 237.786 219.859C237.13 220.332 236.882 221.004 236.792 221.302C236.712 221.287 236.384 221.229 236.051 221.425C235.738 221.608 235.622 221.891 235.592 221.971C235.437 222.049 235.147 222.227 235.014 222.563C234.996 222.61 234.981 222.658 234.971 222.703C234.703 222.688 234.538 222.758 234.435 222.823C234.2 222.974 234.245 223.137 233.902 223.595C233.729 223.826 233.646 223.881 233.559 224.082C233.468 224.292 233.451 224.473 233.446 224.553C233.323 226.184 233.261 227.001 233.263 227.134C233.273 227.781 233.263 228.706 233.175 229.871C233.268 230.219 233.363 230.565 233.456 230.914C233.408 231.741 233.401 232.68 233.473 233.708C233.551 234.826 233.709 235.831 233.892 236.695C233.847 237.086 233.827 237.713 234.037 238.435C234.34 239.477 234.954 240.139 235.264 240.435C235.267 240.568 235.282 240.713 235.317 240.866C235.48 241.598 235.991 242.056 236.244 242.254C236.251 242.329 236.276 242.487 236.364 242.655C235.104 243.477 234.26 244.75 234.26 246.41C234.26 249.477 235.818 252.69 240.611 252.69C243.562 252.69 245.378 251.968 246.462 250.868C246.873 251.39 247.346 251.668 247.527 251.768C247.589 251.986 247.647 252.277 247.657 252.625C247.667 253.021 247.604 253.352 247.542 253.587C247.502 253.806 247.471 254.096 247.499 254.432C247.534 254.883 247.659 255.244 247.765 255.485C247.729 256.277 247.755 257.227 247.925 258.287C248.025 258.906 248.158 259.467 248.303 259.968C248.143 260.492 248.012 261.074 247.94 261.708C247.927 261.808 247.92 261.908 247.91 262.006C247.146 262.567 246.244 263.344 245.38 264.399C244.927 264.951 244.556 265.49 244.256 265.988C244.256 266.144 244.251 266.389 244.193 266.685C244.063 267.352 243.797 267.62 243.607 268.304C243.552 268.502 243.487 268.8 243.462 269.181C243.304 269.259 242.973 269.447 242.713 269.83C242.485 270.169 242.422 270.497 242.402 270.67C242.249 270.946 241.999 271.402 241.701 271.976C240.311 274.65 240.486 274.845 239.855 275.487C239.57 275.778 239.084 276.191 238.723 276.961C238.6 277.224 238.525 277.452 238.483 277.602C238.35 277.627 238.235 277.667 238.132 277.715C237.058 278.211 236.922 279.838 236.902 280.096C236.274 280.687 235.645 281.279 235.016 281.87C234.971 281.838 234.924 281.805 234.879 281.773C234.518 282.006 234.157 282.236 233.797 282.469C233.741 282.469 233.684 282.474 233.629 282.474C233.13 282.928 232.632 283.384 232.134 283.838C232.046 284.146 231.966 284.582 232.023 285.096C232.181 286.462 233.198 287.274 233.446 287.462C233.684 287.83 234.05 288.259 234.601 288.559C234.671 288.597 234.741 288.632 234.811 288.665C235.645 289.7 236.476 290.735 237.31 291.772C237.533 291.975 237.954 292.304 238.573 292.489C239.407 292.74 240.116 292.584 240.414 292.499C241.032 292.371 242.199 292.096 243.186 291.645C243.382 291.554 243.629 291.432 243.882 291.199C244.321 290.795 244.511 290.311 244.599 290.008C244.624 289.667 244.586 289.226 244.296 288.933C244.11 288.747 243.908 288.707 243.214 288.549C242.961 288.492 242.527 288.392 241.966 288.261C241.886 288.284 241.806 288.306 241.726 288.331C241.653 288.264 241.583 288.196 241.511 288.128C241.293 288.111 241.077 288.093 240.859 288.076C240.829 287.998 240.794 287.873 240.809 287.717C240.842 287.377 241.095 287.174 241.147 287.133C241.055 286.925 240.965 286.717 240.872 286.512C241.04 286.392 241.125 286.189 241.092 285.988C241.057 285.775 240.897 285.602 240.684 285.554C240.549 285.246 240.414 284.938 240.278 284.63C240.359 284.497 240.479 284.249 240.441 283.945C240.434 283.895 240.426 283.85 240.414 283.808C240.484 283.763 240.556 283.717 240.627 283.67C240.829 283.65 241.153 283.59 241.478 283.382C242.209 282.913 242.352 282.091 242.375 281.94C243.264 281.101 244.193 280.151 245.135 279.086C245.969 278.144 246.713 277.221 247.374 276.342C248.513 274.908 249.726 273.449 251.02 271.978C251.647 271.266 252.27 270.575 252.891 269.901C253.31 269.407 253.773 268.775 254.206 268.001C254.547 267.387 254.797 266.81 254.985 266.299C255.08 267.372 255.238 268.542 255.494 269.793C255.914 271.855 256.498 273.65 257.094 275.144C257.172 275.184 257.277 275.256 257.359 275.374C257.5 275.58 257.482 275.803 257.485 275.946C257.49 276.176 257.555 276.509 257.838 276.933C257.84 276.998 257.828 277.048 257.813 277.081C257.755 277.219 257.595 277.306 257.407 277.316C257.467 277.705 257.527 278.091 257.587 278.479C257.808 278.642 258.026 278.805 258.246 278.968C258.256 279.081 258.274 279.256 258.299 279.469C258.351 279.923 258.379 280.041 258.361 280.239C258.349 280.377 258.314 280.575 258.201 280.808C258.133 280.863 257.981 281.006 257.913 281.241C257.878 281.364 257.878 281.474 257.885 281.55C257.913 281.81 257.941 282.071 257.968 282.334C257.941 282.454 257.913 282.575 257.885 282.695C257.845 282.845 257.813 283.028 257.808 283.234C257.798 283.908 258.103 284.417 258.266 284.645C258.434 284.798 258.797 285.086 259.346 285.209C260.079 285.374 260.668 285.138 260.868 285.048C261.798 284.838 262.727 284.627 263.656 284.414C265.051 284.585 266.236 284.595 267.132 284.56C269.081 284.484 270.13 284.171 270.516 284.048C270.764 283.968 270.964 283.893 271.102 283.84C271.26 283.73 271.478 283.552 271.666 283.279C271.996 282.8 272.051 282.314 272.061 282.088C271.974 281.83 271.888 281.57 271.801 281.311C271.668 281.174 271.455 280.991 271.155 280.903C270.942 280.84 270.774 280.848 270.639 280.85C270.559 280.85 270.165 280.83 269.379 280.785C268.47 280.735 268.382 280.587 267.543 280.552C267.122 280.532 266.779 280.552 266.564 280.575C266.226 280.299 265.73 279.971 265.074 279.755C264.848 279.68 264.633 279.63 264.435 279.595C264.3 279.632 264.164 279.667 264.032 279.705C263.909 279.682 263.653 279.62 263.401 279.419C263.148 279.216 263.03 278.978 262.982 278.86C262.952 278.647 262.922 278.434 262.892 278.221C262.9 278.101 262.9 277.956 262.877 277.795C262.837 277.502 262.744 277.271 262.664 277.111C262.862 276.958 262.947 276.715 262.885 276.517C262.799 276.249 262.441 276.076 262.101 276.216C262.078 275.053 262.053 273.888 262.03 272.723C262.113 272.382 262.183 272.008 262.231 271.605C262.354 270.56 262.291 269.642 262.176 268.913C262.243 268.469 262.288 267.86 262.206 267.149C262.126 266.472 261.955 265.916 261.798 265.51C262.454 263.675 262.602 262.728 262.591 262.199C262.591 262.091 262.576 261.68 262.657 261.136C262.734 260.62 262.855 260.254 262.885 260.156C263.233 259.023 262.627 256.863 262.356 255.69C262.151 254.803 261.918 253.51 261.845 251.866C261.735 250.745 261.627 249.628 261.517 248.507C261.467 247.803 261.414 247.099 261.364 246.395C261.289 245.781 261.214 245.164 261.141 244.55C261.382 244.314 261.607 244.182 261.768 244.104C262.093 243.949 262.331 243.931 262.531 243.7C262.644 243.57 262.697 243.43 262.722 243.334C262.794 242.214 262.597 241.502 262.394 241.056C262.319 240.893 262.171 240.603 262.033 240.152C261.965 239.923 261.853 239.502 261.81 239.014C261.74 238.199 261.925 237.908 261.985 237.086C262.015 236.68 262.018 236.094 261.878 235.367C262.374 235.65 263.107 236.046 264.022 236.46C265.655 237.197 267.703 238.122 270.293 238.33C271.563 238.432 271.896 238.277 273.724 238.465C274.816 238.578 275.705 238.736 276.296 238.853C276.447 238.748 276.672 238.56 276.855 238.257C276.963 238.076 277.025 237.906 277.063 237.773C277.702 237.883 278.21 237.999 278.553 238.081C279.269 238.257 279.517 238.357 279.986 238.372C280.131 238.377 280.276 238.372 281.21 238.199C281.584 238.132 281.887 238.071 282.14 238.019C284.967 254.988 287.792 271.961 290.62 288.93C290.63 288.94 290.818 289.151 291.096 289.101C291.286 289.066 291.444 288.923 291.497 288.735C288.744 271.738 285.992 254.738 283.239 237.738L283.247 237.723ZM245.122 242.916C245.012 242.853 244.899 242.793 244.784 242.735C244.964 242.658 245.13 242.578 245.285 242.497C245.23 242.635 245.177 242.776 245.122 242.916Z" fill="#00311C"/>
</g>
<defs>
<clipPath id="clip0_8691_26770">
<rect width="883" height="349.141" fill="white" transform="translate(-114)"/>
</clipPath>
</defs>
</svg>
