<svg width="1600" height="301" viewBox="0 0 1600 301" fill="none" xmlns="http://www.w3.org/2000/svg">
<path d="M1430.51 20.6873H1384.74L1327.02 50.4251L1287.22 37.6129L1240.86 53.5222L1208.06 56.47L1188.49 71.9795L1137.17 57.0576L1069.62 58.0402L1040 64.6823L999.664 66.4885L960.357 87.5805L914.495 107.059L879.776 108.056L833.096 121.567L804.461 116.726L770.339 125.781L724.905 129.345L685.488 130.959L676.776 136.98L644.155 158.366L597.946 163.057L580.729 183.937L525.095 163.057L479.099 196.499L472.177 214.373L408.072 225.572L383.649 216.69L370.566 225.586L327.64 230.514L301.219 253.08H249.326L194.155 273.011L160.461 303.413L137.972 327.357L88.0815 319.058L68.3224 322.376L12.6025 340.241H-17V391.577H123.258H1230.3H1606.88V9.65723L1430.51 20.6873Z" fill="#00311C"/>
<path d="M196.987 255.294C196.327 257.12 195.615 258.767 194.907 260.227C194.002 261.84 193.093 263.454 192.188 265.067C191.615 266.69 191.095 268.502 190.686 270.486C190.551 271.146 190.436 271.791 190.339 272.417C190.455 272.832 190.691 273.862 190.31 275.076C190.002 276.073 189.43 276.719 189.122 277.017C189.088 277.518 189.054 278.024 189.016 278.525C189.208 278.587 189.593 278.737 189.94 279.098C190.219 279.392 190.359 279.7 190.421 279.883C191.004 280.269 191.581 280.649 192.164 281.03C195.509 269.446 198.397 257.621 201.314 245.801C200.717 246.841 199.88 248.113 198.686 249.49C198.281 251.253 197.733 253.204 196.982 255.285L196.987 255.294Z" fill="#00311C"/>
<path d="M229.063 141.847C228.538 143.095 228.018 144.342 227.494 145.585C227.879 145.884 228.259 146.187 228.644 146.486C228.1 147.348 227.551 148.277 227.012 149.274C226.439 150.334 225.934 151.355 225.491 152.333C225.327 152.603 225.092 153.027 224.846 153.556C224.129 155.122 224.317 155.565 223.806 157.01C223.157 158.85 222.512 159.105 221.929 161.2C221.794 161.682 221.713 162.087 221.664 162.356C221.135 162.954 220.61 163.546 220.081 164.143C220.086 164.389 220.057 164.712 219.835 164.909C219.652 165.078 219.431 165.078 219.234 165.107C218.906 165.16 218.459 165.338 217.948 165.897C218.054 166.34 218.155 167.033 218.035 167.867C217.949 168.445 217.78 168.917 217.626 169.259C217.746 169.49 217.958 169.972 217.92 170.602C217.9 170.954 217.809 171.238 217.727 171.436C217.746 171.6 217.761 171.961 217.559 172.332C217.472 172.491 217.371 172.606 217.289 172.688C217.356 172.977 217.429 173.266 217.506 173.56C217.573 173.83 217.645 174.099 217.717 174.364C217.968 174.841 218.218 175.318 218.473 175.79C218.44 176.065 218.406 176.339 218.367 176.614C218.805 176.936 219.06 177.288 219.2 177.514C219.373 177.799 219.532 178.059 219.532 178.425C219.532 178.877 219.287 179.21 219.186 179.335C219.157 179.605 219.137 180.014 219.239 180.491C219.383 181.156 219.657 181.44 219.835 181.926C219.989 182.35 220.105 183.01 219.835 183.973C220.023 184.407 220.211 184.845 220.399 185.279C220.379 185.765 220.355 186.252 220.336 186.738C220.418 187.042 220.5 187.35 220.577 187.653C220.615 187.648 220.817 187.61 220.923 187.721C221.048 187.851 221.015 188.169 220.74 188.414C220.76 188.8 220.779 189.185 220.793 189.57C220.909 189.792 221.048 190.139 221.063 190.577C221.101 191.694 220.288 192.446 220.148 192.571C220.403 192.889 220.658 193.202 220.918 193.52C221.361 193.664 221.799 193.809 222.242 193.953C222.266 194.059 222.305 194.291 222.213 194.546C222.175 194.657 222.122 194.743 222.074 194.806C222.141 194.902 222.367 195.249 222.314 195.721C222.281 196.015 222.155 196.222 222.083 196.328C222.122 196.381 222.309 196.636 222.266 196.998C222.218 197.393 221.924 197.604 221.876 197.638C222.131 197.691 222.411 197.759 222.709 197.855C223.219 198.023 223.652 198.231 223.994 198.428C224.114 198.346 224.413 198.178 224.817 198.192C225.019 198.197 225.188 198.25 225.303 198.298C225.347 198.26 225.578 198.057 225.924 198.076C226.242 198.096 226.444 198.288 226.487 198.332C226.786 198.197 227.402 197.971 228.042 198.182C228.124 198.211 228.201 198.245 228.273 198.279C228.687 198.245 229.135 198.226 229.611 198.235C230.771 198.26 231.787 198.433 232.615 198.65C233.554 198.746 234.526 198.862 235.522 199.001C236.427 199.127 237.308 199.266 238.16 199.415C238.81 199.541 239.436 199.666 240.047 199.796C236.913 180.26 233.751 160.724 230.815 141.178C230.179 141.481 229.583 141.698 229.058 141.847H229.063Z" fill="#00311C"/>
<path d="M281.708 251.445C281.106 250.145 279.802 249.726 279.566 249.653C279.171 249.586 278.386 249.499 277.486 249.812C276.148 250.279 275.479 251.301 275.291 251.618C275.031 251.614 274.776 251.609 274.516 251.604C274.42 251.739 274.247 251.946 273.958 252.095C273.352 252.413 272.745 252.206 272.625 252.163C272.302 251.888 271.932 251.594 271.498 251.305C271.012 250.978 270.55 250.718 270.127 250.511C269.987 250.159 269.775 249.726 269.433 249.282C268.702 248.338 267.797 247.895 267.306 247.698C267.455 247.144 267.652 246.099 267.412 244.827C267.19 243.671 266.704 242.833 266.387 242.371C266.093 240.805 265.799 239.245 265.506 237.679C265.039 236.046 264.572 234.409 264.11 232.771C263.397 230.242 262.69 227.714 261.992 225.185C261.669 223.292 261.347 221.394 261.024 219.501C261.053 219.265 261.082 218.918 261.092 218.499C261.126 217.151 260.894 216.149 260.789 215.658C260.509 214.376 260.201 212.628 259.821 210.335C259.845 209.656 259.802 208.023 258.767 206.405C258.189 205.499 257.501 204.917 257.01 204.565C256.89 204.517 256.712 204.44 256.495 204.348C253.891 203.269 251.297 202.426 246.709 201.294C245.313 200.948 243.696 200.567 241.891 200.177C238.786 180.154 235.682 160.127 232.582 140.104C232.88 139.883 233.15 139.666 233.376 139.459C233.55 139.218 233.723 138.982 233.896 138.741C233.944 138.717 234.604 138.332 234.637 137.599C234.657 137.171 234.454 136.862 234.377 136.752C234.416 136.665 234.671 136.068 234.363 135.48C234.209 135.186 233.978 135.023 233.853 134.945C233.896 134.753 233.973 134.252 233.728 133.727C233.622 133.505 233.487 133.342 233.376 133.226C233.4 133.221 233.79 133.125 233.911 132.759C233.992 132.508 233.901 132.292 233.877 132.239C233.935 132.186 234.127 132.003 234.18 131.694C234.243 131.328 234.06 131.054 234.021 131.001C233.453 131.116 232.659 131.203 231.735 131.083C231.571 131.063 231.412 131.034 231.258 131.005C230.893 129.031 230.796 127.085 230.464 124.99C230.17 124.946 229.545 124.691 228.876 124.98C228.524 125.129 228.264 125.327 228.091 125.486C228.678 127.427 228.649 129.585 229.131 131.559C229.015 131.617 228.9 131.675 228.779 131.733C228.163 132.027 227.576 132.267 227.032 132.46C226.248 134.315 225.463 136.169 224.678 138.028C224.351 138.375 224.019 138.775 223.692 139.227C222.787 140.494 222.286 141.747 221.993 142.729C221.916 142.801 221.834 142.878 221.757 142.951C220.982 144.338 220.231 145.865 219.538 147.531C219.345 147.994 219.162 148.456 218.994 148.909C218.397 149.578 217.795 150.248 217.198 150.917C217.174 150.941 216.89 151.182 216.924 151.572C216.948 151.847 217.121 152.088 217.376 152.203C216.958 152.613 216.51 153.085 216.062 153.634C215.687 154.087 215.364 154.53 215.08 154.949C215.105 154.848 215.109 154.756 215.109 154.674C215.095 154.082 214.599 153.682 214.469 153.581C215.36 152.719 215.547 151.582 215.09 150.951C214.825 150.585 214.392 150.45 214.123 150.402C214.219 150.166 214.32 149.935 214.416 149.699C214.907 149.646 215.393 149.588 215.88 149.535C215.947 149.376 216.014 149.188 216.067 148.976C216.12 148.784 216.149 148.605 216.168 148.446C215.47 147.295 214.772 146.144 214.079 144.993C213.694 144.574 213.309 144.15 212.929 143.731C213.083 143.447 213.242 143.163 213.396 142.883C213.675 142.869 213.969 142.845 214.277 142.801C215.48 142.642 216.505 142.3 217.333 141.939C217.843 141.92 218.272 141.636 218.421 141.231C218.522 140.952 218.46 140.692 218.421 140.571C218.373 140.066 218.325 139.565 218.277 139.059C218.493 138.794 218.71 138.529 218.926 138.264C219.119 138.1 219.162 137.946 219.172 137.86C219.201 137.643 219.071 137.44 218.873 137.127C218.691 136.848 218.57 136.742 218.613 136.646C218.652 136.554 218.816 136.535 218.946 136.535C218.931 136.313 218.917 136.097 218.902 135.88C218.95 135.861 219.311 135.702 219.432 135.302C219.518 135.008 219.422 134.762 219.393 134.69C219.34 134.647 219.244 134.555 219.191 134.411C219.09 134.107 219.287 133.838 219.311 133.814C219.749 133.703 220.192 133.587 220.63 133.476C220.683 133.428 221.145 132.995 221.059 132.402C221.025 132.166 220.919 131.993 220.842 131.892C220.736 131.781 220.573 131.598 220.399 131.352C220.024 130.822 219.947 130.485 219.648 129.97C219.514 129.734 219.292 129.392 218.95 129.016C219.148 128.944 219.259 128.771 219.239 128.612C219.225 128.496 219.143 128.419 219.114 128.395C219.129 128.294 219.148 128.197 219.162 128.096C219.201 128.019 219.244 127.937 219.283 127.86C219.446 127.663 219.793 127.196 219.851 126.526C219.875 126.247 219.846 126.006 219.802 125.823C219.581 125.5 219.273 124.994 219.023 124.33C218.657 123.357 218.719 122.851 218.44 122.051C218.257 121.526 217.906 120.809 217.15 120.048C218.387 119.6 219.143 118.935 219.061 118.42C219.047 118.318 218.989 118.179 218.811 118.029C218.536 118.02 218.18 117.977 217.776 117.846C217.463 117.75 217.208 117.625 217.006 117.509C216.717 117.312 216.293 117.032 215.75 116.753C212.688 115.154 209.709 115.318 208.438 115.4C207.461 115.467 205.969 115.573 204.183 116.271C203.1 116.695 199.899 117.948 197.983 121.411C196.149 124.734 196.655 127.932 196.823 128.896C197.271 131.458 198.46 133.26 199.148 134.151C200.067 135.62 200.39 136.496 200.116 136.766C200.015 136.867 199.836 136.887 199.572 136.824C199.408 137.118 199.249 137.407 199.086 137.696C198.633 137.71 198.181 137.725 197.723 137.739C197.593 138.847 197.463 139.955 197.333 141.058C197.232 141.212 196.972 141.641 196.982 142.243C196.987 142.782 197.203 143.172 197.305 143.336C196.828 143.582 196.351 143.823 195.875 144.068C195.899 144.314 195.899 144.617 195.841 144.954C195.716 145.73 195.48 144.94 195.249 145.243C195.312 143.124 195.692 142.931 195.129 142.406C194.96 142.247 195.018 142.435 194.821 142.315C194.508 142.551 193.93 142.084 193.603 142.411C192.65 143.365 192.058 144.367 191.697 145.152C191.317 145.595 190.883 146.187 190.498 146.939C190.267 147.392 190.099 147.815 189.969 148.201C188.135 149.044 186.296 149.887 184.458 150.73C183.067 151.529 181.671 152.324 180.28 153.123C178.383 154.067 176.482 155.012 174.585 155.956C174.104 156.158 173.57 156.413 173.002 156.741C172.496 157.035 172.053 157.338 171.673 157.627C170.518 159.611 166.821 169.317 165.685 171.653C164.381 174.336 163.274 176.908 162.335 179.331C162.037 180.01 161.887 180.573 161.806 180.935C161.238 183.449 162.191 184.513 161.425 185.78C161.295 185.997 160.906 186.56 161.021 187.215C161.06 187.427 161.137 187.586 161.19 187.683C161.146 188.598 161.199 189.797 161.555 191.136C161.709 191.719 161.897 192.234 162.09 192.692C163.028 193.593 163.967 194.489 164.906 195.389C164.727 195.649 164.506 196.03 164.342 196.516C164.159 197.07 164.116 197.557 164.116 197.894C164.236 197.899 164.362 197.908 164.482 197.918C164.236 198.482 163.596 200.028 163.957 200.269C163.986 200.288 164.015 200.297 164.058 200.302C164.357 200.399 164.655 200.495 164.954 200.591C165.055 201.063 165.151 201.53 165.252 202.003C165.555 202.778 165.854 203.553 166.157 204.329C165.979 204.666 165.753 205.201 165.695 205.885C165.575 207.248 166.191 208.264 166.422 208.611C166.364 208.89 166.34 209.218 166.393 209.569C166.629 211.096 168.164 211.872 168.39 211.983C168.92 212.214 169.449 212.44 169.979 212.671C171.192 214.116 172.713 215.715 174.58 217.319C176.058 218.586 177.493 219.631 178.811 220.493C180.52 219.896 182.373 219.323 184.357 218.808C187.341 218.027 190.142 217.498 192.693 217.141C192.501 218.798 192.371 220.652 192.356 222.661C192.347 224.453 192.433 226.115 192.573 227.622C192.462 227.911 192.356 228.2 192.246 228.484C192.082 228.648 191.875 228.908 191.865 229.236C191.851 229.631 192.12 229.823 192.25 230.233C192.342 230.522 192.376 230.97 192.072 231.63C192 231.673 191.784 231.817 191.697 232.087C191.591 232.41 191.716 232.79 192.01 233.041C191.803 233.209 191.519 233.498 191.389 233.922C191.254 234.351 191.379 234.601 191.283 235.064C191.23 235.334 191.09 235.728 190.696 236.172C190.965 236.34 191.09 236.663 190.999 236.947C190.922 237.178 190.715 237.352 190.46 237.395C190.494 237.583 190.532 237.771 190.566 237.954C190.258 238.301 189.945 238.647 189.637 238.994C188.958 240.492 188.275 241.995 187.596 243.493C187.158 245.121 186.725 246.749 186.287 248.377C186.104 248.724 185.849 249.229 185.565 249.856C184.178 252.919 183.721 255.342 183.211 257.832C182.811 259.778 182.205 262.644 181.324 266.367C181.002 267.008 180.665 267.807 180.39 268.746C180.145 269.594 180.005 270.365 179.928 271.03C180.13 271.651 180.328 272.272 180.53 272.898C180.409 273.496 180.294 274.098 180.174 274.695C179.962 274.835 179.736 275.018 179.529 275.263C178.643 276.294 178.72 277.619 178.759 278.018C178.797 278.356 178.836 278.693 178.869 279.035C178.383 279.892 177.892 280.749 177.406 281.612C177.367 281.901 177.16 282.132 176.901 282.19C176.607 282.252 176.376 282.069 176.347 282.045C176.236 282.975 176.126 283.909 176.01 284.839C175.88 284.94 175.75 285.036 175.62 285.137C175.49 285.653 175.327 286.587 175.562 287.709C175.914 289.357 176.91 290.368 177.31 290.73C178.21 290.985 179.452 291.23 180.929 291.192C183.538 291.124 185.521 290.219 186.571 289.636C187.399 289.482 188.231 289.328 189.059 289.174C189.276 289.179 189.497 289.183 189.719 289.183C188.535 292.969 187.293 296.717 185.969 300.425C185.998 300.522 186.128 300.888 186.513 301.119C186.975 301.393 187.442 301.259 187.519 301.235C188.973 297.251 190.335 293.21 191.625 289.14C192.414 289.097 193.237 289.024 194.104 288.914C196.939 288.543 199.35 287.859 201.256 287.165C201.531 287.059 201.877 286.881 202.219 286.578C203.11 285.778 203.264 284.709 203.297 284.367C203.379 283.967 203.475 283.201 203.061 282.541C202.936 282.339 202.493 281.713 200.53 281.371C199.042 281.111 198.075 281.255 195.784 281.39C195.11 281.429 194.498 281.457 193.969 281.482C199.023 264.339 203.105 246.672 207.74 229.298C208.082 228.61 208.419 227.829 208.722 226.962C209.213 225.541 209.482 224.246 209.627 223.176C211.004 220.677 212.385 218.177 213.762 215.672C216.65 215.821 219.533 215.971 222.421 216.12C224.789 216.472 227.701 216.708 231.013 216.549C233.704 216.419 236.091 216.053 238.103 215.624C238.907 215.72 239.889 215.773 240.991 215.682C241.554 215.634 242.074 215.556 242.551 215.465C244.616 228.46 246.637 241.455 248.538 254.46C248.615 254.518 248.808 254.99 249.583 254.797C250.262 254.629 250.18 254.128 250.238 254.032C248.264 241.282 246.286 228.532 244.307 215.783C244.664 215.865 245.001 215.927 245.323 215.98C245.338 216.154 245.391 216.481 245.607 216.823C245.877 217.252 246.247 217.449 246.401 217.522C246.377 217.623 246.353 217.719 246.329 217.82C246.271 218.051 246.209 218.278 246.146 218.49C246.608 219.299 247.07 220.108 247.532 220.922C247.48 222.078 247.518 223.436 247.754 224.93C248.312 228.47 249.718 231.162 250.801 232.839C250.984 233.566 251.234 234.38 251.576 235.242C252.009 236.35 252.5 237.294 252.967 238.079C252.972 239.062 252.976 240.049 252.981 241.032C253.02 241.388 253.078 241.764 253.169 242.154C253.631 244.119 254.68 245.545 255.499 246.431C255.398 246.614 255.268 246.913 255.239 247.288C255.171 248.112 255.624 248.709 255.754 248.868C255.826 249.355 255.898 250.347 255.349 251.305C255.234 251.508 255.104 251.681 254.974 251.83C255.051 252.014 255.816 253.839 255.003 254.667C254.931 254.74 254.849 254.807 254.743 254.865C254.637 255.217 254.555 255.636 254.531 256.108C254.449 257.837 255.253 259.152 255.658 259.715C256.235 260.004 256.875 260.279 257.573 260.52C260.639 261.574 263.46 261.493 265.409 261.223C265.645 261.049 265.886 260.871 266.122 260.698C268.249 260.823 270.377 260.943 272.504 261.069C273.448 261.276 275.532 261.565 277.438 260.467C278.531 259.84 279.171 258.983 280.264 257.529C281.159 256.339 281.453 255.611 281.607 255.164C281.905 254.292 281.972 253.511 281.982 252.982C282.001 252.644 281.982 252.071 281.698 251.455L281.708 251.445ZM192.164 281.038C191.581 280.653 191.004 280.273 190.421 279.892C190.354 279.709 190.219 279.401 189.94 279.107C189.593 278.746 189.208 278.592 189.016 278.534C189.05 278.033 189.083 277.527 189.122 277.026C189.43 276.723 189.998 276.082 190.311 275.085C190.686 273.871 190.455 272.836 190.34 272.426C190.436 271.8 190.551 271.155 190.686 270.495C191.095 268.51 191.615 266.699 192.188 265.076C193.093 263.463 194.003 261.849 194.907 260.235C195.615 258.776 196.327 257.129 196.987 255.303C197.738 253.222 198.286 251.272 198.691 249.509C199.88 248.136 200.722 246.86 201.319 245.819C198.407 257.635 195.514 269.464 192.169 281.048L192.164 281.038ZM238.161 199.421C237.309 199.271 236.428 199.132 235.523 199.007C234.527 198.867 233.554 198.751 232.616 198.655C231.788 198.443 230.772 198.265 229.612 198.241C229.136 198.231 228.688 198.25 228.274 198.284C228.202 198.246 228.125 198.212 228.043 198.188C227.398 197.971 226.782 198.197 226.488 198.337C226.445 198.294 226.248 198.096 225.925 198.082C225.579 198.062 225.347 198.27 225.304 198.303C225.193 198.255 225.025 198.207 224.818 198.197C224.414 198.188 224.115 198.356 223.995 198.433C223.648 198.236 223.22 198.029 222.71 197.86C222.411 197.764 222.132 197.692 221.877 197.643C221.925 197.61 222.214 197.403 222.267 197.003C222.31 196.642 222.127 196.386 222.084 196.333C222.156 196.227 222.281 196.02 222.315 195.726C222.368 195.254 222.142 194.908 222.074 194.811C222.123 194.749 222.175 194.662 222.214 194.551C222.305 194.296 222.267 194.065 222.243 193.959C221.8 193.814 221.362 193.67 220.919 193.525C220.664 193.207 220.409 192.894 220.149 192.576C220.289 192.451 221.102 191.705 221.064 190.582C221.049 190.149 220.91 189.802 220.794 189.576C220.775 189.19 220.755 188.805 220.741 188.42C221.015 188.174 221.044 187.856 220.924 187.726C220.818 187.615 220.616 187.649 220.577 187.659C220.496 187.355 220.414 187.047 220.337 186.743C220.356 186.257 220.38 185.77 220.399 185.284C220.212 184.851 220.024 184.417 219.836 183.979C220.106 183.015 219.99 182.36 219.836 181.932C219.658 181.445 219.384 181.156 219.239 180.496C219.133 180.019 219.153 179.61 219.186 179.34C219.292 179.215 219.533 178.883 219.533 178.43C219.533 178.064 219.374 177.809 219.201 177.52C219.061 177.293 218.806 176.946 218.368 176.619C218.402 176.344 218.435 176.07 218.474 175.795C218.224 175.318 217.973 174.846 217.718 174.37C217.646 174.105 217.574 173.84 217.506 173.565C217.429 173.271 217.357 172.982 217.29 172.693C217.376 172.611 217.478 172.491 217.559 172.337C217.762 171.966 217.742 171.605 217.728 171.441C217.81 171.244 217.901 170.959 217.92 170.608C217.959 169.977 217.747 169.495 217.627 169.264C217.781 168.922 217.949 168.45 218.036 167.872C218.156 167.039 218.055 166.34 217.949 165.902C218.459 165.343 218.912 165.165 219.234 165.112C219.432 165.078 219.653 165.078 219.836 164.915C220.053 164.717 220.086 164.394 220.082 164.149C220.611 163.551 221.136 162.959 221.665 162.362C221.713 162.097 221.795 161.692 221.93 161.206C222.512 159.11 223.157 158.855 223.807 157.015C224.317 155.57 224.13 155.122 224.847 153.562C225.092 153.027 225.328 152.608 225.492 152.338C225.935 151.365 226.44 150.339 227.013 149.28C227.552 148.283 228.101 147.353 228.645 146.491C228.26 146.192 227.879 145.889 227.494 145.59C228.014 144.343 228.539 143.095 229.063 141.853C229.588 141.703 230.185 141.486 230.82 141.183C233.752 160.734 236.914 180.265 240.052 199.801C239.441 199.676 238.811 199.551 238.166 199.421H238.161Z" fill="#00311C"/>
<path d="M378.153 225.276C377.951 225.044 377.368 224.794 377.084 224.688C376.791 224.577 376.17 224.433 375.857 224.423C374.904 224.38 373.017 224.852 372.064 224.905C371.048 224.962 369.017 224.905 368.006 224.852C366.909 224.789 364.694 224.688 363.626 224.423C362.827 224.226 361.234 223.691 360.579 223.195C359.597 222.443 358.105 220.367 357.59 219.24C357.537 219.13 357.489 218.999 357.441 218.869L362.408 119.493C362.625 119.45 362.947 119.478 363.092 119.401C363.274 119.305 363.635 119.016 363.679 118.814C363.727 118.592 363.525 118.115 363.356 117.956C363.217 117.822 362.779 117.831 362.49 117.769L362.509 117.417C362.832 117.383 363.352 117.489 363.573 117.422C363.804 117.354 364.256 117.162 364.43 116.993C364.55 116.877 364.738 116.574 364.752 116.405C364.762 116.251 364.632 115.943 364.54 115.818C364.449 115.693 364.045 115.596 364.059 115.442C364.078 115.216 364.694 115.168 364.863 115.013C365.012 114.874 365.262 114.522 365.291 114.32C365.311 114.171 365.113 113.882 365.132 113.732C365.142 113.612 365.354 113.424 365.344 113.304C365.335 113.14 365.099 112.87 364.969 112.769C364.776 112.615 364.276 112.514 364.059 112.393C363.727 112.21 363.202 111.642 362.812 111.468L362.899 109.715C362.933 109.026 362.403 108.444 361.72 108.41C361.036 108.381 360.449 108.906 360.415 109.59L360.319 111.56C360.035 111.603 359.843 111.642 359.843 111.642L356.69 112.441C356.69 112.441 355.342 112.865 354.928 113.082C354.562 113.275 353.595 114.045 353.595 114.045L350.764 114.633C350.764 114.633 351.419 112.889 351.511 112.282C351.612 111.637 351.641 110.303 351.511 109.662C351.385 109.065 350.846 107.947 350.548 107.418C350.095 106.618 348.95 105.168 348.411 104.426C347.771 103.54 345.845 100.901 345.845 100.901L342.962 95.0196L340.56 90.1019L340.026 88.5509L341.147 85.8247L343.284 82.7758C343.284 82.7758 345.248 82.1352 345.903 81.9184C346.355 81.7691 347.308 81.5716 347.718 81.3308C347.953 81.1911 348.382 80.8202 348.521 80.5842C348.613 80.4205 348.685 80.0255 348.68 79.8376C348.68 79.5342 348.416 78.6624 348.416 78.6624L349.022 77.7713L349.094 77.3812L348.916 76.808L349.345 76.2733L349.417 75.8832L349.06 75.4545L348.955 74.207L349.667 73.7446C349.667 73.7446 350.298 73.3641 350.452 73.1762C350.562 73.0414 350.721 72.709 350.736 72.5356C350.745 72.3959 350.673 72.1118 350.591 72.001C350.471 71.8372 350.076 71.6927 349.912 71.5723C349.787 71.4808 349.45 71.1822 349.45 71.1822L348.026 69.6119L347.597 68.6149L347.775 68.2585L347.987 67.8298L347.809 67.3674L347.737 66.3318L347.631 65.3685L348.95 64.3378C348.95 64.3378 349.633 63.7646 349.874 63.5912C350.047 63.4659 350.529 63.3311 350.586 63.1288C350.62 63.0084 350.476 62.7434 350.375 62.6664C350.071 62.4352 348.878 62.4159 348.878 62.4159L346.548 61.6693C346.548 61.6693 344.382 59.3766 343.559 58.7312C342.914 58.2255 341.494 57.4163 340.781 57.0213C340.17 56.6841 338.962 55.8846 338.274 55.793C337.427 55.6774 335.742 56.2314 334.909 56.4337C333.961 56.6649 332.05 57.1321 331.169 57.5559C330.322 57.9654 328.772 59.0684 328.069 59.6945C327.434 60.2629 326.279 61.5393 325.826 62.2618C325.561 62.6904 325.056 63.5863 324.969 64.0776C324.825 64.9543 325.196 66.7316 325.345 67.6034C325.504 68.5523 326.25 70.3874 326.202 71.3459C326.129 72.7139 324.44 76.5286 324.44 76.5286L324.599 76.7984L322.62 78.9899C322.62 78.9899 321.215 81.0851 320.806 81.8221C320.517 82.3375 319.862 83.373 319.79 83.9607C319.713 84.6109 320.065 85.9258 320.324 86.5279C320.748 87.5009 322.779 90.0007 322.779 90.0007L321.335 94.8655C321.335 94.8655 321.056 93.1026 320.96 92.515C320.883 92.0333 320.998 90.9207 320.637 90.5931C320.305 90.2849 319.111 90.0826 318.823 90.4342C318.264 91.1085 319.665 92.934 319.785 93.801C319.824 94.0659 319.785 94.8703 319.785 94.8703L320.267 98.0252C320.267 98.0252 319.27 99.5617 318.717 99.6291C318.544 99.6484 318.303 99.2438 318.13 99.2534C317.071 99.3209 315.66 101.267 314.871 101.98C314.134 102.644 312.666 103.988 312.041 104.759C311.588 105.313 310.491 107.162 310.491 107.162L309.475 108.978L306.216 109.084L305.417 108.497C305.417 108.497 304.849 108.338 304.671 108.391C304.488 108.444 304.19 108.713 304.084 108.872C303.935 109.094 303.689 109.633 303.762 109.889C303.814 110.072 304.166 110.317 304.349 110.37C304.58 110.438 305.311 110.264 305.311 110.264L304.936 113.096C304.936 113.096 304.835 116.868 304.936 118.12C305.085 119.97 306.11 125.441 306.11 125.441C306.11 125.441 304.695 126.511 304.508 127.045C304.031 128.384 305.095 132.71 305.095 132.71C305.095 132.71 304.628 136.433 304.561 137.68C304.541 138.027 304.561 139.072 304.561 139.072L304.349 139.39L304.19 141.047L304.83 141.635L305.576 141.259L305.523 139.333L305.364 139.121C305.364 139.121 305.639 138.085 305.687 137.733C305.826 136.621 305.793 133.244 305.793 133.244L307.93 138.856L310.332 145.748C310.332 145.748 310.149 148.894 310.332 149.915C310.385 150.223 310.587 150.83 310.76 151.09C310.9 151.302 311.27 151.697 311.506 151.784C311.896 151.928 312.763 151.832 313.162 151.731C313.759 151.576 314.741 150.666 315.352 150.608C315.973 150.55 317.148 151.153 317.754 151.302C318.322 151.442 319.463 151.798 320.05 151.784C320.56 151.769 322.028 151.249 322.028 151.249L322.669 150.714L323.684 152.636C323.684 152.636 324.44 153.739 324.647 154.134C325.022 154.852 325.73 156.33 325.874 157.125C326.067 158.166 325.768 161.349 325.768 161.349L325.821 170.968C325.821 170.968 326.115 177.745 325.98 179.999C325.932 180.794 325.759 182.384 325.552 183.154C325.345 183.925 324.748 185.418 324.324 186.092C324.055 186.526 323.309 187.243 322.938 187.59C322.072 188.39 320.137 189.753 319.251 190.528C318.134 191.506 315.954 193.524 314.977 194.647C313.903 195.88 312.026 198.567 311.131 199.935C310.072 201.549 308.195 204.94 307.073 206.51C306.096 207.878 303.935 210.455 302.799 211.693C302.077 212.478 300.537 213.961 299.757 214.689C299.117 215.281 297.985 216.779 297.138 216.986C296.926 217.039 296.503 216.74 296.281 216.774C295.636 216.871 294.582 217.747 294.038 218.108C293.514 218.455 292.411 219.12 292.007 219.606C291.675 220.006 291.184 220.965 291.097 221.475C290.996 222.101 291.194 223.397 291.42 223.99C291.622 224.519 292.33 225.43 292.7 225.858C293.153 226.379 294.168 227.327 294.732 227.727C294.914 227.857 295.348 228.021 295.535 228.156C296.089 228.556 297.047 229.529 297.509 230.025C298.024 230.579 299.107 231.691 299.434 232.375C299.689 232.92 299.661 234.186 299.916 234.726C300.204 235.347 301.124 236.397 301.624 236.864C302.038 237.25 302.953 237.972 303.492 238.146C304.214 238.386 305.774 238.261 306.534 238.252C307.242 238.242 308.662 238.189 309.364 238.093C309.894 238.016 310.977 237.866 311.449 237.611C311.79 237.428 312.387 236.884 312.57 236.542C312.705 236.291 312.83 235.699 312.782 235.419C312.734 235.116 312.411 234.567 312.195 234.35C311.708 233.873 310.366 233.44 309.793 233.069C309.114 232.631 307.646 231.788 307.227 231.089C306.606 230.054 306.394 227.539 306.428 226.335C306.438 225.964 306.717 225.261 306.751 224.89C306.775 224.596 306.751 224.004 306.698 223.715C306.645 223.412 306.293 222.848 306.322 222.54C306.428 221.379 307.872 219.394 308.512 218.426C309.239 217.323 310.938 215.291 311.824 214.308C312.82 213.21 314.962 211.158 316.045 210.142C317.181 209.072 319.574 207.059 320.69 205.975C321.735 204.959 323.694 202.806 324.695 201.751C325.638 200.759 327.535 198.779 328.541 197.85C329.744 196.737 332.3 194.676 333.561 193.626C334.384 192.942 336.122 191.665 336.873 190.899C337.325 190.437 338.192 189.45 338.476 188.872C338.692 188.424 338.957 186.95 338.957 186.95L339.116 185.399L340.079 188.496L340.825 192.132C340.825 192.132 340.984 196.106 341.094 197.426C341.219 198.9 341.475 201.857 341.787 203.307C342.12 204.829 343.135 207.791 343.708 209.241C344.18 210.436 345.335 212.738 345.898 213.894C346.615 215.358 348.117 218.258 348.728 219.77C349.258 221.075 350.11 223.763 350.49 225.117C350.76 226.07 351.833 228.079 351.395 228.965C351.323 229.11 350.899 229.1 350.808 229.23C350.529 229.639 350.644 230.718 350.702 231.21C350.784 231.903 351.13 233.295 351.501 233.883C351.761 234.287 352.507 234.962 352.945 235.164C353.446 235.4 354.581 235.453 355.135 235.487C355.684 235.52 356.781 235.496 357.325 235.434C357.826 235.376 358.798 235.063 359.303 235.005C360.723 234.841 363.587 234.923 365.017 234.899C365.792 234.885 367.342 234.861 368.117 234.846C368.637 234.837 369.686 234.89 370.201 234.793C370.745 234.692 371.794 234.302 372.285 234.047C372.906 233.724 374.028 232.876 374.581 232.443C375.111 232.028 376.155 231.176 376.608 230.68C377.084 230.16 377.946 229.018 378.263 228.382C378.446 228.021 378.754 227.241 378.745 226.831C378.73 226.417 378.427 225.593 378.158 225.28L378.153 225.276ZM331.309 81.3789C331.232 81.8606 330.707 82.7276 330.385 83.0889C330.023 83.4886 328.604 84.3026 328.604 84.3026C328.604 84.3026 327.655 82.6843 327.463 82.0918C327.314 81.6294 327.164 80.6517 327.179 80.17C327.198 79.5679 327.679 77.8195 327.679 77.8195L328.32 77.6075C328.32 77.6075 328.551 78.1614 328.676 78.3204C328.863 78.5612 329.326 78.9755 329.6 79.1055C329.913 79.25 330.952 79.3174 330.952 79.3174C330.952 79.3174 331.395 80.8684 331.309 81.3838V81.3789ZM353.046 195.827C352.757 194.425 352.796 191.535 352.887 190.109C352.94 189.233 353.378 187.513 353.421 186.637C353.46 185.9 353.441 184.411 353.263 183.698C353.123 183.14 352.459 182.167 352.3 181.613C351.833 179.994 351.645 176.604 351.448 174.932C351.202 172.9 350.769 168.834 350.485 166.807C350.24 165.039 349.72 161.503 349.364 159.75C349.022 158.079 348.18 154.765 347.708 153.123C347.169 151.244 345.306 145.695 345.306 145.695C345.306 145.695 346.75 140.195 347.015 138.321C347.227 136.838 347.337 132.334 347.337 132.334L347.713 126.082C347.713 126.082 349.917 126.096 350.649 126.029C351.434 125.957 352.983 125.649 353.749 125.441C354.254 125.307 355.231 124.921 355.727 124.748C356.112 124.613 356.935 124.444 357.277 124.213C357.479 124.074 357.831 123.698 357.917 123.467C357.96 123.356 357.965 123.096 357.917 122.985C357.859 122.845 357.489 122.71 357.489 122.556C357.489 122.349 357.97 122.147 358.076 121.969C358.148 121.848 358.254 121.574 358.235 121.434C358.206 121.246 357.806 120.793 357.806 120.793L359.568 120.74C359.568 120.74 359.684 120.755 359.857 120.769L355.583 206.341C355.352 205.026 355.053 203.48 354.87 202.565C354.673 201.549 354.297 199.502 354.013 198.505C353.821 197.821 353.195 196.53 353.051 195.832L353.046 195.827Z" fill="#00311C"/>
<path d="M412.1 111.533C412.196 111.615 412.297 111.701 412.394 111.783C411.854 111.716 411.238 111.677 410.56 111.701C410.252 111.711 409.963 111.74 409.693 111.769C409.496 111.74 409.207 111.687 408.856 111.61C408.495 111.528 408.437 111.499 407.98 111.388C407.619 111.297 407.176 111.2 406.651 111.123C406.189 111.056 406.016 111.061 405.828 111.123C405.698 111.167 405.419 111.258 405.279 111.537C405.12 111.86 405.265 112.188 405.289 112.231C405.342 112.347 405.438 112.482 405.963 112.775C406.502 113.074 406.945 113.233 407.084 113.286C407.325 113.373 407.662 113.474 408.076 113.56C408.076 113.753 408.1 114.037 408.206 114.36C408.268 114.543 408.355 114.818 408.586 115.087C408.865 115.41 409.188 115.545 409.472 115.665C409.669 115.747 409.968 115.844 410.348 115.887C410.483 116.152 410.757 116.595 411.272 116.913C411.662 117.154 412.028 117.231 412.239 117.274C412.605 117.346 412.817 117.322 413.327 117.317C414.165 117.308 414.126 117.37 414.8 117.361C415.089 117.361 415.777 117.342 416.644 117.197C417.12 117.12 417.708 116.995 418.372 116.783C418.988 116.711 419.513 116.605 419.931 116.494C420.249 116.412 420.701 116.282 421.226 116.084C421.423 116.007 421.462 115.988 422.367 115.588C423.007 115.304 423.33 115.164 423.585 115.054C423.912 114.914 424.389 114.716 424.976 114.49C425.399 114.423 426.068 114.307 426.891 114.158C427.902 113.975 428.172 113.907 429.106 113.739C430.309 113.517 430.348 113.536 431.657 113.31C433.409 113.002 433.327 112.968 434.396 112.799C435.19 112.674 435.291 112.684 437.341 112.433C439.036 112.226 439.888 112.125 440.364 112.048C441.731 111.822 442.039 111.692 443.912 111.345C444.817 111.176 445.563 111.056 446.049 110.979C447.012 110.796 447.782 110.574 448.33 110.391C449.125 110.126 449.11 110.068 450.309 109.649C450.309 109.649 450.848 109.462 451.546 109.163C451.738 109.081 451.969 108.98 452.244 108.816C452.422 108.71 452.634 108.585 452.869 108.378C453.057 108.214 453.197 108.055 453.288 107.939C454.188 107.053 455.084 106.167 455.984 105.281C455.926 105.844 455.868 106.413 455.81 106.976C455.603 107.039 455.401 107.106 455.194 107.169C455.315 107.597 455.435 108.021 455.555 108.45C455.493 108.831 455.449 109.293 455.469 109.818C455.478 110.117 455.512 110.391 455.551 110.637C455.421 110.786 455.243 111.032 455.141 111.364C455.074 111.576 454.997 111.952 455.262 113.069C455.43 113.782 455.493 113.758 455.714 114.668C455.912 115.482 455.931 115.771 455.931 115.978C455.931 116.306 455.892 116.407 455.892 116.889C455.892 117.399 455.931 117.486 455.94 117.886C455.95 118.396 455.883 118.396 455.753 119.759C455.68 120.487 455.69 120.617 455.738 120.781C455.83 121.094 455.984 121.257 455.912 121.513C455.863 121.681 455.719 121.864 455.541 121.898C455.382 121.932 455.334 121.821 455.098 121.802C455.031 121.797 454.747 121.778 454.573 121.941C454.405 122.1 454.429 122.36 454.448 122.616C454.463 122.77 454.501 123.015 454.646 123.295C454.092 124.128 453.563 124.73 453.178 125.125C452.73 125.588 452.297 125.958 451.892 126.652C451.657 127.057 451.522 127.428 451.44 127.673C451.421 127.659 451.257 127.553 451.161 127.615C451.06 127.678 451.093 127.89 451.108 127.977C451.185 128.41 451.507 128.641 451.767 128.945C451.955 129.166 452.186 129.523 452.326 130.081C452.451 130.698 452.542 131.184 452.6 131.483C452.744 132.244 452.768 132.432 452.937 132.687C453.216 133.102 453.611 133.294 453.866 133.419C454.251 133.607 454.578 133.665 454.939 133.723C455.271 133.776 455.743 133.819 456.316 133.776C456.884 133.752 457.452 133.728 458.025 133.704C458.01 134.19 458.073 134.561 458.131 134.811C458.222 135.206 458.313 135.322 458.251 135.529C458.15 135.871 457.818 135.828 457.582 136.247C457.399 136.565 457.413 136.907 457.423 137.07C457.433 137.359 457.51 137.586 457.572 137.721C457.317 138.381 457.072 139.281 457.057 140.365C457.048 141.261 457.038 141.863 457.36 142.542C457.563 142.971 457.847 143.318 458.116 144.083C458.232 144.411 458.299 144.69 458.342 144.873C458.323 145.182 458.304 145.49 458.284 145.798C458.284 145.899 458.285 146.005 458.275 146.106C458.034 146.521 457.721 147.094 457.428 147.807C457.163 148.438 456.879 149.126 456.72 150.066C456.624 150.648 456.619 151.169 456.619 152.209C456.619 153.221 456.667 153.996 456.691 154.324C456.778 155.537 456.865 155.595 456.97 156.809C457.014 157.324 457.096 158.268 457.067 159.453C457.048 160.368 456.975 161.023 456.865 161.977C456.759 162.902 456.595 164.116 456.326 165.546C456.094 166.11 455.863 166.779 455.676 167.54C455.536 168.118 455.445 168.658 455.382 169.149C455.243 170.329 454.978 171.235 454.756 171.851C454.496 172.579 454.246 173.051 454.078 173.893C453.933 174.621 453.928 175.242 453.943 175.652C453.274 177.116 452.672 178.277 452.229 179.091C451.916 179.659 451.825 179.803 450.93 181.427C450.063 182.997 449.847 183.406 449.596 183.946C449.168 184.861 448.903 185.579 448.715 186.084C448.292 187.231 448.051 188.112 447.575 189.832C447.011 191.879 447.103 191.754 446.79 192.741C446.338 194.157 446.164 194.364 445.808 195.65C445.49 196.801 445.582 196.821 445.26 197.895C444.951 198.925 444.836 199.003 444.46 200.255C444.119 201.401 443.998 202.037 443.96 202.268C443.849 202.899 443.801 203.439 443.777 203.819C443.58 204.07 443.281 204.503 443.103 205.12C442.939 205.688 442.944 206.184 442.968 206.488C442.886 206.998 442.713 207.355 442.569 207.586C442.304 208.014 441.996 208.241 441.808 208.795C441.741 208.992 441.717 209.161 441.702 209.272C441.582 209.272 441.466 209.272 441.346 209.272C441.317 209.079 441.24 208.771 441.009 208.491C440.884 208.337 440.72 208.14 440.461 208.096C440.22 208.058 440.023 208.173 439.844 208.275C439.637 208.395 439.512 208.53 439.363 208.703C439.118 208.978 438.997 209.113 438.944 209.32C438.848 209.691 439.021 210.018 439.113 210.196C439.315 210.582 439.618 210.794 439.782 210.885C439.358 211.208 438.761 211.752 438.285 212.59C438.049 213.004 437.895 213.395 437.794 213.732C437.568 214.608 437.587 215.336 437.635 215.798C437.765 217.074 438.29 217.951 438.646 218.548C438.944 219.049 439.272 219.584 439.917 220.066C440.297 220.35 440.658 220.518 440.913 220.615C441.866 221.467 442.665 222.199 443.281 222.768C444.489 223.885 444.889 224.285 445.332 224.786C445.957 225.494 446.42 226.125 446.718 226.568C447.05 226.934 447.397 227.353 447.738 227.83C448.239 228.528 448.359 228.832 448.778 229.285C449.216 229.752 449.63 230.012 450.054 230.267C450.535 230.561 451.859 231.341 453.76 231.524C454.646 231.611 455.286 231.524 456.557 231.351C457.736 231.192 458.492 231.081 459.411 230.638C460.542 230.094 461.096 229.434 461.226 229.28C461.577 228.856 461.967 228.379 462.005 227.681C462.053 226.809 461.519 226.163 461.331 225.937C460.869 225.378 460.292 225.104 459.623 224.781C459.127 224.54 459.045 224.574 458.583 224.314C458.063 224.025 457.914 223.847 457.486 223.721C457.375 223.688 457.086 223.615 456.807 223.548C456.653 223.509 456.528 223.481 456.446 223.466C456.455 223.437 456.528 223.182 456.359 222.956C456.21 222.758 455.989 222.734 455.955 222.729C455.604 221.949 455.247 221.169 454.896 220.388C454.607 219.762 454.246 219.083 453.798 218.375C453.519 217.932 453.235 217.532 452.956 217.166C453.49 217.508 453.856 217.855 454.097 218.11C454.275 218.303 454.751 218.828 454.93 219.03C455.3 219.444 455.478 219.647 455.777 219.69C455.993 219.724 456.297 219.675 456.359 219.517C456.412 219.382 456.292 219.213 456.196 219.093C455.95 218.765 455.68 218.674 455.435 218.505C455.228 218.365 454.954 218.12 454.723 217.672C454.622 217.445 454.386 216.997 453.9 216.655C453.659 216.487 453.423 216.391 453.245 216.338C453.423 215.861 453.336 215.418 453.076 215.249C453.024 215.215 452.922 215.167 452.749 215.177C452.696 214.873 452.634 214.56 452.561 214.238C452.508 213.987 452.451 213.746 452.388 213.505C452.277 213.356 452.171 213.212 452.061 213.062C452.152 212.855 452.244 212.648 452.335 212.441C452.306 211.834 452.282 211.227 452.253 210.62C452.778 209.994 452.995 209.435 453.096 209.031C453.168 208.737 453.153 208.631 453.303 207.754C453.413 207.085 453.471 206.752 453.514 206.589C453.789 205.645 454.169 205.659 454.569 204.614C454.737 204.166 454.824 203.761 454.93 203.241C455.026 202.784 455.079 202.389 455.113 202.095C455.334 201.594 455.671 200.852 456.123 199.975C456.451 199.345 456.653 198.998 457.182 198.03C457.466 197.509 457.866 196.777 458.337 195.881C459.002 194.711 459.459 193.743 459.762 193.064C460.022 192.476 460.325 191.744 460.869 190.728C461.11 190.28 461.322 189.914 461.466 189.678C461.731 189.6 462.073 189.451 462.28 189.128C462.443 188.868 462.39 188.695 462.467 188.435C462.641 187.833 463.238 187.659 464.244 187.014C464.576 186.802 465.038 186.484 465.572 186.036C466.4 185.4 466.91 184.745 467.209 184.288C467.69 183.556 467.921 182.901 468.21 182.072C468.475 181.326 468.638 180.685 468.739 180.218C468.951 179.741 469.24 179.009 469.457 178.074C469.644 177.26 469.601 177.068 469.822 175.57C469.986 174.452 470.048 174.308 470.318 172.684C470.486 171.683 470.607 170.864 470.679 170.344C471.367 168.152 472.041 165.883 472.691 163.533C473.293 161.361 473.841 159.232 474.347 157.156C475.079 158.875 475.656 160.325 476.075 161.399C476.86 163.427 477.013 163.962 477.095 164.26C477.456 165.59 477.394 165.936 477.846 167.776C477.986 168.345 478.164 168.976 478.525 170.228C478.973 171.789 479.18 172.4 479.492 173.629C479.67 174.313 479.8 174.881 479.882 175.247C479.873 175.469 479.844 175.801 479.767 176.196C479.637 176.841 479.473 177.101 479.353 177.67C479.29 177.954 479.228 178.368 479.242 178.893C479.131 179.129 478.997 179.486 478.939 179.938C478.886 180.362 478.915 180.719 478.958 180.974C478.804 181.244 478.64 181.59 478.51 182.014C478.4 182.366 478.342 182.684 478.308 182.954C477.952 184.047 477.707 184.938 477.543 185.54C477.336 186.311 477.302 186.523 476.869 188.228C476.619 189.22 476.494 189.721 476.349 190.241C476.007 191.503 475.916 191.725 475.608 192.905C475.261 194.234 475.194 194.668 475.165 194.851C475.064 195.539 475.107 195.655 475.026 196.724C474.905 198.304 474.79 198.362 474.718 199.725C474.655 200.847 474.698 201.435 474.737 201.791C474.799 202.369 474.896 202.846 474.977 203.179C474.761 203.415 474.366 203.906 474.159 204.652C473.952 205.389 474.039 206.011 474.101 206.324C473.952 206.589 473.731 207.07 473.678 207.716C473.62 208.491 473.841 209.089 473.971 209.373C473.769 209.744 473.663 210.066 473.61 210.293C473.586 210.394 473.562 210.505 473.466 211.112C473.418 211.429 473.379 211.694 473.35 211.882C473.254 211.858 473.028 211.815 472.773 211.911C472.648 211.959 472.556 212.027 472.494 212.08C472.441 211.964 472.34 211.776 472.147 211.608C472.022 211.492 471.834 211.328 471.555 211.299C471.194 211.261 470.925 211.482 470.862 211.531C470.52 211.81 470.462 212.219 470.443 212.373C470.376 212.879 470.583 213.274 470.713 213.515C470.977 214.021 471.358 214.319 471.598 214.478C471.478 214.984 471.343 215.702 471.281 216.574C471.228 217.32 471.194 217.778 471.295 218.37C471.372 218.842 471.565 219.998 472.498 220.909C473.182 221.578 473.943 221.804 474.641 222.016C475.512 222.276 476.234 222.296 476.667 222.305C477.432 222.32 478.072 222.233 478.544 222.137C479.406 222.084 480.441 222.084 481.591 222.219C483.006 222.382 484.21 222.695 485.163 223.018C486.549 223.957 487.796 224.415 488.638 224.646C489.572 224.906 490.38 224.988 491.993 225.152C493.264 225.282 493.99 225.287 494.573 225.268C496.315 225.21 496.936 224.902 497.124 224.805C497.495 224.608 498.135 224.261 498.52 223.495C498.972 222.599 498.775 221.732 498.717 221.52C498.501 220.706 497.981 220.229 497.721 219.998C497.345 219.656 496.97 219.464 496.715 219.353C495.974 218.914 495.338 218.558 494.852 218.288C493.986 217.811 493.605 217.624 493.35 217.503C492.854 217.267 492.431 217.094 492.128 216.969C491.511 216.79 490.823 216.535 490.092 216.179C489.755 216.015 489.447 215.841 489.163 215.673C489.341 215.485 489.682 215.052 489.668 214.502C489.639 213.631 488.729 213.096 488.238 212.807C487.704 212.489 487.194 212.402 486.173 212.229C485.654 212.142 485.249 212.113 484.821 212.287C484.59 212.383 484.421 212.508 484.311 212.605C484.248 212.373 484.152 212.084 483.988 211.771C483.834 211.478 483.661 211.242 483.512 211.068C483.695 210.659 483.892 210.086 483.974 209.382C484.022 208.959 484.022 208.583 483.998 208.265C484.229 208.072 484.571 207.735 484.821 207.21C485.052 206.728 485.09 206.309 485.114 206.04C485.158 205.558 485.182 205.264 485.028 204.946C484.826 204.537 484.551 204.561 484.469 204.214C484.407 203.94 484.527 203.689 484.72 203.289C484.903 202.904 485.1 202.644 485.163 202.557C485.485 202.109 485.654 201.656 485.986 200.746C486.294 199.903 486.207 199.889 486.568 198.742C486.794 198.02 486.997 197.495 487.256 196.825C487.516 196.156 487.747 195.592 488.147 194.634C488.696 193.314 488.715 193.319 488.768 193.083C488.85 192.683 488.879 192.303 489.158 191.869C489.317 191.623 489.442 191.542 489.649 191.33C490.313 190.651 490.616 189.87 490.963 188.974C491.064 188.709 491.175 188.435 491.276 188.045C491.463 187.332 491.391 187.173 491.574 186.725C491.67 186.489 491.853 186.238 492.224 185.738C492.691 185.097 492.797 185.044 493.013 184.688C493.081 184.572 493.288 184.22 493.504 183.532C493.769 182.669 493.817 182.024 493.899 181.22C493.961 180.608 494.063 179.717 494.221 178.604C494.294 178.392 494.395 178.074 494.505 177.675C494.708 176.928 494.717 176.663 494.987 175.194C495.165 174.211 495.218 174.028 495.256 173.537C495.3 173.046 495.3 172.636 495.29 172.352C495.203 171.736 495.078 170.859 494.943 169.809C494.895 169.443 494.664 167.694 494.544 166.654C494.395 165.349 494.236 163.47 494.193 161.038C494.13 159.66 494.048 158.259 493.952 156.838C493.884 155.855 493.812 154.887 493.735 153.929C493.48 151.978 493.172 149.96 492.797 147.874C492.566 146.583 492.315 145.326 492.06 144.098C491.69 142.128 491.324 140.163 490.953 138.197C491.059 137.908 491.203 137.417 491.184 136.801C491.165 136.16 490.982 135.664 490.857 135.385C490.9 134.734 490.852 134.224 490.799 133.877C490.688 133.126 490.549 133.049 490.438 132.215C490.366 131.666 490.4 131.483 490.298 130.857C490.231 130.448 490.149 130.12 490.092 129.903C490.366 129.879 491.17 129.764 491.752 129.113C491.921 128.921 492.036 128.728 492.118 128.555C492.089 128.299 492.055 128.049 492.027 127.798C492.089 127.639 492.176 127.35 492.142 126.98C492.104 126.517 491.901 126.19 491.8 126.05C491.771 125.674 491.733 125.135 491.719 124.494C491.694 123.372 491.743 122.524 491.795 121.672C491.81 121.407 491.872 120.496 492.007 119.302C492.108 118.425 492.171 117.881 492.32 117.144C492.455 116.479 492.604 115.93 492.72 115.55C493.013 116.263 493.244 116.778 493.442 117.13C493.499 117.236 493.629 117.467 493.576 117.722C493.538 117.895 493.427 118.025 493.398 118.059C493.297 118.17 493.187 118.233 493.124 118.266C493.081 118.281 492.999 118.319 492.932 118.401C492.802 118.56 492.826 118.753 492.835 118.787C492.835 119.206 492.835 119.62 492.835 120.039C492.845 121.142 492.975 122.038 493.1 122.669C493.215 123.247 493.312 123.724 493.567 124.335C493.942 125.236 494.404 125.804 494.669 126.122C495.237 126.816 495.608 127.013 495.795 127.1C496.031 127.211 496.397 127.375 496.811 127.259C497.052 127.191 497.22 127.052 497.316 126.96C497.162 126.772 496.965 126.517 496.749 126.209C496.749 126.209 496.315 125.583 495.988 124.942C495.516 124.017 495.3 123.131 495.064 122.115C494.842 121.176 494.727 120.415 494.539 119.191C494.462 118.69 494.404 118.276 494.371 117.997C494.457 117.958 494.616 117.867 494.746 117.688C494.775 117.65 494.842 117.549 494.876 117.419C494.943 117.144 494.818 116.903 494.775 116.812C494.481 116.219 494.265 115.588 493.962 115.001C493.783 114.659 493.552 114.163 493.336 113.517C493.432 113.199 493.586 112.795 493.836 112.356C494.087 111.918 494.366 111.581 494.597 111.335C495.839 112.164 496.898 112.852 497.726 113.382C498.972 114.182 499.608 114.572 500.166 114.899C500.797 115.275 501.336 115.579 501.725 115.8C502.857 116.407 503.766 116.913 504.397 117.269C505.032 117.631 505.379 117.833 506.067 118.204C506.491 118.435 507.112 118.767 507.935 119.177C508.657 119.533 508.638 119.504 509.369 119.87C510.38 120.376 510.346 120.4 510.794 120.588C511.376 120.829 511.579 120.848 512.074 121.123C512.301 121.248 512.623 121.445 512.796 121.551C513.278 121.845 513.311 121.884 513.465 121.961C513.831 122.148 514.139 122.192 514.621 122.254C516.007 122.438 516.71 122.534 516.96 122.543C517.658 122.572 518.211 122.543 518.572 122.524C518.948 122.505 519.266 122.476 519.501 122.452C517.903 154.728 516.305 187.004 514.712 219.28C514.727 219.314 515.001 219.989 515.704 220.109C516.281 220.205 516.7 219.859 516.758 219.81C518.423 187.674 520.094 155.537 521.759 123.401C521.971 123.507 522.385 123.661 522.876 123.589C523.063 123.56 523.299 123.521 523.501 123.329C523.747 123.088 523.776 122.77 523.785 122.659C523.805 122.442 523.761 122.264 523.728 122.163C523.781 122.163 524.219 122.144 524.474 121.778C524.517 121.715 524.71 121.445 524.613 121.103C524.517 120.761 524.209 120.622 524.17 120.607C524.281 120.52 524.618 120.231 524.7 119.74C524.729 119.581 524.782 119.254 524.57 118.941C524.334 118.594 523.944 118.536 523.872 118.526C523.992 118.435 524.117 118.343 524.238 118.257C524.349 118.271 524.522 118.276 524.719 118.218C525.027 118.127 525.215 117.939 525.321 117.828C525.542 117.597 525.643 117.351 525.691 117.202C525.59 117.115 525.494 117.024 525.398 116.932C525.446 116.836 525.494 116.691 525.46 116.537C525.403 116.282 525.152 116.166 524.714 115.916C524.012 115.516 524.175 115.53 523.607 115.227C523.319 115.073 522.953 114.899 522.515 114.731C522.587 113.527 522.659 112.327 522.726 111.123C522.404 110.993 521.956 110.854 521.408 110.791C520.816 110.723 520.31 110.776 519.959 110.844C519.906 112.096 519.858 113.344 519.805 114.591C519.525 114.572 519.116 114.577 518.65 114.697C518.529 114.731 518.399 114.769 517.725 115.063C516.763 115.482 516.753 115.516 516.368 115.656C516.017 115.781 516.146 115.709 515.213 115.993C514.621 116.171 514.443 116.239 514.134 116.258C513.764 116.277 513.461 116.21 513.254 116.152C512.387 115.545 511.694 115.044 511.232 114.712C509.672 113.589 509.687 113.57 508.97 113.084C508.2 112.559 507.829 112.342 507.073 111.778C506.602 111.432 506.221 111.133 505.971 110.931C504.975 110.035 503.973 109.139 502.977 108.243C501.716 107.077 500.455 105.912 499.189 104.746C499.401 104.361 499.665 103.802 499.848 103.089C499.911 102.848 500.103 102.034 500.055 100.84C500.026 100.127 499.863 99.4333 499.545 98.0799C499.203 96.6349 499.03 96.211 498.837 95.0646C498.736 94.4674 498.679 93.9664 498.645 93.6389C499.714 93.9472 500.787 94.2555 501.855 94.5637C502.062 94.5685 502.361 94.5637 502.703 94.4626C503.352 94.2795 503.791 93.8894 504.233 93.4174C505.1 92.4974 505.644 91.64 505.846 91.3125C506.703 89.9301 507.352 88.8849 507.867 87.3003C508.166 86.3899 508.315 85.6096 508.402 85.075C508.18 85.0172 507.964 84.9594 507.742 84.9016C507.8 84.2802 507.81 83.2398 507.42 82.0501C507.121 81.135 506.683 80.4462 506.351 79.9982C504.431 79.4299 502.51 78.8615 500.59 78.2932C500.344 75.7933 500.079 73.2694 499.791 70.7214C499.564 68.7033 499.328 66.7092 499.088 64.7296C498.606 61.777 497.865 59.4265 497.239 57.7599C496.166 54.9133 495.329 53.8247 494.135 53.319C493.437 53.0204 492.777 52.9915 492.315 53.0107C492.166 52.8084 491.993 52.5917 491.795 52.3749C491.536 52.0859 491.28 51.8451 491.04 51.6428C490.549 51.1659 488.229 48.9888 485.163 48.6998C484.595 48.6469 483.295 48.5264 481.764 49.0707C481.148 49.2923 480.667 49.5572 480.335 49.7691C479.926 49.8269 477.139 50.2556 475.555 51.6572C475.204 51.9703 474.612 52.4857 474.352 53.372C474.227 53.791 474.212 54.1571 474.222 54.4027C474.097 54.5183 473.919 54.711 473.784 54.9855C473.567 55.4335 473.577 55.8429 473.591 56.1993C473.596 56.4498 473.635 56.8062 473.769 57.2204C473.649 57.7647 473.524 58.3524 473.394 58.9785C473.317 59.3446 473.259 59.648 473.24 60.0574C473.221 60.438 473.24 60.7558 473.264 60.9774C473.216 61.0208 473.081 61.1556 473.038 61.382C472.999 61.5891 473.062 61.7529 473.086 61.8155C473.052 61.9696 473.014 62.2008 473.042 62.4802C473.062 62.6921 473.115 62.8511 473.144 62.957C473.264 63.3472 473.384 63.4291 473.476 63.7084C473.557 63.9589 473.548 64.1515 473.538 64.4646C473.519 64.874 473.452 65.0619 473.274 65.794C473.124 66.4154 473.052 66.7236 473.028 66.9789C473.004 67.2438 472.97 67.6629 473.091 68.1542C473.177 68.5202 473.235 68.448 473.716 69.5414C473.875 69.9074 474.02 70.2494 474.077 70.3843C474.193 70.6588 474.284 70.8996 474.361 71.0875C471.151 70.2301 467.94 69.368 464.73 68.5106C464.234 68.2842 463.825 68.2023 463.541 68.1686C463.262 68.1397 463.098 68.1542 462.761 68.1012C462.366 68.0434 462.053 67.9422 461.851 67.8652C458.862 66.9452 455.873 66.0252 452.889 65.1052C452.749 65.1052 452.388 65.139 452.037 65.3991C451.758 65.6062 451.623 65.8615 451.565 65.9867C451.334 66.4346 451.021 67.0801 450.699 67.87C450.381 68.6503 450.203 69.2138 449.871 70.2639C449.394 71.7811 449.153 72.5421 448.942 73.5873C448.802 74.2713 448.73 74.8011 448.59 75.8656C448.431 77.0409 448.374 77.7826 448.369 78.5677C448.369 79.1409 448.393 79.6852 448.576 80.3306C448.672 80.6629 448.778 80.9278 448.865 81.1157C452.258 81.9345 455.656 82.7485 459.05 83.5674C459.238 83.6878 459.498 83.8226 459.82 83.9238C460.046 83.996 460.253 84.0346 460.427 84.0539C459.878 84.9064 459.497 85.6289 459.252 86.1394C459.031 86.5922 458.915 86.8812 458.535 87.6856C458.232 88.331 457.972 88.856 457.798 89.198C457.259 90.2336 456.773 91.0331 456.422 91.5726C456.099 92.0735 455.854 92.4155 455.252 93.3306C454.877 93.9086 454.573 94.3807 454.376 94.6938C453.842 95.4403 453.322 96.0954 452.85 96.6589C452.123 97.5308 451.536 98.1473 451.127 98.576C450.41 99.3273 449.986 99.7705 449.399 100.233C448.903 100.628 448.316 101.032 448.316 101.032C448.08 101.196 447.878 101.326 447.734 101.418C446.535 101.779 445.577 102.116 444.932 102.352C444.104 102.656 443.965 102.738 442.8 103.171C441.842 103.527 441.779 103.532 440.489 104.004C439.368 104.414 439.363 104.428 438.371 104.789C437.678 105.04 437.043 105.271 436.215 105.546C435.45 105.801 434.954 105.965 434.29 106.153C433.096 106.49 433.009 106.437 431.007 106.933C430.078 107.164 429.919 107.222 429.327 107.342C428.981 107.414 428.764 107.453 427.512 107.679C427.123 107.752 426.8 107.809 426.588 107.848C426.28 107.862 425.948 107.891 425.592 107.944C425.274 107.988 424.985 108.05 424.716 108.113C424.518 108.147 424.234 108.175 423.893 108.132C423.512 108.079 423.219 107.959 423.031 107.862C422.872 107.771 422.622 107.626 422.333 107.414C422.054 107.212 421.982 107.135 421.804 107.039C421.481 106.865 421.289 106.889 420.899 106.803C420.432 106.702 420.509 106.629 419.614 106.307C419.089 106.119 418.829 106.022 418.454 105.965C418.198 105.921 417.91 105.917 417.332 105.907C416.682 105.897 416.692 105.917 416.085 105.907C415.469 105.897 415.301 105.873 414.742 105.883C414.251 105.892 414.073 105.916 413.924 105.95C413.688 105.998 413.568 106.051 413.106 106.21C412.904 106.283 412.6 106.384 412.225 106.509C411.989 106.509 411.696 106.533 411.359 106.61C411.055 106.678 410.805 106.774 410.603 106.865C410.555 106.918 410.478 107.029 410.449 107.183C410.401 107.463 410.564 107.684 410.608 107.737C410.728 107.896 410.901 107.997 411.416 108.127C411.989 108.272 412.437 108.31 412.499 108.315C413.168 108.373 413.693 108.334 414.02 108.306C414.439 108.272 414.781 108.219 415.026 108.175C415.282 108.171 415.551 108.151 415.83 108.127C416.004 108.113 416.167 108.094 416.326 108.07C416.466 108.195 416.605 108.315 416.745 108.44C416.408 108.609 416.071 108.773 415.734 108.941C415.618 108.956 415.445 108.985 415.238 109.028C414.964 109.091 414.839 109.139 414.651 109.187C414.377 109.259 414.256 109.259 413.741 109.327C413.505 109.356 413.159 109.404 412.735 109.471C412.259 109.336 411.671 109.216 410.998 109.173C410.661 109.153 410.348 109.153 410.059 109.168C409.823 109.11 409.534 109.062 409.207 109.042C408.793 109.018 408.432 109.047 408.143 109.095C407.676 109.033 407.282 109.018 406.988 109.028C406.747 109.028 406.309 109.052 405.79 109.187C405.491 109.264 405.342 109.336 405.212 109.462C405.149 109.519 404.933 109.731 404.938 110.049C404.938 110.247 405.024 110.391 405.068 110.459C405.491 110.622 406.006 110.786 406.608 110.902C407.094 110.993 407.542 111.041 407.927 111.056C408.249 111.133 408.605 111.21 408.995 111.263C409.327 111.311 409.635 111.335 409.924 111.35C410.28 111.379 410.637 111.407 410.998 111.441C411.368 111.475 411.739 111.509 412.105 111.547L412.1 111.533ZM489.971 70.6347C490.015 70.3602 490.058 70.0808 490.096 69.7918C490.154 69.3728 490.202 68.9634 490.246 68.5636C490.438 68.5058 490.688 68.4095 490.953 68.2457C491.329 68.0145 491.579 67.7399 491.728 67.5473C491.805 67.7737 491.892 68.0916 491.911 68.4817C491.935 68.9441 491.853 69.3198 491.781 69.5703C491.598 69.7292 491.381 69.893 491.131 70.0519C490.708 70.3217 490.308 70.5047 489.971 70.6299V70.6347ZM487.256 213.611C487.021 213.289 486.611 212.874 485.861 212.542C486.578 212.479 487.136 212.614 487.459 212.72C487.911 212.87 488.551 213.077 488.941 213.684C489.013 213.799 489.254 214.189 489.215 214.695C489.206 214.801 489.167 215.297 488.917 215.384C488.667 215.466 488.339 215.1 488.041 214.758C487.598 214.252 487.512 213.958 487.256 213.607V213.611ZM484.782 212.595C484.898 212.595 485.061 212.595 485.254 212.638C485.341 212.658 485.61 212.725 486.096 213.057C486.486 213.322 486.737 213.496 486.968 213.828C487.165 214.112 487.256 214.382 487.3 214.56C486.972 214.406 486.626 214.228 486.27 214.026C485.812 213.77 485.398 213.505 485.028 213.25C484.855 213.212 484.725 213.082 484.696 212.923C484.662 212.749 484.768 212.614 484.782 212.59V212.595ZM472.061 212.561C471.916 212.971 471.772 213.38 471.627 213.794C471.372 213.529 471.199 213.279 471.088 213.091C470.896 212.773 470.78 212.581 470.799 212.32C470.804 212.263 470.833 211.916 471.083 211.796C471.281 211.699 471.497 211.805 471.57 211.839C471.959 212.027 472.051 212.489 472.065 212.561H472.061ZM453.187 216.853C453.317 216.858 453.49 216.887 453.683 216.959C454.03 217.094 454.246 217.315 454.352 217.441C454.212 217.441 453.924 217.416 453.625 217.238C453.409 217.113 453.269 216.954 453.192 216.853H453.187ZM440.682 209.864C440.542 210.235 440.436 210.312 440.364 210.312C440.253 210.312 440.215 210.124 440.027 209.936C439.859 209.768 439.666 209.681 439.517 209.638C439.416 209.517 439.387 209.353 439.45 209.223C439.541 209.036 439.763 209.021 439.772 209.021C439.82 209.021 439.95 209.021 440.229 209.291C440.355 209.411 440.523 209.599 440.677 209.869L440.682 209.864Z" fill="#00311C"/>
<path d="M666.45 86.8709C666.551 86.8324 666.623 86.8035 666.691 86.7746C667.273 86.5241 667.971 86.1532 668.722 85.5945C668.746 85.5511 668.929 85.2043 668.765 84.8142C668.621 84.4626 668.303 84.3422 668.25 84.3181C668.395 84.1543 668.616 83.8364 668.669 83.3981C668.698 83.1573 668.741 82.8538 668.539 82.5937C668.289 82.2662 667.851 82.271 667.788 82.271C667.884 82.1265 668.154 81.693 668.12 81.0909C668.072 80.2625 667.475 79.776 667.374 79.7038C667.538 79.6315 668.303 79.2799 668.337 78.7452C668.38 78.0806 667.288 77.5748 666.801 77.3484C666.262 77.098 665.776 76.9968 665.458 76.9535C665.353 76.9535 665.251 76.9535 665.145 76.9487C664.809 75.0798 664.472 73.211 664.135 71.3421C664.048 71.265 663.466 70.7834 662.657 70.9086C662.031 71.0049 661.656 71.4047 661.555 71.5203C661.81 73.1724 662.065 74.8293 662.32 76.4814C662.296 76.4429 662.272 76.4092 662.243 76.3755C661.767 75.8745 660.452 76.2791 659.653 76.8957C659.134 77.2954 658.85 77.7819 658.691 78.1143C658.002 78.5767 657.54 79.0005 657.227 79.3136C657.02 79.5255 656.761 79.8145 656.433 79.7856C656.212 79.7664 656.048 79.6122 655.947 79.4918C655.278 79.2751 654.575 79.0728 653.834 78.8801C652.592 78.5574 651.403 78.3118 650.296 78.1239C648.202 77.4592 646.518 76.8234 645.362 76.361C641.517 74.8293 641.43 74.4103 638.898 73.5963C637.459 73.1339 636.636 72.9894 635.62 72.238C635.23 71.949 634.792 71.554 634.008 71.265C633.324 71.0097 632.958 71.0531 632.313 70.9182C631.712 70.793 630.864 70.5137 629.892 69.8152C629.902 69.1072 629.825 68.1053 629.43 66.9975C628.617 64.7385 626.99 63.4814 626.296 63.0094C625.878 61.8052 625.228 60.3024 624.217 58.6985C623.235 57.1427 622.186 55.9385 621.305 55.0571C621.661 54.903 622.017 54.7488 622.374 54.5995C621.714 53.0678 621.05 51.5362 620.39 49.9996C618.903 47.2108 617.411 44.4172 615.919 41.6284C615.885 41.5417 615.596 40.8047 616.015 40.1063C616.294 39.6343 616.732 39.4561 616.877 39.4031C617.012 39.326 617.993 38.7336 618.191 37.5005C618.369 36.3879 617.767 35.5835 617.661 35.4438C616.901 34.4275 616.14 33.416 615.38 32.3997C615.721 31.6531 616.063 30.9066 616.405 30.16C618.171 29.4519 619.938 28.7487 621.704 28.0407C621.993 26.9473 622.003 26.7305 622.003 26.7305C622.017 26.4078 621.96 25.931 621.584 25.3289C621.887 24.9917 622.191 24.6594 622.489 24.3271C622.513 24.3078 622.845 24.0332 622.797 23.5949C622.754 23.1855 622.417 22.9832 622.383 22.9639C622.273 22.9158 622.162 22.8676 622.056 22.8195C622.017 22.5064 621.979 22.1885 621.94 21.8754C621.993 21.8754 622.402 21.8898 622.667 21.5671C622.701 21.5238 622.961 21.2059 622.84 20.8543C622.797 20.7242 622.72 20.6375 622.667 20.5845C622.359 20.2955 622.248 19.9006 622.205 19.5393C622.566 19.4864 623.365 19.3178 623.818 18.9999C624.121 18.7831 624.434 18.5664 624.559 18.157C624.737 17.5693 624.386 17.0395 624.318 16.9383C623.596 16.0617 623.298 16.1773 622.571 15.3007C622.455 15.2766 621.676 14.2025 621.382 13.8798C621.069 13.5378 621.031 13.1525 621.021 13.0369C621.541 12.9261 622.181 12.7334 622.869 12.3818C624.193 11.7075 625.026 10.7875 625.478 10.1951C625.858 9.52556 626.22 9.03428 626.489 8.70675C626.585 8.58634 626.802 8.03241 627.461 7.06909C627.476 7.04501 627.562 6.91976 627.514 6.7849C627.466 6.64521 627.307 6.60187 627.221 6.57779C627.11 6.54407 627.009 6.55372 626.951 6.56335C626.595 6.5778 626.075 6.59706 625.454 6.58743C624.371 6.56816 623.591 6.48627 622.768 6.39957C621.729 6.28879 620.578 6.16837 618.99 6.00461C618.98 5.94199 618.961 5.83605 618.889 5.72526C618.778 5.54705 618.61 5.47962 618.552 5.45553C617.459 4.43441 616.41 3.46145 615.216 2.35363C614.566 1.75155 613.94 1.17835 612.934 0.706322C612.699 0.595539 612.058 0.311362 611.182 0.137964C610.735 0.0464479 609.738 -0.107678 608.126 0.113887C606.109 0.393251 604.386 1.09167 603.12 1.74673C603.029 1.66003 602.831 1.49626 602.547 1.46736C602.056 1.41437 601.498 1.77081 601.464 2.19467C601.45 2.36807 601.532 2.51737 601.589 2.60407C600.554 3.63483 599.813 4.59817 599.312 5.3303C598.773 6.11541 598.297 6.80898 597.878 7.83974C597.7 8.28287 597.551 8.7501 597.084 10.9898C596.858 12.0928 596.675 13.0176 596.554 13.6823C596.583 13.7353 596.607 13.7883 596.636 13.8413C596.477 14.1881 596.29 14.7323 596.275 15.4211C596.246 16.7601 596.911 17.7186 597.161 18.0462C597.137 18.0943 597.113 18.1377 597.084 18.1859C597.676 19.0095 598.268 19.8332 598.865 20.6568C598.942 20.6327 599.024 20.6038 599.101 20.5797C599.086 20.4352 599.072 20.2907 599.057 20.1462C599.13 20.1366 599.197 20.1269 599.269 20.1173C599.524 20.4545 599.856 20.9265 600.203 21.5238C600.28 21.6586 600.458 21.9669 600.622 22.3089C600.863 22.805 601.166 23.5756 601.344 24.6353C601.301 24.6353 601.142 24.6353 601.016 24.7509C600.872 24.8858 600.834 25.117 600.925 25.3289C600.824 25.4686 600.636 25.7528 600.569 26.167C600.497 26.6101 600.603 26.9617 600.66 27.1255C600.66 27.217 600.646 27.3374 600.564 27.429C600.473 27.5349 600.347 27.5542 600.275 27.5735C599.929 27.6698 599.717 28.1225 599.659 28.32C599.524 28.768 599.736 29.3171 600.184 29.688C600.203 29.7506 600.429 30.4249 600.006 30.9932C599.731 31.3641 599.341 31.4701 599.216 31.499C598.778 31.6676 598.335 31.841 597.897 32.0095C597.714 32.1396 597.44 32.3756 597.214 32.7513C596.92 33.2282 596.853 33.6809 596.838 33.9218C596.218 34.3601 595.558 34.8995 594.903 35.5498C592.761 37.6884 591.693 40.0533 591.149 41.6765C591.005 41.6765 590.297 41.7102 589.84 42.2642C589.551 42.6158 589.508 43.0059 589.479 43.2419C589.411 43.8295 589.585 44.2968 589.686 44.5183C589.647 44.5858 589.537 44.764 589.306 44.8699C589.074 44.9807 588.867 44.9518 588.79 44.9422C588.593 45.053 588.352 45.1637 588.073 45.2649C587.809 45.3612 587.563 45.4238 587.346 45.472C587.265 45.1975 587.183 44.9229 587.101 44.6484C586.913 44.475 586.711 44.263 586.514 44.0029C586.133 43.4972 585.917 43.0011 585.787 42.6254C585.19 41.8258 584.593 41.0311 583.991 40.2315C583.948 40.2026 583.862 40.1496 583.736 40.14C583.501 40.1207 583.342 40.2749 583.313 40.3038C582.942 40.4724 582.533 40.6795 582.105 40.9348C581.652 41.2045 581.257 41.4839 580.92 41.7439C580.92 42.163 580.945 42.6158 581.017 43.0974C581.344 45.2938 582.437 46.9026 583.216 47.8273C583.274 47.9574 583.327 48.0874 583.38 48.2175C583.12 48.415 582.735 48.757 582.418 49.2868C582.186 49.6721 582.061 50.0382 581.994 50.3079C581.811 50.3176 581.378 50.3705 580.964 50.674C580.357 51.1219 580.237 51.7818 580.213 51.9311C579.871 52.0612 579.477 52.249 579.082 52.538C577.821 53.4484 577.344 54.7392 577.171 55.3124C577.017 55.2835 576.386 55.1727 575.746 55.5484C575.144 55.9 574.923 56.4443 574.865 56.5984C574.567 56.7477 574.008 57.0897 573.753 57.7351C573.72 57.8267 573.691 57.9182 573.672 58.0049C573.157 57.976 572.839 58.1108 572.641 58.2361C572.189 58.5251 572.276 58.8381 571.616 59.7196C571.284 60.1627 571.125 60.2687 570.957 60.654C570.783 61.0586 570.75 61.4054 570.74 61.5595C570.504 64.6952 570.384 66.2654 570.389 66.5207C570.408 67.7634 570.389 69.5407 570.22 71.7804C570.398 72.4499 570.581 73.1146 570.759 73.7841C570.668 75.3736 570.653 77.1798 570.793 79.1546C570.942 81.3029 571.246 83.2344 571.597 84.8961C571.51 85.6475 571.472 86.8516 571.876 88.2388C572.458 90.2425 573.638 91.5141 574.235 92.0825C574.24 92.3378 574.268 92.6171 574.336 92.9109C574.649 94.3174 575.631 95.1988 576.117 95.5794C576.131 95.7239 576.179 96.0273 576.348 96.35C573.927 97.9299 572.305 100.377 572.305 103.565C572.305 109.461 575.298 115.636 584.511 115.636C590.181 115.636 593.671 114.249 595.755 112.134C596.545 113.136 597.455 113.671 597.801 113.863C597.921 114.282 598.032 114.841 598.051 115.511C598.071 116.272 597.95 116.907 597.83 117.36C597.753 117.779 597.695 118.338 597.748 118.983C597.816 119.85 598.056 120.544 598.258 121.006C598.191 122.528 598.239 124.354 598.567 126.391C598.759 127.581 599.014 128.66 599.293 129.623C598.985 130.63 598.735 131.747 598.595 132.966C598.571 133.159 598.557 133.351 598.538 133.539C597.07 134.618 595.337 136.111 593.676 138.139C592.805 139.199 592.092 140.234 591.515 141.193C591.515 141.491 591.505 141.963 591.394 142.532C591.144 143.813 590.634 144.328 590.268 145.643C590.162 146.024 590.037 146.597 589.989 147.329C589.686 147.478 589.05 147.84 588.55 148.577C588.112 149.227 587.991 149.858 587.953 150.19C587.659 150.72 587.178 151.597 586.605 152.7C583.934 157.839 584.271 158.215 583.058 159.448C582.509 160.006 581.575 160.801 580.882 162.28C580.646 162.786 580.502 163.224 580.42 163.513C580.165 163.561 579.943 163.638 579.746 163.73C577.681 164.683 577.421 167.809 577.383 168.306C576.175 169.442 574.966 170.579 573.758 171.716C573.672 171.653 573.58 171.59 573.493 171.528C572.8 171.976 572.107 172.419 571.414 172.867C571.308 172.867 571.197 172.876 571.092 172.876C570.134 173.748 569.176 174.625 568.218 175.497C568.049 176.089 567.895 176.927 568.006 177.915C568.309 180.54 570.264 182.1 570.74 182.462C571.197 183.17 571.9 183.993 572.959 184.571C573.094 184.644 573.229 184.711 573.363 184.774C574.966 186.763 576.564 188.752 578.167 190.746C578.596 191.136 579.404 191.767 580.593 192.124C582.196 192.605 583.558 192.307 584.131 192.143C585.32 191.897 587.563 191.368 589.459 190.501C589.835 190.327 590.311 190.091 590.798 189.643C591.64 188.868 592.006 187.938 592.174 187.355C592.222 186.7 592.15 185.852 591.592 185.289C591.236 184.933 590.846 184.855 589.512 184.552C589.026 184.441 588.194 184.249 587.115 183.998C586.961 184.041 586.807 184.085 586.653 184.133C586.514 184.003 586.379 183.873 586.239 183.743C585.821 183.709 585.407 183.675 584.988 183.642C584.93 183.492 584.863 183.251 584.892 182.953C584.954 182.298 585.44 181.908 585.541 181.831C585.363 181.431 585.19 181.031 585.012 180.636C585.334 180.405 585.498 180.015 585.436 179.629C585.368 179.22 585.06 178.888 584.651 178.796C584.391 178.204 584.131 177.611 583.871 177.019C584.025 176.764 584.256 176.287 584.184 175.704C584.17 175.608 584.155 175.521 584.131 175.439C584.266 175.352 584.405 175.266 584.54 175.174C584.93 175.135 585.551 175.02 586.177 174.62C587.582 173.719 587.857 172.14 587.9 171.851C589.609 170.237 591.394 168.411 593.204 166.364C594.807 164.553 596.237 162.781 597.507 161.09C599.698 158.335 602.027 155.532 604.516 152.704C605.719 151.337 606.918 150.007 608.111 148.712C608.915 147.763 609.806 146.549 610.638 145.061C611.293 143.88 611.774 142.773 612.135 141.79C612.318 143.852 612.622 146.101 613.113 148.504C613.921 152.468 615.043 155.917 616.188 158.788C616.338 158.865 616.54 159.005 616.699 159.231C616.968 159.626 616.934 160.055 616.939 160.329C616.949 160.772 617.074 161.413 617.618 162.227C617.623 162.352 617.599 162.449 617.57 162.511C617.459 162.776 617.151 162.945 616.79 162.964C616.906 163.71 617.021 164.452 617.137 165.199C617.56 165.512 617.979 165.825 618.403 166.138C618.422 166.355 618.455 166.692 618.504 167.101C618.605 167.973 618.658 168.2 618.624 168.58C618.6 168.845 618.533 169.225 618.316 169.673C618.186 169.779 617.892 170.054 617.762 170.507C617.695 170.743 617.695 170.955 617.709 171.099C617.762 171.6 617.815 172.101 617.868 172.607C617.815 172.838 617.762 173.069 617.709 173.3C617.632 173.589 617.57 173.941 617.56 174.336C617.541 175.632 618.128 176.609 618.441 177.048C618.764 177.342 619.461 177.895 620.516 178.131C621.926 178.449 623.057 177.997 623.442 177.823C625.228 177.419 627.014 177.014 628.799 176.605C631.48 176.932 633.757 176.951 635.48 176.884C639.225 176.739 641.242 176.137 641.983 175.901C642.46 175.747 642.845 175.603 643.11 175.502C643.413 175.29 643.832 174.948 644.193 174.423C644.828 173.503 644.934 172.568 644.953 172.135C644.785 171.639 644.621 171.138 644.453 170.642C644.198 170.377 643.788 170.025 643.211 169.856C642.802 169.736 642.479 169.751 642.219 169.755C642.065 169.755 641.31 169.717 639.798 169.63C638.051 169.534 637.882 169.25 636.27 169.182C635.461 169.144 634.802 169.182 634.388 169.225C633.738 168.696 632.785 168.065 631.524 167.65C631.091 167.506 630.677 167.41 630.296 167.342C630.037 167.414 629.777 167.482 629.521 167.554C629.286 167.511 628.795 167.39 628.309 167.005C627.822 166.615 627.596 166.157 627.505 165.931C627.447 165.522 627.389 165.112 627.331 164.703C627.346 164.472 627.346 164.192 627.303 163.884C627.226 163.32 627.047 162.877 626.893 162.569C627.274 162.275 627.437 161.808 627.317 161.427C627.153 160.912 626.465 160.58 625.81 160.849C625.767 158.614 625.719 156.375 625.676 154.135C625.834 153.48 625.969 152.762 626.061 151.987C626.296 149.978 626.176 148.215 625.955 146.814C626.085 145.961 626.171 144.791 626.013 143.423C625.859 142.122 625.531 141.053 625.228 140.273C626.489 136.747 626.773 134.926 626.754 133.91C626.754 133.703 626.725 132.913 626.879 131.868C627.028 130.876 627.259 130.172 627.317 129.984C627.986 127.807 626.821 123.655 626.301 121.401C625.907 119.696 625.459 117.211 625.319 114.051C625.108 111.898 624.901 109.75 624.689 107.597C624.593 106.243 624.491 104.89 624.395 103.536C624.251 102.356 624.106 101.171 623.967 99.9914C624.429 99.5386 624.862 99.2833 625.17 99.134C625.796 98.8354 626.253 98.8017 626.638 98.3585C626.855 98.1081 626.956 97.8383 627.004 97.6553C627.144 95.5023 626.763 94.1344 626.374 93.277C626.229 92.9639 625.945 92.4052 625.68 91.5382C625.55 91.0999 625.334 90.2907 625.252 89.3515C625.117 87.7861 625.473 87.2273 625.589 85.6475C625.647 84.8672 625.652 83.7401 625.382 82.3433C626.335 82.8875 627.745 83.6486 629.502 84.4433C632.641 85.8594 636.578 87.6367 641.555 88.0365C643.995 88.234 644.636 87.9354 648.149 88.2966C650.248 88.5134 651.957 88.8168 653.093 89.0432C653.382 88.8409 653.815 88.4796 654.166 87.8968C654.373 87.55 654.493 87.2225 654.566 86.9672C655.793 87.1792 656.77 87.4007 657.43 87.5597C658.806 87.8968 659.283 88.0895 660.183 88.1184C660.462 88.128 660.741 88.1184 662.537 87.7861C663.254 87.656 663.836 87.5404 664.322 87.4392C669.757 120.053 675.186 152.671 680.621 185.284C680.64 185.303 681.001 185.708 681.535 185.612C681.901 185.544 682.204 185.27 682.305 184.908C677.015 152.242 671.725 119.571 666.436 86.8998L666.45 86.8709ZM593.18 96.8509C592.968 96.7305 592.752 96.6149 592.53 96.5041C592.877 96.3548 593.195 96.2007 593.493 96.0465C593.387 96.3115 593.286 96.5812 593.18 96.8509Z" fill="#00311C"/>
</svg>
