<svg width="322" height="342" viewBox="0 0 322 342" fill="none" xmlns="http://www.w3.org/2000/svg">
<g filter="url(#filter0_b_9515_11705)">
<path d="M69.0695 288.795H65.6255C64.8234 288.795 64.0658 289.163 63.5707 289.795C62.3379 291.366 63.2538 293.683 65.2278 293.988L81.7338 296.531L131.936 304.224C137.079 305.013 141.074 309.12 141.718 314.284C142.054 316.976 143.321 319.467 145.299 321.324L150.474 326.184C151.799 327.428 153.549 328.12 155.366 328.12C159.314 328.12 162.513 324.921 162.513 320.973V320.609C162.513 319.198 162.911 317.816 163.659 316.621L169.354 307.531C171.024 304.865 174.846 304.696 176.745 307.203C178.403 309.392 181.618 309.596 183.539 307.633L192.184 298.801C194.641 296.292 196.149 293.006 196.451 289.507L197.576 276.471C198.009 271.448 197.142 266.398 195.059 261.808L191.715 254.438C188.843 248.11 190.055 240.676 194.788 235.588L195.277 235.063C198.382 231.726 199.871 227.133 199.368 222.602C198.689 216.473 194.408 211.242 188.505 209.457C183.89 208.062 180.195 204.587 178.519 200.068L176.212 193.847C174.12 188.205 175.313 181.87 179.315 177.376L181.988 174.374C182.918 173.329 183.432 171.979 183.432 170.58C183.432 168.535 184.528 166.645 186.303 165.629L196.774 159.637C199.49 158.082 200.718 154.816 199.699 151.857C198.819 149.3 199.609 146.464 201.686 144.731L206.511 140.703C208.637 138.929 209.999 136.405 210.316 133.654C210.62 131.017 211.886 128.584 213.87 126.821L240.098 103.526C242.893 101.043 247.051 100.872 250.04 103.118L252.432 104.915C254.041 106.124 256.281 106.027 257.78 104.683C259.661 102.997 262.593 103.333 264.045 105.4L265.5 107.47C266.71 109.193 268.684 110.218 270.789 110.218H271.846C275.844 110.218 279.301 107.432 280.151 103.526L283.201 89.5097C283.828 86.6271 283.53 83.6201 282.349 80.9167L280.752 77.2611C280.062 75.6801 280.125 73.8712 280.925 72.3424L281.974 70.3359C282.679 68.9887 282.29 67.3286 281.061 66.4335C280.192 65.7999 279.054 65.6682 278.062 66.0863L276.896 66.5782C274.876 67.4299 272.541 66.9529 271.017 65.3774L265.126 59.2864C264.333 58.467 264.518 57.1215 265.502 56.5465C266.485 55.9725 266.671 54.6305 265.883 53.8103L261.46 49.2101C259.954 47.6439 257.789 46.894 255.637 47.1934L240.444 49.3068C237.594 49.7033 235.123 51.4789 233.838 54.0533C232.691 56.351 230.59 58.027 228.095 58.6349L211.041 62.7896C209.357 63.2 207.6 62.4739 206.698 60.994C205.572 59.1486 203.179 58.5379 201.307 59.6178L181.947 70.7817C176.107 74.1499 171.875 79.7359 170.215 86.2705L169.539 88.9282C168.736 92.0876 168.909 95.416 170.034 98.4754C171.783 103.231 171.198 108.532 168.453 112.791L159.284 127.017C157.397 129.944 154.739 132.293 151.602 133.806C149.04 135.041 146.232 135.683 143.387 135.683H123.04C117.646 135.683 113.437 131.014 113.995 125.648C114.343 122.302 112.815 119.037 110.024 117.16L96.0131 107.742C93.4458 106.016 89.9418 107.05 88.7236 109.894C88.362 110.738 87.7722 111.464 87.0204 111.991L85.8942 112.781C83.2865 114.609 81.7338 117.594 81.7338 120.779V132.71C81.7338 134.491 82.8589 136.077 84.5396 136.666C86.5934 137.386 87.7549 139.558 87.2137 141.666L86.1689 145.735C85.5955 147.969 85.9247 150.338 87.0852 152.331L87.2497 152.613C88.8336 155.333 88.9788 158.658 87.6378 161.505L86.2189 164.518C83.9557 169.324 77.7508 170.675 73.6937 167.247L72.4144 166.166C71.7821 165.631 70.9811 165.338 70.1533 165.338C68.3312 165.338 66.8134 166.735 66.6623 168.551L66.0814 175.533C65.8036 178.871 64.0346 181.907 61.2665 183.795L54.9499 188.102C52.0957 190.048 50.0639 192.983 49.2465 196.34L48.1444 200.866C47.6221 203.01 45.9763 204.703 43.8468 205.284C40.1431 206.296 38.2977 210.449 40.0291 213.876L47.4555 228.574C49.1347 231.897 48.7851 235.885 46.5533 238.865C44.1001 242.141 43.9417 246.597 46.1562 250.039L48.7747 254.109C50.7406 257.165 53.646 259.499 57.0534 260.76L60.182 261.918C64.2947 263.441 67.6296 266.542 69.4463 270.533L74.1588 280.887C75.48 283.789 74.1096 287.208 71.149 288.394C70.4877 288.659 69.7819 288.795 69.0695 288.795Z" fill="white" fill-opacity="0.2"/>
<path d="M69.0695 288.795H65.6255C64.8234 288.795 64.0658 289.163 63.5707 289.795C62.3379 291.366 63.2538 293.683 65.2278 293.988L81.7338 296.531L131.936 304.224C137.079 305.013 141.074 309.12 141.718 314.284C142.054 316.976 143.321 319.467 145.299 321.324L150.474 326.184C151.799 327.428 153.549 328.12 155.366 328.12C159.314 328.12 162.513 324.921 162.513 320.973V320.609C162.513 319.198 162.911 317.816 163.659 316.621L169.354 307.531C171.024 304.865 174.846 304.696 176.745 307.203C178.403 309.392 181.618 309.596 183.539 307.633L192.184 298.801C194.641 296.292 196.149 293.006 196.451 289.507L197.576 276.471C198.009 271.448 197.142 266.398 195.059 261.808L191.715 254.438C188.843 248.11 190.055 240.676 194.788 235.588L195.277 235.063C198.382 231.726 199.871 227.133 199.368 222.602C198.689 216.473 194.408 211.242 188.505 209.457C183.89 208.062 180.195 204.587 178.519 200.068L176.212 193.847C174.12 188.205 175.313 181.87 179.315 177.376L181.988 174.374C182.918 173.329 183.432 171.979 183.432 170.58C183.432 168.535 184.528 166.645 186.303 165.629L196.774 159.637C199.49 158.082 200.718 154.816 199.699 151.857C198.819 149.3 199.609 146.464 201.686 144.731L206.511 140.703C208.637 138.929 209.999 136.405 210.316 133.654C210.62 131.017 211.886 128.584 213.87 126.821L240.098 103.526C242.893 101.043 247.051 100.872 250.04 103.118L252.432 104.915C254.041 106.124 256.281 106.027 257.78 104.683C259.661 102.997 262.593 103.333 264.045 105.4L265.5 107.47C266.71 109.193 268.684 110.218 270.789 110.218H271.846C275.844 110.218 279.301 107.432 280.151 103.526L283.201 89.5097C283.828 86.6271 283.53 83.6201 282.349 80.9167L280.752 77.2611C280.062 75.6801 280.125 73.8712 280.925 72.3424L281.974 70.3359C282.679 68.9887 282.29 67.3286 281.061 66.4335C280.192 65.7999 279.054 65.6682 278.062 66.0863L276.896 66.5782C274.876 67.4299 272.541 66.9529 271.017 65.3774L265.126 59.2864C264.333 58.467 264.518 57.1215 265.502 56.5465C266.485 55.9725 266.671 54.6305 265.883 53.8103L261.46 49.2101C259.954 47.6439 257.789 46.894 255.637 47.1934L240.444 49.3068C237.594 49.7033 235.123 51.4789 233.838 54.0533C232.691 56.351 230.59 58.027 228.095 58.6349L211.041 62.7896C209.357 63.2 207.6 62.4739 206.698 60.994C205.572 59.1486 203.179 58.5379 201.307 59.6178L181.947 70.7817C176.107 74.1499 171.875 79.7359 170.215 86.2705L169.539 88.9282C168.736 92.0876 168.909 95.416 170.034 98.4754C171.783 103.231 171.198 108.532 168.453 112.791L159.284 127.017C157.397 129.944 154.739 132.293 151.602 133.806C149.04 135.041 146.232 135.683 143.387 135.683H123.04C117.646 135.683 113.437 131.014 113.995 125.648C114.343 122.302 112.815 119.037 110.024 117.16L96.0131 107.742C93.4458 106.016 89.9418 107.05 88.7236 109.894C88.362 110.738 87.7722 111.464 87.0204 111.991L85.8942 112.781C83.2865 114.609 81.7338 117.594 81.7338 120.779V132.71C81.7338 134.491 82.8589 136.077 84.5396 136.666C86.5934 137.386 87.7549 139.558 87.2137 141.666L86.1689 145.735C85.5955 147.969 85.9247 150.338 87.0852 152.331L87.2497 152.613C88.8336 155.333 88.9788 158.658 87.6378 161.505L86.2189 164.518C83.9557 169.324 77.7508 170.675 73.6937 167.247L72.4144 166.166C71.7821 165.631 70.9811 165.338 70.1533 165.338C68.3312 165.338 66.8134 166.735 66.6623 168.551L66.0814 175.533C65.8036 178.871 64.0346 181.907 61.2665 183.795L54.9499 188.102C52.0957 190.048 50.0639 192.983 49.2465 196.34L48.1444 200.866C47.6221 203.01 45.9763 204.703 43.8468 205.284C40.1431 206.296 38.2977 210.449 40.0291 213.876L47.4555 228.574C49.1347 231.897 48.7851 235.885 46.5533 238.865C44.1001 242.141 43.9417 246.597 46.1562 250.039L48.7747 254.109C50.7406 257.165 53.646 259.499 57.0534 260.76L60.182 261.918C64.2947 263.441 67.6296 266.542 69.4463 270.533L74.1588 280.887C75.48 283.789 74.1096 287.208 71.149 288.394C70.4877 288.659 69.7819 288.795 69.0695 288.795Z" stroke="white" stroke-width="0.912383"/>
</g>
<g filter="url(#filter1_b_9515_11705)">
<path d="M200.321 59.9585L208.24 43.04C208.349 42.8078 208.571 42.6488 208.825 42.6206L221.254 41.2424C221.507 41.2143 221.756 41.319 221.913 41.5191L225.578 46.1839C225.663 46.2913 225.776 46.3731 225.904 46.4201L236.745 50.3954" stroke="#CFCFCF" stroke-width="0.912383"/>
</g>
<path d="M235.173 1.09375L219.432 5.38682C219.158 5.46139 218.952 5.68631 218.901 5.96511L217.551 13.3906C217.526 13.5294 217.541 13.6725 217.595 13.8029L226.852 36.2324C226.984 36.5532 226.874 36.9229 226.588 37.1195L221.838 40.3853C221.488 40.626 221.414 41.1122 221.676 41.4463L225.112 45.8187C225.195 45.9246 225.306 46.0056 225.432 46.0529L235.833 49.9614C235.949 50.0049 236.074 50.0185 236.196 50.0011L256.613 47.0843" stroke="#CFCFCF" stroke-width="0.912383"/>
<g filter="url(#filter2_b_9515_11705)">
<path d="M85.3961 297.641C85.3961 297.967 85.1691 298.355 84.5709 298.771C83.9834 299.18 83.1094 299.562 81.9962 299.89C79.7747 300.543 76.684 300.952 73.2546 300.952C69.8251 300.952 66.7344 300.543 64.5129 299.89C63.3997 299.562 62.5257 299.18 61.9382 298.771C61.34 298.355 61.113 297.967 61.113 297.641C61.113 297.315 61.34 296.927 61.9382 296.511C62.5257 296.103 63.3997 295.72 64.5129 295.393C66.7344 294.739 69.8251 294.33 73.2546 294.33C76.684 294.33 79.7747 294.739 81.9962 295.393C83.1094 295.72 83.9834 296.103 84.5709 296.511C85.1691 296.927 85.3961 297.315 85.3961 297.641Z" stroke="white" stroke-opacity="0.2" stroke-width="0.735849"/>
</g>
<path d="M79.5976 288.407C78.8249 285.007 75.8594 283.477 73.2545 283.477C73.2545 283.477 73.2545 283.477 73.2472 283.477C70.6496 283.477 67.6768 285 66.9042 288.399C66.0432 292.196 68.3685 295.412 70.473 297.436C71.253 298.186 72.2538 298.561 73.2545 298.561C74.2553 298.561 75.256 298.186 76.0287 297.436C78.1332 295.412 80.4585 292.204 79.5976 288.407Z" fill="#C5C5C5"/>
<path d="M73.2544 292.093C74.5346 292.093 75.5724 291.055 75.5724 289.775C75.5724 288.495 74.5346 287.457 73.2544 287.457C71.9743 287.457 70.9365 288.495 70.9365 289.775C70.9365 291.055 71.9743 292.093 73.2544 292.093Z" fill="white"/>
<path d="M37.3226 324.095H35.5801V315.853H37.3226V318.914H41.0195V315.853H42.762V324.095H41.0195V320.516H37.3226V324.095ZM46.5613 324.26C44.9247 324.26 43.7238 322.894 43.7238 321.187C43.7238 319.479 44.9365 318.114 46.6083 318.114C47.4325 318.114 48.0447 318.373 48.4333 318.773V318.279H49.9638V324.095H48.4333V323.388C48.0565 323.895 47.5031 324.26 46.5613 324.26ZM46.9027 322.729C47.7504 322.729 48.4333 322.117 48.4333 321.187C48.4333 320.257 47.7504 319.644 46.9027 319.644C46.055 319.644 45.3721 320.257 45.3721 321.187C45.3721 322.117 46.055 322.729 46.9027 322.729ZM57.9637 321.151V319.75H61.7783V320.127C61.7783 322.964 59.871 324.26 57.8224 324.26C55.5148 324.26 53.6663 322.505 53.6663 319.974C53.6663 317.443 55.5501 315.688 57.8224 315.688C59.977 315.688 61.3309 316.807 61.6371 318.596H59.8592C59.612 317.796 58.8703 317.313 57.8224 317.313C56.492 317.313 55.4088 318.396 55.4088 319.974C55.4088 321.552 56.492 322.635 57.8224 322.635C58.9409 322.635 59.6944 322.093 59.9652 321.151H57.9637ZM63.6918 317.537C63.1149 317.537 62.6557 317.078 62.6557 316.501C62.6557 315.924 63.1149 315.465 63.6918 315.465C64.2687 315.465 64.7279 315.924 64.7279 316.501C64.7279 317.078 64.2687 317.537 63.6918 317.537ZM64.516 324.095H62.8677V318.279H64.516V324.095ZM68.3746 324.26C66.7381 324.26 65.5371 322.894 65.5371 321.187C65.5371 319.479 66.7498 318.114 68.4217 318.114C69.2458 318.114 69.8581 318.373 70.2466 318.773V318.279H71.7771V324.095H70.2466V323.388C69.8698 323.895 69.3165 324.26 68.3746 324.26ZM68.716 322.729C69.5637 322.729 70.2466 322.117 70.2466 321.187C70.2466 320.257 69.5637 319.644 68.716 319.644C67.8683 319.644 67.1854 320.257 67.1854 321.187C67.1854 322.117 67.8683 322.729 68.716 322.729ZM74.7443 324.095H73.096V318.279H74.6265V319.185C74.862 318.585 75.5684 318.114 76.4632 318.114C77.6053 318.114 78.3705 318.879 78.3705 320.198V324.095H76.7222V320.586C76.7222 319.962 76.2748 319.574 75.7333 319.574C75.1917 319.574 74.7443 319.962 74.7443 320.586V324.095ZM82.4954 326.614C80.7647 326.614 79.6933 325.637 79.6462 324.401H81.3769C81.4476 324.872 81.8361 325.225 82.5308 325.225C83.3431 325.225 83.7905 324.731 83.7905 324.095V323.2C83.4491 323.647 82.8957 323.953 82.0951 323.953C80.4704 323.953 79.3872 322.623 79.3872 321.034C79.3872 319.444 80.6234 318.114 82.1304 318.114C82.9781 318.114 83.5551 318.42 83.9083 318.867V318.279H85.4388V323.977C85.4388 325.378 84.4852 326.614 82.4954 326.614ZM82.4483 322.423C83.2489 322.423 83.8612 321.799 83.8612 321.034C83.8612 320.221 83.2489 319.644 82.4483 319.644C81.6477 319.644 81.0355 320.221 81.0355 321.034C81.0355 321.846 81.6477 322.423 82.4483 322.423ZM93.3018 324.26C90.9942 324.26 89.1458 322.505 89.1458 319.974C89.1458 317.443 91.0295 315.688 93.3018 315.688C95.5153 315.688 96.9046 316.913 97.2224 318.867H95.4446C95.1856 317.902 94.4086 317.313 93.3018 317.313C91.9714 317.313 90.8883 318.396 90.8883 319.974C90.8883 321.552 91.9714 322.635 93.3018 322.635C94.3968 322.635 95.1856 322.07 95.4446 321.069H97.2578C96.9046 323.047 95.3504 324.26 93.3018 324.26ZM99.0793 317.537C98.5024 317.537 98.0432 317.078 98.0432 316.501C98.0432 315.924 98.5024 315.465 99.0793 315.465C99.6562 315.465 100.115 315.924 100.115 316.501C100.115 317.078 99.6562 317.537 99.0793 317.537ZM99.9034 324.095H98.2551V318.279H99.9034V324.095ZM104.669 318.279V319.644H103.303V321.87C103.303 322.34 103.538 322.576 104.009 322.576H104.669V324.095H103.479C102.408 324.095 101.655 323.377 101.655 322.164V319.644H100.819V318.279H101.655V316.795H103.303V318.279H104.669ZM106.936 326.449H105.77V324.954H106.418C106.865 324.954 107.16 324.754 107.324 324.342L107.419 324.095L105.229 318.279H107.006L107.995 321.104C108.125 321.469 108.219 321.822 108.254 322.187L109.62 318.279H111.351L108.808 325.048C108.455 325.99 107.854 326.449 106.936 326.449ZM64.4322 335.069L66.3748 338.095H64.4675L62.8074 335.446V338.095H61.1591V329.853H62.8074V334.704L64.3498 332.279H66.2453L64.4322 335.069ZM68.8414 338.095H67.1931V332.279H68.7236V333.138C68.9356 332.526 69.536 332.114 70.3484 332.114C71.0784 332.114 71.6082 332.514 71.8083 333.032C72.0556 332.538 72.656 332.114 73.4095 332.114C74.4338 332.114 75.0107 332.82 75.0107 333.939V338.095H73.3624V334.351C73.3624 333.88 73.0681 333.574 72.6443 333.574C72.2204 333.574 71.9261 333.88 71.9261 334.351V338.095H70.2778V334.351C70.2778 333.88 69.9834 333.574 69.5596 333.574C69.1357 333.574 68.8414 333.88 68.8414 334.351V338.095ZM82.153 338.26C80.2457 338.26 78.7622 336.788 78.7622 333.974C78.7622 331.16 80.2457 329.688 82.153 329.688C84.0603 329.688 85.5438 331.16 85.5438 333.974C85.5438 336.788 84.0603 338.26 82.153 338.26ZM82.153 336.635C83.1184 336.635 83.8013 335.681 83.8013 333.974C83.8013 332.267 83.1184 331.313 82.153 331.313C81.1876 331.313 80.5047 332.267 80.5047 333.974C80.5047 335.681 81.1876 336.635 82.153 336.635Z" fill="white"/>
<g filter="url(#filter3_b_9515_11705)">
<path d="M154.783 135.754C154.783 136.081 154.556 136.468 153.958 136.884C153.37 137.293 152.496 137.676 151.383 138.003C149.161 138.656 146.071 139.066 142.641 139.066C139.212 139.066 136.121 138.656 133.9 138.003C132.786 137.676 131.912 137.293 131.325 136.884C130.727 136.468 130.5 136.081 130.5 135.754C130.5 135.428 130.727 135.04 131.325 134.624C131.912 134.216 132.786 133.833 133.9 133.506C136.121 132.852 139.212 132.443 142.641 132.443C146.071 132.443 149.161 132.852 151.383 133.506C152.496 133.833 153.37 134.216 153.958 134.624C154.556 135.04 154.783 135.428 154.783 135.754Z" stroke="white" stroke-opacity="0.2" stroke-width="0.735849"/>
</g>
<path d="M148.985 126.52C148.212 123.12 145.246 121.59 142.642 121.59C142.642 121.59 142.642 121.59 142.634 121.59C140.037 121.59 137.064 123.113 136.291 126.513C135.43 130.31 137.755 133.525 139.86 135.549C140.64 136.299 141.641 136.675 142.642 136.675C143.642 136.675 144.643 136.299 145.416 135.549C147.52 133.525 149.845 130.317 148.985 126.52Z" fill="#C5C5C5"/>
<path d="M142.641 130.206C143.922 130.206 144.959 129.168 144.959 127.888C144.959 126.608 143.922 125.57 142.641 125.57C141.361 125.57 140.323 126.608 140.323 127.888C140.323 129.168 141.361 130.206 142.641 130.206Z" fill="white"/>
<path d="M123.432 156.32H121.69V153.059L119.076 148.079H121.066L122.243 150.492C122.373 150.763 122.455 150.94 122.561 151.222C122.667 150.94 122.75 150.763 122.879 150.492L124.056 148.079H126.046L123.432 153.059V156.32ZM131.209 153.542V153.801H126.889C126.959 154.601 127.56 155.119 128.278 155.119C128.949 155.119 129.443 154.766 129.585 154.236H131.162C130.88 155.661 129.832 156.485 128.278 156.485C126.453 156.485 125.252 155.143 125.252 153.412C125.252 151.599 126.63 150.339 128.266 150.339C130.103 150.339 131.209 151.458 131.209 153.542ZM128.29 151.611C127.689 151.611 127.183 151.976 126.971 152.565H129.667C129.502 151.988 129.043 151.611 128.29 151.611ZM133.942 156.32H132.293V150.504H133.824V151.411C134.06 150.81 134.766 150.339 135.661 150.339C136.803 150.339 137.568 151.105 137.568 152.423V156.32H135.92V152.812C135.92 152.188 135.472 151.799 134.931 151.799C134.389 151.799 133.942 152.188 133.942 152.812V156.32ZM145.89 152.082L147.267 148.079H149.434V156.32H147.75V152.152C147.75 151.682 147.785 151.281 147.821 150.846L146.066 156.32H144.818L143.064 150.846C143.099 151.281 143.135 151.682 143.135 152.152V156.32H141.451V148.079H143.617L144.995 152.082C145.148 152.517 145.395 153.13 145.442 153.707C145.489 153.13 145.737 152.517 145.89 152.082ZM151.518 149.762C150.942 149.762 150.482 149.303 150.482 148.726C150.482 148.149 150.942 147.69 151.518 147.69C152.095 147.69 152.555 148.149 152.555 148.726C152.555 149.303 152.095 149.762 151.518 149.762ZM152.343 156.32H150.694V150.504H152.343V156.32ZM155.318 156.32H153.67V150.504H155.2V151.411C155.436 150.81 156.142 150.339 157.037 150.339C158.179 150.339 158.944 151.105 158.944 152.423V156.32H157.296V152.812C157.296 152.188 156.849 151.799 156.307 151.799C155.766 151.799 155.318 152.188 155.318 152.812V156.32ZM161.916 156.32H160.267V148.079H161.916V151.293C162.175 150.81 162.834 150.339 163.764 150.339C164.918 150.339 165.73 151.152 165.73 152.482V156.32H164.082V152.953C164.082 152.27 163.623 151.799 162.999 151.799C162.375 151.799 161.916 152.27 161.916 152.953V156.32Z" fill="white"/>
<g filter="url(#filter4_b_9515_11705)">
<path d="M203.868 282.188C203.868 282.514 203.641 282.902 203.043 283.318C202.455 283.727 201.581 284.109 200.468 284.437C198.246 285.09 195.156 285.499 191.726 285.499C188.297 285.499 185.206 285.09 182.985 284.437C181.871 284.109 180.997 283.727 180.41 283.318C179.812 282.902 179.585 282.514 179.585 282.188C179.585 281.862 179.812 281.474 180.41 281.058C180.997 280.649 181.871 280.267 182.985 279.939C185.206 279.286 188.297 278.877 191.726 278.877C195.156 278.877 198.246 279.286 200.468 279.939C201.581 280.267 202.455 280.649 203.043 281.058C203.641 281.474 203.868 281.862 203.868 282.188Z" stroke="white" stroke-opacity="0.2" stroke-width="0.735849"/>
</g>
<path d="M198.069 272.953C197.297 269.553 194.331 268.022 191.726 268.022C191.726 268.022 191.726 268.022 191.719 268.022C189.121 268.022 186.148 269.546 185.376 272.945C184.515 276.742 186.84 279.958 188.945 281.982C189.725 282.732 190.725 283.107 191.726 283.107C192.727 283.107 193.728 282.732 194.5 281.982C196.605 279.958 198.93 276.75 198.069 272.953Z" fill="#C5C5C5"/>
<path d="M191.726 276.639C193.007 276.639 194.044 275.601 194.044 274.321C194.044 273.041 193.007 272.003 191.726 272.003C190.446 272.003 189.408 273.041 189.408 274.321C189.408 275.601 190.446 276.639 191.726 276.639Z" fill="white"/>
<path d="M156.421 302.754H153.76V294.512H156.421C158.705 294.512 160.577 295.843 160.577 298.633C160.577 301.423 158.705 302.754 156.421 302.754ZM155.502 296.114V301.153H156.35C157.751 301.153 158.834 300.281 158.834 298.633C158.834 296.985 157.751 296.114 156.35 296.114H155.502ZM163.659 302.919C162.376 302.919 161.669 302.024 161.669 300.776V296.938H163.317V300.446C163.317 301.07 163.765 301.459 164.306 301.459C164.848 301.459 165.295 301.07 165.295 300.446V296.938H166.944V302.754H165.413V301.847C165.119 302.507 164.565 302.919 163.659 302.919ZM174.948 299.811V298.409H178.762V298.786C178.762 301.624 176.855 302.919 174.806 302.919C172.499 302.919 170.65 301.164 170.65 298.633C170.65 296.102 172.534 294.348 174.806 294.348C176.961 294.348 178.315 295.466 178.621 297.256H176.843C176.596 296.455 175.854 295.972 174.806 295.972C173.476 295.972 172.393 297.055 172.393 298.633C172.393 300.211 173.476 301.294 174.806 301.294C175.925 301.294 176.678 300.752 176.949 299.811H174.948ZM180.676 296.196C180.099 296.196 179.64 295.737 179.64 295.16C179.64 294.583 180.099 294.124 180.676 294.124C181.253 294.124 181.712 294.583 181.712 295.16C181.712 295.737 181.253 296.196 180.676 296.196ZM181.5 302.754H179.852V296.938H181.5V302.754ZM185.358 302.919C183.722 302.919 182.521 301.553 182.521 299.846C182.521 298.139 183.734 296.773 185.406 296.773C186.23 296.773 186.842 297.032 187.23 297.432V296.938H188.761V302.754H187.23V302.047C186.854 302.554 186.3 302.919 185.358 302.919ZM185.7 301.388C186.548 301.388 187.23 300.776 187.23 299.846C187.23 298.916 186.548 298.303 185.7 298.303C184.852 298.303 184.169 298.916 184.169 299.846C184.169 300.776 184.852 301.388 185.7 301.388ZM197.197 302.754H195.148L192.205 294.512H194.041L195.937 300.152C196.019 300.411 196.09 300.635 196.172 300.917C196.255 300.635 196.325 300.411 196.408 300.152L198.303 294.512H200.14L197.197 302.754ZM201.799 296.196C201.222 296.196 200.763 295.737 200.763 295.16C200.763 294.583 201.222 294.124 201.799 294.124C202.376 294.124 202.835 294.583 202.835 295.16C202.835 295.737 202.376 296.196 201.799 296.196ZM202.623 302.754H200.975V296.938H202.623V302.754ZM205.599 302.754H203.951V294.512H205.599V302.754ZM208.575 302.754H206.926V294.512H208.575V302.754ZM212.433 302.919C210.797 302.919 209.596 301.553 209.596 299.846C209.596 298.139 210.808 296.773 212.48 296.773C213.304 296.773 213.917 297.032 214.305 297.432V296.938H215.836V302.754H214.305V302.047C213.928 302.554 213.375 302.919 212.433 302.919ZM212.775 301.388C213.622 301.388 214.305 300.776 214.305 299.846C214.305 298.916 213.622 298.303 212.775 298.303C211.927 298.303 211.244 298.916 211.244 299.846C211.244 300.776 211.927 301.388 212.775 301.388ZM219.957 305.273C218.226 305.273 217.155 304.296 217.107 303.06H218.838C218.909 303.531 219.297 303.884 219.992 303.884C220.804 303.884 221.252 303.39 221.252 302.754V301.859C220.91 302.307 220.357 302.613 219.556 302.613C217.932 302.613 216.848 301.282 216.848 299.693C216.848 298.103 218.085 296.773 219.592 296.773C220.439 296.773 221.016 297.079 221.369 297.526V296.938H222.9V302.636C222.9 304.037 221.946 305.273 219.957 305.273ZM219.91 301.082C220.71 301.082 221.322 300.458 221.322 299.693C221.322 298.88 220.71 298.303 219.91 298.303C219.109 298.303 218.497 298.88 218.497 299.693C218.497 300.505 219.109 301.082 219.91 301.082ZM229.875 299.975V300.234H225.554C225.624 301.035 226.225 301.553 226.943 301.553C227.614 301.553 228.109 301.2 228.25 300.67H229.827C229.545 302.095 228.497 302.919 226.943 302.919C225.118 302.919 223.917 301.577 223.917 299.846C223.917 298.033 225.295 296.773 226.931 296.773C228.768 296.773 229.875 297.891 229.875 299.975ZM226.955 298.044C226.354 298.044 225.848 298.409 225.636 298.998H228.332C228.167 298.421 227.708 298.044 226.955 298.044Z" fill="white"/>
<path d="M7.00598 168.306V169.908H4.75723V176.548H3.01474V169.908H0.76598V168.306H7.00598ZM9.04796 176.713C7.41143 176.713 6.21053 175.347 6.21053 173.64C6.21053 171.933 7.42321 170.567 9.09506 170.567C9.91921 170.567 10.5314 170.826 10.92 171.226V170.732H12.4505V176.548H10.92V175.841C10.5432 176.348 9.98985 176.713 9.04796 176.713ZM9.3894 175.182C10.2371 175.182 10.92 174.57 10.92 173.64C10.92 172.71 10.2371 172.097 9.3894 172.097C8.5417 172.097 7.85883 172.71 7.85883 173.64C7.85883 174.57 8.5417 175.182 9.3894 175.182ZM15.4177 176.548H13.7694V170.732H15.2999V171.591C15.5118 170.979 16.1123 170.567 16.9247 170.567C17.6546 170.567 18.1844 170.967 18.3846 171.485C18.6318 170.991 19.2323 170.567 19.9858 170.567C21.0101 170.567 21.587 171.273 21.587 172.392V176.548H19.9387V172.804C19.9387 172.333 19.6444 172.027 19.2205 172.027C18.7967 172.027 18.5023 172.333 18.5023 172.804V176.548H16.854V172.804C16.854 172.333 16.5597 172.027 16.1358 172.027C15.712 172.027 15.4177 172.333 15.4177 172.804V176.548ZM28.1994 176.713C26.2921 176.713 25.2207 175.641 25.2207 173.958H26.975C26.975 174.652 27.4813 175.088 28.1994 175.088C28.9059 175.088 29.3415 174.758 29.3415 174.158C29.3415 173.569 28.6939 173.287 28.0228 173.063L27.0456 172.733C26.0802 172.404 25.3267 171.697 25.3267 170.496C25.3267 169.095 26.5747 168.142 28.0582 168.142C29.9184 168.142 30.9309 169.201 30.9309 170.685H29.212C29.212 170.143 28.7646 169.743 28.0582 169.743C27.4695 169.743 27.0456 170.061 27.0456 170.449C27.0456 170.873 27.4224 171.097 28.2112 171.367L29.3297 171.756C30.3305 172.109 31.084 172.863 31.084 173.981C31.084 175.547 29.9537 176.713 28.1994 176.713ZM34.9616 176.713C33.0661 176.713 31.8181 175.347 31.8181 173.64C31.8181 171.933 33.0661 170.567 34.9616 170.567C36.8572 170.567 38.1052 171.933 38.1052 173.64C38.1052 175.347 36.8572 176.713 34.9616 176.713ZM34.9616 175.182C35.8093 175.182 36.4569 174.57 36.4569 173.64C36.4569 172.71 35.8093 172.097 34.9616 172.097C34.1139 172.097 33.4664 172.71 33.4664 173.64C33.4664 174.57 34.1139 175.182 34.9616 175.182ZM40.7723 176.548H39.124V170.732H40.6545V171.638C40.89 171.038 41.5964 170.567 42.4912 170.567C43.6332 170.567 44.3985 171.332 44.3985 172.651V176.548H42.7502V173.039C42.7502 172.415 42.3028 172.027 41.7612 172.027C41.2197 172.027 40.7723 172.415 40.7723 173.039V176.548Z" fill="white"/>
<g filter="url(#filter5_b_9515_11705)">
<path d="M72.764 178.434C72.764 178.76 72.5371 179.148 71.9388 179.564C71.3514 179.973 70.4773 180.355 69.3642 180.683C67.1427 181.336 64.0519 181.745 60.6225 181.745C57.193 181.745 54.1023 181.336 51.8808 180.683C50.7676 180.355 49.8936 179.973 49.3061 179.564C48.7079 179.148 48.481 178.76 48.481 178.434C48.481 178.108 48.7079 177.72 49.3061 177.304C49.8936 176.896 50.7676 176.513 51.8808 176.185C54.1023 175.532 57.193 175.123 60.6225 175.123C64.0519 175.123 67.1427 175.532 69.3642 176.185C70.4773 176.513 71.3514 176.896 71.9388 177.304C72.5371 177.72 72.764 178.108 72.764 178.434Z" stroke="white" stroke-opacity="0.2" stroke-width="0.735849"/>
</g>
<path d="M66.9657 169.199C66.1931 165.799 63.2276 164.269 60.6227 164.269C60.6227 164.269 60.6227 164.269 60.6153 164.269C58.0178 164.269 55.045 165.792 54.2723 169.191C53.4114 172.988 55.7367 176.204 57.8412 178.228C58.6212 178.978 59.6219 179.353 60.6227 179.353C61.6235 179.353 62.6242 178.978 63.3969 178.228C65.5014 176.204 67.8267 172.996 66.9657 169.199Z" fill="#F0F0F0"/>
<path d="M60.6229 172.885C61.903 172.885 62.9408 171.847 62.9408 170.567C62.9408 169.287 61.903 168.249 60.6229 168.249C59.3427 168.249 58.3049 169.287 58.3049 170.567C58.3049 171.847 59.3427 172.885 60.6229 172.885Z" fill="white"/>
<g filter="url(#filter6_b_9515_11705)">
<path d="M289.679 102.641C289.679 102.967 289.452 103.355 288.854 103.771C288.267 104.18 287.393 104.562 286.279 104.89C284.058 105.543 280.967 105.952 277.538 105.952C274.108 105.952 271.018 105.543 268.796 104.89C267.683 104.562 266.809 104.18 266.221 103.771C265.623 103.355 265.396 102.967 265.396 102.641C265.396 102.315 265.623 101.927 266.221 101.511C266.809 101.103 267.683 100.72 268.796 100.393C271.018 99.7391 274.108 99.3298 277.538 99.3298C280.967 99.3298 284.058 99.7391 286.279 100.393C287.393 100.72 288.267 101.103 288.854 101.511C289.452 101.927 289.679 102.315 289.679 102.641Z" stroke="white" stroke-opacity="0.2" stroke-width="0.735849"/>
</g>
<path d="M283.881 93.4068C283.108 90.0071 280.143 88.4766 277.538 88.4766C277.538 88.4766 277.538 88.4766 277.531 88.4766C274.933 88.4766 271.96 89.9998 271.188 93.3994C270.327 97.1964 272.652 100.412 274.756 102.436C275.536 103.186 276.537 103.561 277.538 103.561C278.539 103.561 279.539 103.186 280.312 102.436C282.417 100.412 284.742 97.2037 283.881 93.4068Z" fill="#C5C5C5"/>
<path d="M277.538 97.0929C278.818 97.0929 279.856 96.0551 279.856 94.775C279.856 93.4948 278.818 92.457 277.538 92.457C276.258 92.457 275.22 93.4948 275.22 94.775C275.22 96.0551 276.258 97.0929 277.538 97.0929Z" fill="white"/>
<path d="M259.156 118.97L260.533 114.966H262.7V123.208H261.016V119.04C261.016 118.569 261.051 118.169 261.087 117.733L259.332 123.208H258.084L256.33 117.733C256.365 118.169 256.401 118.569 256.401 119.04V123.208H254.717V114.966H256.883L258.261 118.97C258.414 119.405 258.661 120.017 258.708 120.594C258.755 120.017 259.003 119.405 259.156 118.97ZM269.612 120.429V120.688H265.291C265.361 121.489 265.962 122.007 266.68 122.007C267.351 122.007 267.846 121.654 267.987 121.124H269.565C269.282 122.549 268.234 123.373 266.68 123.373C264.855 123.373 263.654 122.031 263.654 120.3C263.654 118.487 265.032 117.227 266.668 117.227C268.505 117.227 269.612 118.346 269.612 120.429ZM266.692 118.499C266.091 118.499 265.585 118.864 265.373 119.452H268.069C267.904 118.875 267.445 118.499 266.692 118.499ZM273.533 123.373C271.637 123.373 270.389 122.007 270.389 120.3C270.389 118.593 271.637 117.227 273.533 117.227C275.429 117.227 276.677 118.593 276.677 120.3C276.677 122.007 275.429 123.373 273.533 123.373ZM273.533 121.842C274.381 121.842 275.028 121.23 275.028 120.3C275.028 119.37 274.381 118.758 273.533 118.758C272.685 118.758 272.038 119.37 272.038 120.3C272.038 121.23 272.685 121.842 273.533 121.842ZM284.812 123.208H282.763L279.82 114.966H281.657L283.552 120.606C283.635 120.865 283.705 121.089 283.788 121.371C283.87 121.089 283.941 120.865 284.023 120.606L285.919 114.966H287.755L284.812 123.208ZM290.179 123.373C288.543 123.373 287.342 122.007 287.342 120.3C287.342 118.593 288.554 117.227 290.226 117.227C291.05 117.227 291.663 117.486 292.051 117.886V117.392H293.582V123.208H292.051V122.502C291.674 123.008 291.121 123.373 290.179 123.373ZM290.52 121.842C291.368 121.842 292.051 121.23 292.051 120.3C292.051 119.37 291.368 118.758 290.52 118.758C289.673 118.758 288.99 119.37 288.99 120.3C288.99 121.23 289.673 121.842 290.52 121.842ZM297.667 123.373C295.831 123.373 294.594 122.007 294.594 120.3C294.594 118.593 295.831 117.227 297.667 117.227C299.504 117.227 300.493 118.204 300.669 119.57H298.951C298.786 119.087 298.374 118.758 297.667 118.758C296.925 118.758 296.243 119.37 296.243 120.3C296.243 121.23 296.914 121.842 297.667 121.842C298.362 121.842 298.762 121.536 298.951 121.03H300.669C300.399 122.454 299.445 123.373 297.667 123.373Z" fill="white"/>
<g filter="url(#filter7_b_9515_11705)">
<path d="M261.764 46.7164C261.764 47.0426 261.537 47.4304 260.939 47.8464C260.352 48.2549 259.478 48.6376 258.364 48.965C256.143 49.6184 253.052 50.0277 249.623 50.0277C246.193 50.0277 243.103 49.6184 240.881 48.965C239.768 48.6376 238.894 48.2549 238.306 47.8464C237.708 47.4304 237.481 47.0426 237.481 46.7164C237.481 46.3901 237.708 46.0023 238.306 45.5863C238.894 45.1778 239.768 44.7951 240.881 44.4677C243.103 43.8143 246.193 43.405 249.623 43.405C253.052 43.405 256.143 43.8143 258.364 44.4677C259.478 44.7951 260.352 45.1778 260.939 45.5863C261.537 46.0023 261.764 46.3901 261.764 46.7164Z" stroke="white" stroke-opacity="0.2" stroke-width="0.735849"/>
</g>
<path d="M255.966 37.4829C255.193 34.0833 252.228 32.5527 249.623 32.5527C249.623 32.5527 249.623 32.5527 249.615 32.5527C247.018 32.5527 244.045 34.0759 243.272 37.4756C242.411 41.2725 244.737 44.4882 246.841 46.5118C247.621 47.2624 248.622 47.6376 249.623 47.6376C250.623 47.6376 251.624 47.2624 252.397 46.5118C254.501 44.4882 256.827 41.2799 255.966 37.4829Z" fill="#C5C5C5"/>
<path d="M249.623 41.1691C250.903 41.1691 251.941 40.1313 251.941 38.8511C251.941 37.571 250.903 36.5332 249.623 36.5332C248.343 36.5332 247.305 37.571 247.305 38.8511C247.305 40.1313 248.343 41.1691 249.623 41.1691Z" fill="white"/>
<path d="M268.889 34.0222H271.55C273.834 34.0222 275.706 35.3526 275.706 38.1429C275.706 40.9333 273.834 42.2637 271.55 42.2637H268.889V38.8493H267.995V37.4365H268.889V34.0222ZM270.632 40.6625H271.48C272.881 40.6625 273.964 39.7912 273.964 38.1429C273.964 36.4946 272.881 35.6234 271.48 35.6234H270.632V37.4365H272.669V38.8493H270.632V40.6625ZM278.918 35.7058H277.458L278.977 33.8573H280.284L281.803 35.7058H280.343L279.636 34.9523L278.918 35.7058ZM279.636 42.4285C277.741 42.4285 276.493 41.0628 276.493 39.3556C276.493 37.6484 277.741 36.2827 279.636 36.2827C281.532 36.2827 282.78 37.6484 282.78 39.3556C282.78 41.0628 281.532 42.4285 279.636 42.4285ZM279.636 40.8979C280.484 40.8979 281.132 40.2857 281.132 39.3556C281.132 38.4255 280.484 37.8133 279.636 37.8133C278.789 37.8133 278.141 38.4255 278.141 39.3556C278.141 40.2857 278.789 40.8979 279.636 40.8979ZM280.516 33.7058H279.056L277.655 31.8573H279.75L280.516 33.7058ZM285.594 42.2637H283.946V36.4475H285.476V37.3541C285.712 36.7536 286.418 36.2827 287.313 36.2827C288.455 36.2827 289.22 37.048 289.22 38.3666V42.2637H287.572V38.7551C287.572 38.1311 287.125 37.7426 286.583 37.7426C286.042 37.7426 285.594 38.1311 285.594 38.7551V42.2637ZM293.345 44.7832C291.615 44.7832 290.543 43.806 290.496 42.5698H292.227C292.297 43.0407 292.686 43.3939 293.381 43.3939C294.193 43.3939 294.64 42.8994 294.64 42.2637V41.3689C294.299 41.8163 293.746 42.1224 292.945 42.1224C291.32 42.1224 290.237 40.792 290.237 39.2025C290.237 37.6131 291.473 36.2827 292.98 36.2827C293.828 36.2827 294.405 36.5888 294.758 37.0362V36.4475H296.289V42.1459C296.289 43.547 295.335 44.7832 293.345 44.7832ZM293.298 40.5918C294.099 40.5918 294.711 39.9678 294.711 39.2025C294.711 38.3902 294.099 37.8133 293.298 37.8133C292.498 37.8133 291.885 38.3902 291.885 39.2025C291.885 40.0149 292.498 40.5918 293.298 40.5918ZM304.729 42.2637H302.68L299.737 34.0222H301.573L303.469 39.6617C303.551 39.9207 303.622 40.1444 303.704 40.427C303.787 40.1444 303.857 39.9207 303.94 39.6617L305.835 34.0222H307.672L304.729 42.2637ZM310.543 35.6351C309.542 35.6351 308.848 34.9523 308.848 34.0222H310.025C310.025 34.2576 310.213 34.5167 310.543 34.5167C310.873 34.5167 311.061 34.2576 311.061 34.0222H312.238C312.238 34.9523 311.544 35.6351 310.543 35.6351ZM310.096 42.4285C308.459 42.4285 307.258 41.0628 307.258 39.3556C307.258 37.6484 308.471 36.2827 310.143 36.2827C310.967 36.2827 311.579 36.5417 311.968 36.942V36.4475H313.498V42.2637H311.968V41.5573C311.591 42.0635 311.037 42.4285 310.096 42.4285ZM310.437 40.8979C311.285 40.8979 311.968 40.2857 311.968 39.3556C311.968 38.4255 311.285 37.8133 310.437 37.8133C309.589 37.8133 308.906 38.4255 308.906 39.3556C308.906 40.2857 309.589 40.8979 310.437 40.8979ZM316.465 42.2637H314.817V36.4475H316.348V37.3541C316.583 36.7536 317.289 36.2827 318.184 36.2827C319.326 36.2827 320.092 37.048 320.092 38.3666V42.2637H318.443V38.7551C318.443 38.1311 317.996 37.7426 317.454 37.7426C316.913 37.7426 316.465 38.1311 316.465 38.7551V42.2637Z" fill="white"/>
<defs>
<filter id="filter0_b_9515_11705" x="34.9172" y="42.6729" width="253.06" height="289.903" filterUnits="userSpaceOnUse" color-interpolation-filters="sRGB">
<feFlood flood-opacity="0" result="BackgroundImageFix"/>
<feGaussianBlur in="BackgroundImageFix" stdDeviation="2"/>
<feComposite in2="SourceAlpha" operator="in" result="effect1_backgroundBlur_9515_11705"/>
<feBlend mode="normal" in="SourceGraphic" in2="effect1_backgroundBlur_9515_11705" result="shape"/>
</filter>
<filter id="filter1_b_9515_11705" x="195.908" y="36.7812" width="44.9946" height="27.3711" filterUnits="userSpaceOnUse" color-interpolation-filters="sRGB">
<feFlood flood-opacity="0" result="BackgroundImageFix"/>
<feGaussianBlur in="BackgroundImageFix" stdDeviation="2"/>
<feComposite in2="SourceAlpha" operator="in" result="effect1_backgroundBlur_9515_11705"/>
<feBlend mode="normal" in="SourceGraphic" in2="effect1_backgroundBlur_9515_11705" result="shape"/>
</filter>
<filter id="filter2_b_9515_11705" x="57.8017" y="291.019" width="30.9056" height="13.2452" filterUnits="userSpaceOnUse" color-interpolation-filters="sRGB">
<feFlood flood-opacity="0" result="BackgroundImageFix"/>
<feGaussianBlur in="BackgroundImageFix" stdDeviation="1.4717"/>
<feComposite in2="SourceAlpha" operator="in" result="effect1_backgroundBlur_9515_11705"/>
<feBlend mode="normal" in="SourceGraphic" in2="effect1_backgroundBlur_9515_11705" result="shape"/>
</filter>
<filter id="filter3_b_9515_11705" x="127.188" y="129.132" width="30.9056" height="13.2452" filterUnits="userSpaceOnUse" color-interpolation-filters="sRGB">
<feFlood flood-opacity="0" result="BackgroundImageFix"/>
<feGaussianBlur in="BackgroundImageFix" stdDeviation="1.4717"/>
<feComposite in2="SourceAlpha" operator="in" result="effect1_backgroundBlur_9515_11705"/>
<feBlend mode="normal" in="SourceGraphic" in2="effect1_backgroundBlur_9515_11705" result="shape"/>
</filter>
<filter id="filter4_b_9515_11705" x="176.273" y="275.565" width="30.9056" height="13.2452" filterUnits="userSpaceOnUse" color-interpolation-filters="sRGB">
<feFlood flood-opacity="0" result="BackgroundImageFix"/>
<feGaussianBlur in="BackgroundImageFix" stdDeviation="1.4717"/>
<feComposite in2="SourceAlpha" operator="in" result="effect1_backgroundBlur_9515_11705"/>
<feBlend mode="normal" in="SourceGraphic" in2="effect1_backgroundBlur_9515_11705" result="shape"/>
</filter>
<filter id="filter5_b_9515_11705" x="45.1696" y="171.811" width="30.9056" height="13.2452" filterUnits="userSpaceOnUse" color-interpolation-filters="sRGB">
<feFlood flood-opacity="0" result="BackgroundImageFix"/>
<feGaussianBlur in="BackgroundImageFix" stdDeviation="1.4717"/>
<feComposite in2="SourceAlpha" operator="in" result="effect1_backgroundBlur_9515_11705"/>
<feBlend mode="normal" in="SourceGraphic" in2="effect1_backgroundBlur_9515_11705" result="shape"/>
</filter>
<filter id="filter6_b_9515_11705" x="262.085" y="96.0185" width="30.9056" height="13.2452" filterUnits="userSpaceOnUse" color-interpolation-filters="sRGB">
<feFlood flood-opacity="0" result="BackgroundImageFix"/>
<feGaussianBlur in="BackgroundImageFix" stdDeviation="1.4717"/>
<feComposite in2="SourceAlpha" operator="in" result="effect1_backgroundBlur_9515_11705"/>
<feBlend mode="normal" in="SourceGraphic" in2="effect1_backgroundBlur_9515_11705" result="shape"/>
</filter>
<filter id="filter7_b_9515_11705" x="234.17" y="40.0937" width="30.9056" height="13.2452" filterUnits="userSpaceOnUse" color-interpolation-filters="sRGB">
<feFlood flood-opacity="0" result="BackgroundImageFix"/>
<feGaussianBlur in="BackgroundImageFix" stdDeviation="1.4717"/>
<feComposite in2="SourceAlpha" operator="in" result="effect1_backgroundBlur_9515_11705"/>
<feBlend mode="normal" in="SourceGraphic" in2="effect1_backgroundBlur_9515_11705" result="shape"/>
</filter>
</defs>
</svg>
