<svg width="37" height="36" viewBox="0 0 37 36" fill="none" xmlns="http://www.w3.org/2000/svg">
<rect x="0.625" width="36" height="36" rx="18" fill="#F0F0F0"/>
<g clip-path="url(#clip0_8549_23426)">
<g clip-path="url(#clip1_8549_23426)">
<path fill-rule="evenodd" clip-rule="evenodd" d="M12.5712 25.6633C8.50977 22.0774 11.1365 14.0937 17.3804 15.0981V15.8376C12.1072 15.588 9.78594 21.988 12.5712 25.6633ZM23.9603 11.8135C24.6018 12.3351 25.4866 12.7199 26.7063 12.7934V13.5177C25.3566 13.2641 24.5012 12.5817 23.9603 11.8135ZM22.2672 8C22.2663 8.26731 22.3003 8.55447 22.3434 8.81676H19.8543V21.4267C19.8543 22.0081 19.7955 22.5256 19.6785 22.9797C18.6648 25.253 15.7949 24.956 15.0018 23.396C16.1825 24.1482 18.1239 23.9484 18.9208 22.1629C19.037 21.7097 19.0957 21.1911 19.0957 20.6099V8H22.2674H22.2672Z" fill="#00F7EF"/>
<path fill-rule="evenodd" clip-rule="evenodd" d="M23.0266 8.81641V8.8326C23.0275 9.12454 23.1116 13.3463 27.4659 13.6098C27.4659 17.5373 27.468 13.6098 27.468 16.8718C27.1409 16.8916 24.6018 16.7048 23.0219 15.2709L23.017 21.6211C23.056 24.4965 21.4828 27.3165 18.5375 27.8847C17.7124 28.0437 16.9693 28.0617 15.722 27.7843C8.53665 25.5975 10.9242 14.7543 18.1389 15.9148C18.1389 19.4153 18.141 15.9138 18.141 19.4153C15.1605 18.9692 14.1634 21.492 14.9556 23.2982C15.6765 24.9427 18.644 25.2994 19.6792 22.9793C19.7964 22.5252 19.8549 22.0075 19.8549 21.4263V8.81641H23.0266Z" fill="black"/>
<path fill-rule="evenodd" clip-rule="evenodd" d="M17.3795 15.8372C17.6254 15.8482 17.8785 15.8728 18.1374 15.9145C18.1374 19.4151 18.1394 15.9136 18.1394 19.4151C15.159 18.969 14.1619 21.4918 14.9541 23.298C14.9686 23.3308 14.9843 23.3637 15.0009 23.3954C14.6465 23.1698 14.3614 22.8598 14.1955 22.4812C13.4044 20.6748 14.4004 18.1522 17.3809 18.5981C17.3809 15.3897 17.38 18.0596 17.38 15.837L17.3795 15.8372ZM26.7056 13.5174C26.9428 13.5619 27.1959 13.5936 27.4644 13.6098C27.4644 17.5373 27.4665 13.6098 27.4665 16.8718C27.1394 16.8916 24.6003 16.7048 23.0204 15.2709L23.0155 21.6211C23.0545 24.4965 21.4813 27.3165 18.536 27.8847C17.7108 28.0437 16.9677 28.0617 15.7205 27.7843C14.3163 27.3571 13.2793 26.5981 12.5703 25.663C13.202 26.2213 13.9949 26.6734 14.9628 26.9685C16.2087 27.2447 16.952 27.2269 17.7772 27.0677C20.7225 26.4993 22.2957 23.6796 22.2576 20.805L22.2616 14.4539C23.8415 15.8878 26.3806 16.0756 26.7088 16.0546C26.7088 13.0252 26.7059 16.1958 26.7059 13.5172L26.7056 13.5174ZM23.0251 8.81641V8.8326C23.0251 9.00435 23.0554 10.5286 23.9596 11.8132C22.8697 10.9259 22.4813 9.64434 22.3425 8.81641H23.0251Z" fill="#FF004F"/>
</g>
</g>
<defs>
<clipPath id="clip0_8549_23426">
<rect width="24" height="24" fill="white" transform="translate(6.625 6)"/>
</clipPath>
<clipPath id="clip1_8549_23426">
<rect width="16.8421" height="20" fill="white" transform="translate(10.625 8)"/>
</clipPath>
</defs>
</svg>
