<svg width="37" height="36" viewBox="0 0 37 36" fill="none" xmlns="http://www.w3.org/2000/svg">
<rect x="0.625" width="36" height="36" rx="18" fill="url(#paint0_linear_8549_23417)"/>
<g clip-path="url(#clip0_8549_23417)">
<path d="M27.5709 14.2894C27.5271 13.3314 27.3749 12.6771 27.1525 12.1047C26.9265 11.5042 26.5722 10.9602 26.1144 10.5106C25.6649 10.0528 25.1208 9.69832 24.5203 9.47227C23.9477 9.24994 23.2936 9.09792 22.3356 9.05438C21.3758 9.01044 21.0692 9 18.625 9C16.1808 9 15.8742 9.01044 14.9144 9.05411C13.9564 9.09792 13.3023 9.25008 12.7297 9.47255C12.1292 9.69846 11.5852 10.0528 11.1356 10.5106C10.6778 10.9601 10.3233 11.5041 10.0973 12.1046C9.87494 12.6771 9.72292 13.3314 9.67938 14.2892C9.63544 15.2492 9.625 15.5557 9.625 17.9999C9.625 20.4442 9.63544 20.7508 9.67938 21.7106C9.72305 22.6685 9.87521 23.3227 10.0977 23.8953C10.3236 24.4957 10.6779 25.0398 11.1358 25.4892C11.5852 25.9471 12.1293 26.3014 12.7299 26.5273C13.3023 26.7499 13.9565 26.9019 14.9145 26.9458C15.8744 26.9896 16.181 26.9999 18.6251 26.9999C21.0693 26.9999 21.376 26.9896 22.3358 26.9458C23.2938 26.9019 23.9479 26.7499 24.5204 26.5273C25.7293 26.0598 26.685 25.1042 27.1525 23.8953C27.3751 23.3227 27.5271 22.6685 27.5709 21.7106C27.6146 20.7507 27.625 20.4442 27.625 18C27.625 15.5557 27.6146 15.2492 27.5709 14.2894ZM25.9508 21.6369C25.9109 22.5144 25.7642 22.991 25.641 23.308C25.3382 24.093 24.7179 24.7133 23.9329 25.0161C23.6158 25.1393 23.1393 25.286 22.2617 25.326C21.3129 25.3694 21.0283 25.3784 18.625 25.3784C16.2216 25.3784 15.9371 25.3694 14.9881 25.326C14.1107 25.286 13.6342 25.1393 13.317 25.0161C12.9261 24.8718 12.5725 24.6418 12.2822 24.3428C11.9832 24.0525 11.7532 23.699 11.6089 23.308C11.4857 22.991 11.339 22.5144 11.299 21.6369C11.2558 20.6879 11.2466 20.4033 11.2466 18.0001C11.2466 15.5969 11.2558 15.3123 11.299 14.3633C11.3391 13.4857 11.4857 13.0092 11.6089 12.6921C11.7532 12.3011 11.9834 11.9475 12.2822 11.6572C12.5725 11.3582 12.9261 11.1282 13.3171 10.984C13.6342 10.8607 14.1107 10.7141 14.9883 10.674C15.9372 10.6308 16.2219 10.6216 18.625 10.6216H18.6249C21.028 10.6216 21.3127 10.6308 22.2617 10.6742C23.1393 10.7141 23.6157 10.8608 23.9329 10.984C24.3237 11.1283 24.6774 11.3584 24.9677 11.6572C25.2666 11.9475 25.4967 12.3011 25.6409 12.6921C25.7642 13.0092 25.9109 13.4857 25.9508 14.3633C25.9941 15.3122 26.0033 15.5969 26.0033 18C26.0033 20.4033 25.9942 20.6878 25.9508 21.6369Z" fill="white"/>
<path d="M18.6254 13.377C16.073 13.377 14.0039 15.4462 14.0039 17.9986C14.0039 20.551 16.073 22.6202 18.6254 22.6202C21.178 22.6202 23.2471 20.551 23.2471 17.9986C23.2471 15.4462 21.178 13.377 18.6254 13.377ZM18.6254 20.9986C16.9687 20.9984 15.6255 19.6554 15.6256 17.9985C15.6256 16.3418 16.9687 14.9985 18.6256 14.9985C20.2825 14.9987 21.6255 16.3418 21.6255 17.9985C21.6255 19.6554 20.2823 20.9986 18.6254 20.9986Z" fill="white"/>
<path d="M24.5097 13.1973C24.5097 13.7937 24.0261 14.2772 23.4297 14.2772C22.8331 14.2772 22.3496 13.7937 22.3496 13.1973C22.3496 12.6007 22.8331 12.1172 23.4297 12.1172C24.0261 12.1172 24.5097 12.6007 24.5097 13.1973Z" fill="white"/>
</g>
<defs>
<linearGradient id="paint0_linear_8549_23417" x1="3.64606" y1="32.9789" x2="33.6042" y2="3.02102" gradientUnits="userSpaceOnUse">
<stop stop-color="#FFD600"/>
<stop offset="0.5" stop-color="#FF0100"/>
<stop offset="1" stop-color="#D800B9"/>
</linearGradient>
<clipPath id="clip0_8549_23417">
<rect width="18" height="18" fill="white" transform="translate(9.625 9)"/>
</clipPath>
</defs>
</svg>
