<svg width="75" height="80" viewBox="0 0 75 80" fill="none" xmlns="http://www.w3.org/2000/svg">
<path d="M73.8869 32.2506L74.2346 34.1795L64.59 35.918L64.2423 33.989L73.8869 32.2506Z" fill="white"/>
<path d="M71.3353 34.5078L71.6433 34.5048L71.6932 39.6425C72.6443 39.5493 73.2534 38.8294 73.2451 37.9754C73.2373 37.1774 72.8116 36.5935 72.18 36.4317L72.1618 34.5558C73.859 34.8753 74.851 36.1117 74.869 37.9596C74.8901 40.1295 73.308 41.573 71.2501 41.5929C69.0942 41.6139 67.5804 39.9905 67.5615 38.0446C67.5403 35.8607 68.8574 34.5318 71.3353 34.5078ZM69.0731 38.0019C69.0801 38.7159 69.5199 39.3136 70.2223 39.5588L70.1912 36.353C69.5071 36.5556 69.0644 37.106 69.0731 38.0019Z" fill="white"/>
<path d="M74.3419 45.5219L73.8729 47.7122L66.6294 48.509L67.0692 46.4556L70.862 46.194C71.2991 46.1588 71.5876 46.149 71.9171 46.1479C71.6169 46.0121 71.3577 45.885 70.9734 45.6738L67.6203 43.8819L68.0601 41.8285L74.3419 45.5219Z" fill="white"/>
<path d="M72.1082 54.1334C71.2941 55.9009 69.2216 56.5185 67.3778 55.6692C65.534 54.8199 64.6622 52.8307 65.494 51.0251C65.904 50.135 66.4883 49.6026 67.1139 49.3821L66.5799 49.1361L67.3413 47.4831L73.6229 50.3766L72.8615 52.0296L72.0985 51.6782C72.4579 52.3369 72.5768 53.1162 72.1082 54.1334ZM70.625 53.0032C71.0467 52.0877 70.7252 51.0456 69.7207 50.5829C68.7161 50.1202 67.7152 50.5531 67.2935 51.4686C66.8717 52.3842 67.1932 53.4263 68.1978 53.889C69.2023 54.3517 70.2033 53.9188 70.625 53.0032Z" fill="white"/>
<path d="M63.6471 55.3104L64.1386 54.612L65.6614 55.6835L65.0652 56.5308C64.6301 57.149 64.7183 57.6562 65.3366 58.0913L68.5539 60.3552L67.426 61.9581L61.7699 57.9781L62.8173 56.4897L63.8707 57.2309C63.2036 56.5732 63.2685 55.8485 63.6471 55.3104Z" fill="white"/>
<path d="M61.9685 58.0049L63.1503 59.1188L62.0364 60.3006L63.9619 62.1155C64.3694 62.4996 64.7652 62.4879 65.1493 62.0804L65.6871 61.5099L67.0013 62.7486L66.0314 63.7776C65.1576 64.7047 63.9216 64.7709 62.8722 63.7819L60.6921 61.7269L60.0103 62.4502L58.8285 61.3363L59.5103 60.613L58.2266 59.4031L59.571 57.9768L60.8546 59.1867L61.9685 58.0049Z" fill="white"/>
<path d="M57.5197 71.3687C55.5596 72.4817 53.4672 71.8022 52.4649 70.037C51.4625 68.2717 51.9511 66.1267 53.9112 65.0138C55.8713 63.9008 57.9636 64.5803 58.966 66.3455C59.9683 68.1108 59.4797 70.2558 57.5197 71.3687ZM56.621 69.7861C57.4976 69.2884 57.8077 68.2751 57.2616 67.3133C56.7155 66.3516 55.6864 66.0987 54.8099 66.5964C53.9333 67.0941 53.6232 68.1074 54.1693 69.0692C54.7154 70.0309 55.7445 70.2838 56.621 69.7861Z" fill="white"/>
<path d="M50.1027 74.917C48.2412 75.4841 46.4019 74.3468 45.8102 72.4049C45.2186 70.4631 46.1247 68.4893 48.0264 67.9099C48.9639 67.6243 49.75 67.7068 50.3307 68.0274L50.1593 67.465L51.9003 66.9345L53.9159 73.5503L52.175 74.0807L51.9301 73.2772C51.677 73.9836 51.1741 74.5906 50.1027 74.917ZM49.9607 73.0577C50.9249 72.7639 51.4895 71.8308 51.1671 70.7729C50.8448 69.7149 49.8559 69.2551 48.8916 69.5489C47.9274 69.8427 47.3628 70.7757 47.6852 71.8337C48.0075 72.8917 48.9964 73.3514 49.9607 73.0577Z" fill="white"/>
<path d="M40.8192 76.6372L38.8647 76.7842L38.1299 67.0118L40.0844 66.8648L40.371 70.6761C40.6351 70.0806 41.3749 69.4634 42.4778 69.3804C43.8459 69.2776 44.8816 70.1684 45.0002 71.746L45.3424 76.2971L43.388 76.4441L43.0877 72.4514C43.0269 71.6416 42.4404 71.1242 41.7005 71.1798C40.9606 71.2354 40.4581 71.8348 40.519 72.6445L40.8192 76.6372Z" fill="white"/>
<path d="M28.5657 78.6524C26.5853 78.0925 25.6755 76.6277 26.0216 75.1979L28.002 75.7578C27.9304 76.3196 28.2607 76.8494 29.0556 77.0742C29.9851 77.337 30.657 76.9159 30.8627 76.1884L31.1522 75.1646C30.6168 75.566 29.8846 75.7373 28.9685 75.4783C27.1094 74.9526 26.3004 73.0799 26.8146 71.2612C27.3288 69.4425 29.1738 68.3201 30.8982 68.8076C31.8682 69.0819 32.4292 69.6188 32.6887 70.245L32.8791 69.5714L34.6305 70.0666L32.7869 76.587C32.3336 78.1901 30.8424 79.2961 28.5657 78.6524ZM29.8678 73.8412C30.7839 74.1002 31.6863 73.5843 31.9339 72.7086C32.1967 71.779 31.6828 70.9208 30.7667 70.6618C29.8507 70.4028 28.9635 70.8649 28.7007 71.7944C28.4378 72.724 28.9517 73.5822 29.8678 73.8412Z" fill="white"/>
<path d="M20.1264 72.1436L18.4153 71.1878L21.788 65.1499L23.3769 66.0375L22.8512 66.9786C23.4438 66.4918 24.4503 66.4125 25.3792 66.9314C26.5647 67.5937 26.9154 68.8319 26.1508 70.2008L23.8909 74.2464L22.1798 73.2906L24.2143 69.6483C24.5762 69.0005 24.337 68.3378 23.7748 68.0237C23.2126 67.7097 22.5228 67.8536 22.161 68.5013L20.1264 72.1436Z" fill="white"/>
<path d="M14.0708 68.2409C12.4112 66.7156 12.4176 64.5157 13.7913 63.0211C15.165 61.5265 17.3566 61.3351 19.0161 62.8604C20.6756 64.3857 20.6693 66.5856 19.2956 68.0802C17.9218 69.5748 15.7303 69.7662 14.0708 68.2409ZM15.3024 66.9009C16.0445 67.583 17.1041 67.5681 17.8525 66.7538C18.6009 65.9395 18.5267 64.8825 17.7845 64.2003C17.0424 63.5182 15.9828 63.5332 15.2344 64.3475C14.486 65.1617 14.5602 66.2188 15.3024 66.9009Z" fill="white"/>
<path d="M5.94842 58.1086L4.88088 56.3328L13.28 51.2836L14.3476 53.0594L11.2279 54.9348L13.4928 58.7024L16.6125 56.827L17.68 58.6028L9.2809 63.652L8.21335 61.8762L11.861 59.6834L9.59605 55.9158L5.94842 58.1086Z" fill="white"/>
<path d="M2.09159 48.1805L1.72076 46.2559L11.3437 44.4017L11.7146 46.3263L2.09159 48.1805Z" fill="white"/>
<path d="M4.61543 45.8931L4.3075 45.8997L4.19587 40.763C3.24592 40.8676 2.64558 41.5948 2.66413 42.4486C2.68147 43.2464 3.11415 43.8252 3.74765 43.9795L3.7884 45.855C2.0875 45.5559 1.08067 44.3315 1.04052 42.4839C0.993372 40.3144 2.55797 38.8521 4.61549 38.8074C6.77098 38.7605 8.30421 40.3656 8.34649 42.3111C8.39394 44.4946 7.09284 45.8392 4.61543 45.8931ZM6.83545 42.372C6.81994 41.6582 6.37296 41.0657 5.66765 40.829L5.73731 44.0342C6.41889 43.8234 6.85492 43.2678 6.83545 42.372Z" fill="white"/>
<path d="M1.47717 34.9153L1.9199 32.7195L9.15327 31.8357L8.73821 33.8943L4.94876 34.2013C4.51214 34.2418 4.22383 34.2551 3.89435 34.2601C4.19616 34.3924 4.4568 34.5163 4.84362 34.7228L8.21801 36.4743L7.80295 38.5329L1.47717 34.9153Z" fill="white"/>
<path d="M3.60699 26.2778C4.39985 24.5007 6.46476 23.8582 8.31863 24.6853C10.1725 25.5124 11.0681 27.491 10.2581 29.3065C9.85882 30.2015 9.28093 30.7408 8.658 30.9688L9.19498 31.2083L8.45346 32.8704L2.13752 30.0526L2.87904 28.3906L3.64616 28.7328C3.27892 28.0784 3.15067 27.3007 3.60699 26.2778ZM5.10366 27.3901C4.69297 28.3107 5.02697 29.3488 6.03701 29.7995C7.04705 30.2501 8.04272 29.8051 8.45341 28.8846C8.8641 27.964 8.5301 26.9259 7.52006 26.4753C6.51002 26.0247 5.51435 26.4696 5.10366 27.3901Z" fill="white"/>
<path d="M12.0533 24.9987L11.5703 25.703L10.0348 24.6498L10.6207 23.7954C11.0483 23.172 10.954 22.6659 10.3306 22.2383L7.08631 20.0132L8.1949 18.3969L13.8983 22.3086L12.8689 23.8095L11.8068 23.081C12.4817 23.7306 12.4255 24.4561 12.0533 24.9987Z" fill="white"/>
<path d="M13.6997 22.285L12.5047 21.1854L13.6043 19.9903L11.6571 18.1987C11.245 17.8195 10.8494 17.836 10.4702 18.2481L9.93937 18.825L8.61036 17.6022L9.56779 16.5616C10.4304 15.6241 11.6656 15.543 12.7267 16.5194L14.9314 18.548L15.6045 17.8165L16.7995 18.9162L16.1265 19.6476L17.4246 20.842L16.0975 22.2844L14.7994 21.09L13.6997 22.285Z" fill="white"/>
<path d="M17.9872 8.86831C19.9337 7.73188 22.0341 8.38616 23.0576 10.1393C24.081 11.8924 23.6183 14.0431 21.6717 15.1795C19.7252 16.3159 17.6248 15.6616 16.6013 13.9085C15.5778 12.1554 16.0406 10.0047 17.9872 8.86831ZM18.9048 10.4401C18.0343 10.9483 17.7363 11.9652 18.294 12.9203C18.8516 13.8755 19.8836 14.1159 20.7541 13.6077C21.6246 13.0995 21.9225 12.0826 21.3649 11.1275C20.8073 10.1723 19.7753 9.93184 18.9048 10.4401Z" fill="white"/>
<path d="M25.3612 5.23063C27.2158 4.64116 29.0686 5.7563 29.6835 7.69092C30.2985 9.62555 29.4161 11.6101 27.5215 12.2122C26.5876 12.5091 25.8005 12.4361 25.216 12.1224L25.3941 12.6828L23.6596 13.2341L21.5647 6.64302L23.2992 6.09171L23.5536 6.89225C23.7982 6.18283 24.2938 5.5699 25.3612 5.23063ZM25.5256 7.08811C24.5649 7.39345 24.0116 8.33321 24.3466 9.38725C24.6817 10.4413 25.676 10.8891 26.6367 10.5838C27.5973 10.2784 28.1506 9.33867 27.8156 8.28464C27.4806 7.2306 26.4862 6.78277 25.5256 7.08811Z" fill="white"/>
<path d="M34.6238 3.39945L36.5764 3.22902L37.4286 12.9919L35.476 13.1623L35.1437 9.35481C34.8868 9.95342 34.1544 10.5795 33.0526 10.6756C31.6858 10.795 30.6395 9.91661 30.5019 8.3406L30.105 3.79389L32.0576 3.62345L32.4058 7.61229C32.4764 8.42121 33.069 8.93161 33.8082 8.86709C34.5474 8.80257 35.0426 8.19721 34.972 7.38829L34.6238 3.39945Z" fill="white"/>
<path d="M46.8517 1.2371C48.8386 1.77319 49.7659 3.22694 49.4371 4.66078L47.4501 4.12469C47.5149 3.56214 47.1783 3.03629 46.3808 2.82112C45.4481 2.56949 44.7813 2.99861 44.5844 3.72851L44.3072 4.75577C44.8378 4.3479 45.5679 4.16787 46.487 4.41586C48.3523 4.91913 49.1838 6.78203 48.6914 8.60678C48.1991 10.4315 46.3678 11.576 44.6376 11.1092C43.6644 10.8466 43.0969 10.3165 42.83 9.69344L42.6477 10.3693L40.8905 9.89518L42.6556 3.35311C43.0896 1.74463 44.5673 0.620774 46.8517 1.2371ZM45.6074 6.06362C44.6883 5.81563 43.7921 6.34238 43.5551 7.22096C43.3035 8.15361 43.8276 9.00556 44.7468 9.25355C45.6659 9.50154 46.5475 9.02886 46.7991 8.09621C47.0507 7.16356 46.5266 6.31161 45.6074 6.06362Z" fill="white"/>
<path d="M55.3683 7.6441L57.0908 8.5793L53.7909 14.6573L52.1914 13.7889L52.7057 12.8415C52.119 13.3354 51.1136 13.4267 50.1785 12.919C48.9851 12.2711 48.6195 11.0372 49.3677 9.65916L51.5787 5.58667L53.3012 6.52187L51.3106 10.1883C50.9566 10.8404 51.2037 11.5003 51.7696 11.8076C52.3356 12.1148 53.0236 11.9627 53.3776 11.3106L55.3683 7.6441Z" fill="white"/>
<path d="M61.4701 11.4734C63.1479 12.9786 63.1679 15.1784 61.8123 16.6894C60.4566 18.2004 58.2675 18.4182 56.5898 16.9129C54.9121 15.4077 54.892 13.2079 56.2476 11.6969C57.6033 10.1859 59.7924 9.96812 61.4701 11.4734ZM60.2547 12.828C59.5044 12.1549 58.4451 12.1826 57.7065 13.0058C56.9679 13.829 57.0549 14.8851 57.8052 15.5583C58.5555 16.2314 59.6148 16.2037 60.3534 15.3805C61.092 14.5573 61.005 13.5012 60.2547 12.828Z" fill="white"/>
<path d="M69.7142 21.5073L70.803 23.2702L62.4652 28.4199L61.3764 26.6571L64.4733 24.7443L62.1633 21.0042L59.0663 22.917L57.9775 21.1541L66.3154 16.0043L67.4042 17.7672L63.7832 20.0037L66.0932 23.7438L69.7142 21.5073Z" fill="white"/>
</svg>
