<svg width="105" height="105" viewBox="0 0 105 105" fill="none" xmlns="http://www.w3.org/2000/svg">
<path d="M98.8249 45.8102L89.1797 47.545L88.8312 45.6162L98.4765 43.8814L98.8249 45.8102Z" fill="black"/>
<path d="M99.4697 51.8063C99.4767 52.525 99.3242 53.1565 99.0121 53.7008C98.6907 54.2453 98.2562 54.6696 97.7084 54.9735C97.1514 55.2776 96.5322 55.433 95.8509 55.4396C95.1322 55.4465 94.496 55.2894 93.9422 54.968C93.3884 54.6467 92.9548 54.2169 92.6416 53.6786C92.3282 53.1309 92.1684 52.5351 92.1622 51.8911C92.1551 51.1632 92.2937 50.5365 92.5779 50.011C92.8621 49.4856 93.2875 49.0801 93.8541 48.7946C94.4114 48.5092 95.1053 48.3625 95.9359 48.3544L96.2439 48.3514L96.2976 53.8672L94.8277 53.8814L94.789 49.9056L95.1971 50.1256C94.7402 50.1674 94.3731 50.3343 94.0959 50.6263C93.8094 50.9091 93.6686 51.3165 93.6738 51.8485C93.6783 52.3058 93.8501 52.7008 94.1894 53.0336C94.5285 53.3569 94.9734 53.516 95.5241 53.5106L96.0841 53.5052C96.4387 53.5018 96.7506 53.4241 97.0198 53.2721C97.289 53.1202 97.4971 52.9175 97.6439 52.6641C97.7815 52.4107 97.8488 52.13 97.8458 51.8221C97.8419 51.4207 97.7453 51.0857 97.556 50.8168C97.3572 50.5387 97.0988 50.3592 96.7807 50.2783L96.7624 48.4024C97.6134 48.5622 98.2751 48.9384 98.7475 49.5312C99.22 50.124 99.4607 50.8824 99.4697 51.8063Z" fill="black"/>
<path d="M97.8973 63.8778L90.6522 64.6774L91.0928 62.6242L94.8865 62.3612C95.101 62.3402 95.2898 62.328 95.4528 62.3247C95.6158 62.3213 95.7787 62.318 95.9417 62.3147C95.7944 62.245 95.6471 62.1753 95.4998 62.1057C95.3524 62.036 95.1852 61.9478 94.9981 61.841L91.6451 60.0508L92.0858 57.9975L98.3673 61.6877L97.8973 63.8778Z" fill="black"/>
<path d="M95.1771 72.0925C94.9071 72.6772 94.5162 73.1344 94.0042 73.464C93.4962 73.7852 92.9294 73.9664 92.3039 74.0076C91.6738 74.0364 91.0534 73.9105 90.4428 73.6298C89.8238 73.3453 89.3247 72.9567 88.9456 72.464C88.5704 71.9629 88.342 71.4111 88.2604 70.8086C88.1826 70.1976 88.2826 69.5913 88.5603 68.9896C88.7677 68.5405 89.0093 68.1842 89.2851 67.9206C89.5649 67.6486 89.8639 67.4573 90.1822 67.3468L89.6479 67.1013L90.4107 65.4488L96.6947 68.3372L95.9319 69.9896L95.1687 69.6388C95.3462 69.9669 95.4497 70.3329 95.4791 70.7367C95.5124 71.1321 95.4118 71.5841 95.1771 72.0925ZM93.6935 70.9638C93.8344 70.6587 93.8937 70.3521 93.8714 70.044C93.8446 69.7235 93.7415 69.4348 93.562 69.1777C93.378 68.9082 93.1207 68.6974 92.7899 68.5454C92.4507 68.3895 92.1229 68.3313 91.8066 68.3708C91.4942 68.4018 91.2114 68.5133 90.9584 68.7051C90.7008 68.8846 90.5015 69.1269 90.3607 69.4319C90.2199 69.737 90.1629 70.0498 90.1897 70.3703C90.2119 70.6784 90.3108 70.9652 90.4864 71.2308C90.6658 71.4879 90.9251 71.6944 91.2643 71.8503C91.5951 72.0023 91.9209 72.0648 92.2418 72.0376C92.5581 71.9981 92.8451 71.8887 93.1027 71.7092C93.3558 71.5173 93.5527 71.2689 93.6935 70.9638Z" fill="black"/>
<path d="M89.5699 81.0508L83.9098 77.0765L84.9587 75.5892L86.0128 76.3293L86.0935 76.2149L90.6995 79.449L89.5699 81.0508ZM87.4799 77.1883L86.0128 76.3293C85.6739 76.0001 85.505 75.6648 85.5059 75.3234C85.5069 74.9819 85.6015 74.6777 85.7898 74.4107L86.2819 73.7128L87.8058 74.7828L87.2087 75.6294C86.7784 76.2396 86.8688 76.7593 87.4799 77.1883Z" fill="black"/>
<path d="M87.2809 83.7417C86.845 84.2031 86.34 84.4455 85.7656 84.4691C85.1909 84.4795 84.6418 84.2385 84.1183 83.7462L79.4679 79.3724L80.8138 77.9476L85.2092 82.0815C85.6171 82.4652 86.0134 82.4535 86.3979 82.0464L86.9363 81.4765L88.2518 82.7138L87.2809 83.7417ZM81.2533 82.4162L80.0703 81.3035L83.214 77.9755L84.3969 79.0882L81.2533 82.4162Z" fill="black"/>
<path d="M75.6288 93.3075C74.9791 93.6755 74.3258 93.8579 73.6689 93.8547C73.0201 93.8468 72.4256 93.6795 71.8853 93.3527C71.3403 93.0179 70.9017 92.5584 70.5693 91.9743C70.2323 91.3822 70.0617 90.7709 70.0573 90.1404C70.0529 89.51 70.2136 88.9148 70.5392 88.3548C70.873 87.7902 71.3647 87.3239 72.0144 86.9558C72.6721 86.5832 73.3254 86.4007 73.9742 86.4086C74.623 86.4165 75.2176 86.5838 75.7579 86.9106C76.2982 87.2373 76.7369 87.6968 77.0738 88.289C77.4062 88.873 77.5769 89.4843 77.5858 90.1229C77.5902 90.7533 77.4296 91.3485 77.1039 91.9085C76.7782 92.4685 76.2865 92.9348 75.6288 93.3075ZM74.7286 91.7256C75.021 91.56 75.248 91.3456 75.4096 91.0824C75.5666 90.811 75.6432 90.5209 75.6392 90.2121C75.6388 89.8905 75.5486 89.5715 75.3685 89.2552C75.1839 88.9307 74.9556 88.6899 74.6837 88.5329C74.4199 88.3713 74.1333 88.2923 73.824 88.2959C73.51 88.2914 73.2069 88.372 72.9145 88.5377C72.6222 88.7033 72.3975 88.9218 72.2405 89.1931C72.087 89.4517 72.0081 89.7378 72.0039 90.0512C71.9997 90.3647 72.09 90.6837 72.2746 91.0081C72.4546 91.3245 72.6829 91.5652 72.9595 91.7304C73.2314 91.8874 73.5203 91.9705 73.8261 91.9795C74.1354 91.9759 74.4363 91.8913 74.7286 91.7256Z" fill="black"/>
<path d="M66.2155 97.3398C65.5994 97.5271 64.998 97.5392 64.4115 97.3761C63.8339 97.2103 63.3218 96.9075 62.8753 96.4677C62.4349 96.0162 62.1166 95.4692 61.9204 94.8265C61.7214 94.1748 61.6799 93.5436 61.796 92.9328C61.9209 92.3192 62.1813 91.7816 62.577 91.3199C62.9817 90.8554 63.501 90.5268 64.135 90.3341C64.6083 90.1902 65.0351 90.1336 65.4153 90.1644C65.8044 90.1924 66.146 90.2885 66.4402 90.4527L66.2684 89.8903L68.0098 89.361L70.0294 95.9755L68.2881 96.5049L68.0428 95.7015C67.9157 96.0523 67.7111 96.373 67.429 96.6636C67.1558 96.9515 66.7513 97.1769 66.2155 97.3398ZM66.0725 95.4811C66.394 95.3833 66.6624 95.2237 66.8778 95.0021C67.0993 94.7689 67.2465 94.4998 67.3192 94.1948C67.3982 93.8781 67.3846 93.5458 67.2783 93.1976C67.1692 92.8406 66.9948 92.557 66.7551 92.347C66.5242 92.1343 66.253 91.9973 65.9415 91.9359C65.6362 91.8628 65.3229 91.8752 65.0014 91.9729C64.6799 92.0707 64.4084 92.2361 64.1868 92.4693C63.9715 92.6909 63.823 92.9555 63.7413 93.2632C63.6685 93.5683 63.6866 93.8993 63.7956 94.2564C63.9019 94.6045 64.0719 94.8894 64.3054 95.111C64.5452 95.321 64.8178 95.4626 65.1231 95.5356C65.4346 95.597 65.751 95.5788 66.0725 95.4811Z" fill="black"/>
<path d="M52.5637 99.3111L51.8273 89.5388L53.7818 89.3921L54.069 93.2033C54.2055 92.9029 54.4511 92.6224 54.8058 92.3618C55.1699 92.1005 55.6265 91.9493 56.1756 91.9081C56.8643 91.8564 57.4399 92.0425 57.9024 92.4664C58.3735 92.8803 58.6389 93.4828 58.6985 94.2739L59.0415 98.825L57.087 98.9717L56.7861 94.979C56.7552 94.5695 56.6093 94.2482 56.3484 94.015C56.0875 93.7819 55.7709 93.6793 55.3986 93.7072C55.0263 93.7352 54.7286 93.8839 54.5056 94.1533C54.2825 94.4228 54.1864 94.7622 54.2173 95.1717L54.5182 99.1644L52.5637 99.3111Z" fill="black"/>
<path d="M38.8384 100.265C38.1826 100.08 37.644 99.8066 37.2226 99.4452C36.8011 99.0839 36.5104 98.6721 36.3503 98.21C36.1992 97.7504 36.1808 97.2845 36.2952 96.8125L38.2759 97.3713C38.2444 97.6534 38.3111 97.9146 38.4758 98.155C38.6495 98.398 38.9339 98.5752 39.3292 98.6867C39.7963 98.8185 40.1867 98.7929 40.5005 98.6099C40.8232 98.4294 41.0355 98.1596 41.1373 97.8004L41.4273 96.7767C41.1585 96.9724 40.8395 97.1054 40.4703 97.1758C40.1101 97.2488 39.7009 97.2206 39.2428 97.0914C38.623 96.9165 38.1228 96.6105 37.7422 96.1734C37.3706 95.7389 37.1258 95.2334 37.0078 94.657C36.8923 94.0717 36.9199 93.4782 37.0903 92.8766C37.2201 92.4186 37.4218 92.0148 37.6954 91.6654C37.9716 91.3069 38.2967 91.0155 38.6707 90.7913C39.0562 90.5607 39.4617 90.4132 39.8873 90.3491C40.3155 90.2759 40.7451 90.3001 41.1763 90.4218C41.6614 90.5586 42.0472 90.7548 42.3338 91.0102C42.6318 91.2591 42.8428 91.5417 42.9666 91.8579L43.1575 91.1844L44.9091 91.6786L43.0618 98.1979C42.9091 98.7367 42.6422 99.1996 42.2609 99.5866C41.8886 99.9761 41.416 100.24 40.843 100.379C40.2701 100.518 39.6019 100.48 38.8384 100.265ZM40.1432 95.4543C40.4486 95.5405 40.7429 95.546 41.0262 95.4707C41.3094 95.3955 41.5573 95.2569 41.7697 95.055C41.9821 94.8531 42.129 94.6084 42.2105 94.3211C42.2995 94.0068 42.3053 93.7126 42.2277 93.4386C42.1527 93.1556 42.013 92.9125 41.8086 92.7094C41.6042 92.5063 41.3494 92.3617 41.0439 92.2755C40.7385 92.1893 40.4455 92.1794 40.1648 92.2456C39.8841 92.3119 39.6375 92.446 39.4251 92.6479C39.2152 92.8408 39.0657 93.0945 38.9767 93.4087C38.8902 93.7141 38.8844 94.0082 38.9595 94.2912C39.0345 94.5742 39.1742 94.8173 39.3785 95.0204C39.5829 95.2235 39.8378 95.3682 40.1432 95.4543Z" fill="black"/>
<path d="M26.6738 91.5613L30.0521 85.5265L31.6418 86.4126L31.1152 87.3532C31.4108 87.1119 31.789 86.9808 32.2499 86.9599C32.7154 86.9309 33.1805 87.0458 33.6452 87.3049C34.2404 87.6366 34.6101 88.0938 34.7546 88.6765C34.9117 89.2556 34.7988 89.8872 34.4158 90.5713L32.1523 94.6148L30.4402 93.6606L32.4781 90.0202C32.6605 89.6944 32.7022 89.3811 32.6033 89.0802C32.5125 88.7838 32.3244 88.5561 32.0391 88.3971C31.7619 88.2426 31.4689 88.2022 31.1603 88.2759C30.8516 88.3496 30.6061 88.5493 30.4237 88.8751L28.3858 92.5155L26.6738 91.5613Z" fill="black"/>
<path d="M20.6633 86.9427C20.113 86.438 19.7387 85.8731 19.5404 85.248C19.349 84.6292 19.3264 84.0132 19.4725 83.4C19.6249 82.78 19.9287 82.2228 20.384 81.7285C20.8456 81.2274 21.3765 80.8784 21.9765 80.6815C22.5766 80.4847 23.1936 80.4554 23.8277 80.5936C24.4686 80.7382 25.0642 81.0628 25.6144 81.5675C26.1716 82.0785 26.5459 82.6433 26.7373 83.2621C26.9287 83.8809 26.9513 84.4969 26.8052 85.1101C26.6591 85.7233 26.3553 86.2805 25.8937 86.7816C25.4384 87.2759 24.9076 87.6249 24.3012 87.8286C23.7011 88.0255 23.0841 88.0548 22.45 87.9165C21.816 87.7783 21.2204 87.4537 20.6633 86.9427ZM21.8963 85.604C22.1439 85.8311 22.4181 85.9812 22.7187 86.0543C23.0257 86.1206 23.3259 86.1046 23.6193 86.0065C23.926 85.9078 24.2026 85.7246 24.4492 85.4568C24.7021 85.1822 24.8618 84.8918 24.9283 84.5855C25.0016 84.2854 24.9891 83.989 24.8908 83.6963C24.7988 83.3966 24.629 83.1332 24.3814 82.9061C24.1338 82.679 23.8565 82.5323 23.5495 82.4661C23.2557 82.3993 22.9587 82.4118 22.6584 82.5037C22.3581 82.5955 22.0814 82.7787 21.8285 83.0533C21.5819 83.321 21.4222 83.6115 21.3494 83.9247C21.283 84.231 21.2923 84.5308 21.3774 84.8242C21.4757 85.117 21.6487 85.3769 21.8963 85.604Z" fill="black"/>
<path d="M9.65576 71.9295L18.0597 66.8884L19.129 68.6632L16.0075 70.5356L18.276 74.301L21.3975 72.4286L22.4668 74.2034L14.0628 79.2446L12.9935 77.4698L16.6433 75.2805L14.3747 71.515L10.725 73.7043L9.65576 71.9295Z" fill="black"/>
<path d="M6.29346 59.7437L15.9172 57.8934L16.2888 59.8178L6.66507 61.6681L6.29346 59.7437Z" fill="black"/>
<path d="M5.57588 53.7559C5.56023 53.0374 5.70514 52.4041 6.01062 51.856C6.32542 51.3077 6.75484 50.8783 7.29887 50.5678C7.85224 50.257 8.46951 50.0943 9.15068 50.0795C9.86918 50.0639 10.5073 50.2135 11.0649 50.5281C11.6226 50.8428 12.0612 51.2673 12.3809 51.8019C12.7009 52.3457 12.8678 52.9396 12.8819 53.5834C12.8977 54.3113 12.7667 54.9396 12.4888 55.4684C12.2109 55.9972 11.7904 56.4078 11.2273 56.7C10.6735 56.9921 9.98143 57.1472 9.15096 57.1652L8.84303 57.1718L8.72293 51.6571L10.1926 51.6253L10.2792 55.6003L9.86837 55.3852C10.3248 55.3379 10.6898 55.1667 10.9634 54.8713C11.2466 54.5851 11.3824 54.1761 11.3708 53.6442C11.3609 53.187 11.1843 52.7941 10.841 52.4654C10.498 52.1461 10.0512 51.9924 9.50067 52.0044L8.94081 52.0165C8.58622 52.0242 8.27526 52.1056 8.0079 52.2608C7.74055 52.416 7.53497 52.6211 7.39116 52.8763C7.25668 53.1313 7.19279 53.4127 7.1995 53.7207C7.20824 54.1219 7.30886 54.4558 7.50138 54.7223C7.70343 54.998 7.964 55.1744 8.28309 55.2515L8.32393 57.1271C7.47114 56.9775 6.80496 56.6092 6.3254 56.0221C5.84584 55.4351 5.596 54.6796 5.57588 53.7559Z" fill="black"/>
<path d="M7.00408 41.6667L14.239 40.7803L13.823 42.8387L10.0329 43.1472C9.81863 43.1707 9.63003 43.1851 9.46709 43.1904C9.30415 43.1957 9.1412 43.201 8.97826 43.2063C9.12641 43.2742 9.27457 43.3421 9.42272 43.41C9.57088 43.4779 9.73914 43.5641 9.9275 43.6686L13.3018 45.4185L12.8858 47.4769L6.56043 43.8623L7.00408 41.6667Z" fill="black"/>
<path d="M9.62658 33.4195C9.88944 32.8315 10.2748 32.3697 10.7828 32.0339C11.287 31.7067 11.8515 31.5187 12.4765 31.47C13.1062 31.4336 13.728 31.5521 14.3419 31.8254C14.9643 32.1025 15.468 32.4851 15.853 32.9732C16.2342 33.4698 16.4692 34.0188 16.5581 34.6203C16.6432 35.2303 16.5505 35.8378 16.28 36.4427C16.0781 36.8943 15.8409 37.2535 15.5682 37.5203C15.2917 37.7957 14.995 37.9906 14.6781 38.1049L15.2153 38.344L14.4724 40.0055L8.15419 37.1928L8.89706 35.5313L9.66445 35.8729C9.48303 35.547 9.37517 35.1822 9.34087 34.7788C9.30277 34.3838 9.398 33.9307 9.62658 33.4195ZM11.1235 34.5303C10.9864 34.837 10.9308 35.1443 10.9568 35.4521C10.9874 35.7723 11.094 36.0598 11.2765 36.3147C11.4637 36.582 11.7236 36.7896 12.0562 36.9377C12.3972 37.0895 12.7257 37.1438 13.0415 37.1005C13.3536 37.0657 13.6349 36.9509 13.8856 36.756C14.1411 36.5734 14.3374 36.3288 14.4745 36.022C14.6116 35.7153 14.6649 35.4019 14.6342 35.0817C14.6083 34.7739 14.5059 34.4883 14.3272 34.2248C14.1447 33.9699 13.883 33.7665 13.5419 33.6147C13.2094 33.4666 12.8828 33.4081 12.5622 33.4391C12.2464 33.4824 11.9608 33.5953 11.7053 33.7779C11.4546 33.9727 11.2607 34.2235 11.1235 34.5303Z" fill="black"/>
<path d="M15.1235 24.3946L20.8308 28.3006L19.7999 29.8005L18.737 29.073L18.6577 29.1884L14.0132 26.0099L15.1235 24.3946ZM17.2597 28.2317L18.737 29.073C19.0798 29.3981 19.2528 29.7314 19.256 30.0728C19.2591 30.4143 19.1682 30.7196 18.9831 30.9888L18.4994 31.6926L16.9628 30.641L17.5496 29.7872C17.9725 29.1719 17.8759 28.6534 17.2597 28.2317Z" fill="black"/>
<path d="M17.3815 21.6767C17.8117 21.2101 18.3138 20.9616 18.8879 20.9311C19.4624 20.9138 20.0144 21.1482 20.5438 21.6342L25.2463 25.9518L23.9177 27.3927L19.4729 23.3119C19.0604 22.9331 18.6644 22.9496 18.2847 23.3613L17.7533 23.9376L16.4229 22.7162L17.3815 21.6767ZM23.4245 22.9297L24.6208 24.0281L21.5174 27.3936L20.3211 26.2953L23.4245 22.9297Z" fill="black"/>
<path d="M28.9157 11.9712C29.5608 11.5953 30.2119 11.4051 30.8688 11.4005C31.5176 11.4005 32.1142 11.5607 32.6584 11.881C33.2073 12.2093 33.6515 12.6634 33.9908 13.2435C34.3349 13.8315 34.5129 14.4407 34.5249 15.0711C34.5368 15.7014 34.3833 16.2985 34.0644 16.8623C33.7374 17.4308 33.2514 17.903 32.6062 18.2789C31.9529 18.6594 31.3019 18.8497 30.6531 18.8496C30.0042 18.8495 29.4077 18.6894 28.8635 18.3691C28.3192 18.0489 27.8751 17.5947 27.531 17.0066C27.1917 16.4266 27.0137 15.8174 26.997 15.179C26.985 14.5487 27.1385 13.9516 27.4574 13.3878C27.7764 12.8239 28.2624 12.3517 28.9157 11.9712ZM29.8348 13.5421C29.5444 13.7112 29.32 13.9283 29.1616 14.1935C29.0078 14.4667 28.9348 14.7577 28.9424 15.0665C28.9467 15.388 29.0408 15.7059 29.2246 16.02C29.4131 16.3423 29.6443 16.5803 29.9181 16.734C30.1838 16.8924 30.4713 16.968 30.7806 16.9606C31.0946 16.9614 31.3968 16.8771 31.6871 16.708C31.9774 16.5389 32.1995 16.3177 32.3532 16.0445C32.5036 15.7841 32.579 15.4971 32.5794 15.1836C32.5798 14.8701 32.4858 14.5523 32.2973 14.2301C32.1134 13.9159 31.8823 13.6779 31.6038 13.5161C31.33 13.3623 31.0401 13.2828 30.7342 13.2774C30.4249 13.2847 30.1251 13.3729 29.8348 13.5421Z" fill="black"/>
<path d="M38.2803 7.8268C38.8942 7.6321 39.4954 7.61279 40.0838 7.76885C40.6634 7.92774 41.1791 8.22438 41.6309 8.65878C42.0767 9.10489 42.4015 9.6481 42.6055 10.2884C42.8123 10.9376 42.8613 11.5683 42.7527 12.1804C42.6351 12.7954 42.3813 13.3361 41.9911 13.8026C41.592 14.2718 41.0767 14.6067 40.445 14.807C39.9735 14.9565 39.5475 15.0182 39.1669 14.9921C38.7774 14.9687 38.4347 14.8767 38.1386 14.716L38.3171 15.2763L36.5822 15.8265L34.4831 9.23674L36.218 8.68652L36.4729 9.48689C36.5958 9.13459 36.7965 8.81146 37.0751 8.51748C37.3448 8.22632 37.7465 7.9961 38.2803 7.8268ZM38.4457 9.68368C38.1254 9.78526 37.859 9.94811 37.6463 10.1722C37.4275 10.4081 37.2836 10.6789 37.2145 10.9848C37.1394 11.3024 37.157 11.6346 37.2675 11.9814C37.3808 12.3371 37.5586 12.6185 37.8009 12.8256C38.0343 13.0356 38.3071 13.1694 38.6193 13.227C38.9255 13.2963 39.2387 13.2802 39.559 13.1787C39.8793 13.0771 40.1488 12.9084 40.3675 12.6725C40.5802 12.4484 40.7255 12.182 40.8035 11.8733C40.8726 11.5675 40.8505 11.2367 40.7372 10.8809C40.6267 10.5341 40.4534 10.2513 40.2171 10.0325C39.9748 9.82536 39.7006 9.68713 39.3945 9.61777C39.0822 9.56014 38.766 9.58211 38.4457 9.68368Z" fill="black"/>
<path d="M51.9085 5.69145L52.7625 15.4542L50.8099 15.6242L50.4768 11.8168C50.344 12.1188 50.1018 12.4022 49.7502 12.667C49.3893 12.9327 48.9345 13.0894 48.386 13.1372C47.6979 13.1971 47.1201 13.0179 46.6525 12.5996C46.1765 12.1913 45.9039 11.5921 45.8347 10.8018L45.437 6.25511L47.3896 6.08504L47.7385 10.0738C47.7743 10.4829 47.9241 10.8025 48.1878 11.0324C48.4515 11.2624 48.7693 11.3612 49.1412 11.3288C49.5132 11.2964 49.809 11.1442 50.0288 10.8721C50.2486 10.6 50.3406 10.2594 50.3048 9.85029L49.9559 5.86152L51.9085 5.69145Z" fill="black"/>
<path d="M65.6212 4.57382C66.2791 4.75094 66.8209 5.01764 67.2467 5.3739C67.6725 5.73017 67.9681 6.13841 68.1338 6.59862C68.2904 7.05641 68.3143 7.52198 68.2057 7.99534L66.2184 7.46033C66.2465 7.1779 66.1767 6.91748 66.0091 6.67905C65.8325 6.4382 65.546 6.26439 65.1494 6.15763C64.6808 6.03146 64.2907 6.06175 63.9791 6.24852C63.6586 6.43285 63.4496 6.70522 63.3521 7.06561L63.0744 8.09272C63.3409 7.89383 63.6583 7.75697 64.0266 7.68214C64.3859 7.60489 64.7953 7.62813 65.2549 7.75188C65.8768 7.91929 66.3806 8.21926 66.7665 8.65176C67.1433 9.08183 67.3941 9.58433 67.5191 10.1592C67.6416 10.7432 67.6212 11.337 67.458 11.9406C67.3337 12.4001 67.1369 12.8062 66.8675 13.159C66.5956 13.5208 66.2741 13.816 65.9029 14.0447C65.5202 14.2799 65.1164 14.4322 64.6916 14.5015C64.2644 14.5798 63.8345 14.5607 63.4019 14.4442C62.9152 14.3132 62.5271 14.1217 62.2375 13.8698C61.9364 13.6244 61.7221 13.3444 61.5944 13.0297L61.4117 13.7055L59.6543 13.2323L61.423 6.69122C61.5691 6.15063 61.8305 5.68456 62.2071 5.293C62.5747 4.89901 63.0441 4.62909 63.6153 4.48324C64.1865 4.33738 64.8551 4.36758 65.6212 4.57382ZM64.3743 9.3996C64.0679 9.3171 63.7735 9.31518 63.4912 9.39382C63.2089 9.47247 62.9628 9.61401 62.7528 9.81845C62.5428 10.0229 62.3988 10.2693 62.3209 10.5576C62.2356 10.8729 62.2334 11.1671 62.3143 11.4402C62.3927 11.7223 62.5353 11.9637 62.7421 12.1643C62.9489 12.365 63.2055 12.5066 63.5119 12.5891C63.8183 12.6716 64.1115 12.678 64.3914 12.6084C64.6713 12.5387 64.9162 12.4017 65.1262 12.1972C65.3337 12.0018 65.4801 11.7464 65.5654 11.4311C65.6482 11.1247 65.6504 10.8305 65.572 10.5484C65.4936 10.2664 65.3509 10.025 65.1442 9.82433C64.9374 9.62367 64.6808 9.48209 64.3743 9.3996Z" fill="black"/>
<path d="M77.8879 13.1302L74.5825 19.2052L72.9823 18.3382L73.4975 17.3913C73.2049 17.6362 72.8282 17.7718 72.3676 17.7982C71.9025 17.8329 71.436 17.7235 70.9683 17.4701C70.3692 17.1455 69.994 16.6928 69.8425 16.1118C69.6784 15.5347 69.7837 14.9017 70.1585 14.2131L72.3732 10.1426L74.0966 11.0762L72.1026 14.7409C71.9242 15.0688 71.8862 15.3826 71.9888 15.6823C72.0832 15.9776 72.274 16.203 72.5612 16.3586C72.8402 16.5098 73.1336 16.5467 73.4413 16.4693C73.7491 16.3918 73.9922 16.1892 74.1706 15.8612L76.1646 12.1966L77.8879 13.1302Z" fill="black"/>
<path d="M83.9544 17.6769C84.5107 18.1749 84.8917 18.7352 85.0975 19.3579C85.2963 19.9743 85.3263 20.59 85.1876 21.2049C85.0427 21.8268 84.7455 22.3876 84.2962 22.8873C83.8407 23.3939 83.3141 23.7493 82.7164 23.9533C82.1188 24.1574 81.5021 24.1941 80.8665 24.0635C80.2239 23.9266 79.6244 23.6092 79.0681 23.1112C78.5049 22.6069 78.1238 22.0466 77.925 21.4301C77.7262 20.8137 77.6962 20.198 77.8349 19.5831C77.9736 18.9682 78.2707 18.4074 78.7262 17.9007C79.1756 17.401 79.7022 17.0457 80.3061 16.8347C80.9037 16.6307 81.5204 16.5939 82.156 16.7246C82.7916 16.8552 83.3911 17.1726 83.9544 17.6769ZM82.7375 19.0302C82.4871 18.8061 82.2112 18.6593 81.9097 18.5898C81.602 18.5273 81.302 18.5468 81.0097 18.6485C80.7043 18.7509 80.4299 18.9374 80.1865 19.2081C79.9369 19.4857 79.7807 19.778 79.718 20.0851C79.6483 20.386 79.6643 20.6823 79.7661 20.9738C79.8617 21.2724 80.0347 21.5337 80.285 21.7578C80.5353 21.9819 80.8144 22.1252 81.1221 22.1878C81.4167 22.2511 81.7136 22.235 82.0127 22.1395C82.3119 22.0441 82.5863 21.8576 82.8359 21.58C83.0793 21.3093 83.2355 21.0169 83.3045 20.7029C83.3673 20.3958 83.3543 20.0961 83.2657 19.8038C83.1639 19.5122 82.9878 19.2543 82.7375 19.0302Z" fill="black"/>
<path d="M95.1422 32.5573L86.7994 37.699L85.7089 35.9372L88.8076 34.0274L86.494 30.2895L83.3952 32.1993L82.3047 30.4375L90.6475 25.2958L91.738 27.0576L88.1149 29.2906L90.4285 33.0284L94.0517 30.7955L95.1422 32.5573Z" fill="black"/>
</svg>
