<svg width="32" height="32" viewBox="0 0 32 32" fill="none" xmlns="http://www.w3.org/2000/svg">
<rect width="32" height="32" fill="#D1D1D1"/>
<g id="ANIMATION">
<path d="M-21162 -4048C-21162 -4049.1 -21161.1 -4050 -21160 -4050H1684C1685.1 -4050 1686 -4049.1 1686 -4048V32989C1686 32990.1 1685.11 32991 1684 32991H-21160C-21161.1 32991 -21162 32990.1 -21162 32989V-4048Z" fill="#8B8B8B"/>
<g id="logo xo&#195;&#161;y nh&#225;&#187;&#143;">
<rect x="-49.5" y="-35.5" width="175" height="517" rx="4.5" stroke="#9747FF" stroke-dasharray="10 5"/>
<g id="Property 1=Default">
<g id="Hong hao travel Hong hao travel">
</g>
<g id="Map HG line" filter="url(#filter0_i_8549_14857)">
<path d="M31.1867 6.74502C31.1867 6.87943 31.1882 7.01384 31.1867 7.14825C31.1852 7.30311 31.1081 7.3893 30.9523 7.39222C30.7994 7.39515 30.6699 7.45066 30.5636 7.55877C30.5228 7.60114 30.501 7.64935 30.4893 7.71217C30.3961 8.21328 30.3204 8.71731 30.1923 9.20965C30.1195 9.48869 29.9506 9.73559 29.6871 9.89484C29.4775 10.0219 29.2591 9.93867 29.0683 9.88607C28.748 9.79988 28.4976 9.88169 28.2647 10.0789C28.0186 10.2893 27.8497 10.5625 27.6838 10.8357C27.3416 11.4011 26.8903 11.873 26.3909 12.2864C25.9862 12.621 25.5203 12.881 25.0835 13.1761C24.8739 13.3179 24.8811 13.4829 25.0937 13.6203C25.382 13.8058 25.695 13.9461 25.9964 14.1082C26.9616 14.6269 27.9386 15.1236 28.8849 15.6744C29.23 15.8745 29.476 16.2237 29.7177 16.5568C30.1545 17.1572 30.3466 17.8731 30.6815 18.5203C30.881 18.9045 31.1416 19.2449 31.3789 19.6014C31.5754 19.8965 31.7749 20.1887 31.97 20.4853C32.0472 20.6022 31.9671 20.76 31.8259 20.7848C31.3206 20.8754 30.8154 20.9645 30.3117 21.058C30.0336 21.1091 29.7686 21.0142 29.5037 20.9703C29.3129 20.9396 29.1164 20.906 28.9257 20.8695C28.5355 20.7965 28.1409 20.738 27.7522 20.6533C27.7406 20.6504 27.7289 20.6489 27.7173 20.6504C27.3387 20.6796 26.966 20.5598 26.5904 20.5817C26.1653 20.6066 25.7809 20.4692 25.3922 20.3363C24.5929 20.066 23.8096 19.749 22.9986 19.5181C22.6783 19.4261 22.358 19.3209 22.0203 19.3165C21.7174 19.3121 21.5937 19.4436 21.5354 19.7387C21.435 20.2618 21.3171 20.7789 21.0972 21.2698C20.9458 21.6073 20.8337 21.9623 20.6968 22.3071C20.592 22.5686 20.4391 22.8067 20.2513 23.0098C19.9194 23.3678 19.57 23.7082 19.3006 24.1187C19.0924 24.4372 18.9352 24.782 18.826 25.1414C18.6629 25.6834 18.5508 26.2414 18.3907 26.7835C18.2611 27.2218 17.8811 27.5037 17.3788 27.324C17.1022 27.2247 16.8256 27.1195 16.5402 27.0508C16.185 26.9646 15.7176 27.0508 15.5735 27.3708C15.5123 27.5066 15.473 27.6542 15.4657 27.8061C15.4614 27.8821 15.457 27.9581 15.4657 28.034C15.5342 28.6783 15.2692 29.2086 14.9052 29.7098C14.6461 30.0662 14.3927 30.4271 14.1423 30.7894C14.0084 30.9837 13.8366 31.1444 13.6604 31.292C13.4638 31.4571 13.2848 31.6382 13.1013 31.815C13.0213 31.8924 12.9383 31.9362 12.8247 31.9362C12.6689 31.9348 12.516 31.9494 12.3603 31.9859C12.1419 32.0371 11.9279 31.9348 11.7124 31.9041C11.4372 31.8676 11.181 31.7478 10.9233 31.647C10.7544 31.5798 10.6335 31.4381 10.4923 31.3285C10.1546 31.0641 9.96092 30.6857 9.73525 30.3365C9.4892 29.9537 9.19656 29.6265 8.77143 29.4672C8.30554 29.2934 7.82072 29.2437 7.36648 29.5169C7.1874 29.625 7.05054 29.793 6.93552 29.9683C6.85836 30.0867 6.7579 30.1685 6.63561 30.2255C6.40411 30.3365 6.12021 30.1524 6.08964 29.8588C6.05324 29.5154 6.07799 29.175 6.18864 28.8419C6.38228 28.2605 6.3386 27.7302 5.8829 27.2627C5.53202 26.9018 5.13747 26.6286 4.67158 26.4416C4.19258 26.2488 3.73542 26.0033 3.30593 25.7184C3.03949 25.5417 2.85751 25.2904 2.78471 24.9485C2.72065 24.6505 2.73375 24.3583 2.7323 24.0632C2.7323 23.6819 2.64349 23.3254 2.47169 22.9923C2.25912 22.5803 2.10625 22.1493 2.0815 21.6862C2.07131 21.5094 2.04365 21.3005 2.22855 21.1573C2.32027 21.0857 2.40763 21.0331 2.52701 21.0419C2.58525 21.0463 2.64349 21.0478 2.70172 21.0419C2.82402 21.0302 2.99145 21.1004 3.04823 20.9543C3.09773 20.8272 2.96088 20.722 2.88517 20.6314C2.70318 20.4137 2.53138 20.1858 2.32901 19.9842C2.13537 19.7913 1.97231 19.5707 1.8107 19.3516C1.66948 19.1602 1.47002 19.0682 1.23853 19.0287C0.854166 18.963 0.446509 18.9469 0.171341 18.6065C0.0213821 18.421 -0.0237513 18.2018 0.0111907 17.9681C0.0242939 17.8819 0.0956338 17.8293 0.165518 17.7869C0.691103 17.4699 1.22251 17.1616 1.74519 16.8388C2.07859 16.6328 2.42219 16.4414 2.69153 16.1404C3.04677 15.746 3.49811 15.4625 3.91741 15.1426C4.31051 14.8416 4.68905 14.5261 5.02245 14.1594C5.11272 14.06 5.21318 14.0074 5.34712 14.0556C5.47233 14.0995 5.55386 14.1652 5.54804 14.3201C5.54221 14.4954 5.88144 14.8022 6.05761 14.7978C6.19883 14.7934 6.26144 14.6707 6.34151 14.586C6.49438 14.4253 6.67346 14.3493 6.88893 14.3931C7.19322 14.4559 7.49896 14.5202 7.79743 14.6108C8.16432 14.7218 8.52975 14.6985 8.88645 14.5611C9.34361 14.3843 9.65954 14.0396 9.9449 13.6568C10.1706 13.3544 10.3933 13.049 10.6292 12.7568C10.7675 12.5845 10.9349 12.4457 11.1388 12.3419C11.4678 12.1739 11.7837 11.9752 12.1055 11.7926C12.1885 11.7459 12.2351 11.6816 12.238 11.5837C12.2496 11.2155 12.2292 10.8547 12.12 10.4982C12.0414 10.2396 12.0065 9.96789 11.9497 9.70053C11.8958 9.44633 11.842 9.19212 11.7852 8.93791C11.7269 8.67932 11.6571 8.4222 11.6061 8.16215C11.5755 8.00875 11.5304 7.85973 11.5115 7.70195C11.5013 7.61137 11.5042 7.52371 11.5551 7.47404C11.7066 7.32794 11.8536 7.17308 12.0924 7.15263C12.3938 7.12779 12.6835 7.05328 12.899 6.81223C12.9222 6.78593 12.947 6.75817 12.9776 6.74356C13.2382 6.615 13.2673 6.36371 13.2717 6.12266C13.2746 5.92689 13.3299 5.74427 13.3634 5.55727C13.3911 5.40094 13.6706 5.2081 13.838 5.19203C14.1059 5.16573 14.3418 5.2417 14.5587 5.39364C14.5878 5.41409 14.614 5.43747 14.6431 5.455C15.0348 5.69606 15.2575 5.66538 15.6099 5.35127C16.0248 4.98019 16.4383 4.61057 16.9726 4.40311C17.3249 4.26578 17.6365 4.04664 17.9481 3.83334C18.2538 3.62442 18.6047 3.55138 18.9454 3.44911C19.2817 3.3483 19.6238 3.26357 19.966 3.18322C20.1407 3.14231 20.311 3.08533 20.4828 3.0415C20.608 3.00936 20.6852 2.9407 20.7522 2.84135C20.8715 2.66458 21.0404 2.61198 21.2137 2.73032C21.4088 2.86327 21.6432 2.89103 21.847 3.0006C21.9416 3.05173 22.0639 3.03858 22.1688 2.99183C22.4832 2.85158 22.6638 2.61783 22.7206 2.27012C22.7919 1.83037 22.9317 1.41254 23.2476 1.0809C23.3626 0.959645 23.4951 0.851535 23.629 0.75219C23.9406 0.521359 24.1939 0.202871 24.5696 0.0728463C25.0588 -0.0980853 25.4053 0.018791 25.5247 0.562266C25.6746 1.24599 26.0415 1.75294 26.6297 2.11088C26.7083 2.15909 26.7869 2.20876 26.8655 2.25697C27.1203 2.41768 27.3809 2.47465 27.6838 2.38992C27.9822 2.30664 28.2982 2.47173 28.4525 2.74931C28.7015 3.1949 28.9519 3.6405 29.1674 4.10362C29.326 4.44402 29.5983 4.6617 29.9128 4.85163C30.2229 5.03863 30.5519 5.19933 30.8067 5.47691C31.0513 5.74427 31.1328 6.0686 31.1809 6.409C31.1984 6.5215 31.1852 6.63399 31.1867 6.74502C31.1857 6.74502 31.1857 6.74502 31.1867 6.74502Z" fill="white"/>
</g>
</g>
</g>
</g>
<defs>
<filter id="filter0_i_8549_14857" x="0" y="0" width="52" height="36" filterUnits="userSpaceOnUse" color-interpolation-filters="sRGB">
<feFlood flood-opacity="0" result="BackgroundImageFix"/>
<feBlend mode="normal" in="SourceGraphic" in2="BackgroundImageFix" result="shape"/>
<feColorMatrix in="SourceAlpha" type="matrix" values="0 0 0 0 0 0 0 0 0 0 0 0 0 0 0 0 0 0 127 0" result="hardAlpha"/>
<feOffset dx="20" dy="4"/>
<feGaussianBlur stdDeviation="50"/>
<feComposite in2="hardAlpha" operator="arithmetic" k2="-1" k3="1"/>
<feColorMatrix type="matrix" values="0 0 0 0 1 0 0 0 0 1 0 0 0 0 1 0 0 0 0.25 0"/>
<feBlend mode="normal" in2="shape" result="effect1_innerShadow_8549_14857"/>
</filter>
</defs>
</svg>
