<svg width="76" height="503" viewBox="0 0 76 503" fill="none" xmlns="http://www.w3.org/2000/svg">
<path d="M19.6393 456.049C21.7533 455.842 23.9013 455.739 26.0835 455.739L27.9246 455.842H29.7658C32.0162 455.98 35.3235 456.049 39.6878 456.049C44.5294 456.049 48.2118 456.152 50.7349 456.358L54.1104 456.668C59.6339 457.012 64.3392 458.422 68.2261 460.898C69.6581 461.93 70.9197 463.478 72.0108 465.542C73.1018 467.606 73.9883 469.876 74.6703 472.353C75.4204 474.898 75.7954 477.89 75.7954 481.33C75.7954 482.912 75.7613 484.013 75.6931 484.632C75.4204 488.003 74.7044 491.03 73.5451 493.713C72.3176 496.327 70.5446 498.253 68.2261 499.492C65.1575 501.143 61.3046 502.037 56.6676 502.174L53.3944 502.381C52.8488 502.45 51.7237 502.484 50.0189 502.484C44.4271 502.828 39.074 503 33.9596 503C30.8228 503 27.686 502.897 24.5491 502.69C21.1395 502.484 17.8322 501.899 14.6272 500.936C11.354 499.904 8.48992 498.356 6.03501 496.293L4.80756 494.022C2.69361 489.62 1.63663 484.804 1.63663 479.576C1.63663 476.274 2.07988 473.178 2.96637 470.289C3.78467 467.331 5.01213 464.751 6.64874 462.549C8.83089 460.142 10.9789 458.56 13.0929 457.803C15.275 456.977 17.4572 456.393 19.6393 456.049ZM30.7887 472.043L25.4697 472.456C23.5604 472.593 21.8897 473.075 20.4576 473.9C18.9574 474.657 17.9004 475.655 17.2867 476.893C17.0821 477.443 16.9798 477.994 16.9798 478.544C16.9798 480.195 17.5254 481.812 18.6164 483.394C19.2984 484.219 20.2871 485.045 21.5828 485.87C22.8102 486.627 24.0718 487.212 25.3674 487.625C28.3679 488.313 32.1866 488.657 36.8237 488.657C39.1422 488.657 40.8811 488.622 42.0404 488.553H41.9381C43.3019 488.278 45.109 488.072 47.3594 487.934L48.7914 487.831C52.201 487.556 54.7241 487.177 56.3607 486.696H56.2584C57.6223 486.077 58.6792 485.182 59.4293 484.013C60.1113 482.775 60.4522 481.468 60.4522 480.092C60.4522 478.991 60.2136 477.89 59.7362 476.79C59.1907 475.62 58.4406 474.623 57.4859 473.797C56.5994 473.109 55.8493 472.697 55.2355 472.559C54.6218 472.353 53.6671 472.249 52.3715 472.249C51.2122 472.249 50.3598 472.215 49.8143 472.146L48.4845 472.043L46.5411 471.94H45.109L43.1656 471.837H38.2557L31.3001 472.043H30.7887Z" fill="url(#paint0_linear_11430_30495)"/>
<path d="M4.90984 404.516C12.2064 404.172 18.9574 404 25.1629 404C36.9601 404 48.0754 404.584 58.5088 405.754C63.214 406.304 67.1691 408.23 70.3742 411.533C73.511 414.766 75.3181 418.962 75.7954 424.122V424.019C75.9318 425.257 76 426.392 76 427.424C76 431.483 75.3522 435.369 74.0565 439.084C72.8291 442.799 70.9197 445.895 68.3284 448.371C65.7371 450.779 62.5662 452.052 58.8156 452.189C53.8376 452.189 46.3706 452.121 36.4145 451.983L29.7658 451.88C22.5375 451.742 17.1844 451.673 13.7066 451.673C9.20594 451.673 5.89862 451.708 3.78467 451.777V449.197L3.5801 443.006C3.5801 439.635 3.95515 436.677 4.70526 434.131C12.3428 434.406 18.2073 434.544 22.2988 434.544C32.1866 434.544 43.1315 434.097 55.1332 433.202H55.031C56.3948 432.79 57.4518 432.171 58.2019 431.345C58.8838 430.52 59.2248 429.625 59.2248 428.662C59.2248 427.561 58.7815 426.53 57.895 425.566C57.0085 424.603 55.8834 423.95 54.5195 423.606H54.6218C48.3481 423.331 38.4262 423.124 24.856 422.987L18.3096 422.883C15.0364 422.883 10.5357 422.815 4.80756 422.677L4.50069 420.51C4.50069 419.547 4.3984 418.24 4.19382 416.589C3.92106 413.768 3.81877 412.083 3.88696 411.533C3.88696 408.574 4.22792 406.511 4.90984 405.341L4.90984 404.516Z" fill="url(#paint1_linear_11430_30495)"/>
<path d="M54.8264 358.195C58.9861 355.444 62.498 353.242 65.362 351.591C68.2261 349.871 71.1243 348.461 74.0565 347.361V349.012C74.0565 349.837 74.1247 351.694 74.2611 354.584C74.3975 357.473 74.4657 359.778 74.4657 361.498C74.4657 362.461 74.3975 363.905 74.2611 365.832L74.1588 367.586C64.0664 372.057 56.4971 376.047 51.4509 379.556H54.1104C58.3383 379.556 63.7936 379.315 70.4764 378.833H70.3742C70.8515 378.765 71.6698 378.73 72.8291 378.73C73.9201 381.069 74.4657 384.922 74.4657 390.288L74.3634 392.764L74.3634 398.233C74.3634 398.99 68.192 399.368 55.8493 399.368C44.6658 399.368 33.4823 399.471 22.2988 399.678C11.0471 399.884 4.29611 400.194 2.04578 400.607L1.63663 397.82C1.09109 393.693 0.681935 390.288 0.409167 387.605C0.136398 384.922 1.36186e-05 382.17 1.34964e-05 379.349C1.33653e-05 376.322 0.136398 373.743 0.409166 371.61C0.886512 367.62 2.25035 363.905 4.50069 360.466C6.75102 356.957 9.5128 354.171 12.786 352.107C16.0592 349.975 19.4347 348.908 22.9125 348.908C26.2539 348.908 29.9022 350.009 33.8573 352.21C36.3123 353.586 38.358 355.409 39.9946 357.68C41.6312 359.95 42.62 362.667 42.961 365.832C46.2342 363.974 49.6438 361.807 53.1898 359.331C54.0081 358.849 54.5536 358.471 54.8264 358.195ZM28.7429 373.055C28.4702 372.092 27.7883 371.335 26.6972 370.785C25.6061 370.234 24.3105 369.959 22.8102 369.959C20.0144 369.959 18.2073 370.647 17.389 372.023C16.8434 372.917 16.5025 373.846 16.3661 374.809C16.2297 375.703 16.1615 376.735 16.1615 377.905L16.8775 382.342C18.9233 382.204 20.6622 382.136 22.0942 382.136C25.7766 382.136 28.0269 382.032 28.8452 381.826C28.9816 380.656 29.0498 379.212 29.0498 377.492C29.0498 375.91 28.9475 374.431 28.7429 373.055Z" fill="url(#paint2_linear_11430_30495)"/>
<path d="M36.7214 296.485C36.7214 293.527 36.8578 290.19 37.1306 286.475L37.3351 283.173L37.4374 281.419L39.5855 281.213C40.3356 281.144 41.9722 281.006 44.4953 280.8C46.9502 280.593 49.0642 280.49 50.8371 280.49C54.3149 280.49 57.7586 280.765 61.1682 281.316C64.2369 281.797 66.8282 283.001 68.9421 284.927C71.0561 286.854 72.6586 289.296 73.7496 292.254C75.2499 297.276 76 301.919 76 306.185C76 309.487 75.4886 312.479 74.4657 315.162C72.079 320.597 67.9192 324.14 61.9865 325.791C60.1454 326.272 57.7586 326.685 54.8264 327.029C55.5765 327.029 49.4733 327.407 36.5168 328.164C34.3347 328.164 32.5958 328.13 31.3001 328.061C25.1629 327.923 20.6622 327.579 17.7981 327.029C12.3428 326.066 8.31944 323.83 5.72814 320.322C3.81877 317.707 2.52312 314.13 1.84119 309.59C1.63662 308.008 1.53433 306.391 1.53433 304.74C1.53433 297.861 3.27323 292.219 6.75102 287.817C10.1606 283.414 15.0363 281.213 21.3782 281.213L24.6514 281.419H26.0835C26.1516 281.9 26.1857 282.485 26.1857 283.173C26.1857 283.861 26.1857 284.48 26.1857 285.031L26.1857 289.984C26.1857 292.598 26.0494 295.109 25.7766 297.517C20.1848 299.168 17.389 301.025 17.389 303.089C17.389 303.433 17.3549 303.811 17.2867 304.224C17.2185 304.637 17.1844 305.015 17.1844 305.359C17.1844 306.46 17.5935 307.423 18.4118 308.248C18.48 308.317 19.2983 308.558 20.8668 308.971C25.1629 310.278 31.5047 310.931 39.8923 310.931C44.052 310.931 47.4957 310.794 50.2234 310.518C54.7923 310.037 57.6904 309.108 58.9179 307.732C59.327 307.044 59.5998 306.494 59.7362 306.081C59.8044 305.325 59.7703 304.43 59.6339 303.398C59.4293 302.298 59.1566 301.335 58.8156 300.509C58.3383 299.34 57.2472 298.583 55.5424 298.239C54.7241 298.032 53.6671 297.826 52.3715 297.62C51.0758 297.413 50.2916 297.345 50.0188 297.413V299.89C50.1552 302.435 49.9506 304.396 49.4051 305.772C47.9731 305.909 46.2001 305.978 44.0861 305.978H42.961C42.6882 305.978 42.245 305.978 41.6312 305.978C40.9493 305.909 39.6878 305.978 37.8466 306.185C37.8466 305.634 37.7102 304.465 37.4374 302.676C36.9601 299.924 36.7214 297.861 36.7214 296.485Z" fill="url(#paint3_linear_11430_30495)"/>
<path d="M74.1588 233.682C74.6361 235.884 74.8748 238.257 74.8748 240.802C74.8748 243.829 74.4998 247.131 73.7496 250.709C72.454 251.19 69.7263 251.947 65.5666 252.979C61.3387 254.011 58.5428 254.836 57.179 255.455L57.0767 257.519L57.179 259.273C57.9973 259.549 60.009 259.996 63.214 260.615C65.8735 261.096 68.0556 261.578 69.7604 262.059C71.397 262.541 72.8973 263.229 74.2611 264.123C74.3975 264.811 74.4657 265.843 74.4657 267.219C74.4657 267.838 74.3975 269.18 74.2611 271.243C73.9883 277.228 73.8519 280.565 73.8519 281.253C73.511 281.253 72.7268 281.184 71.4993 281.046C70.2037 280.909 68.7716 280.702 67.2032 280.427L54.3149 278.157C43.7452 276.368 34.5393 274.683 26.6972 273.101C18.8551 271.45 10.5698 269.317 1.84119 266.703C1.70481 265.74 1.63662 264.433 1.63662 262.782V262.163C1.63662 257.691 1.46614 253.323 1.12518 249.058C4.3302 248.232 7.50113 247.475 10.638 246.787C13.7066 246.099 16.4684 245.48 18.9233 244.93C28.402 242.729 34.7097 241.25 37.8466 240.493L74.1588 233.682ZM44.0861 255.249C30.4477 256.762 23.6285 257.485 23.6285 257.416L22.6057 257.519C22.6057 257.519 23.424 257.588 25.0606 257.726C30.175 257.932 34.2324 258.241 37.2328 258.654L44.0861 259.583V255.249Z" fill="url(#paint4_linear_11430_30495)"/>
<path d="M66.4872 186.876C67.3055 186.807 68.4989 186.773 70.0673 186.773C71.4993 186.773 72.5222 186.91 73.1359 187.186C73.6815 187.392 74.0224 187.736 74.1588 188.217C74.2952 188.699 74.3634 189.524 74.3634 190.694V191.416L74.2611 193.067L74.3634 195.75C74.4998 200.015 74.568 206.31 74.568 214.634C74.568 222.545 74.5339 228.84 74.4657 233.518H72.113C60.8614 233.036 49.5415 232.795 38.1534 232.795C34.812 232.795 29.0498 232.864 20.8668 233.002H14.6272C13.4679 233.071 11.3881 233.105 8.38762 233.105L1.7389 233.208C1.39795 232.245 1.12518 230.904 0.920599 229.184C0.647835 227.464 0.511452 225.744 0.511452 224.024C0.511452 222.098 0.647834 220.172 0.920599 218.246C1.19337 216.319 1.56842 214.772 2.04577 213.602C6.95559 213.74 10.8766 213.809 13.8089 213.809C17.9004 213.809 24.0377 213.74 32.2207 213.602C36.3122 213.533 42.3472 213.499 50.3257 213.499H56.9744C56.9744 211.229 57.0767 208.443 57.2813 205.141L57.4859 199.671C57.6904 196.782 57.7927 194.065 57.7927 191.52C57.7927 189.731 57.7245 188.149 57.5881 186.773C59.1566 186.773 60.1794 186.807 60.6568 186.876H60.5545C62.3957 187.014 63.7254 187.048 64.5437 186.979L66.4872 186.876Z" fill="url(#paint5_linear_11430_30495)"/>
<path d="M66.4872 139.312C67.3055 139.243 68.4989 139.209 70.0673 139.209C71.4993 139.209 72.5222 139.346 73.1359 139.621C73.6815 139.828 74.0224 140.172 74.1588 140.653C74.2952 141.135 74.3634 141.96 74.3634 143.13V143.852L74.2611 145.503L74.3634 148.186C74.4998 152.451 74.568 158.746 74.568 167.07C74.568 174.981 74.5339 181.276 74.4657 185.954H72.113C60.8614 185.472 49.5415 185.231 38.1534 185.231C34.812 185.231 29.0498 185.3 20.8668 185.438H14.6272C13.4679 185.507 11.3881 185.541 8.38762 185.541L1.7389 185.644C1.39794 184.681 1.12517 183.34 0.920597 181.62C0.647833 179.9 0.51145 178.18 0.51145 176.46C0.51145 174.534 0.647832 172.608 0.920597 170.682C1.19337 168.755 1.56842 167.208 2.04577 166.038C6.95559 166.176 10.8766 166.244 13.8089 166.244C17.9004 166.244 24.0377 166.176 32.2207 166.038C36.3122 165.969 42.3472 165.935 50.3257 165.935H56.9744C56.9744 163.665 57.0767 160.879 57.2813 157.576L57.4859 152.107C57.6904 149.218 57.7927 146.501 57.7927 143.955C57.7927 142.167 57.7245 140.585 57.5881 139.209C59.1566 139.209 60.1794 139.243 60.6568 139.312H60.5545C62.3957 139.449 63.7254 139.484 64.5437 139.415L66.4872 139.312Z" fill="url(#paint6_linear_11430_30495)"/>
<path d="M64.7483 91.0254C68.2261 91.0254 71.3288 91.4037 74.0565 92.1605C74.0565 95.1874 74.1247 99.6589 74.2611 105.575L74.3634 119.093C74.3634 125.216 74.1588 131.338 73.7496 137.461C71.5675 137.392 63.0776 137.495 48.2799 137.77C39.8923 137.977 33.4482 138.08 28.9475 138.08C19.6052 138.08 10.9107 137.839 2.86407 137.358L2.55721 128.277C2.14805 118.096 1.94348 110.322 1.94348 104.956C1.94348 100.347 2.11396 95.8753 2.45492 91.5413C3.88695 91.2662 5.55765 91.1286 7.46703 91.1286C8.48991 91.1286 10.1606 91.1974 12.4791 91.335C14.6613 91.4725 16.3661 91.5413 17.5935 91.5413C18.48 95.6689 18.9233 100.278 18.9233 105.369L19.0256 118.783C22.2306 119.127 24.8901 119.299 27.004 119.299C28.6406 119.299 30.0727 119.093 31.3001 118.68L30.4818 111.87C30.4818 110.907 30.55 109.462 30.6864 107.536L30.7887 106.194C32.8344 105.85 35.0507 105.678 37.4374 105.678L45.6204 105.885C46.2342 108.086 46.541 111.044 46.541 114.759L46.4388 117.442C46.4388 117.924 46.5069 118.233 46.6433 118.371L51.9623 118.783C54.7582 118.783 57.0767 118.646 58.9179 118.371C58.9179 114.793 59.0202 111.319 59.2248 107.949C59.2929 106.779 59.3611 105.334 59.4293 103.615C59.4975 101.895 59.5316 99.8653 59.5316 97.5263L59.327 91.2318C62.4639 91.0942 64.271 91.0254 64.7483 91.0254Z" fill="url(#paint7_linear_11430_30495)"/>
<path d="M54.8264 46.7109C58.9861 43.9592 62.498 41.7578 65.362 40.1068C68.2261 38.3869 71.1243 36.9767 74.0565 35.876V37.527C74.0565 38.3526 74.1247 40.21 74.2611 43.0993C74.3975 45.9886 74.4657 48.2932 74.4657 50.013C74.4657 50.9761 74.3975 52.4208 74.2611 54.347L74.1588 56.1012C64.0664 60.5728 56.4971 64.5628 51.4509 68.0713H54.1104C58.3383 68.0713 63.7936 67.8305 70.4764 67.3489H70.3741C70.8515 67.2801 71.6698 67.2457 72.829 67.2457C73.9201 69.5847 74.4657 73.4371 74.4657 78.803L74.3634 81.2796V86.7486C74.3634 87.5054 68.192 87.8837 55.8493 87.8837C44.6658 87.8837 33.4823 87.9869 22.2988 88.1933C11.0471 88.3997 4.2961 88.7093 2.04576 89.122L1.63661 86.3359C1.09107 82.2083 0.681922 78.803 0.409153 76.1201C0.136385 73.4371 1.22211e-07 70.6854 0 67.8649C-1.31154e-07 64.838 0.136384 62.2582 0.409152 60.1256C0.886498 56.1356 2.25034 52.4208 4.50067 48.9811C6.75101 45.4727 9.51279 42.6865 12.786 40.6227C16.0592 38.4901 19.4347 37.4238 22.9125 37.4238C26.2539 37.4238 29.9022 38.5245 33.8573 40.7259C36.3122 42.1018 38.358 43.9248 39.9946 46.195C41.6312 48.4652 42.62 51.1825 42.961 54.347C46.2342 52.4896 49.6438 50.3226 53.1898 47.846C54.0081 47.3645 54.5536 46.9861 54.8264 46.7109ZM28.7429 61.5703C28.4702 60.6072 27.7882 59.8505 26.6972 59.3001C25.6061 58.7498 24.3104 58.4746 22.8102 58.4746C20.0144 58.4746 18.2073 59.1625 17.389 60.5384C16.8434 61.4327 16.5025 62.3614 16.3661 63.3245C16.2297 64.2188 16.1615 65.2507 16.1615 66.4202L16.8775 70.8574C18.9233 70.7198 20.6622 70.651 22.0942 70.651C25.7766 70.651 28.0269 70.5478 28.8452 70.3414C28.9816 69.172 29.0498 67.7273 29.0498 66.0075C29.0498 64.4252 28.9475 62.9462 28.7429 61.5703Z" fill="url(#paint8_linear_11430_30495)"/>
<path d="M74.5679 20.0283C74.3634 21.6793 74.2611 23.2616 74.2611 24.775C74.2611 25.8069 74.3293 27.2172 74.4657 29.0058L74.5679 33.3398C74.5679 34.7156 74.4657 36.2979 74.2611 38.0865C69.3513 36.4355 60.8955 33.271 48.8937 28.593L38.2557 24.3623C35.528 25.0502 32.8685 25.9101 30.2772 26.942C27.6178 27.9739 24.4809 29.281 20.8668 30.8632C16.2979 32.7206 12.786 34.1309 10.3311 35.094C7.87618 35.9883 5.28488 36.7794 2.5572 37.4674C2.62539 36.1603 2.5231 34.1309 2.25034 31.3792C1.97757 29.1778 1.84118 27.5611 1.84118 26.5292C1.84118 24.1215 2.28443 22.1265 3.17093 20.5442C5.69403 19.9251 8.83086 18.9964 12.5814 17.7581C16.332 16.451 19.6734 15.2127 22.6056 14.0433C21.9237 13.6993 18.821 12.5986 13.2974 10.7412C7.16016 8.67738 3.81875 7.50789 3.27321 7.23272C2.5231 3.44909 2.14805 -0.300145 2.14805 -4.01498C2.14805 -6.28516 2.28443 -8.28017 2.5572 -10C8.69448 -8.34896 14.6272 -6.31956 20.3553 -3.9118C26.0152 -1.50403 33.1413 1.76365 41.7335 5.89125C48.4163 9.19333 54.2808 11.9451 59.327 14.1464C64.3051 16.3478 69.3854 18.3084 74.5679 20.0283Z" fill="url(#paint9_linear_11430_30495)"/>
<defs>
<linearGradient id="paint0_linear_11430_30495" x1="103" y1="945.5" x2="90.4999" y2="77" gradientUnits="userSpaceOnUse">
<stop stop-color="white" stop-opacity="0"/>
<stop offset="1" stop-color="#0C8C1E" stop-opacity="0.14"/>
</linearGradient>
<linearGradient id="paint1_linear_11430_30495" x1="103" y1="945.5" x2="90.4999" y2="77" gradientUnits="userSpaceOnUse">
<stop stop-color="white" stop-opacity="0"/>
<stop offset="1" stop-color="#0C8C1E" stop-opacity="0.14"/>
</linearGradient>
<linearGradient id="paint2_linear_11430_30495" x1="103" y1="945.5" x2="90.4999" y2="77" gradientUnits="userSpaceOnUse">
<stop stop-color="white" stop-opacity="0"/>
<stop offset="1" stop-color="#0C8C1E" stop-opacity="0.14"/>
</linearGradient>
<linearGradient id="paint3_linear_11430_30495" x1="103" y1="945.5" x2="90.4999" y2="77" gradientUnits="userSpaceOnUse">
<stop stop-color="white" stop-opacity="0"/>
<stop offset="1" stop-color="#0C8C1E" stop-opacity="0.14"/>
</linearGradient>
<linearGradient id="paint4_linear_11430_30495" x1="103" y1="945.5" x2="90.4999" y2="77" gradientUnits="userSpaceOnUse">
<stop stop-color="white" stop-opacity="0"/>
<stop offset="1" stop-color="#0C8C1E" stop-opacity="0.14"/>
</linearGradient>
<linearGradient id="paint5_linear_11430_30495" x1="103" y1="945.5" x2="90.4999" y2="77" gradientUnits="userSpaceOnUse">
<stop stop-color="white" stop-opacity="0"/>
<stop offset="1" stop-color="#0C8C1E" stop-opacity="0.14"/>
</linearGradient>
<linearGradient id="paint6_linear_11430_30495" x1="103" y1="945.5" x2="90.4999" y2="77" gradientUnits="userSpaceOnUse">
<stop stop-color="white" stop-opacity="0"/>
<stop offset="1" stop-color="#0C8C1E" stop-opacity="0.14"/>
</linearGradient>
<linearGradient id="paint7_linear_11430_30495" x1="103" y1="945.5" x2="90.4999" y2="77" gradientUnits="userSpaceOnUse">
<stop stop-color="white" stop-opacity="0"/>
<stop offset="1" stop-color="#0C8C1E" stop-opacity="0.14"/>
</linearGradient>
<linearGradient id="paint8_linear_11430_30495" x1="103" y1="945.5" x2="90.4999" y2="77" gradientUnits="userSpaceOnUse">
<stop stop-color="white" stop-opacity="0"/>
<stop offset="1" stop-color="#0C8C1E" stop-opacity="0.14"/>
</linearGradient>
<linearGradient id="paint9_linear_11430_30495" x1="103" y1="945.5" x2="90.4999" y2="77" gradientUnits="userSpaceOnUse">
<stop stop-color="white" stop-opacity="0"/>
<stop offset="1" stop-color="#0C8C1E" stop-opacity="0.14"/>
</linearGradient>
</defs>
</svg>
