<svg width="375" height="184" viewBox="0 0 375 184" fill="none" xmlns="http://www.w3.org/2000/svg">
<g opacity="0.3" clip-path="url(#clip0_8629_26284)">
<mask id="mask0_8629_26284" style="mask-type:luminance" maskUnits="userSpaceOnUse" x="-11" y="0" width="386" height="191">
<path d="M374.999 0.257812H-10.0781V190.799H374.999V0.257812Z" fill="white"/>
</mask>
<g mask="url(#mask0_8629_26284)">
<path d="M377.05 111.198C372.973 111.659 370.129 111.225 364.999 111.225C359.87 111.225 359.48 111.031 355.136 111.713C350.798 112.395 348.297 112.101 342.116 112.3C335.934 112.494 335.015 112.589 332.119 114.445C329.228 116.301 326.6 116.983 323.57 117.669C320.546 118.351 322.128 118.938 316.998 120.314C311.869 121.693 309.892 123.328 305.554 124.791C303.51 125.481 301.354 126.083 299.028 126.579C296.404 127.139 293.565 127.562 290.428 127.817C284.508 128.301 283.851 128.698 280.303 129.456C276.75 130.214 278.326 131.041 273.464 130.942C268.597 130.847 270.306 131.335 266.625 130.942C262.939 130.553 261.362 129.38 258.862 128.892C256.367 128.404 255.314 128.991 253.337 128.309C251.366 127.623 246.832 127.855 246.832 127.855" stroke="url(#paint0_linear_8629_26284)" stroke-width="0.468749" stroke-miterlimit="10"/>
<path d="M-11.1094 84.0119C-11.1094 84.0119 5.7981 82.499 16.6778 82.499C27.5575 82.499 35.372 86.0317 44.2134 87.5446C53.0497 89.0575 60.5304 94.324 66.9895 96.862C73.4485 99.4038 78.8447 105.116 86.3666 104.701C93.8884 104.285 109.682 110.017 111.807 110.913" stroke="url(#paint1_linear_8629_26284)" stroke-width="0.468749" stroke-miterlimit="10"/>
<path opacity="0.12" d="M53.4404 79.6146V83.3263C46.6733 81.1999 38.9152 79.3936 30.4076 78.2084C9.87012 75.3503 -10.082 75.9219 -10.082 75.9219V66.2919C-10.082 66.2919 -4.03375 61.376 8.14497 56.1437C20.3237 50.9077 26.5209 46.7843 31.0032 44.7227C35.4906 42.661 37.416 40.5994 38.9101 40.4431C39.8754 40.3402 41.0203 40.7671 42.0575 41.3006C42.0575 41.3615 42.0677 42.2876 40.8355 45.0428C39.5519 47.8971 37.8422 48.0534 40.8355 52.1767C43.8237 56.3 43.1819 57.0926 46.6014 58.5217C50.0209 59.9469 50.2057 60.4233 50.8629 62.3287C51.515 64.2303 51.9155 64.5466 50.8629 67.8772C49.8104 71.2079 49.1378 72.637 50.8629 74.5386C52.5829 76.4402 53.4404 77.5529 53.4404 79.6146Z" fill="url(#paint2_linear_8629_26284)"/>
<path opacity="0.38" d="M107.675 80.5398C106.807 81.3363 106.15 81.9994 104.62 82.9445C102.242 84.4154 99.9987 86.8658 94.8541 90.0974C89.7043 93.329 90.3667 93.9158 88.3848 96.7053C86.4081 99.491 84.1643 99.2052 84.1643 99.2052H84.1541C81.3199 97.4561 78.6398 95.5773 75.59 93.4509C70.625 89.9907 63.021 86.3323 53.4403 83.3255V79.6138C53.4403 77.5522 52.5829 76.4394 50.8628 74.5378C49.1377 72.6362 49.8103 71.2071 50.8628 67.8765C51.9154 64.5458 51.5149 64.2295 50.8628 62.3279C50.2056 60.4225 50.0208 59.9462 46.6013 58.5209C43.1818 57.0919 43.8236 56.2992 40.8354 52.1759C37.8421 48.0526 39.5518 47.8963 40.8354 45.042C42.0677 42.2868 42.0574 41.3608 42.0574 41.2998C42.6222 41.5894 43.1562 41.9095 43.6131 42.1877C44.8916 42.9804 46.3908 45.9909 49.5947 48.689C52.7985 51.3832 54.7239 53.2886 59.4218 54.7139C64.1249 56.143 64.3354 57.2519 68.1811 59.7899C72.0267 62.3279 74.3782 63.5969 79.5075 65.1822C84.6367 66.7675 85.7047 69.9381 89.9764 71.9998C94.2482 74.0614 96.8154 76.7595 101.303 78.0285C105.441 79.1946 107.397 80.3645 107.675 80.5398Z" fill="url(#paint3_linear_8629_26284)"/>
<path d="M40.191 40.4258C40.191 40.4258 36.9872 45.0407 32.9259 46.4659C28.8646 47.895 30.1533 49.1449 26.9443 50.9055C22.729 53.2187 21.6046 53.1272 19.4636 55.5052C17.3277 57.8832 17.112 58.8206 13.2664 60.4936C9.42075 62.1665 8.77896 63.1192 4.93331 64.8608C1.08767 66.6061 0.230234 66.6061 -2.97361 69.1441C-6.17746 71.6821 -10.0898 74.3764 -10.0898 74.3764" stroke="url(#paint4_linear_8629_26284)" stroke-width="0.117187" stroke-miterlimit="10"/>
<path d="M39.7022 50.4062C39.7022 50.4062 37.2839 51.7629 34.4395 53.8665C31.6515 55.9319 27.8007 59.457 25.4492 60.4935C23.0977 61.5339 21.6036 62.9591 20.1095 64.068C18.6154 65.177 16.6284 65.8134 15.0572 67.3987C13.4861 68.984 10.4928 71.2057 7.71509 72.1546C4.9374 73.1073 -0.402344 75.8702 -0.402344 75.8702" stroke="url(#paint5_linear_8629_26284)" stroke-width="0.117187" stroke-miterlimit="10"/>
<path d="M44.8423 57.624C44.8423 57.624 44.2621 58.4205 42.6088 59.72C40.9555 61.0196 40.6628 61.2978 38.7168 63.1461C36.7708 64.9944 35.7029 65.4974 33.6593 66.1491C31.6158 66.8008 30.6454 67.7383 29.5722 68.4585C28.5043 69.1788 28.8893 69.6133 26.3632 70.768C23.8318 71.9227 22.6663 72.4295 20.3301 73.5119C17.9939 74.5942 16.4124 76.7245 16.0273 76.694" stroke="url(#paint6_linear_8629_26284)" stroke-width="0.117187" stroke-miterlimit="10"/>
<path d="M51.492 65.207C51.492 65.207 49.3253 67.2992 45.5308 68.7436C41.7364 70.1879 41.0535 71.1254 38.3322 73.2214C35.6058 75.3137 34.2041 76.9181 30.918 78.2824" stroke="url(#paint7_linear_8629_26284)" stroke-width="0.117187" stroke-miterlimit="10"/>
<path d="M51.4928 75.249C51.4928 75.249 50.4916 77.2764 48.3505 78.2824C46.2095 79.2885 44.8438 80.9462 44.8438 80.9462" stroke="url(#paint8_linear_8629_26284)" stroke-width="0.117187" stroke-miterlimit="10"/>
<path d="M-10.082 70.3525C-10.082 70.3525 -6.84738 67.8374 -3.91052 66.0768C-0.973666 64.3162 3.42649 62.8071 5.57265 61.4695C7.71882 60.1281 11.7801 58.0322 13.5874 57.0299C15.3947 56.0277 19.1222 53.1734 22.3928 51.3327C25.6686 49.4883 27.8147 47.3085 29.9558 46.0547C32.0968 44.801 33.6833 43.2881 33.6833 43.2881" stroke="url(#paint9_linear_8629_26284)" stroke-width="0.117187" stroke-miterlimit="10"/>
<path d="M-10.082 68.0891C-10.082 68.0891 -7.63799 66.3475 -5.26584 65.2081C-2.89369 64.0686 -0.408574 62.3079 1.73253 61.3018C3.87362 60.2957 6.36387 58.5541 8.39201 57.6243C10.4253 56.6944 14.4867 54.5984 16.52 53.4246C18.5532 52.2508 20.2476 50.4102 20.2476 50.4102" stroke="url(#paint10_linear_8629_26284)" stroke-width="0.117187" stroke-miterlimit="10"/>
<path d="M-6.28516 75.8743C-6.28516 75.8743 -2.33169 73.6373 0.148206 71.7434C2.63324 69.8494 5.23123 68.8243 8.50182 67.1551C11.7775 65.4898 14.3704 63.6568 16.8554 62.3078C19.3405 60.9625 21.1478 59.9565 22.3903 58.7827C23.6328 57.609 24.4235 56.6868 26.2308 55.5131C28.0381 54.3393 29.0547 54.1717 30.9185 52.4949C32.7822 50.8181 36.5047 48.8899 37.7472 47.5523C38.9897 46.2147 40.8329 45.0371 40.8329 45.0371" stroke="url(#paint11_linear_8629_26284)" stroke-width="0.117187" stroke-miterlimit="10"/>
<path d="M8.05469 76.1337C8.05469 76.1337 11.2175 75.0438 14.0362 73.1994C16.8601 71.355 17.6868 70.8519 21.6762 68.676C25.6656 66.4962 25.8915 65.6578 29.0542 63.9848C32.217 62.3119 32.7818 61.8813 34.3632 60.4598C35.9446 59.0384 37.3206 57.9485 39.1741 56.8167C41.0276 55.6849 42.2701 54.1758 42.2701 54.1758" stroke="url(#paint12_linear_8629_26284)" stroke-width="0.117187" stroke-miterlimit="10"/>
<path d="M23.6328 77.3081C23.6328 77.3081 26.005 75.5627 28.716 74.3813C31.427 73.1999 32.7825 72.03 35.2625 70.3531C37.7476 68.6763 38.9029 67.9065 41.2032 66.5308C43.5034 65.155 44.8128 64.3966 46.3018 63.1428C47.7959 61.889 49.9935 60.498 49.9935 60.498" stroke="url(#paint13_linear_8629_26284)" stroke-width="0.117187" stroke-miterlimit="10"/>
<path d="M37.4766 79.3655C37.4766 79.3655 40.0028 78.508 41.8102 76.6939C43.6177 74.8799 44.8089 74.8799 46.3031 73.7061C47.7973 72.5323 49.995 71.2822 49.995 71.2822" stroke="url(#paint14_linear_8629_26284)" stroke-width="0.117187" stroke-miterlimit="10"/>
<path d="M48.8125 81.9647C48.8125 81.9647 50.2194 81.1606 51.4927 79.9868C52.7661 78.813 53.2436 78.0928 53.2436 78.0928" stroke="url(#paint15_linear_8629_26284)" stroke-width="0.117187" stroke-miterlimit="10"/>
<path d="M46.9141 81.4608C46.9141 81.4608 48.6136 80.249 49.9999 79.3648C51.3862 78.4807 52.6031 76.6934 52.6031 76.6934" stroke="url(#paint16_linear_8629_26284)" stroke-width="0.117187" stroke-miterlimit="10"/>
<path d="M50.8594 82.5472C50.8594 82.5472 52.8106 81.503 53.4371 80.5654" stroke="url(#paint17_linear_8629_26284)" stroke-width="0.117187" stroke-miterlimit="10"/>
<path d="M41.2031 80.1117C41.2031 80.1117 42.5073 79.0904 44.2633 78.0958C46.0193 77.1011 46.2247 76.1484 47.4621 75.3214C48.6995 74.4944 50.168 73.5684 50.168 73.5684" stroke="url(#paint18_linear_8629_26284)" stroke-width="0.117187" stroke-miterlimit="10"/>
<path d="M34.8164 78.8897C34.8164 78.8897 37.245 77.7122 38.3798 76.4088C39.5145 75.1093 41.4554 74.3433 43.7351 72.7351C46.0148 71.1268 50.0506 69.2099 51.0261 67.335" stroke="url(#paint19_linear_8629_26284)" stroke-width="0.117187" stroke-miterlimit="10"/>
<path d="M27.1367 77.6357C27.1367 77.6357 29.9248 76.561 31.9888 74.8004C34.0529 73.0397 36.841 72.3499 38.4892 70.9704C40.1425 69.5908 42.2271 67.8302 44.8457 66.5268C47.4643 65.2273 50.0573 64.1183 51.0277 62.7959" stroke="url(#paint20_linear_8629_26284)" stroke-width="0.117187" stroke-miterlimit="10"/>
<path d="M19.6484 76.8433C19.6484 76.8433 21.2658 75.4408 23.6328 74.3585C25.9999 73.2724 28.4747 72.2778 30.4361 70.9782C32.3975 69.6749 33.0136 68.7564 35.9044 67.3388C38.7951 65.9249 41.0902 64.6216 42.2609 63.4707C43.4367 62.3236 45.5675 60.5439 48.1656 59.252" stroke="url(#paint21_linear_8629_26284)" stroke-width="0.117187" stroke-miterlimit="10"/>
<path d="M11.8789 76.412C11.8789 76.412 15.4576 74.4875 17.27 73.1118C19.0824 71.7399 23.1078 70.7453 24.3451 69.5944C25.5825 68.4474 27.9854 67.3613 30.912 65.6464C33.8386 63.9315 35.6408 62.472 37.4737 60.94C39.3067 59.4081 42.0741 57.4608 43.7325 56.5957" stroke="url(#paint22_linear_8629_26284)" stroke-width="0.117187" stroke-miterlimit="10"/>
<path d="M4.23047 75.8746C4.23047 75.8746 6.49986 74.6361 9.08245 73.569C11.6599 72.502 14.2425 70.6652 16.7172 68.5197C19.192 66.3742 23.4946 65.0747 25.1633 64.0001C26.832 62.9292 29.1013 60.7685 31.7815 59.2442C34.4616 57.7198 35.9557 55.5743 37.4806 54.5797C39.0055 53.5851 41.2082 52.6934 41.2082 52.6934" stroke="url(#paint23_linear_8629_26284)" stroke-width="0.117187" stroke-miterlimit="10"/>
<path d="M-3.19922 75.8747C-3.19922 75.8747 -0.000507394 73.3481 2.67963 72.3496C5.36491 71.355 8.6663 69.7087 10.5198 68.0434C12.3785 66.3781 16.9172 64.6518 18.8786 63.1389C20.8399 61.626 24.0386 59.4348 26.4107 57.6208C28.7828 55.8069 30.9495 54.4845 33.2188 52.6934C35.4882 50.9061 39.4109 48.9131 39.4109 48.9131" stroke="url(#paint24_linear_8629_26284)" stroke-width="0.117187" stroke-miterlimit="10"/>
<path d="M-9.59375 75.8738C-9.59375 75.8738 -5.15766 73.271 -1.95895 71.278C1.23976 69.2849 3.30378 67.6767 6.29712 66.1448C9.29045 64.6128 12.4892 63.3438 14.5532 61.8729C16.6172 60.4019 19.0098 58.527 21.6848 56.5911C24.3547 54.6552 26.5214 54.095 28.4827 52.6926C30.444 51.2864 31.6712 49.3734 33.689 48.2225C35.7068 47.0754 41.791 42.3271 41.791 42.3271" stroke="url(#paint25_linear_8629_26284)" stroke-width="0.117187" stroke-miterlimit="10"/>
<path d="M-10.082 72.3542C-10.082 72.3542 -7.01681 70.0182 -4.02348 68.048C-1.03014 66.074 2.12236 64.7326 5.08489 63.1435C8.04742 61.5544 11.4515 59.7938 13.3101 58.5667C15.1688 57.3396 16.9196 55.8115 18.7782 54.5082C20.6369 53.2049 24.041 51.5167 25.6891 50.4077C27.3424 49.2988 28.6106 47.843 30.9159 46.4673C33.2212 45.0878 34.8591 43.3577 36.0503 41.8867" stroke="url(#paint26_linear_8629_26284)" stroke-width="0.117187" stroke-miterlimit="10"/>
<path d="M-11.1094 66.295C-11.1094 66.295 -4.03422 61.379 8.1445 56.1468C20.3232 50.9145 26.5204 46.7912 31.0078 44.7295C35.4953 42.6679 37.4155 40.6062 38.9148 40.4462C40.4089 40.2861 42.3343 41.3989 43.6178 42.1915C44.9014 42.9842 46.3955 45.9985 49.5994 48.6928C52.8032 51.3871 54.7286 53.2925 59.4266 54.7177C64.1296 56.1468 64.3402 57.2557 68.1858 59.7937C72.0314 62.3317 74.383 63.6007 79.5122 65.186C84.6414 66.7713 85.7094 69.9419 89.9812 72.0036C94.253 74.0653 96.8202 76.7595 101.308 78.0285C105.795 79.2975 107.715 80.5665 107.715 80.5665" stroke="url(#paint27_linear_8629_26284)" stroke-width="0.468749" stroke-miterlimit="10"/>
<path d="M42.0574 41.2998C42.0574 41.2998 42.1139 42.1877 40.8354 45.042C39.5518 47.8963 37.8421 48.0564 40.8354 52.1797C43.8288 56.303 43.187 57.0957 46.6065 58.5247C50.0259 59.9538 50.2108 60.4263 50.8628 62.3317C51.52 64.2333 51.9154 64.5534 50.8628 67.8841C49.8103 71.2148 49.1377 72.64 50.8628 74.5454C52.588 76.447 53.4403 77.5598 53.4403 79.6214V83.3332" stroke="url(#paint28_linear_8629_26284)" stroke-width="0.468749" stroke-miterlimit="10"/>
<path opacity="0.12" d="M232.819 139.553C230.591 139.434 228.245 139.191 225.77 138.798C213.704 136.893 199.328 130.795 193.68 129.08C188.032 127.366 173.399 125.27 165.441 125.079C157.483 124.888 134.892 124.317 127.703 119.744C120.515 115.171 117.435 112.503 103.572 107.93C94.7049 105.004 89.2009 102.313 84.1641 99.2074C84.1641 99.2074 86.4078 99.4894 88.3845 96.7037C90.3664 93.9141 89.704 93.3273 94.8538 90.0957C99.9985 86.8641 102.242 84.4138 104.619 82.9428C106.997 81.4756 107.258 80.6906 109.502 79.0253C111.746 77.3599 115.047 73.4424 117.158 72.0705C119.268 70.6986 120.454 69.6201 121.511 69.2314C121.511 69.2314 123.622 71.2855 125.208 72.6574C126.79 74.0293 128.109 74.1893 129.829 75.8737C131.544 77.5581 131.672 80.2028 133.392 82.0625C135.107 83.9222 136.427 86.9594 140.124 89.1163C143.815 91.2694 146.983 93.6055 149.227 95.5223C151.47 97.443 154.772 100.088 157.806 101.604C160.841 103.125 165.195 104.2 166.119 104.79C167.043 105.377 166.648 106.814 167.839 107.763C169.025 108.708 172.326 109.881 175.89 110.766C179.453 111.646 180.243 112.134 183.278 113.898C186.312 115.662 188.951 113.41 191.724 113.898C194.496 114.39 198.589 116.15 202.547 118.014C206.506 119.873 206.773 121.344 209.145 123.105C211.522 124.869 210.86 125.555 213.37 127.026C215.876 128.494 217.463 130.357 219.968 132.411C222.474 134.469 225.806 136.066 227.885 137.7C229.775 139.187 232.352 139.507 232.819 139.553Z" fill="url(#paint29_linear_8629_26284)"/>
<path opacity="0.38" d="M264.853 134.035C260.977 134.427 257.095 135.228 253.752 136.516C248.254 138.631 241.461 140.029 232.861 139.561C232.845 139.561 232.835 139.561 232.82 139.557C232.804 139.557 232.789 139.553 232.768 139.553C232.193 139.488 229.713 139.145 227.886 137.705C225.806 136.07 222.474 134.473 219.968 132.415C217.463 130.361 215.876 128.498 213.371 127.031C210.86 125.56 211.522 124.874 209.145 123.109C206.773 121.349 206.506 119.878 202.547 118.018C198.589 116.155 194.497 114.394 191.724 113.902C188.952 113.415 186.313 115.667 183.278 113.902C180.244 112.138 179.453 111.65 175.89 110.77C172.327 109.886 169.025 108.712 167.839 107.767C166.648 106.818 167.043 105.381 166.119 104.794C165.195 104.204 160.841 103.129 157.807 101.609C154.772 100.092 151.471 97.4472 149.227 95.5265C146.983 93.6097 143.815 91.2737 140.124 89.1205C136.427 86.9636 135.108 83.9264 133.393 82.0667C131.673 80.207 131.544 77.5623 129.829 75.8779C128.109 74.1936 126.79 74.0335 125.208 72.6616C123.622 71.2897 121.512 69.2357 121.512 69.2357C122.569 68.8432 127.185 70.901 128.243 71.8804C129.301 72.8598 131.38 73.7058 133.624 74.8033C135.867 75.897 135.503 77.1698 138.275 79.8145C141.043 82.4592 145.931 86.5711 149.361 89.0215C152.79 91.4718 156.354 93.5144 161.765 95.5265C167.177 97.5425 171.926 98.1331 175.623 98.3275C179.32 98.5218 183.54 98.1331 184.731 98.6209C185.917 99.1125 187.37 101.365 188.823 102.344C190.271 103.323 191.724 104.109 193.573 105.183C195.421 106.262 196.607 107.34 199.513 108.514C202.414 109.691 202.809 110.084 206.901 111.844C210.993 113.609 210.598 114.783 216.539 116.448C222.474 118.113 223.665 118.696 227.228 120.316C228.774 121.017 230.145 121.619 231.485 122.172C233.23 122.888 234.92 123.525 236.86 124.188C240.295 125.365 242.272 125.365 245.573 127.126C246.051 127.385 246.467 127.625 246.831 127.858C248.978 129.207 249.501 130.14 252.433 131.142C255.868 132.32 255.734 131.535 259.693 132.32C263.652 133.101 264.853 134.035 264.853 134.035Z" fill="url(#paint30_linear_8629_26284)"/>
<path d="M123.673 71.2793C123.673 71.2793 121.779 72.072 120.064 73.642C118.349 75.2083 117.029 77.167 116.239 78.2455C115.448 79.3239 115.71 80.0099 113.333 81.2827C110.955 82.5555 107.264 85.2993 103.829 87.5515C100.399 89.8037 99.8703 90.5887 98.1554 92.6466C96.4405 94.7044 95.3829 94.1061 93.668 96.7089C91.9531 99.3117 90.8903 101.522 91.0905 103.012" stroke="url(#paint31_linear_8629_26284)" stroke-width="0.117187" stroke-miterlimit="10"/>
<path d="M130.298 76.4121C130.298 76.4121 125.97 77.4639 123.675 79.4227C121.385 81.3814 119.665 82.6542 118.479 84.3196C117.293 85.9849 118.084 86.084 116.235 87.7493C114.387 89.4146 111.748 92.2537 108.847 94.3115C105.941 96.3694 104.888 97.8366 103.831 99.2084C102.773 100.58 102.773 101.228 101.192 103.008C99.6103 104.791 98.4961 106.148 98.4961 106.148" stroke="url(#paint32_linear_8629_26284)" stroke-width="0.117187" stroke-miterlimit="10"/>
<path d="M134.078 82.8838C134.078 82.8838 132.738 84.5149 131.418 85.8868C130.099 87.2587 128.25 87.8456 126.931 89.2176C125.611 90.5895 126.237 90.883 123.68 92.7427C121.123 94.6024 117.694 96.8585 115.979 98.7183C114.264 100.578 112.795 103.128 111.815 104.987C110.834 106.847 109.776 108.208 108.785 109.781" stroke="url(#paint33_linear_8629_26284)" stroke-width="0.117187" stroke-miterlimit="10"/>
<path d="M136.909 86.5264C136.909 86.5264 135.502 87.0637 135.235 89.1178C134.974 91.1757 134.311 91.2748 133.387 92.1551C132.463 93.0355 132.596 94.1978 131.539 95.5278C130.481 96.8578 130.086 97.8373 128.504 98.9157C126.923 99.9942 127.051 99.7008 124.941 102.54C122.83 105.379 122.435 105.646 120.058 107.765C117.681 109.884 117.573 111.625 116.109 112.814" stroke="url(#paint34_linear_8629_26284)" stroke-width="0.117187" stroke-miterlimit="10"/>
<path d="M143.582 91.2783C143.582 91.2783 142.766 92.7417 140.522 94.7005C138.278 96.6594 137.616 97.5397 135.773 100.482C133.924 103.42 134.715 104.761 131.681 107.764C128.646 110.767 128.744 113.02 126.515 114.784C124.287 116.549 123.676 117.143 123.676 117.143" stroke="url(#paint35_linear_8629_26284)" stroke-width="0.117187" stroke-miterlimit="10"/>
<path d="M150.183 96.3314C150.024 96.198 148.304 97.387 146.722 99.666C145.141 101.945 144.478 102.242 141.973 105.081C139.467 107.92 137.531 108.606 136.915 110.565C136.299 112.524 135.185 114.384 133.629 116.247C132.073 118.107 130.297 120.996 130.297 120.996" stroke="url(#paint36_linear_8629_26284)" stroke-width="0.117187" stroke-miterlimit="10"/>
<path d="M157.04 101.206C157.04 101.206 156.747 102.147 153.713 104.792C150.678 107.437 149.225 109.666 147.377 112.814C145.528 115.962 145.133 116.743 143.022 118.9C140.912 121.057 140.234 123.329 140.234 123.329" stroke="url(#paint37_linear_8629_26284)" stroke-width="0.117187" stroke-miterlimit="10"/>
<path d="M163.922 103.938C163.922 103.938 162.957 105.859 160.318 109.781C157.679 113.706 157.15 113.721 154.906 117.14C152.662 120.562 150.188 124.392 150.188 124.392" stroke="url(#paint38_linear_8629_26284)" stroke-width="0.117187" stroke-miterlimit="10"/>
<path d="M168.892 108.663C168.892 108.663 167.572 110.904 166.119 114.166C164.666 117.428 163.875 119.879 162.294 121.738C160.712 123.598 160.184 124.932 160.184 124.932" stroke="url(#paint39_linear_8629_26284)" stroke-width="0.117187" stroke-miterlimit="10"/>
<path d="M177.203 111.109C177.203 111.109 176.556 112.832 174.507 116.795C172.459 120.759 172.197 122.104 170.215 125.351" stroke="url(#paint40_linear_8629_26284)" stroke-width="0.117187" stroke-miterlimit="10"/>
<path d="M186.807 114.518C186.807 114.518 185.128 116.743 183.808 119.487C182.489 122.231 181.883 124.274 179.875 126.435" stroke="url(#paint41_linear_8629_26284)" stroke-width="0.117187" stroke-miterlimit="10"/>
<path d="M197.265 115.675C197.265 115.675 195.95 117.424 193.84 120.317C191.729 123.209 191.308 124.962 188.484 127.859" stroke="url(#paint42_linear_8629_26284)" stroke-width="0.117187" stroke-miterlimit="10"/>
<path d="M206.134 120.317C206.134 120.317 203.577 122.208 201.811 125.352C200.039 128.499 198.843 129.06 197.262 130.298" stroke="url(#paint43_linear_8629_26284)" stroke-width="0.117187" stroke-miterlimit="10"/>
<path d="M219.066 131.65C219.066 131.65 216.776 133.918 214.48 136.155" stroke="url(#paint44_linear_8629_26284)" stroke-width="0.117187" stroke-miterlimit="10"/>
<path d="M223.97 135.145C223.97 135.145 222.958 137.13 221.402 137.961" stroke="url(#paint45_linear_8629_26284)" stroke-width="0.117187" stroke-miterlimit="10"/>
<path d="M87.5898 101.206C87.5898 101.206 89.8695 99.0181 91.0658 96.7088C92.2621 94.3956 94.3569 92.8408 97.1038 90.6838C99.8456 88.5269 102.608 86.6139 104.615 84.9371C106.623 83.2604 109.688 81.3664 112.594 79.0799C115.5 76.7934 117.005 73.9505 122.545 70.2197" stroke="url(#paint46_linear_8629_26284)" stroke-width="0.117187" stroke-miterlimit="10"/>
<path d="M93.0938 103.938C93.0938 103.938 94.5211 100.261 96.7802 97.7458C99.0394 95.2307 100.492 94.5142 102.428 92.1172C104.364 89.7202 110.818 85.3111 112.918 83.3257C115.017 81.3402 116.306 80.8372 118.401 78.0934C120.501 75.3496 125.209 72.6592 125.209 72.6592" stroke="url(#paint47_linear_8629_26284)" stroke-width="0.117187" stroke-miterlimit="10"/>
<path d="M95.4922 104.811C95.4922 104.811 97.8283 100.741 100.452 98.4618C103.076 96.1867 106.844 92.353 109.155 90.1999C111.465 88.043 115.177 85.021 117.113 82.8793C119.049 80.7376 126.124 75.1471 127.823 74.3545" stroke="url(#paint48_linear_8629_26284)" stroke-width="0.117187" stroke-miterlimit="10"/>
<path d="M101.172 107.335C101.172 107.335 105.331 101.592 106.784 99.6674C108.237 97.7467 113.079 93.7909 115.338 91.2795C117.597 88.7643 120.067 85.7918 122.542 83.3261C125.017 80.8604 128.518 78.7377 130.295 77.3086" stroke="url(#paint49_linear_8629_26284)" stroke-width="0.117187" stroke-miterlimit="10"/>
<path d="M104.848 108.288C104.848 108.288 106.516 106.085 109.15 102.457C111.784 98.8288 115.173 96.1916 117.915 92.838C120.657 89.4843 122.983 88.6459 125.206 86.1307C127.434 83.6155 130.628 82.194 132.097 80.0332" stroke="url(#paint50_linear_8629_26284)" stroke-width="0.117187" stroke-miterlimit="10"/>
<path d="M135.341 84.5752C135.341 84.5752 133.154 88.0089 130.294 89.5866C127.434 91.1643 125.55 94.8762 122.541 97.2695C119.532 99.6627 118.392 100.25 115.732 103.013C113.073 105.775 110.516 110.413 110.516 110.413" stroke="url(#paint51_linear_8629_26284)" stroke-width="0.117187" stroke-miterlimit="10"/>
<path d="M113.457 111.602C113.457 111.602 114.371 108.8 117.272 106.148C120.173 103.496 123.305 100.858 125.21 98.7053C127.115 96.5483 129.533 93.7968 131.145 91.7579C132.758 89.7229 136.203 85.71 136.203 85.71" stroke="url(#paint52_linear_8629_26284)" stroke-width="0.117187" stroke-miterlimit="10"/>
<path d="M118.473 114.167C118.473 114.167 120.557 111.076 123.674 107.765C126.791 104.453 128.475 101.351 130.297 99.6703C132.115 97.9897 134.051 95.3525 135.345 93.4356C136.633 91.5187 137.768 89.1331 138.415 87.9326" stroke="url(#paint53_linear_8629_26284)" stroke-width="0.117187" stroke-miterlimit="10"/>
<path d="M121.711 115.901C121.711 115.901 123.626 113.302 125.208 110.912C126.789 108.523 129.531 107.014 131.467 103.938C133.402 100.859 134.059 99.4492 136.555 96.3204C139.05 93.1954 141.397 89.8799 141.397 89.8799" stroke="url(#paint54_linear_8629_26284)" stroke-width="0.117187" stroke-miterlimit="10"/>
<path d="M125.777 118.508C125.777 118.508 128.149 116.195 130.296 112.898C132.437 109.602 134.383 106.843 136.56 104.209C138.732 101.576 140.344 98.3901 142.121 96.3321C143.897 94.2742 145.576 92.666 145.576 92.666" stroke="url(#paint55_linear_8629_26284)" stroke-width="0.117187" stroke-miterlimit="10"/>
<path d="M127.703 119.75C127.703 119.75 132.067 115.424 133.623 112.814C135.179 110.203 136.95 107.208 139.21 104.815C141.469 102.421 145.725 97.9968 147.553 94.1592" stroke="url(#paint56_linear_8629_26284)" stroke-width="0.117187" stroke-miterlimit="10"/>
<path d="M132.898 121.845C132.898 121.845 134.644 119.292 136.205 117.142C137.761 114.993 138.685 112.897 140.241 110.412C141.797 107.928 145.185 104.886 146.798 102.455C148.41 100.024 151.614 97.4932 151.614 97.4932" stroke="url(#paint57_linear_8629_26284)" stroke-width="0.117187" stroke-miterlimit="10"/>
<path d="M136.91 122.768C136.91 122.768 138.522 118.588 140.237 116.312C141.952 114.037 142.702 113.332 144.992 109.674C147.282 106.015 152.812 102.913 154.563 99.6738" stroke="url(#paint58_linear_8629_26284)" stroke-width="0.117187" stroke-miterlimit="10"/>
<path d="M143.469 123.755C143.469 123.755 144.034 122.589 145.738 119.746C147.443 116.903 149.497 114.258 151.617 110.912C153.738 107.566 156.557 103.911 157.809 101.605" stroke="url(#paint59_linear_8629_26284)" stroke-width="0.117187" stroke-miterlimit="10"/>
<path d="M147.555 123.908C147.555 123.908 150.461 119.678 151.616 116.797C152.766 113.912 155.19 112.262 157.043 109.495C158.897 106.728 159.297 105.036 161.192 103.009" stroke="url(#paint60_linear_8629_26284)" stroke-width="0.117187" stroke-miterlimit="10"/>
<path d="M153.27 124.605C153.27 124.605 155.837 121.991 157.043 119.75C158.25 117.509 159.457 114.811 161.192 112.147C162.928 109.483 164.956 106.808 166.121 104.792" stroke="url(#paint61_linear_8629_26284)" stroke-width="0.117187" stroke-miterlimit="10"/>
<path d="M157.043 124.395C157.043 124.395 160.103 121.186 161.192 118.511C162.28 115.836 164.257 113.195 165.448 111.221C166.639 109.246 167.184 106.956 167.184 106.956" stroke="url(#paint62_linear_8629_26284)" stroke-width="0.117187" stroke-miterlimit="10"/>
<path d="M163.922 124.932C163.922 124.932 165.627 122.264 167.182 118.51C168.738 114.756 170.484 112.386 171.547 109.497" stroke="url(#paint63_linear_8629_26284)" stroke-width="0.117187" stroke-miterlimit="10"/>
<path d="M166.609 125.123C166.609 125.123 168.627 122.024 170.219 118.507C171.811 114.989 173.505 112.775 174.512 110.408" stroke="url(#paint64_linear_8629_26284)" stroke-width="0.117187" stroke-miterlimit="10"/>
<path d="M173.395 125.645C173.395 125.645 174.714 123.9 175.844 121.003C176.973 118.107 179.679 114.33 180.342 112.265" stroke="url(#paint65_linear_8629_26284)" stroke-width="0.117187" stroke-miterlimit="10"/>
<path d="M176.867 125.645C176.867 125.645 178.87 122.829 180.338 119.749C181.807 116.67 183.28 113.903 183.28 113.903" stroke="url(#paint66_linear_8629_26284)" stroke-width="0.117187" stroke-miterlimit="10"/>
<path d="M182.906 126.884C182.906 126.884 185.022 124.045 186.803 120.477C188.585 116.91 191.723 113.903 191.723 113.903" stroke="url(#paint67_linear_8629_26284)" stroke-width="0.117187" stroke-miterlimit="10"/>
<path d="M185.77 127.352C185.77 127.352 188.748 122.878 190.36 119.772C191.972 116.666 194.663 114.695 194.663 114.695" stroke="url(#paint68_linear_8629_26284)" stroke-width="0.117187" stroke-miterlimit="10"/>
<path d="M191.176 128.427C191.176 128.427 192.357 127.367 194.667 123.754C196.978 120.142 199.848 116.776 199.848 116.776" stroke="url(#paint69_linear_8629_26284)" stroke-width="0.117187" stroke-miterlimit="10"/>
<path d="M194.844 129.456C194.844 129.456 197.303 127.47 199.075 123.327C200.851 119.185 202.551 118.019 202.551 118.019" stroke="url(#paint70_linear_8629_26284)" stroke-width="0.117187" stroke-miterlimit="10"/>
<path d="M200.273 131.38C200.273 131.38 202.625 128.156 204.237 125.644C205.85 123.133 207.688 121.845 207.688 121.845" stroke="url(#paint71_linear_8629_26284)" stroke-width="0.117187" stroke-miterlimit="10"/>
<path d="M202.645 132.234C202.645 132.234 204.164 131.563 206.136 128.427C208.108 125.29 210.577 124.395 210.577 124.395" stroke="url(#paint72_linear_8629_26284)" stroke-width="0.117187" stroke-miterlimit="10"/>
<path d="M208.113 134.146C208.113 134.146 210.29 133.7 211.779 131.65C213.273 129.6 214.639 127.854 214.639 127.854" stroke="url(#paint73_linear_8629_26284)" stroke-width="0.117187" stroke-miterlimit="10"/>
<path d="M211.184 135.144C211.184 135.144 213.099 133.909 214.639 132.233C216.174 130.56 216.77 129.348 216.77 129.348" stroke="url(#paint74_linear_8629_26284)" stroke-width="0.117187" stroke-miterlimit="10"/>
<path d="M217.227 136.929C217.227 136.929 218.402 136.254 219.06 135.145C219.722 134.032 221.391 133.487 221.391 133.487" stroke="url(#paint75_linear_8629_26284)" stroke-width="0.117187" stroke-miterlimit="10"/>
<path d="M219.988 137.633C219.988 137.633 221.929 135.488 222.684 134.341" stroke="url(#paint76_linear_8629_26284)" stroke-width="0.117187" stroke-miterlimit="10"/>
<path d="M224.387 138.567C224.387 138.567 225.84 137.122 225.932 136.356" stroke="url(#paint77_linear_8629_26284)" stroke-width="0.117187" stroke-miterlimit="10"/>
<path d="M206.262 133.487C206.262 133.487 207.468 132.188 208.916 130.294C210.369 128.404 211.098 127.577 211.781 126.434" stroke="url(#paint78_linear_8629_26284)" stroke-width="0.117187" stroke-miterlimit="10"/>
<path d="M264.853 134.035C264.853 134.035 263.651 133.101 259.693 132.32C255.734 131.535 255.868 132.32 252.433 131.142C249.501 130.14 248.977 129.207 246.831 127.858C246.466 127.625 246.051 127.385 245.573 127.126C242.272 125.365 240.295 125.365 236.86 124.188C234.919 123.525 233.23 122.888 231.484 122.172C230.144 121.619 228.773 121.017 227.228 120.316C223.665 118.696 222.474 118.113 216.538 116.448C210.598 114.783 210.993 113.609 206.901 111.844C202.809 110.084 202.414 109.691 199.513 108.514C196.607 107.34 195.421 106.262 193.572 105.183C191.724 104.109 190.271 103.323 188.823 102.344C187.37 101.365 185.917 99.1125 184.731 98.6209C183.54 98.1331 179.319 98.5218 175.623 98.3275C171.926 98.1331 167.176 97.5425 161.765 95.5265C156.353 93.5144 152.79 91.4718 149.36 89.0215C145.93 86.5711 141.043 82.4592 138.275 79.8145C135.503 77.1698 135.867 75.897 133.623 74.8033C131.38 73.7058 129.3 72.8598 128.243 71.8804C127.185 70.901 122.569 68.8432 121.511 69.2357C120.454 69.6244 119.268 70.7028 117.157 72.0747C115.047 73.4466 111.746 77.3642 109.502 79.0295C107.258 80.6948 106.997 81.4798 104.619 82.947C102.242 84.418 99.9984 86.8683 94.8538 90.0999C89.704 93.3315 90.3664 93.9184 88.3845 96.7079C86.4078 99.4936 84.1641 99.2078 84.1641 99.2078" stroke="url(#paint79_linear_8629_26284)" stroke-width="0.468749" stroke-miterlimit="10"/>
<path d="M121.512 69.2314C121.512 69.2314 123.622 71.2893 125.208 72.6612C126.79 74.0331 128.109 74.1931 129.829 75.8737C131.544 77.5581 131.678 80.2028 133.393 82.0625C135.108 83.9222 136.427 86.9594 140.124 89.1163C143.821 91.2732 146.988 93.6093 149.232 95.5261C151.476 97.443 154.777 100.091 157.812 101.608C160.846 103.125 165.2 104.203 166.124 104.79C167.048 105.377 166.653 106.818 167.839 107.763C169.025 108.708 172.327 109.885 175.89 110.766C179.453 111.646 180.244 112.137 183.278 113.902C186.313 115.666 188.952 113.41 191.724 113.902C194.497 114.394 198.589 116.154 202.547 118.018C206.506 119.877 206.773 121.348 209.145 123.113C211.517 124.877 210.86 125.563 213.371 127.03C215.876 128.501 217.463 130.361 219.968 132.419C222.474 134.477 225.806 136.073 227.886 137.708C229.965 139.343 232.892 139.568 232.892 139.568" stroke="url(#paint80_linear_8629_26284)" stroke-width="0.468749" stroke-miterlimit="10"/>
<path opacity="0.12" d="M251.631 152.348C238.487 149.311 225.399 145.934 218.94 144.673C212.481 143.412 199.563 143.663 192.765 143.412C185.967 143.156 179.847 141.643 169.989 140.009C160.131 138.378 151.634 134.075 149.257 133.355C146.874 132.635 135.995 133.317 128.858 132.307C121.721 131.301 113.901 128.523 108.803 126.251C103.705 123.984 99.6227 123.729 93.5026 122.795C87.3875 121.858 86.7047 120.451 78.2073 120.703C69.7099 120.954 56.1141 122.723 49.6551 122.795C43.196 122.867 43.1961 120.703 32.3163 122.593C21.4366 124.487 19.3983 125.497 6.4802 124.487C-6.43786 123.477 -10.0781 120.703 -10.0781 120.703V109.854C-10.0781 109.854 -7.45446 110.924 -0.656564 111.271C6.14134 111.618 35.0375 109.758 44.5567 110.562C54.0706 111.366 60.5297 114.396 64.6115 114.899C68.6882 115.402 80.9285 113.135 85.0052 113.638C89.087 114.141 97.9233 114.396 100.306 113.638C102.683 112.879 104.721 115.657 109.481 117.17C114.24 118.683 121.377 122.216 130.218 123.477C139.055 124.739 141.098 126.251 146.197 129.533C151.295 132.814 162.514 132.307 173.049 132.562C183.585 132.814 194.881 134.327 201.812 137.356C208.743 140.382 213.164 142.15 219.962 142.402C226.76 142.653 232.88 146.94 237.64 148.457C240.145 149.254 245.67 150.82 251.631 152.348Z" fill="url(#paint81_linear_8629_26284)"/>
<path opacity="0.12" d="M374.994 190.799C374.994 190.799 370.651 188.436 365.1 186.466C359.55 184.496 360.998 183.6 354.005 182.918C347.012 182.236 339.618 180.475 333.986 179.843C328.354 179.21 319.995 176.619 313.485 174.832C306.974 173.041 301.907 171.249 292.742 168.029C283.577 164.805 283.577 165.88 278.751 166.059C273.924 166.238 271.034 166.417 262.346 164.474C253.664 162.53 253.423 160.69 249.562 158.182C245.701 155.675 242.327 154.421 238.225 154.063C234.123 153.704 227.854 152.451 221.821 154.063C215.793 155.675 211.932 155.316 203.008 157.466C194.085 159.615 188.776 159.436 179.611 159.257C170.446 159.078 168.757 158.361 161.523 157.107C154.288 155.854 151.875 154.958 141.986 154.817C132.098 154.676 132.339 155.137 127.754 155.141C123.169 155.141 122.928 154.246 117.383 155.438C111.832 156.631 105.563 157.466 101.702 157.466C97.8411 157.466 95.4331 156.57 90.8481 156.749C86.2631 156.928 85.5392 156.212 81.442 155.438C77.3396 154.665 73.725 155.675 67.9334 155.438C62.1419 155.202 59.0099 154.958 55.6315 156.57C52.2531 158.182 48.1559 158.719 44.5361 159.794C40.9164 160.869 37.3018 164.268 31.7516 165.255C26.2013 166.238 24.9999 167.134 19.6909 169.641C14.382 172.149 7.87162 174.653 0.878613 175.369C-6.11439 176.085 -10.0781 175.369 -10.0781 175.369V190.803H374.999L374.994 190.799Z" fill="#122718"/>
<path opacity="0.12" d="M374.994 126.8V131.956C368.334 131.671 361.814 128.515 353.311 129.567C344.809 130.619 344.809 131.671 338.884 132.993C332.959 134.315 331.798 133.199 328.579 133.001C325.355 132.802 324.199 135.973 318.916 136.93C313.633 137.886 307.194 138.172 302.43 137.501C297.66 136.834 294.954 135.687 292.248 135.493C289.548 135.302 284.264 135.687 280.27 137.215C276.275 138.747 272.799 139.224 270.735 140.466C268.676 141.708 268.163 142.284 264.297 143.431C260.431 144.578 260.949 144.483 257.468 146.209C253.992 147.935 250.439 148.804 250.439 148.804C243.728 146.22 238.697 143.679 229.814 141.796C222.801 140.306 217.8 137.951 211.777 135.554L211.906 135.375C216.465 136.804 221.276 138.096 225.768 138.805C237.834 140.71 246.819 139.186 253.751 136.518C260.682 133.85 269.924 133.279 276.599 134.041C283.273 134.803 288.921 133.279 294.826 134.041C300.73 134.803 310.742 136.327 319.727 133.088C328.713 129.849 335.13 128.706 344.116 126.991C353.101 125.276 352.331 124.323 359.005 123.942C365.68 123.561 370.188 126.8 374.994 126.8Z" fill="url(#paint82_linear_8629_26284)"/>
<path d="M-11.1094 123.736C-11.1094 123.736 -3.74156 127.463 10.0699 127.353C23.8813 127.246 31.665 124.636 39.7003 124.929C47.7356 125.226 59.2469 124.647 65.1052 124.392C70.9635 124.136 77.6587 122.471 86.0329 124.392C94.4019 126.312 101.297 125.394 110.514 129.346C119.73 133.301 127.308 133.824 135.343 134.338C143.379 134.852 145.838 134.67 151.614 136.548C157.395 138.427 168.239 141.842 179.874 143.861C191.508 145.881 198.486 144.639 206.608 144.947C214.731 145.26 221.847 146.811 228.127 148.053C234.406 149.295 235.217 150.835 240.28 150.85C245.342 150.862 251.544 154.105 257.31 155.431C263.076 156.753 270.192 158.152 280.235 159.859C290.278 161.566 303.047 166.227 310.79 168.555C318.532 170.884 323.138 172.595 330.044 173.993C336.949 175.392 342.392 176.455 351.598 177.865C360.804 179.275 364.649 182.469 376.541 185.296" stroke="url(#paint83_linear_8629_26284)" stroke-width="0.0703124" stroke-miterlimit="10"/>
<path d="M-12.1367 127.856C-12.1367 127.856 -6.93561 130.329 4.23164 129.963C15.3938 129.594 28.3632 130.074 37.4818 128.931C46.5953 127.787 58.2965 127.65 66.5834 127.357C74.8703 127.063 83.8913 127.944 89.9807 128.317C96.0752 128.69 101.944 131.057 111.807 133.492C121.67 135.927 136.483 137.467 143.578 137.962C150.674 138.458 161.261 142.257 173.394 144.608C185.526 146.96 191.379 146.19 200.272 146.758C209.17 147.325 213.508 148.812 225.944 149.787" stroke="url(#paint84_linear_8629_26284)" stroke-width="0.0703124" stroke-miterlimit="10"/>
<path d="M-12.1367 134.341C-12.1367 134.341 -7.17692 133.145 5.08395 133.899C17.3448 134.654 23.044 133.038 30.9201 133.484C38.7962 133.93 48.7877 130.992 58.2965 131.377C67.8002 131.758 74.2079 132.836 84.1686 132.84C94.1293 132.844 99.0942 135.393 109.152 135.207C119.211 135.016 123.441 137.577 136.205 139.555C148.969 141.529 149.257 141.891 158.494 143.339C167.736 144.787 179.273 148.651 191.174 148.8C203.075 148.948 215.069 149.775 219.064 150.267" stroke="url(#paint85_linear_8629_26284)" stroke-width="0.0703124" stroke-miterlimit="10"/>
<path d="M-12.1367 138.541C-12.1367 138.541 -3.9166 139.517 8.05161 139.078C20.0198 138.64 30.8379 138.095 39.0786 137.463C47.3193 136.83 53.1724 137.939 63.6517 136.933C74.1309 135.927 87.8089 137.485 94.8635 138.065C101.918 138.644 105.897 140.088 114.389 140.812C122.882 141.536 128.483 141.898 137.628 142.805C146.772 143.709 155.762 145.473 162.113 146.761C168.465 148.049 180.407 149.966 185.767 150.275C191.128 150.583 200.447 151.54 206.608 151.223" stroke="url(#paint86_linear_8629_26284)" stroke-width="0.0703124" stroke-miterlimit="10"/>
<path d="M-12.1367 143.941C-12.1367 143.941 -0.56899 144.429 11.7997 143.16C24.1684 141.895 32.3012 140.081 39.0837 140.808C45.8611 141.533 50.9801 141.38 61.7057 140.641C72.4314 139.902 79.0137 138.815 86.5664 140.808C94.1242 142.802 102.955 143.998 109.507 143.941C116.058 143.884 130.019 143.16 136.2 145.153C142.382 147.142 152.497 145.694 159.259 147.687C166.021 149.676 171.627 151.243 178.939 151.997C186.25 152.752 190.65 152.706 198.686 153.632" stroke="url(#paint87_linear_8629_26284)" stroke-width="0.0703124" stroke-miterlimit="10"/>
<path d="M-12.1367 147.867C-12.1367 147.867 -5.56473 148.77 6.86557 147.867C19.2959 146.963 27.4338 144.97 34.8222 145.332C42.2106 145.694 49.5219 145.607 55.6164 145.29C61.7109 144.97 73.407 142.893 83.1571 145.29C92.9073 147.688 96.5065 146.373 105.065 146.758C113.624 147.143 117.64 146.19 123.672 146.758C129.71 147.325 133.346 147.947 141.396 148.267C149.452 148.587 152.009 150.176 159.259 151.281C166.508 152.386 174.492 154.276 182.81 155.504" stroke="url(#paint88_linear_8629_26284)" stroke-width="0.0703124" stroke-miterlimit="10"/>
<path d="M-12.1367 155.504C-12.1367 155.504 -1.17998 155.035 9.05795 153.259C19.2959 151.483 27.7111 149.38 36.0545 148.804C44.3978 148.225 51.2265 146.552 59.5134 146.758C67.8002 146.963 74.4493 148.24 84.1635 149.231C93.8777 150.218 96.6811 150.325 107.71 150.271C118.738 150.218 126.168 147.668 133.299 150.664" stroke="url(#paint89_linear_8629_26284)" stroke-width="0.0703124" stroke-miterlimit="10"/>
<path d="M-12.1367 161.612C-12.1367 161.612 -1.66775 161.974 6.86557 158.716C15.3989 155.458 23.4393 152.664 29.2874 152.344C35.1354 152.024 38.0363 153.152 42.2619 151.895" stroke="url(#paint90_linear_8629_26284)" stroke-width="0.0703124" stroke-miterlimit="10"/>
<path d="M69.3828 150.122C69.3828 150.122 83.1583 151.761 89.2528 152.348C95.3473 152.931 102.659 153.937 117.281 152.348" stroke="url(#paint91_linear_8629_26284)" stroke-width="0.0703124" stroke-miterlimit="10"/>
<path d="M252.277 148.273C252.277 148.273 255.835 148.075 259.835 146.756C263.83 145.438 266.453 145.289 270.222 143.94C273.985 142.595 277.816 141.616 281.476 140.808C285.137 140 289.152 138.403 293.388 139.078C297.624 139.752 302.286 140.247 306.614 140.247C310.943 140.247 317.766 140.057 322.428 138.917C327.09 137.778 327.922 139.31 333.082 138.544C338.242 137.778 345.071 134.988 351.396 135.149C357.722 135.309 361.054 136.555 364.715 135.991C368.376 135.427 370.378 134.253 376.534 135.21" stroke="url(#paint92_linear_8629_26284)" stroke-width="0.0703124" stroke-miterlimit="10"/>
<path d="M376.534 139.554C372.041 138.99 367.374 139.996 361.849 140.243C356.325 140.491 351.226 139.748 344.993 140.803C338.76 141.859 334.745 141.478 328.918 142.343C323.09 143.208 317.766 142.591 312.6 142.842C307.44 143.098 300.283 143.947 294.286 143.082C288.294 142.217 284.464 143.947 279.304 144.146C274.144 144.344 266.319 147.408 261.159 148.269C255.999 149.13 250.434 148.799 250.434 148.799C250.434 148.799 255.835 148.368 260.328 147.507C264.815 146.645 269.657 144.679 274.385 143.738C279.114 142.797 286.929 140.438 290.918 140.803C294.907 141.169 302.286 141.771 307.589 141.554C312.893 141.341 320.384 141.207 325.688 140.803C330.992 140.4 336.758 140.419 341.712 139.382C346.672 138.345 348.628 137.172 353.932 137.629C359.236 138.086 363.272 138.422 367.769 137.953C372.267 137.488 376.534 137.526 376.534 137.526" stroke="url(#paint93_linear_8629_26284)" stroke-width="0.0703124" stroke-miterlimit="10"/>
<path d="M254.391 150.271C254.391 150.271 261.497 150.682 265.989 149.79C270.482 148.899 274.979 149.95 279.641 148.868C284.303 147.786 287.153 148.148 293.386 148.278C299.619 148.407 302.951 146.349 306.777 146.761C310.607 147.172 315.767 147.214 321.425 146.761C327.083 146.307 332.412 144.821 337.906 145.686C343.4 146.551 348.37 145.896 354.377 145.419C360.379 144.943 360.883 145.4 365.375 145.419C369.868 145.438 377.046 144.15 377.046 144.15" stroke="url(#paint94_linear_8629_26284)" stroke-width="0.0703124" stroke-miterlimit="10"/>
<path d="M260.332 152.346C260.332 152.346 266.95 152.708 270.216 152.346C273.481 151.984 276.644 152.373 281.973 151.992C287.303 151.611 293.962 151.741 300.288 151.119C306.613 150.498 312.348 150.472 318.304 150.361C324.26 150.25 330.252 148.78 334.251 149.824C338.246 150.868 342.744 151.878 349.732 151.992C356.725 152.106 361.053 152.289 365.715 152.506C370.377 152.724 379.367 153.257 379.367 153.257" stroke="url(#paint95_linear_8629_26284)" stroke-width="0.0703124" stroke-miterlimit="10"/>
<path d="M273.148 154.393C273.148 154.393 281.471 154.701 287.966 154.393C294.461 154.084 297.624 155.303 305.449 155.437C313.274 155.57 319.152 154.579 325.036 156.309C330.92 158.04 333.416 157.053 342.072 157.544C350.729 158.04 355.226 158.779 362.548 159.027C369.875 159.274 379.363 160.635 379.363 160.635" stroke="url(#paint96_linear_8629_26284)" stroke-width="0.0703124" stroke-miterlimit="10"/>
<path d="M289.629 156.68C289.629 156.68 299.451 158.162 306.11 158.288C312.769 158.41 319.152 160.757 325.03 160.635C330.914 160.513 337.589 161.378 344.988 161.87C352.386 162.365 357.213 164.176 362.706 165.06C368.2 165.948 377.036 166.317 377.036 166.317" stroke="url(#paint97_linear_8629_26284)" stroke-width="0.0703124" stroke-miterlimit="10"/>
<path d="M309.359 161.497C309.359 161.497 318.155 162.61 325.035 163.349C331.915 164.092 338.41 166.192 344.401 166.314C350.393 166.436 355.553 168.539 361.047 169.031C366.541 169.526 371.901 171.748 377.046 171.379" stroke="url(#paint98_linear_8629_26284)" stroke-width="0.0703124" stroke-miterlimit="10"/>
<path d="M258.246 151.699C258.246 151.699 264.012 151.699 267.467 151.356C270.928 151.013 273.115 150.311 277.5 150.361C281.88 150.414 284.647 149.755 289.027 149.786C293.406 149.812 299.388 149.93 302.633 149.225C305.878 148.52 315.428 149.241 318.775 148.799C322.118 148.356 327.996 148.444 330.651 147.674C333.3 146.905 339.97 149.069 344.996 148.799C350.023 148.528 355.091 148.936 360.975 148.859C366.853 148.783 371.351 149.45 376.08 148.859" stroke="url(#paint99_linear_8629_26284)" stroke-width="0.0703124" stroke-miterlimit="10"/>
<path d="M252.562 149.604C252.562 149.604 259.052 149.455 262.626 148.864C266.199 148.274 272.427 147.69 277.038 147.256C281.649 146.822 287.296 145.621 292.025 145.709C296.754 145.793 300.559 145.111 306.437 145.194C312.316 145.278 318.313 145.111 323.155 144.851C327.997 144.596 338.003 142.542 343.205 143.396C348.406 144.253 352.554 143.312 356.59 143.14C360.626 142.969 366.16 143.483 369.616 142.885C373.071 142.287 376.07 142.885 376.07 142.885" stroke="url(#paint100_linear_8629_26284)" stroke-width="0.0703124" stroke-miterlimit="10"/>
<path d="M268.352 153.78C268.352 153.78 273.922 152.937 277.152 153.261C280.381 153.581 283.955 153.391 288.566 153.189C293.176 152.983 299.286 153.395 305.396 153.189C311.506 152.983 315.654 152.77 320.614 153.261C325.574 153.753 330.298 154.252 336.87 154.344C343.442 154.439 347.015 155.064 354.162 155.437C361.309 155.807 377.041 156.683 377.041 156.683" stroke="url(#paint101_linear_8629_26284)" stroke-width="0.0703124" stroke-miterlimit="10"/>
<path d="M283.035 155.803C283.035 155.803 292.59 155.117 296.4 155.803C300.21 156.489 303.634 156.611 309.359 156.676C315.084 156.744 317.738 158.196 323.268 158.455C328.798 158.714 333.07 159.568 339.292 159.739C345.52 159.911 351.743 160.517 358.546 161.496C365.349 162.476 371.69 162.826 376.532 163.806" stroke="url(#paint102_linear_8629_26284)" stroke-width="0.0703124" stroke-miterlimit="10"/>
<path d="M302.453 159.881C302.453 159.881 307.243 159.828 310.473 160.255C313.703 160.681 317.158 161.2 322.231 161.497C327.303 161.794 331.914 162.476 337.68 163.162C343.446 163.848 345.751 164.275 350.362 164.702C354.973 165.129 357.971 166.241 363.85 167.099C369.729 167.956 372.034 168.124 376.532 169.065" stroke="url(#paint103_linear_8629_26284)" stroke-width="0.0703124" stroke-miterlimit="10"/>
<path d="M322.699 164.689C322.699 164.689 328.075 165.105 333.338 166.317C338.6 167.529 341.352 166.843 344.993 167.7C348.633 168.557 350.594 169.068 356.242 169.838C361.89 170.608 362.121 171.054 366.732 172.029C371.342 173.005 372.379 174.373 376.071 174.46" stroke="url(#paint104_linear_8629_26284)" stroke-width="0.0703124" stroke-miterlimit="10"/>
<path d="M258.246 145.815C258.246 145.815 263.93 144.596 268.351 143.483C272.771 142.37 274.845 140.937 281.073 139.386C287.301 137.835 290.413 136.921 294.099 137.633C297.791 138.35 306.381 139.238 314.401 139.074C322.421 138.91 322 136.89 328.222 136.551C334.45 136.208 335.046 136.132 340.971 134.844C346.896 133.556 350.932 131.109 356.929 132.245C362.926 133.384 367.074 132.866 369.61 132.996C372.147 133.125 377.04 133.487 377.04 133.487" stroke="url(#paint105_linear_8629_26284)" stroke-width="0.0703124" stroke-miterlimit="10"/>
<path d="M265.258 153.231C265.258 153.231 270.813 152.225 276.004 152.347C281.19 152.469 286.843 152.652 291.797 152.347C296.757 152.042 306.518 150.842 313.742 151.356C320.966 151.871 324.652 152.309 330.762 152.347C336.872 152.381 340.682 153.067 349.384 153.665C358.087 154.264 363.735 154.176 368.921 154.393C374.106 154.61 378.142 155.437 378.142 155.437" stroke="url(#paint106_linear_8629_26284)" stroke-width="0.0703124" stroke-miterlimit="10"/>
<path d="M-12.1367 86.0393C-12.1367 86.0393 -8.67615 86.2642 -1.24673 86.0393C6.1827 85.8145 18.613 83.528 29.5287 86.5271C40.4443 89.5262 44.9112 89.1566 52.1507 92.3234C59.3902 95.4902 68.0313 100.578 75.9177 103.943C83.7989 107.308 85.9246 106.431 92.2912 107.769C98.6578 109.106 103.577 109.106 110.518 112.311C117.46 115.52 122.322 119.552 133.305 122.768C144.292 125.984 152.553 125.984 164.188 126.884C175.822 127.783 178.697 127.528 186.81 129.456C194.922 131.384 200.421 133.073 206.613 135.21C212.805 137.348 216.029 139.136 223.967 141.559C231.91 143.983 235.093 144.013 241.609 146.757C248.13 149.497 251.328 150.282 270.218 154.821C289.107 159.36 303.745 161.246 311.939 163.811C320.134 166.375 322.157 168.288 329.786 170.316C337.416 172.339 345.605 172.004 351.515 173.242C357.425 174.481 365.629 176.546 370.312 177.876C374.995 179.206 378.147 179.656 378.147 179.656" stroke="url(#paint107_linear_8629_26284)" stroke-width="0.0703124" stroke-miterlimit="10"/>
<path d="M-12.1367 88.2987C-12.1367 88.2987 -8.74804 88.1196 -1.72422 88.2987C5.30473 88.4778 11.8408 87.064 16.0304 87.9291C20.2201 88.7941 25.8781 87.2965 30.4374 88.314C34.9916 89.3315 38.2314 91.2635 42.9242 92.3191C47.617 93.3747 51.3446 94.8152 56.0785 96.7054C60.8124 98.5918 66.3832 102.3 73.4224 104.811C80.4616 107.322 80.8929 107.551 86.4842 108.66C92.0755 109.769 95.341 109.677 101.168 111.107C106.996 112.536 110.924 115.851 117.275 118.503C123.631 121.156 130.819 123.252 136.909 124.601C142.993 125.95 146.469 127.173 153.267 128.423C160.065 129.673 165.348 129.067 173.394 129.955C181.434 130.843 191.713 131.201 198.696 133.895C205.673 136.589 212.004 140.385 217.231 141.841" stroke="url(#paint108_linear_8629_26284)" stroke-width="0.0703124" stroke-miterlimit="10"/>
<path d="M-12.1367 90.1403C-12.1367 90.1403 -7.45931 89.9917 -1.86285 90.1403C3.72847 90.2889 7.3174 90.0984 13.6275 90.1403C19.9377 90.1822 22.5767 90.7767 27.1412 91.2797C31.7005 91.7827 35.9466 93.2728 41.2094 94.5494C46.4721 95.826 48.9417 97.7086 53.4445 99.2176C57.9474 100.727 62.6813 102.903 67.9902 104.793C73.2991 106.687 73.5815 108.078 79.6093 109.671C85.6319 111.264 97.7849 111.965 100.316 113.638" stroke="url(#paint109_linear_8629_26284)" stroke-width="0.0703124" stroke-miterlimit="10"/>
<path d="M-11.1094 92.6659C-11.1094 92.6659 -7.54612 92.3305 -0.404221 92.3191C6.74282 92.3115 6.5169 92.14 16.0976 92.4906C25.6732 92.8412 27.9015 93.3899 34.8227 94.8723C41.7387 96.3548 43.7051 97.6542 48.8189 99.6664C53.9328 101.678 56.6283 101.93 60.5869 103.508C64.5455 105.085 65.0435 106.183 69.3821 107.764C73.7258 109.346 74.727 110.428 78.4545 111.217C82.1821 112.006 89.3702 112.391 93.0926 113.637" stroke="url(#paint110_linear_8629_26284)" stroke-width="0.0703124" stroke-miterlimit="10"/>
<path d="M-11.1094 94.549C-11.1094 94.549 -7.4075 94.2442 -0.40422 94.8768C6.59906 95.5093 10.7579 94.2708 18.788 95.5284C26.8182 96.786 28.1891 95.6465 34.8175 97.4948C41.446 99.3392 41.0455 101.34 46.909 102.895C52.7776 104.45 53.9225 104.457 61.239 106.953C68.5555 109.453 70.1985 111.93 79.199 113.458" stroke="url(#paint111_linear_8629_26284)" stroke-width="0.0703124" stroke-miterlimit="10"/>
<path d="M-11.1094 97.4947C-11.1094 97.4947 -8.46004 97.5633 -1.29247 97.4947C5.88025 97.4261 10.5525 98.1692 16.0309 98.0625C21.5093 97.9558 25.3857 100.086 29.5445 100.193C33.7034 100.299 37.8006 103.062 42.9247 103.969C48.0488 104.876 50.4876 106.503 56.5102 107.769C62.5328 109.034 65.2387 112.818 73.4228 114.064" stroke="url(#paint112_linear_8629_26284)" stroke-width="0.0703124" stroke-miterlimit="10"/>
<path d="M-12.1367 100.616C-12.1367 100.616 -8.60427 100.722 0.714603 100.616C10.0386 100.509 12.6777 101.069 20.2509 101.854C27.8241 102.639 27.9678 103.752 35.4229 104.792C42.8832 105.833 45.0653 106.808 52.1456 108.664C59.231 110.52 62.1011 113.618 67.6924 114.567" stroke="url(#paint113_linear_8629_26284)" stroke-width="0.0703124" stroke-miterlimit="10"/>
<path d="M-11.1094 103.939C-11.1094 103.939 -4.87625 104.918 2.72261 103.939C10.3266 102.959 9.53078 104.865 16.0925 105.775C22.6594 106.686 25.5243 106.69 32.2658 106.953C39.0072 107.216 45.5381 108.656 48.2952 110.653" stroke="url(#paint114_linear_8629_26284)" stroke-width="0.0703124" stroke-miterlimit="10"/>
<path d="M-11.1094 106.953C-11.1094 106.953 -6.30874 107.955 0.858835 107.586C8.03155 107.216 6.17804 108.184 12.9862 108.287C19.7944 108.39 24.6669 107.971 29.1133 108.287C33.5596 108.603 40.2189 110.017 40.8299 110.032" stroke="url(#paint115_linear_8629_26284)" stroke-width="0.0703124" stroke-miterlimit="10"/>
<path d="M-11.1094 75.9256C-11.1094 75.9256 9.86965 75.3539 30.4071 78.2121C50.9446 81.0702 67.1178 87.5486 75.5895 93.4554C84.0612 99.3621 89.7091 103.363 103.572 107.936C117.435 112.509 120.515 115.177 127.703 119.75C134.891 124.323 157.483 124.895 165.441 125.085C173.399 125.276 188.032 127.372 193.68 129.087C199.328 130.801 213.704 136.899 225.77 138.804C237.836 140.71 246.821 139.185 253.752 136.518C260.683 133.85 269.925 133.278 276.6 134.041C283.275 134.803 288.922 133.278 294.827 134.041C300.732 134.803 310.744 136.327 319.729 133.088C328.714 129.849 335.132 128.705 344.117 126.991C353.102 125.276 352.332 124.323 359.007 123.942C365.681 123.561 372.243 126.8 377.049 126.8" stroke="url(#paint116_linear_8629_26284)" stroke-width="0.468749" stroke-miterlimit="10"/>
<path d="M-11.1094 109.495C-11.1094 109.495 -7.45884 110.566 -0.660938 110.913C6.13696 111.26 35.0332 109.4 44.5523 110.204C54.0714 111.008 60.5304 114.038 64.6071 114.541C68.6838 115.044 80.9242 112.776 85.0008 113.279C89.0775 113.782 97.9189 114.038 100.296 113.279C102.673 112.521 104.717 115.299 109.476 116.812C114.236 118.325 121.373 121.857 130.214 123.119C139.055 124.38 141.094 125.893 146.192 129.174C151.291 132.455 162.509 131.948 173.045 132.2C183.581 132.452 194.876 133.964 201.808 136.994C208.739 140.02 213.155 141.788 219.958 142.04C226.756 142.291 232.876 146.582 237.635 148.095C242.395 149.608 258.029 153.899 266.87 155.412C275.707 156.925 282.849 158.438 292.368 160.964C301.887 163.487 306.307 164.245 312.084 166.01C317.865 167.774 319.22 169.794 325.341 171.055C331.461 172.317 338.259 173.326 345.734 174.588C353.215 175.849 358.991 176.352 365.45 179.382C371.909 182.408 377.049 182.914 377.049 182.914" stroke="url(#paint117_linear_8629_26284)" stroke-width="0.468749" stroke-miterlimit="10"/>
<path d="M-11.1094 120.345C-11.1094 120.345 -6.44224 123.119 6.47583 124.129C19.3939 125.139 21.4322 124.129 32.312 122.235C43.1917 120.341 43.1917 122.506 49.6507 122.433C56.1098 122.361 69.7056 120.593 78.2029 120.341C86.7003 120.09 87.3832 121.496 93.4982 122.433C99.6184 123.371 103.695 123.622 108.793 125.894C113.892 128.165 121.712 130.939 128.848 131.949C135.985 132.959 146.865 132.277 149.242 132.997C151.619 133.717 160.122 138.02 169.98 139.651C179.838 141.285 185.958 142.798 192.756 143.05C199.554 143.301 212.472 143.05 218.931 144.311C225.39 145.573 238.482 148.949 251.632 151.99" stroke="url(#paint118_linear_8629_26284)" stroke-width="0.468749" stroke-miterlimit="10"/>
<path d="M-11.1094 167.13C-11.1094 167.13 -7.80798 166.772 -6.11877 165.876C-4.42956 164.981 -0.809836 164.264 4.9766 163.369C10.7682 162.473 12.2109 160.503 16.3133 159.074C20.4156 157.641 31.2697 155.133 38.0214 153.167C44.7731 151.197 50.3233 149.227 53.7017 149.227C57.0801 149.227 65.0384 149.585 69.3821 150.122C73.7258 150.659 77.5817 152.092 84.8211 153.525C92.0555 154.958 95.4339 155.915 101.225 155.434C107.017 154.954 118.354 151.894 122.451 151.993C126.553 152.092 127.519 151.197 133.305 150.659C139.091 150.122 143.918 150.999 149.951 151.993C155.983 152.988 163.942 155.377 169.969 155.434C175.997 155.492 184.926 155.556 189.264 155.434C193.608 155.312 197.947 153.704 200.601 153.167C203.256 152.63 204.462 151.018 209.283 151.018C214.104 151.018 217.966 150.301 222.309 149.943C226.653 149.585 230.026 149.764 234.852 151.197C239.679 152.63 241.845 152.092 245.707 153.346C249.568 154.6 253.182 157.107 258.974 158.178C264.76 159.253 265.967 160.148 270.31 160.686C274.654 161.223 279.717 161.581 286.232 162.835C292.742 164.089 295.397 165.88 301.671 168.025C307.94 170.175 311.56 171.608 318.558 173.216C325.551 174.828 326.999 175.902 331.101 176.798C335.204 177.693 340.99 180.891 340.99 180.891" stroke="url(#paint119_linear_8629_26284)" stroke-width="0.468749" stroke-miterlimit="10"/>
<path d="M-11.1094 175.365C-11.1094 175.365 -6.11877 176.081 0.874237 175.365C7.86724 174.649 14.3828 172.141 19.6866 169.637C24.9955 167.13 26.1969 166.234 31.7472 165.251C37.2974 164.268 40.912 160.865 44.5318 159.79C48.1515 158.716 52.2487 158.178 55.6271 156.566C59.0055 154.954 62.1375 155.194 67.9291 155.434C73.7155 155.671 77.3352 154.661 81.4376 155.434C85.5399 156.208 86.2639 156.924 90.8437 156.745C95.4287 156.566 97.8367 157.462 101.698 157.462C105.559 157.462 111.828 156.627 117.378 155.434C122.928 154.242 123.165 155.141 127.75 155.137C132.335 155.137 132.093 154.672 141.982 154.813C151.871 154.954 154.284 155.85 161.518 157.104C168.753 158.357 170.442 159.074 179.607 159.253C188.772 159.432 194.08 159.611 203.004 157.462C211.928 155.312 215.789 155.671 221.816 154.059C227.844 152.447 234.118 153.701 238.221 154.059C242.323 154.417 245.696 155.671 249.557 158.178C253.418 160.686 253.66 162.526 262.342 164.47C271.024 166.413 273.92 166.234 278.746 166.055C283.572 165.876 283.572 164.801 292.737 168.025C301.902 171.249 306.97 173.037 313.48 174.828C319.991 176.619 328.349 179.206 333.982 179.839C339.614 180.472 347.008 182.232 354.001 182.914C360.994 183.596 359.551 184.492 365.096 186.462C370.646 188.432 377.044 190.795 377.044 190.795" stroke="url(#paint120_linear_8629_26284)" stroke-width="0.468749" stroke-miterlimit="10"/>
<path d="M250.441 148.804C250.441 148.804 253.994 147.935 257.475 146.209C260.951 144.483 260.438 144.578 264.304 143.431C268.17 142.284 268.684 141.709 270.743 140.466C272.802 139.224 276.283 138.744 280.277 137.216C284.272 135.687 289.55 135.303 292.256 135.493C294.962 135.684 297.667 136.831 302.432 137.501C307.197 138.172 313.64 137.882 318.918 136.926C324.202 135.969 325.357 132.799 328.581 132.997C331.801 133.195 332.961 134.312 338.886 132.989C344.811 131.667 344.811 130.615 353.314 129.563C361.816 128.512 370.39 131.667 377.05 131.953" stroke="url(#paint121_linear_8629_26284)" stroke-width="0.468749" stroke-miterlimit="10"/>
<path d="M204.797 133C214.491 136.159 220.298 139.776 229.817 141.792C239.336 143.811 244.434 146.586 251.91 149.36C259.385 152.134 261.429 152.641 270.604 154.154C279.784 155.667 286.243 155.918 294.402 157.938C302.56 159.958 308.342 161.219 319.899 163.993C331.457 166.768 332.478 168.029 339.276 169.546C346.074 171.059 350.495 170.807 358.653 172.32C366.812 173.833 370.622 176.863 377.055 177.872" stroke="url(#paint122_linear_8629_26284)" stroke-width="0.468749" stroke-miterlimit="10"/>
<path opacity="0.3" d="M299.032 126.567C299.032 126.567 299.032 126.571 299.027 126.579C296.403 127.139 293.564 127.562 290.427 127.817C284.507 128.301 283.85 128.698 280.302 129.456C276.749 130.214 278.325 131.041 273.463 130.942C268.596 130.847 270.305 131.335 266.624 130.942C262.938 130.553 261.361 129.38 258.861 128.892C256.366 128.404 255.313 128.991 253.336 128.309C251.365 127.623 246.831 127.855 246.831 127.855C246.466 127.623 246.051 127.383 245.573 127.124C242.272 125.363 240.295 125.363 236.86 124.186C234.919 123.522 233.23 122.886 231.484 122.17C234.96 110.878 245.01 95.7827 265.894 96.1168C280.542 96.3511 298.134 113.138 299.032 126.567Z" fill="url(#paint123_linear_8629_26284)"/>
</g>
<g clip-path="url(#clip1_8629_26284)">
<path d="M338.797 85.1986C339.227 84.9194 339.75 84.7185 340.299 84.5755C340.853 84.4427 341.458 84.3951 342.049 84.453C342.635 84.5142 343.221 84.6606 343.716 84.9092C343.849 84.9602 343.968 85.0249 344.083 85.0998L344.426 85.3075C344.641 85.4573 344.838 85.6207 345.044 85.7773L344.678 85.7943C345.049 85.4096 345.498 85.0964 346.025 84.8479C346.556 84.6096 347.188 84.4564 347.82 84.4938C348.448 84.5313 349.034 84.7049 349.533 84.9568C349.78 85.0862 349.996 85.2428 350.22 85.3858C350.422 85.5492 350.614 85.716 350.806 85.8829C350.577 85.7399 350.358 85.5969 350.138 85.4539C349.895 85.3347 349.661 85.1986 349.409 85.0998C348.91 84.8853 348.356 84.7594 347.806 84.756C347.257 84.756 346.716 84.8887 346.254 85.1202C345.791 85.3415 345.37 85.648 345.058 85.9748C344.985 86.0531 344.838 86.0735 344.733 86.0156C344.719 86.0088 344.71 86.002 344.701 85.9952H344.696C344.504 85.8454 344.325 85.6888 344.128 85.5458C343.913 85.4233 343.721 85.27 343.487 85.1713C343.047 84.9296 342.525 84.7934 342.003 84.7015C340.931 84.5381 339.777 84.7628 338.806 85.1917L338.797 85.1986Z" fill="url(#paint124_linear_8629_26284)"/>
<path d="M277.762 66.4698C278.275 66.2928 278.824 66.1838 279.383 66.1055C279.942 66.0374 280.519 66.0102 281.092 66.0408C281.664 66.0612 282.232 66.1702 282.768 66.3234C283.313 66.4698 283.803 66.7115 284.261 66.9737H284.05C284.472 66.7081 284.934 66.5107 285.429 66.354C285.924 66.2008 286.451 66.0919 286.986 66.0681C287.518 66.0442 288.058 66.0578 288.576 66.16C289.093 66.2485 289.579 66.4051 290.041 66.589C289.794 66.5277 289.551 66.4528 289.304 66.3983C289.052 66.354 288.805 66.2928 288.548 66.2757C288.04 66.2042 287.522 66.2076 287.018 66.2519C286.515 66.2996 286.015 66.4017 285.553 66.5549C285.09 66.7047 284.641 66.9124 284.279 67.1541C284.22 67.195 284.133 67.195 284.069 67.1609C283.634 66.9158 283.189 66.6741 282.672 66.5311C282.168 66.3745 281.627 66.2757 281.082 66.2315C279.988 66.1396 278.852 66.2315 277.775 66.4766L277.762 66.4698Z" fill="url(#paint125_linear_8629_26284)"/>
<path d="M238.738 81.3803C238.967 81.1488 239.279 80.9649 239.618 80.8151C239.961 80.6721 240.36 80.5802 240.772 80.5734C241.18 80.5666 241.596 80.6245 241.963 80.7573C242.16 80.8083 242.315 80.9036 242.494 80.9785C242.654 81.0671 242.81 81.1624 242.966 81.2543L242.627 81.2781C242.915 81.016 243.245 80.8185 243.639 80.6687C244.033 80.5292 244.473 80.4475 244.912 80.4781C245.347 80.5087 245.755 80.6177 246.112 80.7777C246.291 80.856 246.447 80.9615 246.612 81.0534C246.758 81.159 246.9 81.2679 247.042 81.3769C246.868 81.2952 246.703 81.2135 246.538 81.1283C246.36 81.0637 246.19 80.982 246.007 80.9309C245.65 80.8117 245.27 80.7539 244.903 80.747C244.532 80.747 244.17 80.8253 243.845 80.9581C243.52 81.0841 243.222 81.2781 242.998 81.479C242.915 81.5539 242.764 81.5641 242.663 81.5028C242.521 81.4177 242.389 81.3258 242.242 81.2475C242.086 81.1828 241.949 81.0943 241.784 81.0432C241.473 80.9105 241.125 80.856 240.776 80.8322C240.067 80.7981 239.338 81.0228 238.747 81.3769L238.738 81.3803Z" fill="url(#paint126_linear_8629_26284)"/>
</g>
<path d="M296.836 92.6949C297.024 92.5009 297.285 92.3409 297.573 92.2183C297.866 92.0992 298.201 92.0209 298.549 92.0209C298.892 92.0209 299.24 92.0651 299.552 92.1707C299.712 92.2149 299.854 92.2864 300.005 92.3443C300.143 92.4158 300.276 92.4907 300.413 92.5656L300.079 92.603C300.326 92.3307 300.633 92.123 301.008 91.963C301.379 91.8064 301.824 91.7281 302.249 91.7553C302.675 91.7928 303.065 91.9153 303.404 92.0821C303.569 92.1673 303.715 92.2694 303.866 92.3647C304.004 92.4736 304.136 92.5792 304.265 92.6915C304.1 92.6098 303.94 92.5281 303.784 92.443C303.614 92.3715 303.449 92.3 303.28 92.2387C302.936 92.123 302.579 92.0447 302.227 92.0379C301.869 92.0345 301.53 92.1162 301.228 92.249C300.926 92.3817 300.656 92.5826 300.454 92.7834C300.376 92.8651 300.23 92.8788 300.124 92.8243L299.767 92.62C299.639 92.569 299.52 92.4941 299.382 92.4532C299.117 92.3511 298.833 92.2966 298.54 92.2728C297.953 92.2353 297.335 92.3988 296.836 92.6949Z" fill="url(#paint127_linear_8629_26284)"/>
</g>
<defs>
<linearGradient id="paint0_linear_8629_26284" x1="246.796" y1="121.148" x2="377.127" y2="121.148" gradientUnits="userSpaceOnUse">
<stop stop-color="#EFD983"/>
<stop offset="1" stop-color="#B1803D"/>
</linearGradient>
<linearGradient id="paint1_linear_8629_26284" x1="-11.171" y1="96.6829" x2="112.059" y2="96.6829" gradientUnits="userSpaceOnUse">
<stop stop-color="#EFD983"/>
<stop offset="1" stop-color="#B1803D"/>
</linearGradient>
<linearGradient id="paint2_linear_8629_26284" x1="6.25039" y1="82.1907" x2="47.563" y2="43.6515" gradientUnits="userSpaceOnUse">
<stop stop-color="#EFD983"/>
<stop offset="1" stop-color="#B1803D"/>
</linearGradient>
<linearGradient id="paint3_linear_8629_26284" x1="39.1719" y1="70.2582" x2="107.675" y2="70.2582" gradientUnits="userSpaceOnUse">
<stop stop-color="#EFD983"/>
<stop offset="1" stop-color="#B1803D"/>
</linearGradient>
<linearGradient id="paint4_linear_8629_26284" x1="-10.172" y1="57.4182" x2="40.304" y2="57.4182" gradientUnits="userSpaceOnUse">
<stop stop-color="#EFD983"/>
<stop offset="1" stop-color="#B1803D"/>
</linearGradient>
<linearGradient id="paint5_linear_8629_26284" x1="-0.479359" y1="63.142" x2="39.7792" y2="63.142" gradientUnits="userSpaceOnUse">
<stop stop-color="#EFD983"/>
<stop offset="1" stop-color="#B1803D"/>
</linearGradient>
<linearGradient id="paint6_linear_8629_26284" x1="16.0171" y1="67.1819" x2="44.9553" y2="67.1819" gradientUnits="userSpaceOnUse">
<stop stop-color="#EFD983"/>
<stop offset="1" stop-color="#B1803D"/>
</linearGradient>
<linearGradient id="paint7_linear_8629_26284" x1="30.8512" y1="71.7542" x2="51.5947" y2="71.7542" gradientUnits="userSpaceOnUse">
<stop stop-color="#EFD983"/>
<stop offset="1" stop-color="#B1803D"/>
</linearGradient>
<linearGradient id="paint8_linear_8629_26284" x1="44.7359" y1="78.1033" x2="51.6108" y2="78.1033" gradientUnits="userSpaceOnUse">
<stop stop-color="#EFD983"/>
<stop offset="1" stop-color="#B1803D"/>
</linearGradient>
<linearGradient id="paint9_linear_8629_26284" x1="-10.1744" y1="56.8203" x2="33.786" y2="56.8203" gradientUnits="userSpaceOnUse">
<stop stop-color="#EFD983"/>
<stop offset="1" stop-color="#B1803D"/>
</linearGradient>
<linearGradient id="paint10_linear_8629_26284" x1="-10.1693" y1="59.2554" x2="20.3606" y2="59.2554" gradientUnits="userSpaceOnUse">
<stop stop-color="#EFD983"/>
<stop offset="1" stop-color="#B1803D"/>
</linearGradient>
<linearGradient id="paint11_linear_8629_26284" x1="-6.36217" y1="60.4595" x2="40.9151" y2="60.4595" gradientUnits="userSpaceOnUse">
<stop stop-color="#EFD983"/>
<stop offset="1" stop-color="#B1803D"/>
</linearGradient>
<linearGradient id="paint12_linear_8629_26284" x1="7.99821" y1="65.1738" x2="42.3728" y2="65.1738" gradientUnits="userSpaceOnUse">
<stop stop-color="#EFD983"/>
<stop offset="1" stop-color="#B1803D"/>
</linearGradient>
<linearGradient id="paint13_linear_8629_26284" x1="23.5455" y1="68.9012" x2="50.0808" y2="68.9012" gradientUnits="userSpaceOnUse">
<stop stop-color="#EFD983"/>
<stop offset="1" stop-color="#B1803D"/>
</linearGradient>
<linearGradient id="paint14_linear_8629_26284" x1="37.4252" y1="75.3258" x2="50.0771" y2="75.3258" gradientUnits="userSpaceOnUse">
<stop stop-color="#EFD983"/>
<stop offset="1" stop-color="#B1803D"/>
</linearGradient>
<linearGradient id="paint15_linear_8629_26284" x1="48.7355" y1="80.0478" x2="53.3566" y2="80.0478" gradientUnits="userSpaceOnUse">
<stop stop-color="#EFD983"/>
<stop offset="1" stop-color="#B1803D"/>
</linearGradient>
<linearGradient id="paint16_linear_8629_26284" x1="46.8268" y1="79.0904" x2="52.7161" y2="79.0904" gradientUnits="userSpaceOnUse">
<stop stop-color="#EFD983"/>
<stop offset="1" stop-color="#B1803D"/>
</linearGradient>
<linearGradient id="paint17_linear_8629_26284" x1="50.7824" y1="81.5716" x2="53.55" y2="81.5716" gradientUnits="userSpaceOnUse">
<stop stop-color="#EFD983"/>
<stop offset="1" stop-color="#B1803D"/>
</linearGradient>
<linearGradient id="paint18_linear_8629_26284" x1="41.1107" y1="76.8381" x2="50.2502" y2="76.8381" gradientUnits="userSpaceOnUse">
<stop stop-color="#EFD983"/>
<stop offset="1" stop-color="#B1803D"/>
</linearGradient>
<linearGradient id="paint19_linear_8629_26284" x1="34.7497" y1="73.1352" x2="51.1494" y2="73.1352" gradientUnits="userSpaceOnUse">
<stop stop-color="#EFD983"/>
<stop offset="1" stop-color="#B1803D"/>
</linearGradient>
<linearGradient id="paint20_linear_8629_26284" x1="27.0802" y1="70.2387" x2="51.1406" y2="70.2387" gradientUnits="userSpaceOnUse">
<stop stop-color="#EFD983"/>
<stop offset="1" stop-color="#B1803D"/>
</linearGradient>
<linearGradient id="paint21_linear_8629_26284" x1="19.5509" y1="68.0362" x2="48.2375" y2="68.0362" gradientUnits="userSpaceOnUse">
<stop stop-color="#EFD983"/>
<stop offset="1" stop-color="#B1803D"/>
</linearGradient>
<linearGradient id="paint22_linear_8629_26284" x1="11.807" y1="66.5038" x2="43.8095" y2="66.5038" gradientUnits="userSpaceOnUse">
<stop stop-color="#EFD983"/>
<stop offset="1" stop-color="#B1803D"/>
</linearGradient>
<linearGradient id="paint23_linear_8629_26284" x1="4.15345" y1="64.2821" x2="41.2647" y2="64.2821" gradientUnits="userSpaceOnUse">
<stop stop-color="#EFD983"/>
<stop offset="1" stop-color="#B1803D"/>
</linearGradient>
<linearGradient id="paint24_linear_8629_26284" x1="-3.29164" y1="62.3882" x2="39.4879" y2="62.3882" gradientUnits="userSpaceOnUse">
<stop stop-color="#EFD983"/>
<stop offset="1" stop-color="#B1803D"/>
</linearGradient>
<linearGradient id="paint25_linear_8629_26284" x1="-9.6759" y1="59.1062" x2="41.8834" y2="59.1062" gradientUnits="userSpaceOnUse">
<stop stop-color="#EFD983"/>
<stop offset="1" stop-color="#B1803D"/>
</linearGradient>
<linearGradient id="paint26_linear_8629_26284" x1="-10.1744" y1="57.13" x2="36.1632" y2="57.13" gradientUnits="userSpaceOnUse">
<stop stop-color="#EFD983"/>
<stop offset="1" stop-color="#B1803D"/>
</linearGradient>
<linearGradient id="paint27_linear_8629_26284" x1="-11.4585" y1="60.4492" x2="108.054" y2="60.4492" gradientUnits="userSpaceOnUse">
<stop stop-color="#EFD983"/>
<stop offset="1" stop-color="#B1803D"/>
</linearGradient>
<linearGradient id="paint28_linear_8629_26284" x1="38.6585" y1="62.3051" x2="53.9537" y2="62.3051" gradientUnits="userSpaceOnUse">
<stop stop-color="#EFD983"/>
<stop offset="1" stop-color="#B1803D"/>
</linearGradient>
<linearGradient id="paint29_linear_8629_26284" x1="112.157" y1="136.05" x2="157.781" y2="95.7087" gradientUnits="userSpaceOnUse">
<stop stop-color="#EFD983"/>
<stop offset="1" stop-color="#B1803D"/>
</linearGradient>
<linearGradient id="paint30_linear_8629_26284" x1="121.512" y1="104.417" x2="264.853" y2="104.417" gradientUnits="userSpaceOnUse">
<stop stop-color="#EFD983"/>
<stop offset="1" stop-color="#B1803D"/>
</linearGradient>
<linearGradient id="paint31_linear_8629_26284" x1="90.9365" y1="87.1095" x2="123.735" y2="87.1095" gradientUnits="userSpaceOnUse">
<stop stop-color="#EFD983"/>
<stop offset="1" stop-color="#B1803D"/>
</linearGradient>
<linearGradient id="paint32_linear_8629_26284" x1="98.3831" y1="91.2591" x2="130.334" y2="91.2591" gradientUnits="userSpaceOnUse">
<stop stop-color="#EFD983"/>
<stop offset="1" stop-color="#B1803D"/>
</linearGradient>
<linearGradient id="paint33_linear_8629_26284" x1="108.662" y1="96.3288" x2="134.186" y2="96.3288" gradientUnits="userSpaceOnUse">
<stop stop-color="#EFD983"/>
<stop offset="1" stop-color="#B1803D"/>
</linearGradient>
<linearGradient id="paint34_linear_8629_26284" x1="116.017" y1="99.6589" x2="136.971" y2="99.6589" gradientUnits="userSpaceOnUse">
<stop stop-color="#EFD983"/>
<stop offset="1" stop-color="#B1803D"/>
</linearGradient>
<linearGradient id="paint35_linear_8629_26284" x1="123.573" y1="104.22" x2="143.7" y2="104.22" gradientUnits="userSpaceOnUse">
<stop stop-color="#EFD983"/>
<stop offset="1" stop-color="#B1803D"/>
</linearGradient>
<linearGradient id="paint36_linear_8629_26284" x1="130.179" y1="108.633" x2="150.28" y2="108.633" gradientUnits="userSpaceOnUse">
<stop stop-color="#EFD983"/>
<stop offset="1" stop-color="#B1803D"/>
</linearGradient>
<linearGradient id="paint37_linear_8629_26284" x1="140.111" y1="112.265" x2="157.168" y2="112.265" gradientUnits="userSpaceOnUse">
<stop stop-color="#EFD983"/>
<stop offset="1" stop-color="#B1803D"/>
</linearGradient>
<linearGradient id="paint38_linear_8629_26284" x1="150.069" y1="114.171" x2="164.04" y2="114.171" gradientUnits="userSpaceOnUse">
<stop stop-color="#EFD983"/>
<stop offset="1" stop-color="#B1803D"/>
</linearGradient>
<linearGradient id="paint39_linear_8629_26284" x1="160.06" y1="116.792" x2="169.01" y2="116.792" gradientUnits="userSpaceOnUse">
<stop stop-color="#EFD983"/>
<stop offset="1" stop-color="#B1803D"/>
</linearGradient>
<linearGradient id="paint40_linear_8629_26284" x1="170.097" y1="118.236" x2="177.326" y2="118.236" gradientUnits="userSpaceOnUse">
<stop stop-color="#EFD983"/>
<stop offset="1" stop-color="#B1803D"/>
</linearGradient>
<linearGradient id="paint41_linear_8629_26284" x1="179.767" y1="120.482" x2="186.92" y2="120.482" gradientUnits="userSpaceOnUse">
<stop stop-color="#EFD983"/>
<stop offset="1" stop-color="#B1803D"/>
</linearGradient>
<linearGradient id="paint42_linear_8629_26284" x1="188.377" y1="121.769" x2="197.373" y2="121.769" gradientUnits="userSpaceOnUse">
<stop stop-color="#EFD983"/>
<stop offset="1" stop-color="#B1803D"/>
</linearGradient>
<linearGradient id="paint43_linear_8629_26284" x1="197.164" y1="125.306" x2="206.221" y2="125.306" gradientUnits="userSpaceOnUse">
<stop stop-color="#EFD983"/>
<stop offset="1" stop-color="#B1803D"/>
</linearGradient>
<linearGradient id="paint44_linear_8629_26284" x1="214.378" y1="133.903" x2="219.169" y2="133.903" gradientUnits="userSpaceOnUse">
<stop stop-color="#EFD983"/>
<stop offset="1" stop-color="#B1803D"/>
</linearGradient>
<linearGradient id="paint45_linear_8629_26284" x1="221.325" y1="136.574" x2="224.088" y2="136.574" gradientUnits="userSpaceOnUse">
<stop stop-color="#EFD983"/>
<stop offset="1" stop-color="#B1803D"/>
</linearGradient>
<linearGradient id="paint46_linear_8629_26284" x1="87.4872" y1="85.7069" x2="122.627" y2="85.7069" gradientUnits="userSpaceOnUse">
<stop stop-color="#EFD983"/>
<stop offset="1" stop-color="#B1803D"/>
</linearGradient>
<linearGradient id="paint47_linear_8629_26284" x1="92.9705" y1="88.2759" x2="125.286" y2="88.2759" gradientUnits="userSpaceOnUse">
<stop stop-color="#EFD983"/>
<stop offset="1" stop-color="#B1803D"/>
</linearGradient>
<linearGradient id="paint48_linear_8629_26284" x1="95.3741" y1="89.5635" x2="127.89" y2="89.5635" gradientUnits="userSpaceOnUse">
<stop stop-color="#EFD983"/>
<stop offset="1" stop-color="#B1803D"/>
</linearGradient>
<linearGradient id="paint49_linear_8629_26284" x1="101.059" y1="92.3123" x2="130.392" y2="92.3123" gradientUnits="userSpaceOnUse">
<stop stop-color="#EFD983"/>
<stop offset="1" stop-color="#B1803D"/>
</linearGradient>
<linearGradient id="paint50_linear_8629_26284" x1="104.735" y1="94.1604" x2="132.215" y2="94.1604" gradientUnits="userSpaceOnUse">
<stop stop-color="#EFD983"/>
<stop offset="1" stop-color="#B1803D"/>
</linearGradient>
<linearGradient id="paint51_linear_8629_26284" x1="110.398" y1="97.4905" x2="135.459" y2="97.4905" gradientUnits="userSpaceOnUse">
<stop stop-color="#EFD983"/>
<stop offset="1" stop-color="#B1803D"/>
</linearGradient>
<linearGradient id="paint52_linear_8629_26284" x1="113.329" y1="98.6405" x2="136.311" y2="98.6405" gradientUnits="userSpaceOnUse">
<stop stop-color="#EFD983"/>
<stop offset="1" stop-color="#B1803D"/>
</linearGradient>
<linearGradient id="paint53_linear_8629_26284" x1="118.36" y1="101.054" x2="138.528" y2="101.054" gradientUnits="userSpaceOnUse">
<stop stop-color="#EFD983"/>
<stop offset="1" stop-color="#B1803D"/>
</linearGradient>
<linearGradient id="paint54_linear_8629_26284" x1="121.603" y1="102.894" x2="141.51" y2="102.894" gradientUnits="userSpaceOnUse">
<stop stop-color="#EFD983"/>
<stop offset="1" stop-color="#B1803D"/>
</linearGradient>
<linearGradient id="paint55_linear_8629_26284" x1="125.675" y1="105.589" x2="145.674" y2="105.589" gradientUnits="userSpaceOnUse">
<stop stop-color="#EFD983"/>
<stop offset="1" stop-color="#B1803D"/>
</linearGradient>
<linearGradient id="paint56_linear_8629_26284" x1="127.6" y1="106.964" x2="147.676" y2="106.964" gradientUnits="userSpaceOnUse">
<stop stop-color="#EFD983"/>
<stop offset="1" stop-color="#B1803D"/>
</linearGradient>
<linearGradient id="paint57_linear_8629_26284" x1="132.78" y1="109.658" x2="151.706" y2="109.658" gradientUnits="userSpaceOnUse">
<stop stop-color="#EFD983"/>
<stop offset="1" stop-color="#B1803D"/>
</linearGradient>
<linearGradient id="paint58_linear_8629_26284" x1="136.787" y1="111.213" x2="154.686" y2="111.213" gradientUnits="userSpaceOnUse">
<stop stop-color="#EFD983"/>
<stop offset="1" stop-color="#B1803D"/>
</linearGradient>
<linearGradient id="paint59_linear_8629_26284" x1="143.351" y1="112.68" x2="157.928" y2="112.68" gradientUnits="userSpaceOnUse">
<stop stop-color="#EFD983"/>
<stop offset="1" stop-color="#B1803D"/>
</linearGradient>
<linearGradient id="paint60_linear_8629_26284" x1="147.442" y1="113.455" x2="161.3" y2="113.455" gradientUnits="userSpaceOnUse">
<stop stop-color="#EFD983"/>
<stop offset="1" stop-color="#B1803D"/>
</linearGradient>
<linearGradient id="paint61_linear_8629_26284" x1="153.167" y1="114.708" x2="166.239" y2="114.708" gradientUnits="userSpaceOnUse">
<stop stop-color="#EFD983"/>
<stop offset="1" stop-color="#B1803D"/>
</linearGradient>
<linearGradient id="paint62_linear_8629_26284" x1="156.94" y1="115.695" x2="167.312" y2="115.695" gradientUnits="userSpaceOnUse">
<stop stop-color="#EFD983"/>
<stop offset="1" stop-color="#B1803D"/>
</linearGradient>
<linearGradient id="paint63_linear_8629_26284" x1="163.804" y1="117.222" x2="171.675" y2="117.222" gradientUnits="userSpaceOnUse">
<stop stop-color="#EFD983"/>
<stop offset="1" stop-color="#B1803D"/>
</linearGradient>
<linearGradient id="paint64_linear_8629_26284" x1="166.496" y1="117.775" x2="174.635" y2="117.775" gradientUnits="userSpaceOnUse">
<stop stop-color="#EFD983"/>
<stop offset="1" stop-color="#B1803D"/>
</linearGradient>
<linearGradient id="paint65_linear_8629_26284" x1="173.282" y1="118.968" x2="180.465" y2="118.968" gradientUnits="userSpaceOnUse">
<stop stop-color="#EFD983"/>
<stop offset="1" stop-color="#B1803D"/>
</linearGradient>
<linearGradient id="paint66_linear_8629_26284" x1="176.754" y1="119.78" x2="183.399" y2="119.78" gradientUnits="userSpaceOnUse">
<stop stop-color="#EFD983"/>
<stop offset="1" stop-color="#B1803D"/>
</linearGradient>
<linearGradient id="paint67_linear_8629_26284" x1="182.793" y1="120.386" x2="191.825" y2="120.386" gradientUnits="userSpaceOnUse">
<stop stop-color="#EFD983"/>
<stop offset="1" stop-color="#B1803D"/>
</linearGradient>
<linearGradient id="paint68_linear_8629_26284" x1="185.657" y1="121.014" x2="194.755" y2="121.014" gradientUnits="userSpaceOnUse">
<stop stop-color="#EFD983"/>
<stop offset="1" stop-color="#B1803D"/>
</linearGradient>
<linearGradient id="paint69_linear_8629_26284" x1="191.073" y1="122.607" x2="199.956" y2="122.607" gradientUnits="userSpaceOnUse">
<stop stop-color="#EFD983"/>
<stop offset="1" stop-color="#B1803D"/>
</linearGradient>
<linearGradient id="paint70_linear_8629_26284" x1="194.746" y1="123.731" x2="202.638" y2="123.731" gradientUnits="userSpaceOnUse">
<stop stop-color="#EFD983"/>
<stop offset="1" stop-color="#B1803D"/>
</linearGradient>
<linearGradient id="paint71_linear_8629_26284" x1="200.16" y1="126.601" x2="207.775" y2="126.601" gradientUnits="userSpaceOnUse">
<stop stop-color="#EFD983"/>
<stop offset="1" stop-color="#B1803D"/>
</linearGradient>
<linearGradient id="paint72_linear_8629_26284" x1="202.578" y1="128.312" x2="210.634" y2="128.312" gradientUnits="userSpaceOnUse">
<stop stop-color="#EFD983"/>
<stop offset="1" stop-color="#B1803D"/>
</linearGradient>
<linearGradient id="paint73_linear_8629_26284" x1="208.077" y1="131.021" x2="214.752" y2="131.021" gradientUnits="userSpaceOnUse">
<stop stop-color="#EFD983"/>
<stop offset="1" stop-color="#B1803D"/>
</linearGradient>
<linearGradient id="paint74_linear_8629_26284" x1="211.101" y1="132.267" x2="216.893" y2="132.267" gradientUnits="userSpaceOnUse">
<stop stop-color="#EFD983"/>
<stop offset="1" stop-color="#B1803D"/>
</linearGradient>
<linearGradient id="paint75_linear_8629_26284" x1="217.15" y1="135.202" x2="221.447" y2="135.202" gradientUnits="userSpaceOnUse">
<stop stop-color="#EFD983"/>
<stop offset="1" stop-color="#B1803D"/>
</linearGradient>
<linearGradient id="paint76_linear_8629_26284" x1="219.88" y1="135.995" x2="222.797" y2="135.995" gradientUnits="userSpaceOnUse">
<stop stop-color="#EFD983"/>
<stop offset="1" stop-color="#B1803D"/>
</linearGradient>
<linearGradient id="paint77_linear_8629_26284" x1="224.284" y1="137.484" x2="226.06" y2="137.484" gradientUnits="userSpaceOnUse">
<stop stop-color="#EFD983"/>
<stop offset="1" stop-color="#B1803D"/>
</linearGradient>
<linearGradient id="paint78_linear_8629_26284" x1="206.154" y1="129.97" x2="211.899" y2="129.97" gradientUnits="userSpaceOnUse">
<stop stop-color="#EFD983"/>
<stop offset="1" stop-color="#B1803D"/>
</linearGradient>
<linearGradient id="paint79_linear_8629_26284" x1="84.0768" y1="101.551" x2="265.222" y2="101.551" gradientUnits="userSpaceOnUse">
<stop stop-color="#EFD983"/>
<stop offset="1" stop-color="#B1803D"/>
</linearGradient>
<linearGradient id="paint80_linear_8629_26284" x1="121.106" y1="104.47" x2="232.948" y2="104.47" gradientUnits="userSpaceOnUse">
<stop stop-color="#EFD983"/>
<stop offset="1" stop-color="#B1803D"/>
</linearGradient>
<linearGradient id="paint81_linear_8629_26284" x1="-10.0781" y1="131.099" x2="251.631" y2="131.099" gradientUnits="userSpaceOnUse">
<stop stop-color="#EFD983"/>
<stop offset="1" stop-color="#B1803D"/>
</linearGradient>
<linearGradient id="paint82_linear_8629_26284" x1="211.777" y1="136.354" x2="374.994" y2="136.354" gradientUnits="userSpaceOnUse">
<stop stop-color="#EFD983"/>
<stop offset="1" stop-color="#B1803D"/>
</linearGradient>
<linearGradient id="paint83_linear_8629_26284" x1="-11.1504" y1="154.391" x2="376.561" y2="154.391" gradientUnits="userSpaceOnUse">
<stop stop-color="#EFD983"/>
<stop offset="1" stop-color="#B1803D"/>
</linearGradient>
<linearGradient id="paint84_linear_8629_26284" x1="-12.1778" y1="138.541" x2="225.954" y2="138.541" gradientUnits="userSpaceOnUse">
<stop stop-color="#EFD983"/>
<stop offset="1" stop-color="#B1803D"/>
</linearGradient>
<linearGradient id="paint85_linear_8629_26284" x1="-12.1624" y1="140.808" x2="219.074" y2="140.808" gradientUnits="userSpaceOnUse">
<stop stop-color="#EFD983"/>
<stop offset="1" stop-color="#B1803D"/>
</linearGradient>
<linearGradient id="paint86_linear_8629_26284" x1="-12.147" y1="143.941" x2="206.613" y2="143.941" gradientUnits="userSpaceOnUse">
<stop stop-color="#EFD983"/>
<stop offset="1" stop-color="#B1803D"/>
</linearGradient>
<linearGradient id="paint87_linear_8629_26284" x1="-12.1419" y1="146.65" x2="198.706" y2="146.65" gradientUnits="userSpaceOnUse">
<stop stop-color="#EFD983"/>
<stop offset="1" stop-color="#B1803D"/>
</linearGradient>
<linearGradient id="paint88_linear_8629_26284" x1="-12.1521" y1="149.825" x2="182.831" y2="149.825" gradientUnits="userSpaceOnUse">
<stop stop-color="#EFD983"/>
<stop offset="1" stop-color="#B1803D"/>
</linearGradient>
<linearGradient id="paint89_linear_8629_26284" x1="-12.1419" y1="151.121" x2="133.335" y2="151.121" gradientUnits="userSpaceOnUse">
<stop stop-color="#EFD983"/>
<stop offset="1" stop-color="#B1803D"/>
</linearGradient>
<linearGradient id="paint90_linear_8629_26284" x1="-12.1419" y1="156.765" x2="42.2927" y2="156.765" gradientUnits="userSpaceOnUse">
<stop stop-color="#EFD983"/>
<stop offset="1" stop-color="#B1803D"/>
</linearGradient>
<linearGradient id="paint91_linear_8629_26284" x1="69.3674" y1="151.662" x2="117.292" y2="151.662" gradientUnits="userSpaceOnUse">
<stop stop-color="#EFD983"/>
<stop offset="1" stop-color="#B1803D"/>
</linearGradient>
<linearGradient id="paint92_linear_8629_26284" x1="252.272" y1="141.558" x2="376.55" y2="141.558" gradientUnits="userSpaceOnUse">
<stop stop-color="#EFD983"/>
<stop offset="1" stop-color="#B1803D"/>
</linearGradient>
<linearGradient id="paint93_linear_8629_26284" x1="250.428" y1="143.197" x2="376.549" y2="143.197" gradientUnits="userSpaceOnUse">
<stop stop-color="#EFD983"/>
<stop offset="1" stop-color="#B1803D"/>
</linearGradient>
<linearGradient id="paint94_linear_8629_26284" x1="254.385" y1="147.256" x2="377.066" y2="147.256" gradientUnits="userSpaceOnUse">
<stop stop-color="#EFD983"/>
<stop offset="1" stop-color="#B1803D"/>
</linearGradient>
<linearGradient id="paint95_linear_8629_26284" x1="260.327" y1="151.356" x2="379.367" y2="151.356" gradientUnits="userSpaceOnUse">
<stop stop-color="#EFD983"/>
<stop offset="1" stop-color="#B1803D"/>
</linearGradient>
<linearGradient id="paint96_linear_8629_26284" x1="273.148" y1="157.487" x2="379.379" y2="157.487" gradientUnits="userSpaceOnUse">
<stop stop-color="#EFD983"/>
<stop offset="1" stop-color="#B1803D"/>
</linearGradient>
<linearGradient id="paint97_linear_8629_26284" x1="289.614" y1="161.497" x2="377.052" y2="161.497" gradientUnits="userSpaceOnUse">
<stop stop-color="#EFD983"/>
<stop offset="1" stop-color="#B1803D"/>
</linearGradient>
<linearGradient id="paint98_linear_8629_26284" x1="309.344" y1="166.463" x2="377.056" y2="166.463" gradientUnits="userSpaceOnUse">
<stop stop-color="#EFD983"/>
<stop offset="1" stop-color="#B1803D"/>
</linearGradient>
<linearGradient id="paint99_linear_8629_26284" x1="258.246" y1="149.603" x2="376.085" y2="149.603" gradientUnits="userSpaceOnUse">
<stop stop-color="#EFD983"/>
<stop offset="1" stop-color="#B1803D"/>
</linearGradient>
<linearGradient id="paint100_linear_8629_26284" x1="252.562" y1="146.109" x2="376.09" y2="146.109" gradientUnits="userSpaceOnUse">
<stop stop-color="#EFD983"/>
<stop offset="1" stop-color="#B1803D"/>
</linearGradient>
<linearGradient id="paint101_linear_8629_26284" x1="268.336" y1="154.816" x2="377.051" y2="154.816" gradientUnits="userSpaceOnUse">
<stop stop-color="#EFD983"/>
<stop offset="1" stop-color="#B1803D"/>
</linearGradient>
<linearGradient id="paint102_linear_8629_26284" x1="283.025" y1="159.652" x2="376.553" y2="159.652" gradientUnits="userSpaceOnUse">
<stop stop-color="#EFD983"/>
<stop offset="1" stop-color="#B1803D"/>
</linearGradient>
<linearGradient id="paint103_linear_8629_26284" x1="302.453" y1="164.473" x2="376.552" y2="164.473" gradientUnits="userSpaceOnUse">
<stop stop-color="#EFD983"/>
<stop offset="1" stop-color="#B1803D"/>
</linearGradient>
<linearGradient id="paint104_linear_8629_26284" x1="322.694" y1="169.575" x2="376.076" y2="169.575" gradientUnits="userSpaceOnUse">
<stop stop-color="#EFD983"/>
<stop offset="1" stop-color="#B1803D"/>
</linearGradient>
<linearGradient id="paint105_linear_8629_26284" x1="258.226" y1="138.883" x2="377.055" y2="138.883" gradientUnits="userSpaceOnUse">
<stop stop-color="#EFD983"/>
<stop offset="1" stop-color="#B1803D"/>
</linearGradient>
<linearGradient id="paint106_linear_8629_26284" x1="265.242" y1="153.33" x2="378.168" y2="153.33" gradientUnits="userSpaceOnUse">
<stop stop-color="#EFD983"/>
<stop offset="1" stop-color="#B1803D"/>
</linearGradient>
<linearGradient id="paint107_linear_8629_26284" x1="-12.1419" y1="132.322" x2="378.162" y2="132.322" gradientUnits="userSpaceOnUse">
<stop stop-color="#EFD983"/>
<stop offset="1" stop-color="#B1803D"/>
</linearGradient>
<linearGradient id="paint108_linear_8629_26284" x1="-12.1419" y1="114.746" x2="217.257" y2="114.746" gradientUnits="userSpaceOnUse">
<stop stop-color="#EFD983"/>
<stop offset="1" stop-color="#B1803D"/>
</linearGradient>
<linearGradient id="paint109_linear_8629_26284" x1="-12.1419" y1="101.847" x2="100.357" y2="101.847" gradientUnits="userSpaceOnUse">
<stop stop-color="#EFD983"/>
<stop offset="1" stop-color="#B1803D"/>
</linearGradient>
<linearGradient id="paint110_linear_8629_26284" x1="-11.1196" y1="102.951" x2="93.1234" y2="102.951" gradientUnits="userSpaceOnUse">
<stop stop-color="#EFD983"/>
<stop offset="1" stop-color="#B1803D"/>
</linearGradient>
<linearGradient id="paint111_linear_8629_26284" x1="-11.1196" y1="103.966" x2="79.2247" y2="103.966" gradientUnits="userSpaceOnUse">
<stop stop-color="#EFD983"/>
<stop offset="1" stop-color="#B1803D"/>
</linearGradient>
<linearGradient id="paint112_linear_8629_26284" x1="-11.1094" y1="105.776" x2="73.4382" y2="105.776" gradientUnits="userSpaceOnUse">
<stop stop-color="#EFD983"/>
<stop offset="1" stop-color="#B1803D"/>
</linearGradient>
<linearGradient id="paint113_linear_8629_26284" x1="-12.1419" y1="107.586" x2="67.713" y2="107.586" gradientUnits="userSpaceOnUse">
<stop stop-color="#EFD983"/>
<stop offset="1" stop-color="#B1803D"/>
</linearGradient>
<linearGradient id="paint114_linear_8629_26284" x1="-11.1248" y1="107.151" x2="48.3569" y2="107.151" gradientUnits="userSpaceOnUse">
<stop stop-color="#EFD983"/>
<stop offset="1" stop-color="#B1803D"/>
</linearGradient>
<linearGradient id="paint115_linear_8629_26284" x1="-11.1299" y1="108.493" x2="40.835" y2="108.493" gradientUnits="userSpaceOnUse">
<stop stop-color="#EFD983"/>
<stop offset="1" stop-color="#B1803D"/>
</linearGradient>
<linearGradient id="paint116_linear_8629_26284" x1="-11.1299" y1="107.765" x2="377.049" y2="107.765" gradientUnits="userSpaceOnUse">
<stop stop-color="#EFD983"/>
<stop offset="1" stop-color="#B1803D"/>
</linearGradient>
<linearGradient id="paint117_linear_8629_26284" x1="-11.2993" y1="146.22" x2="377.115" y2="146.22" gradientUnits="userSpaceOnUse">
<stop stop-color="#EFD983"/>
<stop offset="1" stop-color="#B1803D"/>
</linearGradient>
<linearGradient id="paint118_linear_8629_26284" x1="-11.4277" y1="136.148" x2="251.791" y2="136.148" gradientUnits="userSpaceOnUse">
<stop stop-color="#EFD983"/>
<stop offset="1" stop-color="#B1803D"/>
</linearGradient>
<linearGradient id="paint119_linear_8629_26284" x1="-11.1813" y1="165.022" x2="341.288" y2="165.022" gradientUnits="userSpaceOnUse">
<stop stop-color="#EFD983"/>
<stop offset="1" stop-color="#B1803D"/>
</linearGradient>
<linearGradient id="paint120_linear_8629_26284" x1="-11.2069" y1="172.008" x2="377.28" y2="172.008" gradientUnits="userSpaceOnUse">
<stop stop-color="#EFD983"/>
<stop offset="1" stop-color="#B1803D"/>
</linearGradient>
<linearGradient id="paint121_linear_8629_26284" x1="250.277" y1="139.068" x2="377.081" y2="139.068" gradientUnits="userSpaceOnUse">
<stop stop-color="#EFD983"/>
<stop offset="1" stop-color="#B1803D"/>
</linearGradient>
<linearGradient id="paint122_linear_8629_26284" x1="204.592" y1="155.446" x2="377.158" y2="155.446" gradientUnits="userSpaceOnUse">
<stop stop-color="#EFD983"/>
<stop offset="1" stop-color="#B1803D"/>
</linearGradient>
<linearGradient id="paint123_linear_8629_26284" x1="231.484" y1="116.777" x2="299.032" y2="116.777" gradientUnits="userSpaceOnUse">
<stop stop-color="#EFD983"/>
<stop offset="1" stop-color="#B1803D"/>
</linearGradient>
<linearGradient id="paint124_linear_8629_26284" x1="338.568" y1="85.2428" x2="351.035" y2="85.2428" gradientUnits="userSpaceOnUse">
<stop stop-color="#EFD983"/>
<stop offset="1" stop-color="#B1803D"/>
</linearGradient>
<linearGradient id="paint125_linear_8629_26284" x1="277.601" y1="66.6026" x2="290.202" y2="66.6026" gradientUnits="userSpaceOnUse">
<stop stop-color="#EFD983"/>
<stop offset="1" stop-color="#B1803D"/>
</linearGradient>
<linearGradient id="paint126_linear_8629_26284" x1="238.509" y1="81.0092" x2="247.262" y2="81.0092" gradientUnits="userSpaceOnUse">
<stop stop-color="#EFD983"/>
<stop offset="1" stop-color="#B1803D"/>
</linearGradient>
<linearGradient id="paint127_linear_8629_26284" x1="296.607" y1="92.3068" x2="304.494" y2="92.3068" gradientUnits="userSpaceOnUse">
<stop stop-color="#EFD983"/>
<stop offset="1" stop-color="#B1803D"/>
</linearGradient>
<clipPath id="clip0_8629_26284">
<rect width="374.999" height="182.812" fill="white" transform="translate(0 0.257812)"/>
</clipPath>
<clipPath id="clip1_8629_26284">
<rect width="206.343" height="39.0137" fill="white" transform="translate(144.465 47.04)"/>
</clipPath>
</defs>
</svg>
