<svg width="1600" height="610" viewBox="0 0 1600 610" fill="none" xmlns="http://www.w3.org/2000/svg">
<path d="M1608.76 303.348C1591.37 305.315 1579.23 303.461 1557.35 303.461C1535.46 303.461 1533.8 302.632 1515.27 305.543C1496.75 308.453 1486.09 307.201 1459.71 308.047C1433.33 308.876 1429.41 309.282 1417.06 317.201C1404.72 325.119 1393.51 328.03 1380.58 330.956C1367.68 333.867 1374.43 336.371 1352.54 342.24C1330.66 348.126 1322.22 355.102 1303.71 361.345C1294.99 364.288 1285.79 366.857 1275.87 368.971C1264.67 371.361 1252.56 373.166 1239.18 374.256C1213.92 376.32 1211.11 378.011 1195.98 381.247C1180.82 384.483 1187.54 388.011 1166.8 387.588C1146.03 387.182 1153.32 389.263 1137.62 387.588C1121.89 385.93 1115.16 380.922 1104.49 378.841C1093.85 376.759 1089.36 379.263 1080.92 376.353C1072.51 373.426 1053.17 374.418 1053.17 374.418" stroke="url(#paint0_linear_8549_23195)" stroke-width="2" stroke-miterlimit="10"/>
<path d="M-47.3809 187.352C-47.3809 187.352 24.7578 180.896 71.178 180.896C117.598 180.896 150.94 195.969 188.664 202.424C226.365 208.879 258.283 231.35 285.841 242.179C313.4 253.024 336.424 277.397 368.517 275.625C400.611 273.852 467.995 298.307 477.065 302.128" stroke="url(#paint1_linear_8549_23195)" stroke-width="2" stroke-miterlimit="10"/>
<path opacity="0.12" d="M228.029 168.588V184.425C199.156 175.352 166.055 167.645 129.756 162.588C42.1293 150.394 -43 152.833 -43 152.833V111.745C-43 111.745 -17.1939 90.77 34.7687 68.4456C86.7313 46.105 113.173 28.5122 132.297 19.7158C151.444 10.9194 159.659 2.12298 166.033 1.45634C170.152 1.01733 175.037 2.8384 179.462 5.11473C179.462 5.37489 179.506 9.32595 174.248 21.0816C168.772 33.26 161.477 33.9266 174.248 51.5195C186.998 69.1123 184.26 72.4942 198.85 78.5916C213.439 84.6726 214.228 86.7051 217.032 94.8349C219.814 102.948 221.523 104.298 217.032 118.509C212.541 132.72 209.671 138.817 217.032 146.93C224.371 155.044 228.029 159.792 228.029 168.588Z" fill="url(#paint2_linear_8549_23195)"/>
<path opacity="0.38" d="M459.429 172.54C455.727 175.938 452.923 178.767 446.395 182.799C436.252 189.076 426.679 199.53 404.728 213.319C382.756 227.107 385.582 229.611 377.126 241.513C368.692 253.398 359.119 252.179 359.119 252.179H359.075C346.982 244.716 335.547 236.7 322.534 227.627C301.351 212.863 268.907 197.254 228.029 184.425V168.589C228.029 159.792 224.371 155.044 217.032 146.931C209.671 138.817 212.541 132.72 217.032 118.509C221.523 104.298 219.814 102.949 217.032 94.8353C214.228 86.7056 213.439 84.6731 198.849 78.5921C184.26 72.4947 186.998 69.1128 174.248 51.52C161.477 33.9271 168.772 33.2605 174.248 21.0821C179.506 9.32645 179.462 5.37539 179.462 5.11523C181.872 6.35096 184.15 7.71676 186.1 8.90371C191.554 12.2857 197.951 25.1307 211.621 36.6425C225.291 48.138 233.506 56.2677 253.55 62.3488C273.617 68.4461 274.515 73.1776 290.923 84.0065C307.331 94.8353 317.364 100.25 339.249 107.014C361.134 113.778 365.691 127.306 383.917 136.102C402.143 144.898 413.097 156.41 432.243 161.825C449.9 166.8 458.246 171.792 459.429 172.54Z" fill="url(#paint3_linear_8549_23195)"/>
<path d="M171.511 1.3916C171.511 1.3916 157.841 21.0819 140.513 27.163C123.184 33.2603 128.683 38.5934 114.991 46.1053C97.0059 55.9749 92.2084 55.5846 83.0733 65.7306C73.9601 75.8765 73.04 79.8764 56.6319 87.0143C40.2239 94.1523 37.4855 98.2171 21.0774 105.648C4.66933 113.095 1.01092 113.095 -12.6588 123.923C-26.3286 134.752 -43.0215 146.248 -43.0215 146.248" stroke="url(#paint4_linear_8549_23195)" stroke-width="0.5" stroke-miterlimit="10"/>
<path d="M169.429 43.9756C169.429 43.9756 159.111 49.764 146.975 58.7392C135.08 67.5519 118.65 82.592 108.616 87.0146C98.5832 91.4534 92.2084 97.5345 85.8335 102.266C79.4587 106.998 70.9808 109.713 64.2774 116.477C57.5739 123.241 44.8024 132.72 32.9508 136.769C21.0993 140.834 -1.68359 152.622 -1.68359 152.622" stroke="url(#paint5_linear_8549_23195)" stroke-width="0.5" stroke-miterlimit="10"/>
<path d="M191.358 74.7705C191.358 74.7705 188.883 78.1688 181.829 83.7133C174.775 89.2578 173.526 90.4447 165.224 98.3306C156.921 106.216 152.364 108.363 143.645 111.143C134.927 113.923 130.786 117.923 126.208 120.996C121.651 124.069 123.294 125.923 112.516 130.85C101.716 135.776 96.7433 137.939 86.7758 142.557C76.8082 147.174 70.061 156.263 68.418 156.133" stroke="url(#paint6_linear_8549_23195)" stroke-width="0.5" stroke-miterlimit="10"/>
<path d="M219.727 107.127C219.727 107.127 210.483 116.053 194.294 122.216C178.105 128.378 175.191 132.378 163.58 141.321C151.948 150.247 145.968 157.092 131.947 162.913" stroke="url(#paint7_linear_8549_23195)" stroke-width="0.5" stroke-miterlimit="10"/>
<path d="M219.727 149.972C219.727 149.972 215.455 158.622 206.32 162.914C197.185 167.207 191.357 174.28 191.357 174.28" stroke="url(#paint8_linear_8549_23195)" stroke-width="0.5" stroke-miterlimit="10"/>
<path d="M-43 129.078C-43 129.078 -29.1988 118.346 -16.6682 110.835C-4.13758 103.323 14.6364 96.8839 23.7934 91.1768C32.9504 85.4534 50.2786 76.5107 57.9897 72.2344C65.7009 67.9582 81.6051 55.7798 95.5597 47.9264C109.536 40.0568 118.693 30.7563 127.828 25.407C136.963 20.0576 143.732 13.6025 143.732 13.6025" stroke="url(#paint9_linear_8549_23195)" stroke-width="0.5" stroke-miterlimit="10"/>
<path d="M-43 119.419C-43 119.419 -32.5724 111.989 -22.4515 107.127C-12.3307 102.265 -1.72784 94.7535 7.40724 90.461C16.5423 86.1684 27.1671 78.7378 35.8202 74.7705C44.4952 70.8032 61.8234 61.8604 70.4984 56.8525C79.1735 51.8446 86.4027 43.9912 86.4027 43.9912" stroke="url(#paint10_linear_8549_23195)" stroke-width="0.5" stroke-miterlimit="10"/>
<path d="M-26.7891 152.638C-26.7891 152.638 -9.92093 143.093 0.659989 135.012C11.2628 126.931 22.3476 122.557 36.3021 115.436C50.2786 108.33 61.3414 100.51 71.9443 94.7536C82.5471 89.014 90.2583 84.7215 95.5597 79.7136C100.861 74.7056 104.235 70.7708 111.946 65.7629C119.657 60.755 123.995 60.0395 131.947 52.8853C139.899 45.7311 155.781 37.5038 161.082 31.7967C166.384 26.0896 174.248 21.0654 174.248 21.0654" stroke="url(#paint11_linear_8549_23195)" stroke-width="0.5" stroke-miterlimit="10"/>
<path d="M34.3965 153.743C34.3965 153.743 47.891 149.093 59.9178 141.223C71.9664 133.354 75.4934 131.207 92.5149 121.923C109.536 112.623 110.5 109.046 123.995 101.908C137.489 94.7698 139.899 92.9324 146.646 86.8676C153.394 80.8028 159.264 76.1526 167.173 71.3235C175.081 66.4944 180.383 60.0557 180.383 60.0557" stroke="url(#paint12_linear_8549_23195)" stroke-width="0.5" stroke-miterlimit="10"/>
<path d="M100.861 158.751C100.861 158.751 110.982 151.304 122.549 146.264C134.116 141.223 139.899 136.232 150.48 129.077C161.083 121.923 166.012 118.639 175.826 112.769C185.64 106.899 191.226 103.664 197.579 98.3144C203.954 92.965 213.33 87.0303 213.33 87.0303" stroke="url(#paint13_linear_8549_23195)" stroke-width="0.5" stroke-miterlimit="10"/>
<path d="M159.922 167.531C159.922 167.531 170.7 163.873 178.411 156.133C186.122 148.394 191.205 148.394 197.579 143.386C203.954 138.378 213.33 133.045 213.33 133.045" stroke="url(#paint14_linear_8549_23195)" stroke-width="0.5" stroke-miterlimit="10"/>
<path d="M208.291 178.62C208.291 178.62 214.293 175.19 219.726 170.182C225.159 165.174 227.196 162.101 227.196 162.101" stroke="url(#paint15_linear_8549_23195)" stroke-width="0.5" stroke-miterlimit="10"/>
<path d="M200.186 176.474C200.186 176.474 207.437 171.304 213.351 167.532C219.266 163.76 224.458 156.134 224.458 156.134" stroke="url(#paint16_linear_8549_23195)" stroke-width="0.5" stroke-miterlimit="10"/>
<path d="M217.033 181.108C217.033 181.108 225.358 176.653 228.03 172.653" stroke="url(#paint17_linear_8549_23195)" stroke-width="0.5" stroke-miterlimit="10"/>
<path d="M175.826 170.718C175.826 170.718 181.39 166.361 188.883 162.117C196.375 157.873 197.251 153.808 202.53 150.28C207.81 146.752 214.075 142.801 214.075 142.801" stroke="url(#paint18_linear_8549_23195)" stroke-width="0.5" stroke-miterlimit="10"/>
<path d="M148.574 165.499C148.574 165.499 158.936 160.475 163.777 154.914C168.619 149.37 176.9 146.101 186.626 139.24C196.353 132.378 213.571 124.2 217.734 116.2" stroke="url(#paint19_linear_8549_23195)" stroke-width="0.5" stroke-miterlimit="10"/>
<path d="M115.803 160.15C115.803 160.15 127.698 155.564 136.505 148.052C145.311 140.541 157.206 137.598 164.238 131.712C171.292 125.826 180.186 118.314 191.359 112.753C202.531 107.209 213.594 102.477 217.734 96.835" stroke="url(#paint20_linear_8549_23195)" stroke-width="0.5" stroke-miterlimit="10"/>
<path d="M83.8613 156.768C83.8613 156.768 90.7619 150.784 100.861 146.167C110.96 141.533 121.519 137.289 129.887 131.744C138.256 126.184 140.884 122.265 153.218 116.217C165.551 110.184 175.344 104.624 180.338 99.7132C185.355 94.8191 194.446 87.2258 205.531 81.7139" stroke="url(#paint21_linear_8549_23195)" stroke-width="0.5" stroke-miterlimit="10"/>
<path d="M50.7168 154.93C50.7168 154.93 65.9857 146.719 73.7188 140.85C81.4519 134.996 98.6267 130.753 103.906 125.842C109.186 120.948 119.438 116.314 131.925 108.997C144.412 101.68 152.101 95.4531 159.922 88.9167C167.742 82.3804 179.55 74.0718 186.626 70.3809" stroke="url(#paint22_linear_8549_23195)" stroke-width="0.5" stroke-miterlimit="10"/>
<path d="M18.0762 152.638C18.0762 152.638 27.7589 147.354 38.778 142.801C49.7751 138.249 60.7942 130.411 71.3532 121.257C81.9122 112.103 100.27 106.559 107.39 101.973C114.509 97.4046 124.192 88.1854 135.627 81.6816C147.063 75.1778 153.437 66.0236 159.944 61.7799C166.45 57.5362 175.848 53.7314 175.848 53.7314" stroke="url(#paint23_linear_8549_23195)" stroke-width="0.5" stroke-miterlimit="10"/>
<path d="M-13.623 152.638C-13.623 152.638 0.0248101 141.858 11.4601 137.598C22.9173 133.354 37.0033 126.33 44.9116 119.224C52.8418 112.119 72.2073 104.753 80.5756 98.2984C88.944 91.8434 102.592 82.4941 112.713 74.7546C122.834 67.0151 132.078 61.373 141.761 53.731C151.444 46.1053 168.18 37.6016 168.18 37.6016" stroke="url(#paint24_linear_8549_23195)" stroke-width="0.5" stroke-miterlimit="10"/>
<path d="M-40.918 152.638C-40.918 152.638 -21.9906 141.532 -8.34276 133.029C5.3051 124.525 14.1116 117.663 26.8832 111.127C39.6547 104.591 53.3026 99.1762 62.1091 92.9C70.9156 86.6239 81.1241 78.6242 92.5374 70.3643C103.929 62.1045 113.174 59.7143 121.542 53.7308C129.91 47.7311 135.146 39.5688 143.755 34.6584C152.365 29.7643 178.324 9.50488 178.324 9.50488" stroke="url(#paint25_linear_8549_23195)" stroke-width="0.5" stroke-miterlimit="10"/>
<path d="M-43 137.614C-43 137.614 -29.9217 127.647 -17.1501 119.241C-4.37855 110.818 9.07214 105.095 21.7123 98.3148C34.3524 91.5346 48.8765 84.0227 56.8068 78.7871C64.737 73.5515 72.2071 67.0315 80.1374 61.4707C88.0676 55.91 102.592 48.707 109.624 43.9755C116.678 39.2439 122.089 33.0328 131.925 27.1631C141.761 21.2772 148.749 13.8953 153.831 7.61914" stroke="url(#paint26_linear_8549_23195)" stroke-width="0.5" stroke-miterlimit="10"/>
<path d="M-47.3809 111.761C-47.3809 111.761 -17.1935 90.7861 34.7691 68.4617C86.7318 46.1374 113.173 28.5446 132.32 19.7482C151.466 10.9518 159.659 2.15535 166.056 1.47245C172.431 0.789552 180.646 5.53734 186.122 8.91932C191.599 12.3013 197.974 25.1626 211.644 36.6581C225.313 48.1536 233.528 56.2834 253.573 62.3644C273.639 68.4617 274.538 73.1933 290.946 84.0221C307.354 94.851 317.387 100.265 339.272 107.029C361.157 113.793 365.713 127.321 383.94 136.118C402.166 144.914 413.119 156.41 432.266 161.824C451.412 167.238 459.605 172.653 459.605 172.653" stroke="url(#paint27_linear_8549_23195)" stroke-width="2" stroke-miterlimit="10"/>
<path d="M179.462 5.11523C179.462 5.11523 179.703 8.90371 174.248 21.0821C168.772 33.2605 161.477 33.9434 174.248 51.5362C187.02 69.129 184.281 72.511 198.871 78.6083C213.461 84.7056 214.25 86.7218 217.032 94.8516C219.836 102.965 221.523 104.331 217.032 118.542C212.541 132.753 209.671 138.834 217.032 146.963C224.393 155.077 228.029 159.825 228.029 168.621V184.458" stroke="url(#paint28_linear_8549_23195)" stroke-width="2" stroke-miterlimit="10"/>
<path opacity="0.12" d="M993.383 424.334C983.875 423.83 973.864 422.789 963.305 421.115C911.824 412.985 850.486 386.97 826.388 379.653C802.291 372.336 739.857 363.393 705.902 362.58C671.946 361.767 575.557 359.328 544.888 339.817C514.218 320.306 501.074 308.924 441.926 289.412C404.094 276.925 380.61 265.446 359.119 252.194C359.119 252.194 368.692 253.398 377.126 241.512C385.582 229.61 382.756 227.106 404.729 213.318C426.679 199.53 436.253 189.075 446.395 182.799C456.538 176.539 457.655 173.189 467.229 166.084C476.802 158.978 490.888 142.264 499.891 136.41C508.895 130.557 513.955 125.955 518.468 124.297C518.468 124.297 527.472 133.061 534.241 138.914C540.988 144.768 546.618 145.451 553.957 152.637C561.274 159.824 561.822 171.108 569.16 179.043C576.477 186.977 582.107 199.936 597.88 209.139C613.631 218.326 627.147 228.293 636.72 236.471C646.294 244.666 660.38 255.95 673.327 262.422C686.273 268.909 704.85 273.494 708.793 276.015C712.737 278.519 711.05 284.648 716.132 288.697C721.193 292.729 735.279 297.737 750.482 301.509C765.685 305.265 769.059 307.347 782.005 314.875C794.952 322.403 806.212 312.794 818.042 314.875C829.872 316.972 847.331 324.484 864.221 332.435C881.111 340.37 882.25 346.646 892.371 354.158C902.514 361.686 899.688 364.613 910.401 370.889C921.091 377.149 927.86 385.1 938.551 393.864C949.241 402.644 963.458 409.457 972.331 416.432C980.392 422.773 991.389 424.139 993.383 424.334Z" fill="url(#paint29_linear_8549_23195)"/>
<path opacity="0.38" d="M1130.06 400.79C1113.52 402.465 1096.96 405.88 1082.7 411.375C1059.23 420.399 1030.25 426.367 993.559 424.367C993.493 424.367 993.449 424.367 993.383 424.35C993.318 424.35 993.252 424.334 993.164 424.334C990.711 424.058 980.13 422.594 972.331 416.448C963.459 409.473 949.241 402.66 938.551 393.88C927.861 385.116 921.091 377.165 910.401 370.905C899.689 364.629 902.514 361.702 892.372 354.174C882.251 346.662 881.112 340.386 864.222 332.452C847.332 324.501 829.872 316.989 818.042 314.891C806.213 312.81 794.953 322.419 782.006 314.891C769.059 307.363 765.685 305.282 750.482 301.526C735.279 297.754 721.193 292.746 716.133 288.713C711.05 284.665 712.737 278.535 708.794 276.031C704.851 273.511 686.274 268.926 673.327 262.438C660.38 255.967 646.294 244.683 636.721 236.488C627.148 228.309 613.631 218.342 597.88 209.155C582.108 199.953 576.478 186.994 569.161 179.059C561.822 171.124 561.274 159.84 553.958 152.654C546.619 145.467 540.989 144.784 534.242 138.931C527.472 133.077 518.469 124.313 518.469 124.313C522.982 122.638 542.676 131.419 547.188 135.597C551.701 139.776 560.573 143.386 570.147 148.068C579.72 152.735 578.164 158.166 589.994 169.45C601.802 180.734 622.657 198.278 637.29 208.733C651.924 219.188 667.127 227.903 690.217 236.488C713.307 245.089 733.57 247.609 749.343 248.439C765.116 249.268 783.123 247.609 788.206 249.69C793.266 251.788 799.466 261.397 805.665 265.576C811.843 269.755 818.042 273.104 825.929 277.689C833.815 282.291 838.876 286.892 851.275 291.9C863.652 296.924 865.339 298.599 882.799 306.111C900.258 313.639 898.571 318.647 923.917 325.753C949.241 332.858 954.324 335.346 969.527 342.256C976.121 345.248 981.97 347.817 987.688 350.174C995.136 353.231 1002.34 355.947 1010.62 358.776C1025.28 363.8 1033.71 363.8 1047.8 371.312C1049.84 372.417 1051.61 373.442 1053.17 374.434C1062.32 380.19 1064.56 384.173 1077.07 388.449C1091.72 393.474 1091.15 390.124 1108.04 393.474C1124.93 396.807 1130.06 400.79 1130.06 400.79Z" fill="url(#paint30_linear_8549_23195)"/>
<path d="M527.691 133.028C527.691 133.028 519.607 136.41 512.291 143.109C504.974 149.792 499.344 158.149 495.97 162.751C492.597 167.352 493.714 170.279 483.571 175.71C473.428 181.14 457.677 192.847 443.022 202.457C428.388 212.066 426.132 215.415 418.815 224.196C411.498 232.976 406.985 230.423 399.668 241.528C392.352 252.633 387.817 262.064 388.671 268.421" stroke="url(#paint31_linear_8549_23195)" stroke-width="0.5" stroke-miterlimit="10"/>
<path d="M555.95 154.93C555.95 154.93 537.482 159.417 527.69 167.775C517.92 176.132 510.581 181.563 505.521 188.668C500.46 195.774 503.834 196.196 495.947 203.302C488.061 210.407 476.801 222.521 464.424 231.301C452.024 240.081 447.534 246.341 443.021 252.194C438.508 258.048 438.508 260.812 431.761 268.405C425.014 276.014 420.26 281.803 420.26 281.803" stroke="url(#paint32_linear_8549_23195)" stroke-width="0.5" stroke-miterlimit="10"/>
<path d="M572.074 182.539C572.074 182.539 566.357 189.498 560.727 195.352C555.097 201.205 547.21 203.709 541.58 209.562C535.95 215.416 538.623 216.668 527.713 224.602C516.804 232.537 502.17 242.163 494.853 250.097C487.537 258.032 481.271 268.91 477.087 276.844C472.903 284.779 468.39 290.584 464.162 297.299" stroke="url(#paint33_linear_8549_23195)" stroke-width="0.5" stroke-miterlimit="10"/>
<path d="M584.166 198.083C584.166 198.083 578.163 200.376 577.024 209.139C575.907 217.92 573.081 218.342 569.138 222.098C565.195 225.854 565.764 230.813 561.251 236.488C556.739 242.163 555.052 246.341 548.305 250.943C541.557 255.544 542.105 254.292 533.101 266.406C524.098 278.519 522.411 279.657 512.268 288.697C502.125 297.738 501.665 305.168 495.422 310.241" stroke="url(#paint34_linear_8549_23195)" stroke-width="0.5" stroke-miterlimit="10"/>
<path d="M612.624 218.358C612.624 218.358 609.14 224.602 599.567 232.959C589.994 241.317 587.168 245.073 579.304 257.625C571.417 270.161 574.791 275.885 561.844 288.697C548.897 301.51 549.313 311.119 539.806 318.647C530.298 326.175 527.691 328.712 527.691 328.712" stroke="url(#paint35_linear_8549_23195)" stroke-width="0.5" stroke-miterlimit="10"/>
<path d="M640.796 239.918C640.117 239.349 632.778 244.422 626.031 254.145C619.283 263.868 616.457 265.137 605.767 277.25C595.077 289.363 586.818 292.29 584.189 300.648C581.56 309.005 576.806 316.94 570.169 324.89C563.531 332.825 555.951 345.15 555.951 345.15" stroke="url(#paint36_linear_8549_23195)" stroke-width="0.5" stroke-miterlimit="10"/>
<path d="M670.062 260.715C670.062 260.715 668.813 264.731 655.866 276.015C642.919 287.299 636.72 296.811 628.834 310.241C620.947 323.672 619.26 327.005 610.257 336.208C601.253 345.411 598.361 355.101 598.361 355.101" stroke="url(#paint37_linear_8549_23195)" stroke-width="0.5" stroke-miterlimit="10"/>
<path d="M699.417 272.373C699.417 272.373 695.298 280.568 684.038 297.299C672.778 314.046 670.522 314.111 660.949 328.696C651.375 343.297 640.816 359.638 640.816 359.638" stroke="url(#paint38_linear_8549_23195)" stroke-width="0.5" stroke-miterlimit="10"/>
<path d="M720.622 292.534C720.622 292.534 714.992 302.095 708.793 316.013C702.593 329.931 699.22 340.386 692.472 348.321C685.725 356.255 683.469 361.946 683.469 361.946" stroke="url(#paint39_linear_8549_23195)" stroke-width="0.5" stroke-miterlimit="10"/>
<path d="M756.09 302.973C756.09 302.973 753.33 310.322 744.589 327.232C735.849 344.142 734.731 349.881 726.275 363.735" stroke="url(#paint40_linear_8549_23195)" stroke-width="0.5" stroke-miterlimit="10"/>
<path d="M797.054 317.509C797.054 317.509 789.891 327.004 784.261 338.711C778.631 350.418 776.046 359.133 767.48 368.352" stroke="url(#paint41_linear_8549_23195)" stroke-width="0.5" stroke-miterlimit="10"/>
<path d="M841.679 322.452C841.679 322.452 836.071 329.915 827.067 342.256C818.064 354.597 816.267 362.077 804.219 374.434" stroke="url(#paint42_linear_8549_23195)" stroke-width="0.5" stroke-miterlimit="10"/>
<path d="M879.534 342.256C879.534 342.256 868.625 350.321 861.089 363.735C853.531 377.165 848.427 379.555 841.68 384.84" stroke="url(#paint43_linear_8549_23195)" stroke-width="0.5" stroke-miterlimit="10"/>
<path d="M934.695 390.612C934.695 390.612 924.925 400.287 915.133 409.831" stroke="url(#paint44_linear_8549_23195)" stroke-width="0.5" stroke-miterlimit="10"/>
<path d="M955.615 405.521C955.615 405.521 951.3 413.993 944.662 417.537" stroke="url(#paint45_linear_8549_23195)" stroke-width="0.5" stroke-miterlimit="10"/>
<path d="M373.73 260.714C373.73 260.714 383.457 251.381 388.561 241.528C393.666 231.658 402.603 225.024 414.324 215.822C426.022 206.619 437.807 198.456 446.373 191.302C454.938 184.148 468.017 176.067 480.416 166.311C492.815 156.556 499.234 144.426 522.871 128.508" stroke="url(#paint46_linear_8549_23195)" stroke-width="0.5" stroke-miterlimit="10"/>
<path d="M397.215 272.372C397.215 272.372 403.305 256.682 412.944 245.951C422.583 235.219 428.782 232.162 437.041 221.935C445.3 211.708 472.837 192.896 481.796 184.424C490.756 175.953 496.255 173.807 505.193 162.1C514.153 150.393 534.241 138.914 534.241 138.914" stroke="url(#paint47_linear_8549_23195)" stroke-width="0.5" stroke-miterlimit="10"/>
<path d="M407.445 276.096C407.445 276.096 417.413 258.73 428.607 249.007C439.801 239.3 455.881 222.943 465.739 213.757C475.597 204.554 491.435 191.66 499.694 182.522C507.953 173.384 538.141 149.531 545.392 146.149" stroke="url(#paint48_linear_8549_23195)" stroke-width="0.5" stroke-miterlimit="10"/>
<path d="M431.674 286.86C431.674 286.86 449.418 262.357 455.618 254.146C461.817 245.951 482.475 229.073 492.114 218.358C501.753 207.627 512.29 194.945 522.849 184.425C533.408 173.905 548.349 164.848 555.928 158.751" stroke="url(#paint49_linear_8549_23195)" stroke-width="0.5" stroke-miterlimit="10"/>
<path d="M447.359 290.924C447.359 290.924 454.479 281.526 465.717 266.047C476.955 250.568 491.414 239.316 503.112 225.008C514.81 210.7 524.734 207.123 534.219 196.391C543.727 185.66 557.353 179.595 563.618 170.376" stroke="url(#paint50_linear_8549_23195)" stroke-width="0.5" stroke-miterlimit="10"/>
<path d="M577.462 189.758C577.462 189.758 568.129 204.408 555.927 211.139C543.725 217.871 535.686 233.707 522.848 243.918C510.011 254.129 505.148 256.633 493.8 268.421C482.452 280.21 471.543 299.997 471.543 299.997" stroke="url(#paint51_linear_8549_23195)" stroke-width="0.5" stroke-miterlimit="10"/>
<path d="M484.096 305.07C484.096 305.07 487.995 293.119 500.372 281.802C512.75 270.486 526.113 259.234 534.24 250.048C542.367 240.845 552.685 229.105 559.564 220.406C566.443 211.724 581.142 194.603 581.142 194.603" stroke="url(#paint52_linear_8549_23195)" stroke-width="0.5" stroke-miterlimit="10"/>
<path d="M505.5 316.013C505.5 316.013 514.394 302.826 527.691 288.697C540.989 274.567 548.174 261.332 555.951 254.161C563.706 246.991 571.965 235.739 577.485 227.561C582.984 219.382 587.825 209.204 590.585 204.082" stroke="url(#paint53_linear_8549_23195)" stroke-width="0.5" stroke-miterlimit="10"/>
<path d="M519.322 323.411C519.322 323.411 527.493 312.322 534.241 302.127C540.988 291.932 552.686 285.494 560.945 272.372C569.204 259.234 572.008 253.218 582.654 239.869C593.301 226.536 603.312 212.391 603.312 212.391" stroke="url(#paint54_linear_8549_23195)" stroke-width="0.5" stroke-miterlimit="10"/>
<path d="M536.672 334.532C536.672 334.532 546.793 324.663 555.95 310.598C565.085 296.534 573.387 284.762 582.676 273.526C591.942 262.291 598.821 248.698 606.401 239.918C613.98 231.138 621.144 224.276 621.144 224.276" stroke="url(#paint55_linear_8549_23195)" stroke-width="0.5" stroke-miterlimit="10"/>
<path d="M544.887 339.833C544.887 339.833 563.507 321.379 570.145 310.241C576.783 299.103 584.341 286.323 593.98 276.112C603.619 265.901 621.779 247.024 629.578 230.65" stroke="url(#paint56_linear_8549_23195)" stroke-width="0.5" stroke-miterlimit="10"/>
<path d="M567.057 348.775C567.057 348.775 574.505 337.881 581.165 328.711C587.802 319.541 591.745 310.598 598.383 299.997C605.021 289.396 619.479 276.42 626.358 266.047C633.237 255.673 646.906 244.877 646.906 244.877" stroke="url(#paint57_linear_8549_23195)" stroke-width="0.5" stroke-miterlimit="10"/>
<path d="M584.166 352.711C584.166 352.711 591.045 334.874 598.362 325.167C605.678 315.46 608.877 312.452 618.647 296.843C628.417 281.234 652.011 267.998 659.481 254.178" stroke="url(#paint58_linear_8549_23195)" stroke-width="0.5" stroke-miterlimit="10"/>
<path d="M612.141 356.921C612.141 356.921 614.55 351.946 621.823 339.816C629.096 327.687 637.859 316.403 646.906 302.127C655.954 287.851 667.981 272.258 673.326 262.421" stroke="url(#paint59_linear_8549_23195)" stroke-width="0.5" stroke-miterlimit="10"/>
<path d="M629.578 357.573C629.578 357.573 641.977 339.524 646.906 327.232C651.813 314.924 662.153 307.883 670.062 296.079C677.97 284.275 679.679 277.055 687.762 268.405" stroke="url(#paint60_linear_8549_23195)" stroke-width="0.5" stroke-miterlimit="10"/>
<path d="M653.961 360.548C653.961 360.548 664.914 349.394 670.062 339.833C675.21 330.273 680.358 318.761 687.763 307.396C695.167 296.03 703.821 284.616 708.793 276.015" stroke="url(#paint61_linear_8549_23195)" stroke-width="0.5" stroke-miterlimit="10"/>
<path d="M670.062 359.654C670.062 359.654 683.119 345.963 687.763 334.549C692.407 323.135 700.841 311.867 705.924 303.444C711.006 295.022 713.328 285.25 713.328 285.25" stroke="url(#paint62_linear_8549_23195)" stroke-width="0.5" stroke-miterlimit="10"/>
<path d="M699.416 361.946C699.416 361.946 706.689 350.564 713.327 334.549C719.964 318.533 727.413 308.419 731.947 296.095" stroke="url(#paint63_linear_8549_23195)" stroke-width="0.5" stroke-miterlimit="10"/>
<path d="M710.875 362.759C710.875 362.759 719.484 349.54 726.275 334.532C733.066 319.524 740.296 310.078 744.589 299.98" stroke="url(#paint64_linear_8549_23195)" stroke-width="0.5" stroke-miterlimit="10"/>
<path d="M739.834 364.987C739.834 364.987 745.464 357.54 750.284 345.183C755.103 332.825 766.648 316.712 769.474 307.899" stroke="url(#paint65_linear_8549_23195)" stroke-width="0.5" stroke-miterlimit="10"/>
<path d="M754.645 364.986C754.645 364.986 763.188 352.97 769.453 339.833C775.719 326.695 782.006 314.891 782.006 314.891" stroke="url(#paint66_linear_8549_23195)" stroke-width="0.5" stroke-miterlimit="10"/>
<path d="M780.428 370.271C780.428 370.271 789.453 358.157 797.055 342.938C804.656 327.719 818.042 314.891 818.042 314.891" stroke="url(#paint67_linear_8549_23195)" stroke-width="0.5" stroke-miterlimit="10"/>
<path d="M792.629 372.27C792.629 372.27 805.335 353.182 812.213 339.93C819.092 326.679 830.571 318.272 830.571 318.272" stroke="url(#paint68_linear_8549_23195)" stroke-width="0.5" stroke-miterlimit="10"/>
<path d="M815.697 376.856C815.697 376.856 820.736 372.336 830.594 356.922C840.452 341.508 852.698 327.15 852.698 327.15" stroke="url(#paint69_linear_8549_23195)" stroke-width="0.5" stroke-miterlimit="10"/>
<path d="M831.34 381.246C831.34 381.246 841.833 372.775 849.391 355.101C856.971 337.427 864.222 332.451 864.222 332.451" stroke="url(#paint70_linear_8549_23195)" stroke-width="0.5" stroke-miterlimit="10"/>
<path d="M854.516 389.457C854.516 389.457 864.549 375.701 871.428 364.986C878.306 354.271 886.149 348.775 886.149 348.775" stroke="url(#paint71_linear_8549_23195)" stroke-width="0.5" stroke-miterlimit="10"/>
<path d="M864.637 393.099C864.637 393.099 871.121 390.237 879.533 376.856C887.945 363.474 898.483 359.653 898.483 359.653" stroke="url(#paint72_linear_8549_23195)" stroke-width="0.5" stroke-miterlimit="10"/>
<path d="M887.967 401.261C887.967 401.261 897.255 399.359 903.608 390.612C909.983 381.864 915.81 374.417 915.81 374.417" stroke="url(#paint73_linear_8549_23195)" stroke-width="0.5" stroke-miterlimit="10"/>
<path d="M901.068 405.522C901.068 405.522 909.24 400.254 915.812 393.099C922.362 385.962 924.903 380.791 924.903 380.791" stroke="url(#paint74_linear_8549_23195)" stroke-width="0.5" stroke-miterlimit="10"/>
<path d="M926.852 413.131C926.852 413.131 931.868 410.253 934.672 405.521C937.498 400.773 944.618 398.448 944.618 398.448" stroke="url(#paint75_linear_8549_23195)" stroke-width="0.5" stroke-miterlimit="10"/>
<path d="M938.637 416.139C938.637 416.139 946.917 406.985 950.138 402.091" stroke="url(#paint76_linear_8549_23195)" stroke-width="0.5" stroke-miterlimit="10"/>
<path d="M957.391 420.123C957.391 420.123 963.59 413.961 963.985 410.692" stroke="url(#paint77_linear_8549_23195)" stroke-width="0.5" stroke-miterlimit="10"/>
<path d="M880.059 398.449C880.059 398.449 885.207 392.904 891.384 384.823C897.584 376.759 900.695 373.23 903.608 368.353" stroke="url(#paint78_linear_8549_23195)" stroke-width="0.5" stroke-miterlimit="10"/>
<path d="M1130.06 400.79C1130.06 400.79 1124.93 396.807 1108.04 393.474C1091.15 390.124 1091.72 393.474 1077.07 388.449C1064.56 384.173 1062.32 380.19 1053.17 374.434C1051.61 373.442 1049.84 372.417 1047.8 371.312C1033.71 363.8 1025.28 363.8 1010.62 358.776C1002.34 355.947 995.135 353.231 987.687 350.174C981.969 347.817 976.12 345.248 969.526 342.256C954.323 335.346 949.241 332.858 923.917 325.753C898.571 318.647 900.258 313.639 882.798 306.111C865.338 298.599 863.651 296.924 851.274 291.9C838.875 286.892 833.815 282.291 825.928 277.689C818.042 273.104 811.842 269.755 805.665 265.576C799.465 261.397 793.265 251.788 788.205 249.69C783.123 247.609 765.115 249.268 749.342 248.439C733.57 247.609 713.306 245.089 690.216 236.488C667.127 227.903 651.924 219.188 637.29 208.733C622.656 198.278 601.801 180.734 589.993 169.45C578.164 158.166 579.719 152.735 570.146 148.068C560.573 143.386 551.701 139.776 547.188 135.597C542.675 131.419 522.981 122.638 518.468 124.313C513.955 125.972 508.895 130.573 499.891 136.427C490.888 142.28 476.802 158.995 467.229 166.1C457.655 173.206 456.538 176.555 446.395 182.815C436.252 189.091 426.679 199.546 404.729 213.334C382.756 227.122 385.582 229.626 377.126 241.528C368.692 253.414 359.119 252.194 359.119 252.194" stroke="url(#paint79_linear_8549_23195)" stroke-width="2" stroke-miterlimit="10"/>
<path d="M518.469 124.297C518.469 124.297 527.472 133.077 534.242 138.93C540.989 144.784 546.619 145.467 553.958 152.637C561.274 159.824 561.844 171.108 569.161 179.043C576.478 186.977 582.108 199.936 597.88 209.139C613.653 218.342 627.17 228.309 636.743 236.488C646.316 244.666 660.402 255.967 673.349 262.438C686.296 268.909 704.873 273.511 708.816 276.015C712.759 278.519 711.072 284.665 716.133 288.697C721.193 292.729 735.279 297.754 750.482 301.51C765.685 305.265 769.059 307.363 782.006 314.891C794.953 322.419 806.213 312.794 818.042 314.891C829.872 316.989 847.332 324.501 864.222 332.451C881.112 340.386 882.251 346.662 892.372 354.19C902.493 361.719 899.689 364.645 910.401 370.905C921.091 377.181 927.861 385.116 938.551 393.896C949.241 402.676 963.459 409.489 972.331 416.464C981.203 423.44 993.69 424.399 993.69 424.399" stroke="url(#paint80_linear_8549_23195)" stroke-width="2" stroke-miterlimit="10"/>
<path opacity="0.12" d="M1073.65 478.917C1017.57 465.959 961.729 451.553 934.17 446.171C906.612 440.789 851.494 441.862 822.49 440.789C793.486 439.699 767.373 433.244 725.312 426.269C683.251 419.31 646.996 400.953 636.853 397.88C626.688 394.807 580.268 397.717 549.818 393.409C519.368 389.116 486.004 377.263 464.25 367.572C442.497 357.898 425.081 356.808 398.969 352.825C372.878 348.825 369.964 342.825 333.709 343.898C297.453 344.971 239.444 352.516 211.886 352.825C184.327 353.134 184.327 343.898 137.907 351.963C91.4866 360.044 82.7896 364.353 27.6724 360.044C-27.4447 355.735 -42.9766 343.898 -42.9766 343.898V297.607C-42.9766 297.607 -31.7823 302.176 -2.77783 303.656C26.2266 305.136 149.517 297.201 190.132 300.632C230.725 304.062 258.284 316.989 275.7 319.135C293.094 321.281 345.319 311.607 362.713 313.753C380.129 315.899 417.83 316.989 427.995 313.753C438.138 310.517 446.835 322.371 467.142 328.826C487.45 335.281 517.9 350.353 555.623 355.735C593.324 361.117 602.043 367.572 623.797 381.572C645.55 395.571 693.416 393.409 738.368 394.498C783.321 395.571 831.516 402.026 861.09 414.952C890.664 427.863 909.525 435.407 938.53 436.48C967.534 437.553 993.647 455.845 1013.95 462.317C1024.64 465.715 1048.22 472.397 1073.65 478.917Z" fill="url(#paint81_linear_8549_23195)"/>
<path opacity="0.12" d="M1600 642.976C1600 642.976 1581.47 632.895 1557.79 624.489C1534.11 616.083 1540.28 612.262 1510.45 609.351C1480.61 606.441 1449.06 598.929 1425.03 596.23C1401 593.531 1365.34 582.474 1337.56 574.849C1309.78 567.207 1288.16 559.565 1249.06 545.825C1209.95 532.07 1209.95 536.655 1189.36 537.419C1168.77 538.183 1156.44 538.948 1119.37 530.655C1082.33 522.363 1081.3 514.51 1064.82 503.811C1048.35 493.112 1033.96 487.763 1016.45 486.234C998.948 484.706 972.2 479.356 946.46 486.234C920.742 493.112 904.268 491.584 866.194 500.754C828.12 509.924 805.469 509.16 766.365 508.396C727.262 507.632 720.055 504.575 689.188 499.226C658.322 493.876 648.026 490.055 605.833 489.454C563.641 488.852 564.671 490.819 545.108 490.836C525.545 490.836 524.516 487.015 500.857 492.104C477.175 497.193 450.427 500.754 433.954 500.754C417.48 500.754 407.206 496.933 387.643 497.697C368.08 498.461 364.991 495.405 347.51 492.104C330.006 488.803 314.584 493.112 289.873 492.104C265.163 491.096 251.8 490.055 237.385 496.933C222.97 503.811 205.489 506.103 190.045 510.689C174.6 515.274 159.178 529.777 135.497 533.988C111.816 538.183 106.69 542.004 84.0383 552.703C61.3868 563.402 33.6092 574.084 3.77227 577.141C-26.0646 580.198 -42.9766 577.141 -42.9766 577.141V642.992H1600.02L1600 642.976Z" fill="#122718"/>
<path opacity="0.12" d="M1600 369.914V391.913C1571.59 390.693 1543.77 377.23 1507.49 381.718C1471.21 386.206 1471.21 390.693 1445.93 396.335C1420.65 401.977 1415.7 397.213 1401.96 396.368C1388.21 395.522 1383.28 409.05 1360.74 413.131C1338.19 417.213 1310.72 418.432 1290.39 415.57C1270.04 412.725 1258.5 407.831 1246.95 407.002C1235.43 406.189 1212.89 407.831 1195.84 414.351C1178.8 420.887 1163.97 422.92 1155.16 428.22C1146.38 433.521 1144.19 435.976 1127.69 440.87C1111.2 445.764 1113.41 445.358 1098.56 452.723C1083.73 460.089 1068.57 463.796 1068.57 463.796C1039.93 452.772 1018.47 441.927 980.567 433.895C950.643 427.537 929.306 417.489 903.609 407.262L904.157 406.498C923.61 412.595 944.137 418.107 963.305 421.131C1014.79 429.261 1053.12 422.757 1082.7 411.375C1112.27 399.994 1151.7 397.555 1180.18 400.807C1208.66 404.059 1232.76 397.555 1257.95 400.807C1283.14 404.059 1325.86 410.562 1364.2 396.742C1402.53 382.921 1429.92 378.043 1468.25 370.727C1506.59 363.41 1503.3 359.345 1531.78 357.719C1560.26 356.093 1579.5 369.914 1600 369.914Z" fill="url(#paint82_linear_8549_23195)"/>
<path d="M-47.3809 356.84C-47.3809 356.84 -15.9448 372.742 42.9842 372.27C101.913 371.815 135.124 360.677 169.408 361.929C203.691 363.198 252.806 360.726 277.802 359.637C302.797 358.547 331.364 351.442 367.093 359.637C402.801 367.832 432.222 363.913 471.544 380.774C510.867 397.652 543.201 399.879 577.485 402.074C611.769 404.269 622.262 403.489 646.907 411.505C671.574 419.521 717.841 434.089 767.482 442.707C817.122 451.324 846.893 446.024 881.55 447.341C916.206 448.674 946.569 455.292 973.36 460.592C1000.15 465.893 1003.61 472.462 1025.21 472.527C1046.81 472.576 1073.28 486.412 1097.88 492.071C1122.48 497.713 1152.84 503.68 1195.69 510.964C1238.54 518.249 1293.02 538.134 1326.06 548.069C1359.09 558.003 1378.74 565.304 1408.21 571.271C1437.67 577.238 1460.89 581.775 1500.17 587.791C1539.45 593.807 1555.86 607.432 1606.59 619.497" stroke="url(#paint83_linear_8549_23195)" stroke-width="0.3" stroke-miterlimit="10"/>
<path d="M-51.7617 374.417C-51.7617 374.417 -29.5703 384.97 18.0767 383.409C65.7018 381.832 121.038 383.88 159.944 379.002C198.829 374.125 248.754 373.539 284.111 372.287C319.469 371.035 357.959 374.791 383.94 376.385C409.943 377.978 434.982 388.075 477.065 398.465C519.148 408.855 582.349 415.424 612.624 417.538C642.899 419.651 688.07 435.862 739.836 445.894C791.601 455.926 816.575 452.642 854.517 455.064C892.481 457.487 910.993 463.828 964.05 467.991" stroke="url(#paint84_linear_8549_23195)" stroke-width="0.3" stroke-miterlimit="10"/>
<path d="M-51.7617 402.091C-51.7617 402.091 -30.5999 396.985 21.7132 400.205C74.0264 403.424 98.3428 396.53 131.948 398.432C165.552 400.335 208.183 387.799 248.754 389.441C289.303 391.067 316.643 395.668 359.142 395.684C401.641 395.701 422.824 406.578 465.74 405.782C508.655 404.969 526.706 415.895 581.166 424.334C635.626 432.756 636.853 434.301 676.263 440.479C715.695 446.658 764.919 463.145 815.699 463.779C866.478 464.413 917.652 467.942 934.696 470.039" stroke="url(#paint85_linear_8549_23195)" stroke-width="0.3" stroke-miterlimit="10"/>
<path d="M-51.7617 420.008C-51.7617 420.008 -16.6891 424.171 34.3753 422.301C85.4397 420.431 131.597 418.106 166.757 415.407C201.918 412.708 226.891 417.439 271.603 413.147C316.314 408.854 374.673 415.505 404.773 417.976C434.873 420.447 451.851 426.61 488.084 429.699C524.318 432.788 548.218 434.333 587.234 438.203C626.25 442.056 664.608 449.584 691.707 455.08C718.805 460.576 769.76 468.754 792.631 470.072C815.501 471.389 855.262 475.47 881.55 474.12" stroke="url(#paint86_linear_8549_23195)" stroke-width="0.3" stroke-miterlimit="10"/>
<path d="M-51.7617 443.049C-51.7617 443.049 -2.406 445.13 50.3672 439.715C103.14 434.317 137.84 426.578 166.779 429.683C195.696 432.773 217.537 432.122 263.3 428.968C309.063 425.814 337.147 421.18 369.372 429.683C401.619 438.187 439.298 443.293 467.251 443.049C495.204 442.805 554.768 439.715 581.144 448.219C607.519 456.707 650.676 450.528 679.527 459.032C708.378 467.519 732.3 474.202 763.495 477.421C794.69 480.641 813.464 480.446 847.748 484.397" stroke="url(#paint87_linear_8549_23195)" stroke-width="0.3" stroke-miterlimit="10"/>
<path d="M-51.7617 459.795C-51.7617 459.795 -23.7212 463.649 29.3149 459.795C82.3509 455.942 117.073 447.438 148.597 448.983C180.12 450.527 211.315 450.153 237.319 448.804C263.322 447.438 313.225 438.577 354.826 448.804C396.427 459.031 411.783 453.422 448.302 455.064C484.82 456.706 501.951 452.641 527.692 455.064C553.454 457.487 568.964 460.137 603.313 461.503C637.685 462.868 648.594 469.649 679.527 474.364C710.459 479.079 744.524 487.144 780.013 492.379" stroke="url(#paint88_linear_8549_23195)" stroke-width="0.3" stroke-miterlimit="10"/>
<path d="M-51.7617 492.379C-51.7617 492.379 -5.01289 490.379 38.669 482.802C82.3509 475.225 118.256 466.25 153.854 463.795C189.453 461.324 218.588 454.186 253.946 455.064C289.303 455.942 317.672 461.389 359.12 465.616C400.567 469.827 412.528 470.283 459.584 470.055C506.639 469.827 538.338 458.95 568.767 471.73" stroke="url(#paint89_linear_8549_23195)" stroke-width="0.3" stroke-miterlimit="10"/>
<path d="M-51.7617 518.443C-51.7617 518.443 -7.09403 519.988 29.3149 506.086C65.7237 492.184 100.03 480.266 124.981 478.9C149.933 477.534 162.31 482.347 180.339 476.981" stroke="url(#paint90_linear_8549_23195)" stroke-width="0.3" stroke-miterlimit="10"/>
<path d="M296.051 469.421C296.051 469.421 354.826 476.412 380.83 478.916C406.833 481.404 438.028 485.697 500.418 478.916" stroke="url(#paint91_linear_8549_23195)" stroke-width="0.3" stroke-miterlimit="10"/>
<path d="M1076.41 461.536C1076.41 461.536 1091.59 460.69 1108.66 455.064C1125.7 449.439 1136.89 448.805 1152.97 443.049C1169.03 437.309 1185.37 433.13 1200.99 429.683C1216.61 426.236 1233.74 419.424 1251.82 422.302C1269.89 425.179 1289.78 427.293 1308.25 427.293C1326.72 427.293 1355.83 426.48 1375.72 421.619C1395.61 416.757 1399.16 423.293 1421.18 420.025C1443.19 416.757 1472.33 404.855 1499.32 405.538C1526.31 406.221 1540.52 411.538 1556.14 409.131C1571.76 406.725 1580.31 401.717 1606.57 405.798" stroke="url(#paint92_linear_8549_23195)" stroke-width="0.3" stroke-miterlimit="10"/>
<path d="M1606.57 424.334C1587.4 421.928 1567.49 426.22 1543.92 427.277C1520.35 428.334 1498.59 425.163 1472 429.667C1445.41 434.171 1428.27 432.545 1403.41 436.236C1378.55 439.927 1355.83 437.293 1333.79 438.366C1311.77 439.455 1281.24 443.081 1255.65 439.39C1230.08 435.699 1213.74 443.081 1191.73 443.927C1169.71 444.772 1136.32 457.845 1114.31 461.52C1092.29 465.194 1068.54 463.78 1068.54 463.78C1068.54 463.78 1091.59 461.942 1110.76 458.268C1129.91 454.593 1150.56 446.203 1170.74 442.187C1190.92 438.171 1224.26 428.106 1241.28 429.667C1258.3 431.228 1289.78 433.797 1312.41 432.87C1335.04 431.96 1367 431.391 1389.63 429.667C1412.26 427.944 1436.86 428.025 1458 423.602C1479.16 419.18 1487.51 414.172 1510.14 416.123C1532.77 418.074 1549.99 419.505 1569.18 417.505C1588.37 415.521 1606.57 415.684 1606.57 415.684" stroke="url(#paint93_linear_8549_23195)" stroke-width="0.3" stroke-miterlimit="10"/>
<path d="M1085.44 470.056C1085.44 470.056 1115.75 471.812 1134.92 468.008C1154.09 464.203 1173.28 468.69 1193.17 464.073C1213.06 459.455 1225.22 461 1251.82 461.552C1278.41 462.105 1292.63 453.325 1308.95 455.081C1325.29 456.837 1347.31 457.016 1371.45 455.081C1395.59 453.146 1418.33 446.805 1441.77 450.496C1465.21 454.187 1486.42 451.39 1512.05 449.358C1537.65 447.325 1539.8 449.277 1558.97 449.358C1578.14 449.439 1608.76 443.943 1608.76 443.943" stroke="url(#paint94_linear_8549_23195)" stroke-width="0.3" stroke-miterlimit="10"/>
<path d="M1110.78 478.918C1110.78 478.918 1139.02 480.462 1152.95 478.918C1166.88 477.373 1180.38 479.031 1203.12 477.405C1225.86 475.78 1254.27 476.332 1281.26 473.682C1308.25 471.032 1332.72 470.918 1358.13 470.446C1383.54 469.975 1409.11 463.699 1426.17 468.154C1443.21 472.609 1462.41 476.918 1492.22 477.405C1522.06 477.893 1540.52 478.674 1560.42 479.6C1580.31 480.527 1618.67 482.804 1618.67 482.804" stroke="url(#paint95_linear_8549_23195)" stroke-width="0.3" stroke-miterlimit="10"/>
<path d="M1165.46 487.648C1165.46 487.648 1200.97 488.965 1228.68 487.648C1256.39 486.331 1269.89 491.534 1303.27 492.103C1336.66 492.673 1361.74 488.445 1386.85 495.827C1411.95 503.209 1422.6 498.998 1459.53 501.095C1496.47 503.209 1515.66 506.363 1546.9 507.42C1578.16 508.477 1618.64 514.282 1618.64 514.282" stroke="url(#paint96_linear_8549_23195)" stroke-width="0.3" stroke-miterlimit="10"/>
<path d="M1235.78 497.404C1235.78 497.404 1277.69 503.729 1306.1 504.266C1334.51 504.786 1361.74 514.802 1386.83 514.282C1411.93 513.761 1440.41 517.452 1471.98 519.55C1503.55 521.664 1524.14 529.387 1547.58 533.159C1571.02 536.947 1608.72 538.525 1608.72 538.525" stroke="url(#paint97_linear_8549_23195)" stroke-width="0.3" stroke-miterlimit="10"/>
<path d="M1319.97 517.956C1319.97 517.956 1357.49 522.704 1386.85 525.858C1416.2 529.029 1443.91 537.988 1469.48 538.508C1495.04 539.028 1517.06 548.004 1540.5 550.101C1563.94 552.215 1586.81 561.694 1608.76 560.117" stroke="url(#paint98_linear_8549_23195)" stroke-width="0.3" stroke-miterlimit="10"/>
<path d="M1101.89 476.153C1101.89 476.153 1126.49 476.153 1141.23 474.69C1156 473.226 1165.33 470.234 1184.04 470.446C1202.72 470.673 1214.53 467.861 1233.22 467.991C1251.9 468.104 1277.42 468.608 1291.27 465.6C1305.11 462.592 1345.86 465.666 1360.14 463.779C1374.41 461.893 1399.49 462.267 1410.81 458.983C1422.12 455.698 1450.58 464.934 1472.02 463.779C1493.47 462.625 1515.09 464.365 1540.2 464.04C1565.28 463.714 1584.47 466.56 1604.64 464.04" stroke="url(#paint99_linear_8549_23195)" stroke-width="0.3" stroke-miterlimit="10"/>
<path d="M1077.64 467.21C1077.64 467.21 1105.33 466.576 1120.57 464.056C1135.82 461.536 1162.39 459.048 1182.07 457.194C1201.74 455.341 1225.84 450.219 1246.01 450.593C1266.19 450.951 1282.42 448.04 1307.5 448.398C1332.59 448.756 1358.17 448.04 1378.83 446.935C1399.49 445.845 1442.19 437.081 1464.38 440.723C1486.57 444.382 1504.27 440.366 1521.49 439.634C1538.71 438.902 1562.32 441.097 1577.06 438.545C1591.81 435.992 1604.6 438.545 1604.6 438.545" stroke="url(#paint100_linear_8549_23195)" stroke-width="0.3" stroke-miterlimit="10"/>
<path d="M1145 485.031C1145 485.031 1168.77 481.437 1182.55 482.819C1196.33 484.185 1211.57 483.372 1231.25 482.51C1250.92 481.632 1276.99 483.388 1303.06 482.51C1329.13 481.632 1346.83 480.722 1367.99 482.819C1389.15 484.917 1409.3 487.047 1437.34 487.437C1465.39 487.844 1480.63 490.51 1511.13 492.104C1541.62 493.681 1608.74 497.42 1608.74 497.42" stroke="url(#paint101_linear_8549_23195)" stroke-width="0.3" stroke-miterlimit="10"/>
<path d="M1207.65 493.665C1207.65 493.665 1248.42 490.738 1264.68 493.665C1280.93 496.592 1295.54 497.112 1319.97 497.388C1344.39 497.681 1355.72 503.876 1379.31 504.982C1402.91 506.087 1421.13 509.729 1447.68 510.461C1474.26 511.193 1500.81 513.778 1529.83 517.957C1558.86 522.135 1585.91 523.631 1606.57 527.81" stroke="url(#paint102_linear_8549_23195)" stroke-width="0.3" stroke-miterlimit="10"/>
<path d="M1290.5 511.062C1290.5 511.062 1310.94 510.834 1324.72 512.655C1338.5 514.476 1353.24 516.688 1374.89 517.956C1396.53 519.224 1416.2 522.135 1440.81 525.061C1465.41 527.988 1475.24 529.809 1494.92 531.63C1514.59 533.451 1527.38 538.199 1552.46 541.857C1577.55 545.516 1587.38 546.231 1606.57 550.247" stroke="url(#paint103_linear_8549_23195)" stroke-width="0.3" stroke-miterlimit="10"/>
<path d="M1376.88 531.582C1376.88 531.582 1399.82 533.354 1422.27 538.525C1444.73 543.695 1456.47 540.769 1472 544.427C1487.53 548.085 1495.9 550.264 1520 553.549C1544.09 556.833 1545.08 558.735 1564.75 562.898C1584.42 567.06 1588.85 572.898 1604.6 573.271" stroke="url(#paint104_linear_8549_23195)" stroke-width="0.3" stroke-miterlimit="10"/>
<path d="M1101.89 451.048C1101.89 451.048 1126.14 445.845 1145 441.098C1163.86 436.35 1172.71 430.236 1199.28 423.619C1225.86 417.001 1239.13 413.099 1254.86 416.139C1270.61 419.196 1307.26 422.984 1341.48 422.285C1375.7 421.586 1373.9 412.969 1400.45 411.522C1427.03 410.058 1429.57 409.733 1454.85 404.237C1480.13 398.742 1497.35 388.303 1522.93 393.148C1548.52 398.01 1566.22 395.799 1577.04 396.351C1587.86 396.904 1608.74 398.449 1608.74 398.449" stroke="url(#paint105_linear_8549_23195)" stroke-width="0.3" stroke-miterlimit="10"/>
<path d="M1131.79 482.689C1131.79 482.689 1155.49 478.397 1177.64 478.917C1199.77 479.437 1223.88 480.218 1245.02 478.917C1266.19 477.616 1307.83 472.494 1338.65 474.689C1369.48 476.884 1385.21 478.754 1411.27 478.917C1437.34 479.063 1453.6 481.99 1490.73 484.543C1527.86 487.095 1551.96 486.721 1574.08 487.648C1596.21 488.575 1613.43 492.103 1613.43 492.103" stroke="url(#paint106_linear_8549_23195)" stroke-width="0.3" stroke-miterlimit="10"/>
<path d="M-51.7617 196.002C-51.7617 196.002 -36.9966 196.961 -5.29767 196.002C26.4013 195.042 79.4373 185.286 126.011 198.083C172.584 210.879 191.643 209.302 222.532 222.813C253.42 236.325 290.289 258.032 323.938 272.389C357.564 286.746 366.634 283.006 393.798 288.713C420.962 294.42 441.949 294.421 471.567 308.095C501.185 321.785 521.93 338.988 568.789 352.711C615.669 366.434 650.917 366.434 700.557 370.271C750.198 374.108 762.465 373.019 797.078 381.246C831.69 389.474 855.153 396.677 881.572 405.798C907.991 414.92 921.749 422.546 955.616 432.887C989.506 443.228 1003.09 443.358 1030.89 455.065C1058.71 466.755 1072.36 470.105 1152.95 489.47C1233.55 508.835 1296 516.883 1330.97 527.826C1365.93 538.769 1374.56 546.931 1407.11 555.581C1439.67 564.215 1474.61 562.784 1499.82 568.068C1525.04 573.353 1560.04 582.165 1580.02 587.84C1600 593.515 1613.45 595.433 1613.45 595.433" stroke="url(#paint107_linear_8549_23195)" stroke-width="0.3" stroke-miterlimit="10"/>
<path d="M-51.7617 205.643C-51.7617 205.643 -37.3033 204.879 -7.335 205.643C22.6552 206.407 50.5424 200.375 68.4182 204.066C86.2941 207.757 110.435 201.367 129.888 205.708C149.32 210.05 163.143 218.293 183.165 222.797C203.188 227.301 219.092 233.447 239.29 241.512C259.488 249.56 283.257 265.381 313.291 276.096C343.325 286.811 345.165 287.786 369.022 292.518C392.878 297.249 406.811 296.859 431.675 302.957C456.539 309.054 473.297 323.2 500.396 334.516C527.516 345.833 558.186 354.776 584.167 360.532C610.126 366.287 624.957 371.507 653.962 376.84C682.966 382.173 705.508 379.588 739.836 383.376C774.142 387.165 817.999 388.693 847.792 400.189C877.563 411.684 904.574 427.879 926.875 434.09" stroke="url(#paint108_linear_8549_23195)" stroke-width="0.3" stroke-miterlimit="10"/>
<path d="M-51.7617 213.497C-51.7617 213.497 -31.8047 212.863 -7.92648 213.497C15.9299 214.131 31.2426 213.318 58.1659 213.497C85.0892 213.676 96.3493 216.212 115.824 218.358C135.277 220.505 153.394 226.862 175.849 232.309C198.303 237.756 208.84 245.788 228.052 252.227C247.264 258.666 267.462 267.95 290.114 276.015C312.765 284.096 313.97 290.03 339.689 296.827C365.385 303.623 417.238 306.615 428.038 313.753" stroke="url(#paint109_linear_8549_23195)" stroke-width="0.3" stroke-miterlimit="10"/>
<path d="M-47.3809 224.277C-47.3809 224.277 -32.1776 222.846 -1.70546 222.797C28.7886 222.765 27.8247 222.033 68.7026 223.529C109.558 225.025 119.066 227.366 148.596 233.691C178.104 240.016 186.495 245.56 208.314 254.146C230.133 262.731 241.634 263.804 258.524 270.535C275.414 277.267 277.539 281.949 296.05 288.697C314.583 295.445 318.855 300.062 334.759 303.428C350.663 306.794 381.333 308.436 397.215 313.753" stroke="url(#paint110_linear_8549_23195)" stroke-width="0.3" stroke-miterlimit="10"/>
<path d="M-47.3809 232.309C-47.3809 232.309 -31.5862 231.009 -1.70546 233.708C28.1752 236.407 45.9196 231.122 80.1817 236.488C114.444 241.854 120.293 236.992 148.574 244.878C176.856 252.748 175.147 261.284 200.164 267.918C225.204 274.552 230.089 274.584 261.306 285.234C292.523 295.9 299.533 306.469 337.936 312.989" stroke="url(#paint111_linear_8549_23195)" stroke-width="0.3" stroke-miterlimit="10"/>
<path d="M-47.3809 244.878C-47.3809 244.878 -36.077 245.17 -5.49531 244.878C25.1083 244.585 45.0434 247.755 68.4178 247.3C91.7922 246.845 108.332 255.934 126.076 256.389C143.821 256.845 161.302 268.633 183.165 272.502C205.028 276.372 215.433 283.315 241.13 288.713C266.826 294.111 278.371 310.257 313.291 315.574" stroke="url(#paint112_linear_8549_23195)" stroke-width="0.3" stroke-miterlimit="10"/>
<path d="M-51.7617 258.194C-51.7617 258.194 -36.6899 258.65 3.07068 258.194C42.8532 257.739 54.1132 260.129 86.4255 263.479C118.738 266.828 119.351 271.576 151.16 276.015C182.99 280.454 192.3 284.616 222.51 292.534C252.741 300.453 264.987 313.672 288.843 317.72" stroke="url(#paint113_linear_8549_23195)" stroke-width="0.3" stroke-miterlimit="10"/>
<path d="M-47.3809 272.372C-47.3809 272.372 -20.7862 276.551 11.6357 272.372C44.0795 268.193 40.684 276.323 68.6807 280.209C96.6993 284.095 108.923 284.112 137.687 285.233C166.45 286.355 194.315 292.501 206.079 301.021" stroke="url(#paint114_linear_8549_23195)" stroke-width="0.3" stroke-miterlimit="10"/>
<path d="M-47.3809 285.233C-47.3809 285.233 -26.8981 289.51 3.68359 287.932C34.2872 286.355 26.3789 290.485 55.4271 290.924C84.4754 291.363 105.265 289.575 124.236 290.924C143.207 292.274 171.62 298.306 174.227 298.371" stroke="url(#paint115_linear_8549_23195)" stroke-width="0.3" stroke-miterlimit="10"/>
<path d="M-47.3809 152.849C-47.3809 152.849 42.1298 150.41 129.756 162.604C217.383 174.799 286.389 202.44 322.535 227.642C358.681 252.845 382.778 269.917 441.926 289.429C501.074 308.94 514.218 320.322 544.888 339.833C575.557 359.345 671.946 361.784 705.902 362.597C739.857 363.409 802.291 372.352 826.388 379.669C850.486 386.986 911.824 413.001 963.305 421.131C1014.79 429.261 1053.12 422.757 1082.7 411.375C1112.27 399.993 1151.7 397.555 1180.18 400.806C1208.66 404.058 1232.76 397.555 1257.95 400.806C1283.14 404.058 1325.86 410.562 1364.2 396.742C1402.53 382.921 1429.92 378.043 1468.25 370.726C1506.59 363.409 1503.3 359.345 1531.78 357.719C1560.26 356.093 1588.26 369.913 1608.76 369.913" stroke="url(#paint116_linear_8549_23195)" stroke-width="2" stroke-miterlimit="10"/>
<path d="M-47.3809 296.079C-47.3809 296.079 -31.8052 300.648 -2.80079 302.128C26.2036 303.607 149.494 295.673 190.109 299.103C230.724 302.534 258.283 315.461 275.677 317.607C293.071 319.753 345.296 310.079 362.69 312.225C380.084 314.371 417.807 315.46 427.95 312.225C438.093 308.989 446.812 320.842 467.119 327.297C487.427 333.752 517.877 348.825 555.6 354.207C593.323 359.589 602.02 366.044 623.774 380.043C645.527 394.043 693.393 391.88 738.346 392.953C783.298 394.027 831.493 400.482 861.067 413.408C890.641 426.318 909.48 433.862 938.507 434.936C967.511 436.009 993.624 454.317 1013.93 460.772C1034.24 467.227 1100.94 485.535 1138.67 491.99C1176.37 498.445 1206.84 504.9 1247.46 515.68C1288.07 526.444 1306.93 529.68 1331.58 537.208C1356.24 544.736 1362.03 553.354 1388.14 558.736C1414.25 564.118 1443.26 568.426 1475.15 573.808C1507.07 579.19 1531.72 581.336 1559.28 594.263C1586.83 607.173 1608.76 609.335 1608.76 609.335" stroke="url(#paint117_linear_8549_23195)" stroke-width="2" stroke-miterlimit="10"/>
<path d="M-47.3809 342.369C-47.3809 342.369 -27.4677 354.206 27.6495 358.515C82.7666 362.824 91.4636 358.515 137.884 350.434C184.304 342.353 184.304 351.588 211.863 351.279C239.421 350.971 297.43 343.426 333.686 342.353C369.941 341.28 372.855 347.28 398.946 351.279C425.058 355.279 442.452 356.352 464.206 366.043C485.959 375.734 519.323 387.571 549.773 391.88C580.223 396.188 626.644 393.278 636.786 396.351C646.929 399.424 683.207 417.781 725.267 424.74C767.328 431.715 793.441 438.17 822.445 439.244C851.45 440.317 906.567 439.244 934.125 444.625C961.684 450.007 1017.55 464.413 1073.65 477.388" stroke="url(#paint118_linear_8549_23195)" stroke-width="2" stroke-miterlimit="10"/>
<path d="M-47.3809 541.988C-47.3809 541.988 -33.2949 540.459 -26.0876 536.638C-18.8803 532.818 -3.43609 529.761 21.2527 525.94C45.9634 522.119 52.1192 513.713 69.6227 507.615C87.1261 501.502 133.437 490.803 162.244 482.413C191.051 474.007 214.732 465.601 229.147 465.601C243.562 465.601 277.517 467.129 296.05 469.422C314.583 471.714 331.035 477.828 361.923 483.941C392.79 490.055 407.204 494.136 431.915 492.087C456.626 490.039 504.996 476.982 522.477 477.405C539.981 477.828 544.099 474.007 568.788 471.714C593.477 469.422 614.069 473.161 639.809 477.405C665.55 481.649 699.505 491.843 725.224 492.087C750.942 492.331 789.038 492.608 807.549 492.087C826.082 491.567 844.593 484.706 855.919 482.413C867.244 480.12 872.392 473.243 892.963 473.243C913.533 473.243 930.007 470.186 948.54 468.657C967.073 467.129 981.466 467.893 1002.06 474.007C1022.65 480.12 1031.89 477.828 1048.37 483.177C1064.84 488.527 1080.26 499.225 1104.98 503.794C1129.66 508.379 1134.81 512.2 1153.35 514.493C1171.88 516.786 1193.48 518.314 1221.28 523.663C1249.06 529.013 1260.38 536.655 1287.15 545.809C1313.9 554.979 1329.34 561.093 1359.2 567.954C1389.04 574.832 1395.22 579.417 1412.72 583.238C1430.22 587.059 1454.91 600.701 1454.91 600.701" stroke="url(#paint119_linear_8549_23195)" stroke-width="2" stroke-miterlimit="10"/>
<path d="M-47.3809 577.125C-47.3809 577.125 -26.0876 580.181 3.7493 577.125C33.5862 574.068 61.3857 563.369 84.0153 552.687C106.667 541.988 111.793 538.167 135.474 533.972C159.155 529.777 174.577 515.257 190.022 510.672C205.466 506.087 222.947 503.794 237.362 496.916C251.777 490.039 265.14 491.063 289.85 492.087C314.539 493.095 329.983 488.787 347.487 492.087C364.99 495.388 368.079 498.445 387.62 497.681C407.182 496.916 417.457 500.737 433.93 500.737C450.404 500.737 477.152 497.177 500.833 492.087C524.515 486.998 525.522 490.835 545.085 490.819C564.648 490.819 563.618 488.835 605.81 489.437C648.002 490.039 658.299 493.86 689.165 499.209C720.032 504.558 727.239 507.615 766.342 508.379C805.446 509.144 828.097 509.908 866.171 500.737C904.245 491.567 920.719 493.095 946.437 486.218C972.155 479.34 998.925 484.689 1016.43 486.218C1033.93 487.746 1048.32 493.095 1064.8 503.794C1081.27 514.493 1082.3 522.346 1119.35 530.639C1156.39 538.931 1168.75 538.167 1189.34 537.403C1209.93 536.638 1209.93 532.053 1249.03 545.809C1288.14 559.564 1309.76 567.19 1337.54 574.832C1365.31 582.474 1400.98 593.514 1425.01 596.213C1449.04 598.912 1480.59 606.424 1510.42 609.335C1540.26 612.245 1534.11 616.066 1557.76 624.472C1581.45 632.879 1608.74 642.96 1608.74 642.96" stroke="url(#paint120_linear_8549_23195)" stroke-width="2" stroke-miterlimit="10"/>
<path d="M1068.57 463.796C1068.57 463.796 1083.73 460.089 1098.58 452.723C1113.41 445.357 1111.22 445.764 1127.71 440.87C1144.21 435.976 1146.4 433.521 1155.19 428.22C1163.97 422.919 1178.82 420.871 1195.87 414.351C1212.91 407.83 1235.43 406.188 1246.97 407.001C1258.52 407.814 1270.06 412.708 1290.39 415.57C1310.72 418.432 1338.22 417.196 1360.74 413.115C1383.28 409.034 1388.21 395.506 1401.96 396.351C1415.7 397.197 1420.65 401.961 1445.93 396.319C1471.21 390.677 1471.21 386.189 1507.49 381.701C1543.77 377.214 1580.35 390.677 1608.76 391.896" stroke="url(#paint121_linear_8549_23195)" stroke-width="2" stroke-miterlimit="10"/>
<path d="M873.816 396.367C915.176 409.846 939.953 425.277 980.568 433.878C1021.18 442.495 1042.94 454.332 1074.83 466.169C1106.73 478.006 1115.45 480.169 1154.59 486.624C1193.76 493.079 1221.32 494.152 1256.13 502.77C1290.94 511.387 1315.61 516.769 1364.92 528.606C1414.23 540.443 1418.59 545.825 1447.6 552.296C1476.6 558.751 1495.46 557.678 1530.27 564.133C1565.08 570.588 1581.34 583.514 1608.79 587.823" stroke="url(#paint122_linear_8549_23195)" stroke-width="2" stroke-miterlimit="10"/>
<path opacity="0.3" d="M1275.89 368.922C1275.89 368.922 1275.89 368.938 1275.87 368.971C1264.68 371.361 1252.56 373.166 1239.18 374.255C1213.92 376.32 1211.11 378.011 1195.98 381.247C1180.82 384.482 1187.54 388.011 1166.8 387.588C1146.03 387.182 1153.32 389.263 1137.62 387.588C1121.89 385.93 1115.16 380.922 1104.49 378.84C1093.85 376.759 1089.36 379.263 1080.92 376.353C1072.51 373.426 1053.17 374.418 1053.17 374.418C1051.61 373.426 1049.84 372.402 1047.8 371.296C1033.71 363.784 1025.28 363.784 1010.62 358.76C1002.34 355.931 995.136 353.215 987.688 350.159C1002.52 301.982 1045.4 237.574 1134.5 239C1197 240 1272.06 311.623 1275.89 368.922Z" fill="url(#paint123_linear_8549_23195)"/>
<defs>
<linearGradient id="paint0_linear_8549_23195" x1="1053.01" y1="345.801" x2="1609.09" y2="345.801" gradientUnits="userSpaceOnUse">
<stop stop-color="#EFD983"/>
<stop offset="1" stop-color="#B1803D"/>
</linearGradient>
<linearGradient id="paint1_linear_8549_23195" x1="-47.6437" y1="241.414" x2="478.138" y2="241.414" gradientUnits="userSpaceOnUse">
<stop stop-color="#EFD983"/>
<stop offset="1" stop-color="#B1803D"/>
</linearGradient>
<linearGradient id="paint2_linear_8549_23195" x1="26.6851" y1="179.58" x2="202.953" y2="15.1454" gradientUnits="userSpaceOnUse">
<stop stop-color="#EFD983"/>
<stop offset="1" stop-color="#B1803D"/>
</linearGradient>
<linearGradient id="paint3_linear_8549_23195" x1="167.15" y1="128.671" x2="459.429" y2="128.671" gradientUnits="userSpaceOnUse">
<stop stop-color="#EFD983"/>
<stop offset="1" stop-color="#B1803D"/>
</linearGradient>
<linearGradient id="paint4_linear_8549_23195" x1="-43.372" y1="73.8929" x2="171.992" y2="73.8929" gradientUnits="userSpaceOnUse">
<stop stop-color="#EFD983"/>
<stop offset="1" stop-color="#B1803D"/>
</linearGradient>
<linearGradient id="paint5_linear_8549_23195" x1="-2.01219" y1="98.3149" x2="169.758" y2="98.3149" gradientUnits="userSpaceOnUse">
<stop stop-color="#EFD983"/>
<stop offset="1" stop-color="#B1803D"/>
</linearGradient>
<linearGradient id="paint6_linear_8549_23195" x1="68.3742" y1="115.549" x2="191.84" y2="115.549" gradientUnits="userSpaceOnUse">
<stop stop-color="#EFD983"/>
<stop offset="1" stop-color="#B1803D"/>
</linearGradient>
<linearGradient id="paint7_linear_8549_23195" x1="131.662" y1="135.061" x2="220.165" y2="135.061" gradientUnits="userSpaceOnUse">
<stop stop-color="#EFD983"/>
<stop offset="1" stop-color="#B1803D"/>
</linearGradient>
<linearGradient id="paint8_linear_8549_23195" x1="190.897" y1="162.15" x2="220.23" y2="162.15" gradientUnits="userSpaceOnUse">
<stop stop-color="#EFD983"/>
<stop offset="1" stop-color="#B1803D"/>
</linearGradient>
<linearGradient id="paint9_linear_8549_23195" x1="-43.3943" y1="71.3401" x2="144.171" y2="71.3401" gradientUnits="userSpaceOnUse">
<stop stop-color="#EFD983"/>
<stop offset="1" stop-color="#B1803D"/>
</linearGradient>
<linearGradient id="paint10_linear_8549_23195" x1="-43.3724" y1="81.7296" x2="86.8846" y2="81.7296" gradientUnits="userSpaceOnUse">
<stop stop-color="#EFD983"/>
<stop offset="1" stop-color="#B1803D"/>
</linearGradient>
<linearGradient id="paint11_linear_8549_23195" x1="-27.1177" y1="86.8678" x2="174.599" y2="86.8678" gradientUnits="userSpaceOnUse">
<stop stop-color="#EFD983"/>
<stop offset="1" stop-color="#B1803D"/>
</linearGradient>
<linearGradient id="paint12_linear_8549_23195" x1="34.1555" y1="106.981" x2="180.821" y2="106.981" gradientUnits="userSpaceOnUse">
<stop stop-color="#EFD983"/>
<stop offset="1" stop-color="#B1803D"/>
</linearGradient>
<linearGradient id="paint13_linear_8549_23195" x1="100.489" y1="122.883" x2="213.703" y2="122.883" gradientUnits="userSpaceOnUse">
<stop stop-color="#EFD983"/>
<stop offset="1" stop-color="#B1803D"/>
</linearGradient>
<linearGradient id="paint14_linear_8549_23195" x1="159.703" y1="150.296" x2="213.681" y2="150.296" gradientUnits="userSpaceOnUse">
<stop stop-color="#EFD983"/>
<stop offset="1" stop-color="#B1803D"/>
</linearGradient>
<linearGradient id="paint15_linear_8549_23195" x1="207.962" y1="170.442" x2="227.678" y2="170.442" gradientUnits="userSpaceOnUse">
<stop stop-color="#EFD983"/>
<stop offset="1" stop-color="#B1803D"/>
</linearGradient>
<linearGradient id="paint16_linear_8549_23195" x1="199.813" y1="166.361" x2="224.94" y2="166.361" gradientUnits="userSpaceOnUse">
<stop stop-color="#EFD983"/>
<stop offset="1" stop-color="#B1803D"/>
</linearGradient>
<linearGradient id="paint17_linear_8549_23195" x1="216.705" y1="176.946" x2="228.512" y2="176.946" gradientUnits="userSpaceOnUse">
<stop stop-color="#EFD983"/>
<stop offset="1" stop-color="#B1803D"/>
</linearGradient>
<linearGradient id="paint18_linear_8549_23195" x1="175.432" y1="156.751" x2="214.426" y2="156.751" gradientUnits="userSpaceOnUse">
<stop stop-color="#EFD983"/>
<stop offset="1" stop-color="#B1803D"/>
</linearGradient>
<linearGradient id="paint19_linear_8549_23195" x1="148.289" y1="140.947" x2="218.259" y2="140.947" gradientUnits="userSpaceOnUse">
<stop stop-color="#EFD983"/>
<stop offset="1" stop-color="#B1803D"/>
</linearGradient>
<linearGradient id="paint20_linear_8549_23195" x1="115.562" y1="128.59" x2="218.216" y2="128.59" gradientUnits="userSpaceOnUse">
<stop stop-color="#EFD983"/>
<stop offset="1" stop-color="#B1803D"/>
</linearGradient>
<linearGradient id="paint21_linear_8549_23195" x1="83.4451" y1="119.192" x2="205.838" y2="119.192" gradientUnits="userSpaceOnUse">
<stop stop-color="#EFD983"/>
<stop offset="1" stop-color="#B1803D"/>
</linearGradient>
<linearGradient id="paint22_linear_8549_23195" x1="50.4101" y1="112.656" x2="186.954" y2="112.656" gradientUnits="userSpaceOnUse">
<stop stop-color="#EFD983"/>
<stop offset="1" stop-color="#B1803D"/>
</linearGradient>
<linearGradient id="paint23_linear_8549_23195" x1="17.7476" y1="103.177" x2="176.089" y2="103.177" gradientUnits="userSpaceOnUse">
<stop stop-color="#EFD983"/>
<stop offset="1" stop-color="#B1803D"/>
</linearGradient>
<linearGradient id="paint24_linear_8549_23195" x1="-14.0174" y1="95.0953" x2="168.509" y2="95.0953" gradientUnits="userSpaceOnUse">
<stop stop-color="#EFD983"/>
<stop offset="1" stop-color="#B1803D"/>
</linearGradient>
<linearGradient id="paint25_linear_8549_23195" x1="-41.2685" y1="81.0956" x2="178.718" y2="81.0956" gradientUnits="userSpaceOnUse">
<stop stop-color="#EFD983"/>
<stop offset="1" stop-color="#B1803D"/>
</linearGradient>
<linearGradient id="paint26_linear_8549_23195" x1="-43.3943" y1="72.6573" x2="154.313" y2="72.6573" gradientUnits="userSpaceOnUse">
<stop stop-color="#EFD983"/>
<stop offset="1" stop-color="#B1803D"/>
</linearGradient>
<linearGradient id="paint27_linear_8549_23195" x1="-48.8705" y1="86.8188" x2="461.051" y2="86.8188" gradientUnits="userSpaceOnUse">
<stop stop-color="#EFD983"/>
<stop offset="1" stop-color="#B1803D"/>
</linearGradient>
<linearGradient id="paint28_linear_8549_23195" x1="164.96" y1="94.7378" x2="230.22" y2="94.7378" gradientUnits="userSpaceOnUse">
<stop stop-color="#EFD983"/>
<stop offset="1" stop-color="#B1803D"/>
</linearGradient>
<linearGradient id="paint29_linear_8549_23195" x1="478.554" y1="409.392" x2="673.22" y2="237.267" gradientUnits="userSpaceOnUse">
<stop stop-color="#EFD983"/>
<stop offset="1" stop-color="#B1803D"/>
</linearGradient>
<linearGradient id="paint30_linear_8549_23195" x1="518.469" y1="274.421" x2="1130.06" y2="274.421" gradientUnits="userSpaceOnUse">
<stop stop-color="#EFD983"/>
<stop offset="1" stop-color="#B1803D"/>
</linearGradient>
<linearGradient id="paint31_linear_8549_23195" x1="388.014" y1="200.57" x2="527.954" y2="200.57" gradientUnits="userSpaceOnUse">
<stop stop-color="#EFD983"/>
<stop offset="1" stop-color="#B1803D"/>
</linearGradient>
<linearGradient id="paint32_linear_8549_23195" x1="419.778" y1="218.277" x2="556.103" y2="218.277" gradientUnits="userSpaceOnUse">
<stop stop-color="#EFD983"/>
<stop offset="1" stop-color="#B1803D"/>
</linearGradient>
<linearGradient id="paint33_linear_8549_23195" x1="463.636" y1="239.903" x2="572.534" y2="239.903" gradientUnits="userSpaceOnUse">
<stop stop-color="#EFD983"/>
<stop offset="1" stop-color="#B1803D"/>
</linearGradient>
<linearGradient id="paint34_linear_8549_23195" x1="495.028" y1="254.113" x2="584.429" y2="254.113" gradientUnits="userSpaceOnUse">
<stop stop-color="#EFD983"/>
<stop offset="1" stop-color="#B1803D"/>
</linearGradient>
<linearGradient id="paint35_linear_8549_23195" x1="527.253" y1="273.576" x2="613.127" y2="273.576" gradientUnits="userSpaceOnUse">
<stop stop-color="#EFD983"/>
<stop offset="1" stop-color="#B1803D"/>
</linearGradient>
<linearGradient id="paint36_linear_8549_23195" x1="555.447" y1="292.404" x2="641.212" y2="292.404" gradientUnits="userSpaceOnUse">
<stop stop-color="#EFD983"/>
<stop offset="1" stop-color="#B1803D"/>
</linearGradient>
<linearGradient id="paint37_linear_8549_23195" x1="597.836" y1="307.9" x2="670.609" y2="307.9" gradientUnits="userSpaceOnUse">
<stop stop-color="#EFD983"/>
<stop offset="1" stop-color="#B1803D"/>
</linearGradient>
<linearGradient id="paint38_linear_8549_23195" x1="640.313" y1="316.03" x2="699.921" y2="316.03" gradientUnits="userSpaceOnUse">
<stop stop-color="#EFD983"/>
<stop offset="1" stop-color="#B1803D"/>
</linearGradient>
<linearGradient id="paint39_linear_8549_23195" x1="682.943" y1="327.216" x2="721.126" y2="327.216" gradientUnits="userSpaceOnUse">
<stop stop-color="#EFD983"/>
<stop offset="1" stop-color="#B1803D"/>
</linearGradient>
<linearGradient id="paint40_linear_8549_23195" x1="725.772" y1="333.378" x2="756.616" y2="333.378" gradientUnits="userSpaceOnUse">
<stop stop-color="#EFD983"/>
<stop offset="1" stop-color="#B1803D"/>
</linearGradient>
<linearGradient id="paint41_linear_8549_23195" x1="767.02" y1="342.955" x2="797.536" y2="342.955" gradientUnits="userSpaceOnUse">
<stop stop-color="#EFD983"/>
<stop offset="1" stop-color="#B1803D"/>
</linearGradient>
<linearGradient id="paint42_linear_8549_23195" x1="803.759" y1="348.451" x2="842.139" y2="348.451" gradientUnits="userSpaceOnUse">
<stop stop-color="#EFD983"/>
<stop offset="1" stop-color="#B1803D"/>
</linearGradient>
<linearGradient id="paint43_linear_8549_23195" x1="841.263" y1="363.54" x2="879.907" y2="363.54" gradientUnits="userSpaceOnUse">
<stop stop-color="#EFD983"/>
<stop offset="1" stop-color="#B1803D"/>
</linearGradient>
<linearGradient id="paint44_linear_8549_23195" x1="914.695" y1="400.222" x2="935.134" y2="400.222" gradientUnits="userSpaceOnUse">
<stop stop-color="#EFD983"/>
<stop offset="1" stop-color="#B1803D"/>
</linearGradient>
<linearGradient id="paint45_linear_8549_23195" x1="944.334" y1="411.619" x2="956.119" y2="411.619" gradientUnits="userSpaceOnUse">
<stop stop-color="#EFD983"/>
<stop offset="1" stop-color="#B1803D"/>
</linearGradient>
<linearGradient id="paint46_linear_8549_23195" x1="373.292" y1="194.587" x2="523.222" y2="194.587" gradientUnits="userSpaceOnUse">
<stop stop-color="#EFD983"/>
<stop offset="1" stop-color="#B1803D"/>
</linearGradient>
<linearGradient id="paint47_linear_8549_23195" x1="396.689" y1="205.546" x2="534.57" y2="205.546" gradientUnits="userSpaceOnUse">
<stop stop-color="#EFD983"/>
<stop offset="1" stop-color="#B1803D"/>
</linearGradient>
<linearGradient id="paint48_linear_8549_23195" x1="406.941" y1="211.041" x2="545.676" y2="211.041" gradientUnits="userSpaceOnUse">
<stop stop-color="#EFD983"/>
<stop offset="1" stop-color="#B1803D"/>
</linearGradient>
<linearGradient id="paint49_linear_8549_23195" x1="431.192" y1="222.765" x2="556.345" y2="222.765" gradientUnits="userSpaceOnUse">
<stop stop-color="#EFD983"/>
<stop offset="1" stop-color="#B1803D"/>
</linearGradient>
<linearGradient id="paint50_linear_8549_23195" x1="446.877" y1="230.65" x2="564.122" y2="230.65" gradientUnits="userSpaceOnUse">
<stop stop-color="#EFD983"/>
<stop offset="1" stop-color="#B1803D"/>
</linearGradient>
<linearGradient id="paint51_linear_8549_23195" x1="471.039" y1="244.861" x2="577.966" y2="244.861" gradientUnits="userSpaceOnUse">
<stop stop-color="#EFD983"/>
<stop offset="1" stop-color="#B1803D"/>
</linearGradient>
<linearGradient id="paint52_linear_8549_23195" x1="483.548" y1="249.771" x2="581.602" y2="249.771" gradientUnits="userSpaceOnUse">
<stop stop-color="#EFD983"/>
<stop offset="1" stop-color="#B1803D"/>
</linearGradient>
<linearGradient id="paint53_linear_8549_23195" x1="505.018" y1="260.064" x2="591.067" y2="260.064" gradientUnits="userSpaceOnUse">
<stop stop-color="#EFD983"/>
<stop offset="1" stop-color="#B1803D"/>
</linearGradient>
<linearGradient id="paint54_linear_8549_23195" x1="518.862" y1="267.917" x2="603.794" y2="267.917" gradientUnits="userSpaceOnUse">
<stop stop-color="#EFD983"/>
<stop offset="1" stop-color="#B1803D"/>
</linearGradient>
<linearGradient id="paint55_linear_8549_23195" x1="536.234" y1="279.412" x2="621.56" y2="279.412" gradientUnits="userSpaceOnUse">
<stop stop-color="#EFD983"/>
<stop offset="1" stop-color="#B1803D"/>
</linearGradient>
<linearGradient id="paint56_linear_8549_23195" x1="544.449" y1="285.282" x2="630.104" y2="285.282" gradientUnits="userSpaceOnUse">
<stop stop-color="#EFD983"/>
<stop offset="1" stop-color="#B1803D"/>
</linearGradient>
<linearGradient id="paint57_linear_8549_23195" x1="566.553" y1="296.777" x2="647.301" y2="296.777" gradientUnits="userSpaceOnUse">
<stop stop-color="#EFD983"/>
<stop offset="1" stop-color="#B1803D"/>
</linearGradient>
<linearGradient id="paint58_linear_8549_23195" x1="583.64" y1="303.412" x2="660.007" y2="303.412" gradientUnits="userSpaceOnUse">
<stop stop-color="#EFD983"/>
<stop offset="1" stop-color="#B1803D"/>
</linearGradient>
<linearGradient id="paint59_linear_8549_23195" x1="611.637" y1="309.671" x2="673.83" y2="309.671" gradientUnits="userSpaceOnUse">
<stop stop-color="#EFD983"/>
<stop offset="1" stop-color="#B1803D"/>
</linearGradient>
<linearGradient id="paint60_linear_8549_23195" x1="629.096" y1="312.973" x2="688.222" y2="312.973" gradientUnits="userSpaceOnUse">
<stop stop-color="#EFD983"/>
<stop offset="1" stop-color="#B1803D"/>
</linearGradient>
<linearGradient id="paint61_linear_8549_23195" x1="653.523" y1="318.322" x2="709.297" y2="318.322" gradientUnits="userSpaceOnUse">
<stop stop-color="#EFD983"/>
<stop offset="1" stop-color="#B1803D"/>
</linearGradient>
<linearGradient id="paint62_linear_8549_23195" x1="669.624" y1="322.533" x2="713.876" y2="322.533" gradientUnits="userSpaceOnUse">
<stop stop-color="#EFD983"/>
<stop offset="1" stop-color="#B1803D"/>
</linearGradient>
<linearGradient id="paint63_linear_8549_23195" x1="698.912" y1="329.053" x2="732.495" y2="329.053" gradientUnits="userSpaceOnUse">
<stop stop-color="#EFD983"/>
<stop offset="1" stop-color="#B1803D"/>
</linearGradient>
<linearGradient id="paint64_linear_8549_23195" x1="710.393" y1="331.41" x2="745.115" y2="331.41" gradientUnits="userSpaceOnUse">
<stop stop-color="#EFD983"/>
<stop offset="1" stop-color="#B1803D"/>
</linearGradient>
<linearGradient id="paint65_linear_8549_23195" x1="739.352" y1="336.5" x2="769.999" y2="336.5" gradientUnits="userSpaceOnUse">
<stop stop-color="#EFD983"/>
<stop offset="1" stop-color="#B1803D"/>
</linearGradient>
<linearGradient id="paint66_linear_8549_23195" x1="754.163" y1="339.963" x2="782.51" y2="339.963" gradientUnits="userSpaceOnUse">
<stop stop-color="#EFD983"/>
<stop offset="1" stop-color="#B1803D"/>
</linearGradient>
<linearGradient id="paint67_linear_8549_23195" x1="779.946" y1="342.548" x2="818.48" y2="342.548" gradientUnits="userSpaceOnUse">
<stop stop-color="#EFD983"/>
<stop offset="1" stop-color="#B1803D"/>
</linearGradient>
<linearGradient id="paint68_linear_8549_23195" x1="792.147" y1="345.231" x2="830.966" y2="345.231" gradientUnits="userSpaceOnUse">
<stop stop-color="#EFD983"/>
<stop offset="1" stop-color="#B1803D"/>
</linearGradient>
<linearGradient id="paint69_linear_8549_23195" x1="815.259" y1="352.027" x2="853.158" y2="352.027" gradientUnits="userSpaceOnUse">
<stop stop-color="#EFD983"/>
<stop offset="1" stop-color="#B1803D"/>
</linearGradient>
<linearGradient id="paint70_linear_8549_23195" x1="830.924" y1="356.824" x2="864.594" y2="356.824" gradientUnits="userSpaceOnUse">
<stop stop-color="#EFD983"/>
<stop offset="1" stop-color="#B1803D"/>
</linearGradient>
<linearGradient id="paint71_linear_8549_23195" x1="854.034" y1="369.067" x2="886.521" y2="369.067" gradientUnits="userSpaceOnUse">
<stop stop-color="#EFD983"/>
<stop offset="1" stop-color="#B1803D"/>
</linearGradient>
<linearGradient id="paint72_linear_8549_23195" x1="864.352" y1="376.368" x2="898.724" y2="376.368" gradientUnits="userSpaceOnUse">
<stop stop-color="#EFD983"/>
<stop offset="1" stop-color="#B1803D"/>
</linearGradient>
<linearGradient id="paint73_linear_8549_23195" x1="887.813" y1="387.929" x2="916.292" y2="387.929" gradientUnits="userSpaceOnUse">
<stop stop-color="#EFD983"/>
<stop offset="1" stop-color="#B1803D"/>
</linearGradient>
<linearGradient id="paint74_linear_8549_23195" x1="900.718" y1="393.246" x2="925.429" y2="393.246" gradientUnits="userSpaceOnUse">
<stop stop-color="#EFD983"/>
<stop offset="1" stop-color="#B1803D"/>
</linearGradient>
<linearGradient id="paint75_linear_8549_23195" x1="926.523" y1="405.765" x2="944.859" y2="405.765" gradientUnits="userSpaceOnUse">
<stop stop-color="#EFD983"/>
<stop offset="1" stop-color="#B1803D"/>
</linearGradient>
<linearGradient id="paint76_linear_8549_23195" x1="938.177" y1="409.147" x2="950.62" y2="409.147" gradientUnits="userSpaceOnUse">
<stop stop-color="#EFD983"/>
<stop offset="1" stop-color="#B1803D"/>
</linearGradient>
<linearGradient id="paint77_linear_8549_23195" x1="956.952" y1="415.505" x2="964.532" y2="415.505" gradientUnits="userSpaceOnUse">
<stop stop-color="#EFD983"/>
<stop offset="1" stop-color="#B1803D"/>
</linearGradient>
<linearGradient id="paint78_linear_8549_23195" x1="879.599" y1="383.441" x2="904.112" y2="383.441" gradientUnits="userSpaceOnUse">
<stop stop-color="#EFD983"/>
<stop offset="1" stop-color="#B1803D"/>
</linearGradient>
<linearGradient id="paint79_linear_8549_23195" x1="358.747" y1="262.194" x2="1131.64" y2="262.194" gradientUnits="userSpaceOnUse">
<stop stop-color="#EFD983"/>
<stop offset="1" stop-color="#B1803D"/>
</linearGradient>
<linearGradient id="paint80_linear_8549_23195" x1="516.738" y1="274.649" x2="993.931" y2="274.649" gradientUnits="userSpaceOnUse">
<stop stop-color="#EFD983"/>
<stop offset="1" stop-color="#B1803D"/>
</linearGradient>
<linearGradient id="paint81_linear_8549_23195" x1="-42.9766" y1="388.254" x2="1073.65" y2="388.254" gradientUnits="userSpaceOnUse">
<stop stop-color="#EFD983"/>
<stop offset="1" stop-color="#B1803D"/>
</linearGradient>
<linearGradient id="paint82_linear_8549_23195" x1="903.609" y1="410.676" x2="1600" y2="410.676" gradientUnits="userSpaceOnUse">
<stop stop-color="#EFD983"/>
<stop offset="1" stop-color="#B1803D"/>
</linearGradient>
<linearGradient id="paint83_linear_8549_23195" x1="-47.5561" y1="487.632" x2="1606.68" y2="487.632" gradientUnits="userSpaceOnUse">
<stop stop-color="#EFD983"/>
<stop offset="1" stop-color="#B1803D"/>
</linearGradient>
<linearGradient id="paint84_linear_8549_23195" x1="-51.937" y1="420.009" x2="964.094" y2="420.009" gradientUnits="userSpaceOnUse">
<stop stop-color="#EFD983"/>
<stop offset="1" stop-color="#B1803D"/>
</linearGradient>
<linearGradient id="paint85_linear_8549_23195" x1="-51.8713" y1="429.683" x2="934.74" y2="429.683" gradientUnits="userSpaceOnUse">
<stop stop-color="#EFD983"/>
<stop offset="1" stop-color="#B1803D"/>
</linearGradient>
<linearGradient id="paint86_linear_8549_23195" x1="-51.8055" y1="443.048" x2="881.572" y2="443.048" gradientUnits="userSpaceOnUse">
<stop stop-color="#EFD983"/>
<stop offset="1" stop-color="#B1803D"/>
</linearGradient>
<linearGradient id="paint87_linear_8549_23195" x1="-51.7836" y1="454.609" x2="847.836" y2="454.609" gradientUnits="userSpaceOnUse">
<stop stop-color="#EFD983"/>
<stop offset="1" stop-color="#B1803D"/>
</linearGradient>
<linearGradient id="paint88_linear_8549_23195" x1="-51.8274" y1="468.153" x2="780.1" y2="468.153" gradientUnits="userSpaceOnUse">
<stop stop-color="#EFD983"/>
<stop offset="1" stop-color="#B1803D"/>
</linearGradient>
<linearGradient id="paint89_linear_8549_23195" x1="-51.7836" y1="473.681" x2="568.92" y2="473.681" gradientUnits="userSpaceOnUse">
<stop stop-color="#EFD983"/>
<stop offset="1" stop-color="#B1803D"/>
</linearGradient>
<linearGradient id="paint90_linear_8549_23195" x1="-51.7836" y1="497.761" x2="180.471" y2="497.761" gradientUnits="userSpaceOnUse">
<stop stop-color="#EFD983"/>
<stop offset="1" stop-color="#B1803D"/>
</linearGradient>
<linearGradient id="paint91_linear_8549_23195" x1="295.985" y1="475.99" x2="500.462" y2="475.99" gradientUnits="userSpaceOnUse">
<stop stop-color="#EFD983"/>
<stop offset="1" stop-color="#B1803D"/>
</linearGradient>
<linearGradient id="paint92_linear_8549_23195" x1="1076.39" y1="432.887" x2="1606.64" y2="432.887" gradientUnits="userSpaceOnUse">
<stop stop-color="#EFD983"/>
<stop offset="1" stop-color="#B1803D"/>
</linearGradient>
<linearGradient id="paint93_linear_8549_23195" x1="1068.52" y1="439.878" x2="1606.64" y2="439.878" gradientUnits="userSpaceOnUse">
<stop stop-color="#EFD983"/>
<stop offset="1" stop-color="#B1803D"/>
</linearGradient>
<linearGradient id="paint94_linear_8549_23195" x1="1085.41" y1="457.195" x2="1608.85" y2="457.195" gradientUnits="userSpaceOnUse">
<stop stop-color="#EFD983"/>
<stop offset="1" stop-color="#B1803D"/>
</linearGradient>
<linearGradient id="paint95_linear_8549_23195" x1="1110.76" y1="474.69" x2="1618.67" y2="474.69" gradientUnits="userSpaceOnUse">
<stop stop-color="#EFD983"/>
<stop offset="1" stop-color="#B1803D"/>
</linearGradient>
<linearGradient id="paint96_linear_8549_23195" x1="1165.46" y1="500.851" x2="1618.71" y2="500.851" gradientUnits="userSpaceOnUse">
<stop stop-color="#EFD983"/>
<stop offset="1" stop-color="#B1803D"/>
</linearGradient>
<linearGradient id="paint97_linear_8549_23195" x1="1235.72" y1="517.956" x2="1608.79" y2="517.956" gradientUnits="userSpaceOnUse">
<stop stop-color="#EFD983"/>
<stop offset="1" stop-color="#B1803D"/>
</linearGradient>
<linearGradient id="paint98_linear_8549_23195" x1="1319.9" y1="539.142" x2="1608.81" y2="539.142" gradientUnits="userSpaceOnUse">
<stop stop-color="#EFD983"/>
<stop offset="1" stop-color="#B1803D"/>
</linearGradient>
<linearGradient id="paint99_linear_8549_23195" x1="1101.89" y1="467.21" x2="1604.67" y2="467.21" gradientUnits="userSpaceOnUse">
<stop stop-color="#EFD983"/>
<stop offset="1" stop-color="#B1803D"/>
</linearGradient>
<linearGradient id="paint100_linear_8549_23195" x1="1077.64" y1="452.3" x2="1604.69" y2="452.3" gradientUnits="userSpaceOnUse">
<stop stop-color="#EFD983"/>
<stop offset="1" stop-color="#B1803D"/>
</linearGradient>
<linearGradient id="paint101_linear_8549_23195" x1="1144.93" y1="489.453" x2="1608.79" y2="489.453" gradientUnits="userSpaceOnUse">
<stop stop-color="#EFD983"/>
<stop offset="1" stop-color="#B1803D"/>
</linearGradient>
<linearGradient id="paint102_linear_8549_23195" x1="1207.61" y1="510.087" x2="1606.66" y2="510.087" gradientUnits="userSpaceOnUse">
<stop stop-color="#EFD983"/>
<stop offset="1" stop-color="#B1803D"/>
</linearGradient>
<linearGradient id="paint103_linear_8549_23195" x1="1290.5" y1="530.655" x2="1606.66" y2="530.655" gradientUnits="userSpaceOnUse">
<stop stop-color="#EFD983"/>
<stop offset="1" stop-color="#B1803D"/>
</linearGradient>
<linearGradient id="paint104_linear_8549_23195" x1="1376.86" y1="552.427" x2="1604.62" y2="552.427" gradientUnits="userSpaceOnUse">
<stop stop-color="#EFD983"/>
<stop offset="1" stop-color="#B1803D"/>
</linearGradient>
<linearGradient id="paint105_linear_8549_23195" x1="1101.8" y1="421.472" x2="1608.81" y2="421.472" gradientUnits="userSpaceOnUse">
<stop stop-color="#EFD983"/>
<stop offset="1" stop-color="#B1803D"/>
</linearGradient>
<linearGradient id="paint106_linear_8549_23195" x1="1131.72" y1="483.112" x2="1613.54" y2="483.112" gradientUnits="userSpaceOnUse">
<stop stop-color="#EFD983"/>
<stop offset="1" stop-color="#B1803D"/>
</linearGradient>
<linearGradient id="paint107_linear_8549_23195" x1="-51.7836" y1="393.474" x2="1613.52" y2="393.474" gradientUnits="userSpaceOnUse">
<stop stop-color="#EFD983"/>
<stop offset="1" stop-color="#B1803D"/>
</linearGradient>
<linearGradient id="paint108_linear_8549_23195" x1="-51.7836" y1="318.484" x2="926.984" y2="318.484" gradientUnits="userSpaceOnUse">
<stop stop-color="#EFD983"/>
<stop offset="1" stop-color="#B1803D"/>
</linearGradient>
<linearGradient id="paint109_linear_8549_23195" x1="-51.7836" y1="263.446" x2="428.213" y2="263.446" gradientUnits="userSpaceOnUse">
<stop stop-color="#EFD983"/>
<stop offset="1" stop-color="#B1803D"/>
</linearGradient>
<linearGradient id="paint110_linear_8549_23195" x1="-47.4247" y1="268.161" x2="397.346" y2="268.161" gradientUnits="userSpaceOnUse">
<stop stop-color="#EFD983"/>
<stop offset="1" stop-color="#B1803D"/>
</linearGradient>
<linearGradient id="paint111_linear_8549_23195" x1="-47.4247" y1="272.487" x2="338.045" y2="272.487" gradientUnits="userSpaceOnUse">
<stop stop-color="#EFD983"/>
<stop offset="1" stop-color="#B1803D"/>
</linearGradient>
<linearGradient id="paint112_linear_8549_23195" x1="-47.3809" y1="280.209" x2="313.356" y2="280.209" gradientUnits="userSpaceOnUse">
<stop stop-color="#EFD983"/>
<stop offset="1" stop-color="#B1803D"/>
</linearGradient>
<linearGradient id="paint113_linear_8549_23195" x1="-51.7836" y1="287.933" x2="288.931" y2="287.933" gradientUnits="userSpaceOnUse">
<stop stop-color="#EFD983"/>
<stop offset="1" stop-color="#B1803D"/>
</linearGradient>
<linearGradient id="paint114_linear_8549_23195" x1="-47.4466" y1="286.079" x2="206.342" y2="286.079" gradientUnits="userSpaceOnUse">
<stop stop-color="#EFD983"/>
<stop offset="1" stop-color="#B1803D"/>
</linearGradient>
<linearGradient id="paint115_linear_8549_23195" x1="-47.4685" y1="291.802" x2="174.249" y2="291.802" gradientUnits="userSpaceOnUse">
<stop stop-color="#EFD983"/>
<stop offset="1" stop-color="#B1803D"/>
</linearGradient>
<linearGradient id="paint116_linear_8549_23195" x1="-47.4685" y1="288.697" x2="1608.76" y2="288.697" gradientUnits="userSpaceOnUse">
<stop stop-color="#EFD983"/>
<stop offset="1" stop-color="#B1803D"/>
</linearGradient>
<linearGradient id="paint117_linear_8549_23195" x1="-48.1914" y1="452.772" x2="1609.05" y2="452.772" gradientUnits="userSpaceOnUse">
<stop stop-color="#EFD983"/>
<stop offset="1" stop-color="#B1803D"/>
</linearGradient>
<linearGradient id="paint118_linear_8549_23195" x1="-48.7391" y1="409.798" x2="1074.33" y2="409.798" gradientUnits="userSpaceOnUse">
<stop stop-color="#EFD983"/>
<stop offset="1" stop-color="#B1803D"/>
</linearGradient>
<linearGradient id="paint119_linear_8549_23195" x1="-47.6876" y1="532.996" x2="1456.18" y2="532.996" gradientUnits="userSpaceOnUse">
<stop stop-color="#EFD983"/>
<stop offset="1" stop-color="#B1803D"/>
</linearGradient>
<linearGradient id="paint120_linear_8549_23195" x1="-47.7971" y1="562.8" x2="1609.75" y2="562.8" gradientUnits="userSpaceOnUse">
<stop stop-color="#EFD983"/>
<stop offset="1" stop-color="#B1803D"/>
</linearGradient>
<linearGradient id="paint121_linear_8549_23195" x1="1067.87" y1="422.253" x2="1608.89" y2="422.253" gradientUnits="userSpaceOnUse">
<stop stop-color="#EFD983"/>
<stop offset="1" stop-color="#B1803D"/>
</linearGradient>
<linearGradient id="paint122_linear_8549_23195" x1="872.94" y1="492.136" x2="1609.22" y2="492.136" gradientUnits="userSpaceOnUse">
<stop stop-color="#EFD983"/>
<stop offset="1" stop-color="#B1803D"/>
</linearGradient>
<linearGradient id="paint123_linear_8549_23195" x1="987.688" y1="327.151" x2="1275.89" y2="327.151" gradientUnits="userSpaceOnUse">
<stop stop-color="#EFD983"/>
<stop offset="1" stop-color="#B1803D"/>
</linearGradient>
</defs>
</svg>
