<svg width="24" height="24" viewBox="0 0 24 24" fill="none" xmlns="http://www.w3.org/2000/svg">
<path opacity="0.4" d="M16.9 22H7.10001C5.40001 22 4 20.61 4 18.9V5.10001C4 3.40001 5.39001 2 7.10001 2H16.9C18.6 2 20 3.39001 20 5.10001V18.9C20 20.61 18.61 22 16.9 22Z" fill="white"/>
<path d="M20 8H4V13H20V8Z" fill="white"/>
<path d="M8 18.7503C7.92 18.7503 7.83999 18.7403 7.75999 18.7303C7.67999 18.7103 7.6 18.6903 7.52 18.6503C7.45 18.6203 7.37 18.5803 7.31 18.5403C7.24 18.4903 7.17 18.4403 7.12 18.3803C6.88 18.1503 6.75 17.8303 6.75 17.5003C6.75 17.1703 6.88 16.8503 7.12 16.6203C7.17 16.5603 7.24 16.5103 7.31 16.4603C7.37 16.4203 7.45 16.3803 7.52 16.3503C7.6 16.3103 7.67999 16.2903 7.75999 16.2703C8.15999 16.1903 8.59 16.3303 8.88 16.6203C9.12 16.8503 9.25 17.1703 9.25 17.5003C9.25 17.8303 9.12 18.1503 8.88 18.3803C8.65 18.6203 8.33 18.7503 8 18.7503Z" fill="white"/>
<path d="M16 18.7506C15.92 18.7506 15.84 18.7406 15.76 18.7306C15.68 18.7106 15.6 18.6906 15.52 18.6506C15.45 18.6206 15.37 18.5806 15.31 18.5406C15.24 18.4906 15.17 18.4406 15.12 18.3806C14.88 18.1506 14.75 17.8306 14.75 17.5006C14.75 17.1706 14.88 16.8506 15.12 16.6206C15.17 16.5606 15.24 16.5105 15.31 16.4605C15.37 16.4205 15.45 16.3806 15.52 16.3506C15.6 16.3106 15.68 16.2905 15.76 16.2705C15.92 16.2405 16.08 16.2405 16.25 16.2705C16.32 16.2905 16.4 16.3106 16.48 16.3506C16.55 16.3806 16.63 16.4205 16.69 16.4605C16.76 16.5105 16.83 16.5606 16.88 16.6206C17.12 16.8506 17.25 17.1706 17.25 17.5006C17.25 17.8306 17.12 18.1506 16.88 18.3806C16.83 18.4406 16.76 18.4906 16.69 18.5406C16.63 18.5806 16.55 18.6206 16.48 18.6506C16.4 18.6906 16.32 18.7106 16.25 18.7306C16.16 18.7406 16.08 18.7506 16 18.7506Z" fill="white"/>
<path d="M14.5 5.75H9.5C9.09 5.75 8.75 5.41 8.75 5C8.75 4.59 9.09 4.25 9.5 4.25H14.5C14.91 4.25 15.25 4.59 15.25 5C15.25 5.41 14.91 5.75 14.5 5.75Z" fill="white"/>
</svg>
