<svg width="24" height="24" viewBox="0 0 24 24" fill="none" xmlns="http://www.w3.org/2000/svg">
<g clip-path="url(#clip0_11592_12516)">
<path opacity="0.4" d="M21.7372 10.0743L18.8857 7.67109V4.25959C18.8858 4.1758 18.8694 4.09282 18.8374 4.01538C18.8054 3.93794 18.7584 3.86757 18.6992 3.80829C18.64 3.749 18.5697 3.70197 18.4923 3.66989C18.4149 3.6378 18.332 3.62128 18.2482 3.62128H16.2274C16.1436 3.62117 16.0605 3.63761 15.983 3.66965C15.9056 3.70169 15.8351 3.7487 15.7759 3.80799C15.7166 3.86729 15.6695 3.9377 15.6375 4.01519C15.6055 4.09268 15.589 4.17573 15.5891 4.25959V4.89206L12.556 2.33551C12.4044 2.19277 12.2041 2.11328 11.996 2.11328C11.7878 2.11328 11.5875 2.19277 11.436 2.33551L2.26311 10.0743C2.14174 10.1873 2.0572 10.3342 2.02049 10.4959C1.98378 10.6576 1.9966 10.8266 2.05728 10.9809C2.11838 11.1343 2.22412 11.2658 2.36081 11.3583C2.4975 11.4509 2.65883 11.5003 2.82391 11.5001H4.15052V21.068C4.15052 21.5204 4.52133 21.8921 4.97548 21.8921H19.0248C19.2435 21.8916 19.453 21.8046 19.6077 21.65C19.7623 21.4954 19.8493 21.2858 19.8498 21.0671V11.5009H21.1764C21.3426 11.5011 21.5049 11.4508 21.6419 11.3566C21.7788 11.2624 21.8838 11.1288 21.943 10.9734C22.0031 10.8204 22.0156 10.6528 21.9789 10.4925C21.9422 10.3322 21.8579 10.1859 21.7372 10.0743ZM12.6226 18.8956C12.5395 19.0087 12.4309 19.1007 12.3056 19.1642C12.1803 19.2276 12.0418 19.2606 11.9014 19.2606C11.761 19.2606 11.6225 19.2276 11.4972 19.1642C11.3719 19.1007 11.2633 19.0087 11.1802 18.8956C10.0427 17.3298 7.9495 14.2474 7.9495 12.6659C7.95127 11.618 8.36883 10.6136 9.11049 9.87339C9.85215 9.13314 10.8573 8.71748 11.9052 8.71771C12.953 8.71748 13.9581 9.13314 14.6998 9.87339C15.4415 10.6136 15.859 11.618 15.8608 12.6659C15.8608 14.2474 13.7676 17.3298 12.6226 18.8956Z" fill="white"/>
<path d="M12 14.8906C13.3807 14.8906 14.5 13.7713 14.5 12.3906C14.5 11.0099 13.3807 9.89062 12 9.89062C10.6193 9.89062 9.5 11.0099 9.5 12.3906C9.5 13.7713 10.6193 14.8906 12 14.8906Z" fill="white"/>
</g>
<defs>
<clipPath id="clip0_11592_12516">
<rect width="20" height="20" fill="white" transform="translate(2 2)"/>
</clipPath>
</defs>
</svg>
