<svg width="24" height="24" viewBox="0 0 24 24" fill="none" xmlns="http://www.w3.org/2000/svg">
<path d="M19.7812 12C17.4609 12 15.5625 13.8984 15.5625 16.2188C15.5625 18.5391 17.4609 20.4375 19.7812 20.4375C22.1016 20.4375 24 18.5391 24 16.2188C24 13.8984 22.1016 12 19.7812 12ZM19.7812 19.0312C18.2344 19.0312 16.9688 17.7656 16.9688 16.2188C16.9688 14.6719 18.2344 13.4062 19.7812 13.4062C21.3281 13.4062 22.5938 14.6719 22.5938 16.2188C22.5938 17.7656 21.3281 19.0312 19.7812 19.0312Z" fill="white"/>
<path d="M4.21875 12C1.89839 12 0 13.8984 0 16.2188C0 18.5391 1.89839 20.4375 4.21875 20.4375C6.53911 20.4375 8.4375 18.5391 8.4375 16.2188C8.4375 13.8984 6.53911 12 4.21875 12ZM4.21875 19.0312C2.67192 19.0312 1.40625 17.7656 1.40625 16.2188C1.40625 14.6719 2.67192 13.4062 4.21875 13.4062C5.76558 13.4062 7.03125 14.6719 7.03125 16.2188C7.03125 17.7656 5.76558 19.0312 4.21875 19.0312Z" fill="white"/>
<path opacity="0.4" d="M5.625 7.78125H12.75V12H5.625V7.78125ZM16.2656 4.96875H14.8594C14.4707 4.96875 14.1562 4.65427 14.1562 4.26562C14.1562 3.87698 14.4707 3.5625 14.8594 3.5625H16.2656C16.6543 3.5625 16.9688 3.87698 16.9688 4.26562C16.9688 4.65427 16.6543 4.96875 16.2656 4.96875Z" fill="white"/>
<path opacity="0.4" d="M20.175 16.8067C20.0484 16.877 19.9218 16.9192 19.7813 16.9192C19.5563 16.9192 19.3313 16.8067 19.1907 16.6099L15.9 11.688C15.675 11.3645 15.7735 10.9286 16.0828 10.7036C16.4062 10.4926 16.8421 10.577 17.0672 10.9005L19.7813 14.9365L20.3718 15.8223C20.5828 16.1458 20.4984 16.5817 20.175 16.8067ZM12.0469 14.8098V17.6223H4.21875C3.44531 17.6223 2.8125 16.9895 2.8125 16.2161C2.8125 15.4426 3.44531 14.8098 4.21875 14.8098H12.0469Z" fill="white"/>
<path d="M16.2656 3.5625C15.8718 3.5625 15.5625 3.87183 15.5625 4.26562V6.375H13.4531C13.2141 6.375 13.0031 6.48755 12.8625 6.68433L10.214 10.5938H8.11406L5.87813 7.24688C5.5125 6.69844 4.90781 6.375 4.24692 6.375H0.703125C0.309328 6.375 0 6.68433 0 7.07812C0 8.87817 1.36402 10.3828 3.12183 10.5656L5.37187 13.9406C5.7375 14.4891 6.34219 14.8125 7.00308 14.8125H8.70469L9.1875 15.6984L9.60938 16.5421C9.94683 17.2031 10.6219 17.625 11.3813 17.625H12.4125C13.3546 17.625 14.1562 16.9641 14.3391 16.0359L14.4516 15.5438C15.0141 12.675 17.5593 10.5938 20.4844 10.5938C20.8782 10.5938 21.1875 10.2844 21.1875 9.89062V8.48438C21.1875 5.77031 18.9797 3.5625 16.2656 3.5625Z" fill="white"/>
</svg>
